<svg xmlns="http://www.w3.org/2000/svg" xml:space="preserve" width="200px" viewBox="0 0 2526.3 2528">
  <style>
    .st0{opacity:.35}.st1{fill:#371a45}.st3{opacity:.6}.st4{fill:#fefefe}.st5{fill:#ffdf00}.st7{fill:#fff}.st8{fill:#f9f9f9}.st14{opacity:.7}
  </style>
  <g class="st0">
    <path class="st1" d="M1673.3 775.3c-252.4-124.4-528-164.3-776-112.3-250.4 52.5-442.9 192.1-542 393.2-203.4 412.8 56.9 958.4 580.2 1216.3 24 11.8 48.2 22.9 72.6 33.2 232 98 479 126.1 703.4 79.1 250.4-52.5 442.9-192.1 542-393.3 203.4-412.7-56.8-958.3-580.2-1216.2z"/>
  </g>
  <path d="M2245.2 1736.1c-8.7 47.9-22.8 94.8-42.4 140.3-4.2 9.8-8.7 19.5-13.5 29.2-97.2 197.2-285.8 326.4-513.2 376.6-82.2 18.2-169.4 26-259.2 23.1-166.2-5.5-341.4-48-509.6-131-124.9-61.6-234.5-139.7-325.9-228.4-71.2-69.2-131.4-144.8-179.2-224.1C260.7 1486.9 228 1220 339.4 994c197.2-400.2 771.2-520.5 1282-268.8 441.3 217.6 691.1 641.6 623.8 1010.9z" fill="#f92323"/>
  <g class="st0">
    <path class="st1" d="M1921.3 929.3c222.9 263.6 298 595.5 163.8 868-83.8 170-235.6 289.5-421.7 351.4-201.4 67-420.2 53.7-616.4-27.2-27-11.1-53.9-23.3-80.6-36.4-304.5-150-517.7-398.3-598.7-659.2-39.9-128.6-35-268 21.1-390.4 2.4-5.3 4.9-10.6 7.5-15.8 92.2-187 272.4-317.2 507.4-366.5 207.4-43.5 435.5-19.5 651.7 67.1-4.8-2.1-9.5-4.3-14.3-6.3-222.7-94-459.2-121.2-673.7-76.2C632.3 687 452.1 817.2 360 1004.2c-.5 1-1 2.1-1.5 3.2 10.3-35 23.5-69.3 40-102.7 4.1-8.4 8.5-16.6 13-24.8-27.7 35-51.9 73.1-72.1 114.1-146 296.3-44.4 663 225.6 935.5l.7.7c7.1 7.1 14.2 14.2 21.5 21.1l.4.4c14.9 14.3 30.3 28.3 46.1 41.9.3.3.6.5.9.8 4.2 3.6 8.4 7.4 12.7 10.9 4.3 3.5 8.5 7 12.7 10.4 7.2 5.9 14.4 11.7 21.8 17.4.7.5 1.4 1.1 2.1 1.6 16.1 12.5 32.6 24.7 49.5 36.5 1.6 1.1 3.2 2.2 4.7 3.3 6.7 4.6 13.4 9.2 20.2 13.8 2.3 1.5 4.5 3 6.8 4.5 7.4 4.9 14.8 9.7 22.4 14.4l3.3 2.1c8.7 5.4 17.4 10.7 26.3 16 2 1.2 4 2.3 6 3.5 6.8 4 13.6 7.9 20.5 11.8 2.9 1.6 5.8 3.2 8.6 4.8 6.4 3.5 12.9 7 19.4 10.5 2.7 1.5 5.5 2.9 8.2 4.4 9.1 4.7 18.3 9.4 27.5 14 7.9 3.9 15.8 7.7 23.8 11.4l7.8 3.6c5.3 2.5 10.7 4.9 16 7.3 3.2 1.4 6.5 2.8 9.8 4.2 4.7 2.1 9.4 4.1 14.1 6.1 3.5 1.5 6.9 2.8 10.4 4.3 4.5 1.9 9 3.7 13.5 5.5 3.6 1.4 7.2 2.8 10.9 4.2 4.4 1.7 8.7 3.4 13.1 5.1 3.7 1.4 7.5 2.7 11.2 4.1 4.3 1.6 8.5 3.1 12.8 4.7l11.4 3.9c4.2 1.4 8.4 2.9 12.6 4.3 3.9 1.3 7.7 2.5 11.6 3.7 4.2 1.3 8.3 2.7 12.5 4 3.9 1.2 7.8 2.4 11.7 3.5 4.1 1.2 8.2 2.5 12.3 3.7 4 1.1 8 2.2 11.9 3.3 4.1 1.1 8.1 2.3 12.2 3.4 4 1.1 8.1 2.1 12.1 3.1s8 2.1 12 3.1c4.1 1 8.1 1.9 12.2 2.9 4 .9 7.9 1.9 11.9 2.8l12.3 2.7c3.9.8 7.8 1.7 11.7 2.5 4.2.8 8.3 1.6 12.4 2.4 3.8.7 7.7 1.5 11.5 2.2 4.2.8 8.4 1.5 12.5 2.2 3.8.7 7.6 1.3 11.4 1.9 4.2.7 8.5 1.3 12.7 2 3.7.6 7.4 1.1 11.2 1.7 4.3.6 8.6 1.2 12.9 1.7 3.6.5 7.3 1 10.9 1.4 4.3.5 8.7 1 13 1.5 3.6.4 7.2.8 10.7 1.2 4.4.4 8.8.9 13.1 1.2l10.5.9c4.4.4 8.8.7 13.3 1 3.4.2 6.8.5 10.2.7 4.5.3 8.9.5 13.4.7 3.3.2 6.7.3 10 .5 4.5.2 9 .3 13.5.5 3.2.1 6.5.2 9.7.2 4.6.1 9.1.1 13.7.2h9.4c4.6 0 9.2 0 13.9-.1 3 0 6-.1 9.1-.2 4.7-.1 9.4-.2 14.1-.4l8.7-.3c4.8-.2 9.5-.4 14.3-.7 2.8-.2 5.6-.3 8.3-.5 4.8-.3 9.7-.7 14.5-1 2.6-.2 5.3-.4 7.9-.7 4.9-.4 9.8-.9 14.7-1.4 2.5-.3 5-.5 7.5-.8 5-.5 10-1.1 14.9-1.7 2.4-.3 4.7-.6 7.1-.9 5.1-.7 10.1-1.3 15.2-2.1 2.2-.3 4.4-.7 6.6-1 5.2-.8 10.3-1.6 15.5-2.5 2-.3 4.1-.7 6.1-1.1 5.3-.9 10.5-1.9 15.8-2.9 1.9-.4 3.7-.7 5.6-1.1 5.4-1.1 10.7-2.2 16.1-3.3 1.6-.4 3.3-.7 4.9-1.1 5.5-1.2 11-2.5 16.5-3.8 1.4-.3 2.8-.7 4.3-1.1 5.7-1.4 11.3-2.8 16.9-4.3 1.2-.3 2.3-.6 3.5-1 5.8-1.6 11.7-3.2 17.4-4.9.9-.3 1.7-.5 2.6-.8 6-1.8 12.1-3.6 18.1-5.5.6-.2 1.1-.4 1.7-.5 6.3-2 12.5-4.1 18.7-6.2.2-.1.4-.1.5-.2 182.2-62.7 330.7-181.1 413.2-348.5 153.4-311 33.5-700-268-975.9z"/>
  </g>
  <path class="st1" d="M1452.8 2322.1c-183.7 0-374-45.3-552.6-133.4-250.3-123.3-448-315.8-556.8-541.9C233.9 1419.3 227.4 1185 325 987s287.4-335.6 534.5-387.4c245.6-51.5 518.7-11.9 769 111.4 250.3 123.3 448 315.8 556.9 541.9 109.5 227.5 116 461.8 18.4 659.8l-14.4-7.1 14.4 7.1c-97.6 198-287.4 335.6-534.4 387.4-70.5 14.8-143 22-216.6 22zm-377-1712.6c-71.4 0-141.7 7.1-209.8 21.3C628.8 680.5 446.8 812 353.7 1001c-193 391.6 58.6 911.5 560.7 1158.9 243.9 120.2 509.6 158.8 748.3 108.8 237.2-49.7 419.2-181.2 512.3-370.3 93.1-189 86.6-413.4-18.5-631.8-105.7-219.7-298.3-406.9-542.2-527.1-174.3-85.7-359.8-130-538.5-130z"/>
  <g class="st3">
    <path class="st4" d="M347.2 1034.5c92.2-187 272.4-317.2 507.4-366.5 214.5-45 451.1-17.8 673.7 76.2 23.5 9.9 46.9 20.6 70 32 478.7 235.9 728.3 720.6 578.2 1102.4 176.1-386.1-73.9-890.5-565.4-1132.7-23.1-11.4-46.5-22.1-70-32-222.7-94-459.2-121.2-673.7-76.2C632.3 687 452.1 817.2 360 1004.2c-7.6 15.5-14.5 31.2-20.7 47.1 2.5-5.6 5.1-11.2 7.9-16.8z"/>
  </g>
  <g class="st3">
    <path class="st4" d="M2081.3 1691.4s-249.8 660.1-1150.8 425.3c0-.1 777.2 179.7 1150.8-425.3z"/>
  </g>
  <g class="st0">
    <path class="st1" d="M2132 1622.6c-79.6-304-259.6-303.4-325.2-292.1-57-115.5-157-221.6-289.4-296l-164.1-177.3c-70.4-76-189.1-80.6-265.1-10.2L960.9 964.8c-111.5 37.3-202.5 109-252.7 211-9.2 18.6-16.7 37.6-22.7 57 0 .1 0 .1-.1.2-23.1 42.3-28.9 91.7-16.9 137.7v.1c.9 19.2 3 38.4 6.4 57.6C606.4 1563.2 473 1642 402 1721.8c47.8 79.3 108 154.9 179.2 224.1 87.1-38.8 178.1-128.7 238.2-233.4 10.8 12.2 22.2 24 34.2 35.6 55 53.4 120.8 100.3 196 137.3 34.4 16.9 69.2 31.1 104.2 42.5-19.9 72.9-29.1 239.6 247 346.8 0 0 5.6 12.8 16 30.7 89.8 3 177-4.9 259.2-23.1-4-74.9-58.7-160.1-102.6-218.6-32.1-42.6-47.8-80.2-52.2-115.6-3.8-30.4.9-59.3 10.7-88.5 8.4-25 23.4-47.4 43.1-65l74.5-66.4c28.6-25.5 65.9-40.2 104.3-39 24.3.8 47.7 7.6 72.6 21.6 23.3 13.1 48.1 32.5 76.3 59.2 76.9 73 207.3 175 300 106.4l42.4-140.3c-30.6-65.1-113.1-113.5-113.1-113.5z"/>
  </g>
  <g class="st0">
    <path class="st1" d="M2304.1 222.2c-16.1-18.9-38-27.3-52.7-30.9-1.3-20.6-10.6-32.2-19-38.5-23-17.2-59.5-10.4-81.5-3.9-22.1-76.4-71.6-100.9-110.7-107.6-46.9-8.1-94 7.3-128.4 39.2-6.4-.6-23.3-1.7-45.4.5-19.1 1.8-35.9 12.2-46.3 28.3-10.5 16.4-12.9 36.3-6.5 54.7 10.3 29.9 25 52 43.5 65.9.2.2.4.2.7.3 1.8 25.3 7.7 52 17.9 79.7 23.1 63.1 74.3 113.2 136.9 134 26 8.6 51.4 12.1 75.7 12.1 69.6 0 129.6-28.9 164-50 40.9-25 67.8-67.2 71.8-112.7 2.5-28.7-4.2-52.6-20-71.1z"/>
  </g>
  <path class="st5" d="M1877.9 264.8c-16.1-43.9-28.8-106.3-1.4-165.9 26.2-56.7 86.1-91.6 147.7-81 41.5 7.2 85.4 34.6 101.9 112.9 0 0 104.1-43.4 95.4 34.7 0 0 80.2 5.7 73 87-3.7 41.6-28.3 78.4-64 100.1-49 29.9-134.1 66.7-226 36.3-58.8-19.6-105.3-66-126.6-124.1z"/>
  <path d="M2286.2 204.8c-6.8 36.7-30.1 68.7-62.3 88.5-49 29.9-134.1 66.7-226 36.3-58.8-19.5-105.4-65.9-126.6-124-4-10.8-7.7-22.8-10.7-35.5-.8 35.2 7.6 68.3 17.3 94.8 21.3 58.1 67.9 104.5 126.6 124 91.9 30.4 177-6.3 226-36.3 35.6-21.8 60.3-58.6 64-100.1 1.8-20.3-1.9-35.7-8.3-47.7z" fill="#fa0"/>
  <path class="st7" d="M1719.3 1488.9 1314 1864.1c-84.3 78.1-215.9 73-294-11.3l-360.2-389.1c-78.1-84.3-73-215.9 11.3-294l405.3-375.2c84.3-78.1 215.9-73 294 11.3l360.2 389.1c78.1 84.4 73 216-11.3 294z"/>
  <path class="st1" d="M1172.8 1935.4c-60.3 0-120.4-24.1-164.5-71.7l-360.2-389.1c-40.7-43.9-61.8-101-59.5-160.8 2.3-59.8 27.7-115.1 71.7-155.8l405.3-375.2c43.9-40.7 101-61.9 160.8-59.5 59.8 2.3 115.1 27.7 155.8 71.7l360.2 389.1c83.9 90.6 78.5 232.7-12.2 316.6l-405.3 375.2c-43 39.9-97.6 59.5-152.1 59.5zm44.8-1180.2c-48.5 0-94.5 18-130.3 51.1L682 1181.5c-37.6 34.8-59.5 82.3-61.4 133.5-2 51.3 16.1 100.2 51 137.8l360.2 389.1c71.9 77.7 193.7 82.4 271.4 10.4l405.3-375.2c77.7-71.9 82.4-193.7 10.4-271.4l-360.2-389.1c-34.8-37.6-82.3-59.5-133.5-61.4h-7.6zm501.7 733.7z"/>
  <path class="st8" d="M116 1035.4c-13.6 23.4-25.3 47.3-35.5 71.9-10.3 24.4-19 49.3-26 74.6-7.1 25.2-12.6 50.8-16.3 76.5-3.6 25.7-5.3 51.7-5.2 77.6-.1 25.9 2 51.8 6 77.5 1.1 6.4 1.6 12.9 3.1 19.2l3.9 19.2c1.2 6.4 3.2 12.6 4.7 19 1.6 6.3 3 12.7 5.1 19 14.7 50.3 35.8 99.2 60.2 147.5-35.8-40.6-64.4-87.9-84.8-139.1-10-25.6-18.1-52.2-23.1-79.5-3-13.5-4.3-27.4-6.2-41.1-1-13.8-2.1-27.7-2-41.6 0-27.8 2.3-55.5 7.4-82.8 5.1-27.2 12.7-53.9 22.5-79.6 9.9-25.7 21.9-50.5 36.3-73.8 14.6-23.1 30.5-45.5 49.9-64.5z"/>
  <path class="st7" d="M685 1202.6c-22.3 340.5-436.4 407.1-349.9 598.9 117.6 260.9 502.4-82.1 520.6-368.7"/>
  <g class="st0">
    <path class="st1" d="M855.7 1432.8c-17.9 282.1-391 618.9-514.9 380.6 48.5 40.4 39.8-176.8 105.2-212.1 143.4-77.3 216.7 328 369.4-220.3l-130.5-176.1c.1-.8.1-1.5.2-2.2l170.6 230.1z"/>
  </g>
  <path class="st1" d="M463.8 1910.2c-63 0-113.2-35.4-143.3-102.2-46.1-102.4 33.2-171.2 125.1-251 99.5-86.3 212.2-184.1 223.4-355.6.6-8.8 8.1-15.5 17-14.9 8.8.6 15.5 8.2 14.9 17-12.1 184.8-135.3 291.7-234.4 377.7-97.9 84.9-151.6 136.7-116.9 213.6 29.5 65.3 77.2 92.5 141.9 80.7 70.7-12.9 154.5-72.2 224.3-158.7 72.9-90.4 118.1-194.3 123.8-285.2.6-8.8 8.1-15.6 17-15 8.8.6 15.5 8.2 15 17-6.2 97.3-53.9 207.8-130.9 303.2-74.5 92.3-165.5 155.9-243.5 170.1-11.4 2.3-22.6 3.3-33.4 3.3z"/>
  <path class="st5" d="m471.5 1759.9-13 9.8c-5.4 4-13 3-17-2.4l-220.4-292.8c-4-5.4-3-13 2.4-17l13-9.8c5.4-4 13-3 17 2.4l220.4 292.8c4.1 5.3 3 13-2.4 17z"/>
  <path class="st1" d="M243.8 1445.2c3.7 0 7.3 1.7 9.7 4.8l220.4 292.8c4 5.4 3 13-2.4 17l-13 9.8c-2.2 1.7-4.8 2.4-7.3 2.4-3.7 0-7.3-1.7-9.7-4.9l-220.4-292.8c-4-5.4-3-13 2.4-17l13-9.8c2.2-1.5 4.8-2.3 7.3-2.3m0-26.3c-8.4 0-16.4 2.7-23.1 7.7l-13 9.8c-17 12.8-20.4 37-7.6 53.9l220.4 292.8c7.2 9.6 18.7 15.3 30.8 15.3 8.4 0 16.4-2.7 23.1-7.7l13-9.8c8.2-6.2 13.5-15.2 15-25.4 1.4-10.2-1.2-20.3-7.4-28.5l-220.4-292.8c-7.2-9.6-18.7-15.3-30.8-15.3z"/>
  <path class="st7" d="m471.8 1752.1-220.4-292.8c-4-5.4-11.7-6.4-17-2.4l-13 9.8c-1 .8-1.8 1.7-2.5 2.6-.8-4.4.8-9 4.6-11.9l13-9.8c5.4-4 13-3 17 2.4l220.4 292.8c3.3 4.4 3.1 10.2.1 14.4-.3-1.8-1-3.5-2.2-5.1z" opacity=".5"/>
  <path d="m310 1657.8-.7-.5 5.3-6 4.6-6.6.7.5 92.7-105.8c2.4 3.7 176.8 172.8 239.7 233.8 12.7 12.3 14 32.1 3.1 46l-96.7 123.2c-10.9 13.9-30.5 17.3-45.4 7.9-74.1-46.6-279.8-175.9-284-177.3l80.7-115.2z" fill="#b3e5fc"/>
  <path d="M307.8 1783.8c33.5 20.5 153.8 96.1 201.2 125.9 11 6.9 25.5 4.4 33.6-5.8l71.5-91.1c8.1-10.3 7.1-24.9-2.3-34-40.2-39-142.2-137.9-170.1-165.6-3.8-3.8-10.1-3.4-13.5.8l-122.8 156.5c-3.3 4.2-2.2 10.5 2.4 13.3z" fill="#d329d3"/>
  <g class="st3">
    <path class="st4" d="M632.2 1848.3c10.9-13.9 9.5-33.7-3.1-46-62.9-60.9-237.3-230.1-239.7-233.8l-84 95.8 4.6-6.6-.7-.5 5.3-6 4.6-6.6.7.5 92.7-105.8c2.4 3.7 176.8 172.8 239.7 233.8 12.7 12.3 14 32.1 3.1 46l-96.7 123.2c-.6.8-1.4 1.5-2.1 2.2l75.6-96.2z"/>
  </g>
  <path class="st1" d="M531.6 1968.8c-8.7 0-17.5-2.4-25.3-7.3-168.5-105.9-273.8-171.8-282.5-176.5-3.3-1.5-5.8-4.4-7-7.9-1.3-3.9-.6-8.3 1.7-11.6l78.1-111.4c.5-2 1.5-3.9 2.9-5.5l4.8-5.5 4.2-6c1.2-1.7 2.8-3.1 4.6-4.1l89.6-102.3c2.7-3.1 6.8-4.7 10.9-4.5 3.7.3 7 2.1 9.3 4.9 6.6 7.3 97.8 96.1 238.5 232.5 17.6 17 19.4 44.3 4.3 63.6L569 1950.4c-9.3 12-23.2 18.4-37.4 18.4zM248.2 1769c24 14.6 89.3 55.2 272.1 170.2 9.2 5.8 21.3 3.7 28-4.9l96.7-123.2c6.7-8.6 5.9-20.8-1.9-28.4C488 1632.4 433 1578.6 413.2 1558.8l-83.4 95.1c-.8.9-1.6 1.6-2.5 2.2l-1.9 2.7c-.3.4-.6.8-.9 1.1l-2.2 2.5c-.4 1-.9 2-1.6 3L248.2 1769z"/>
  <path class="st7" d="m233.1 1775 182.4-232.3c8.2-10.4 6.4-25.6-4.1-33.8l-7.4-5.8c-10.4-8.2-25.6-6.4-33.8 4.1l-182.4 232.3c-8.2 10.4-6.4 25.6 4.1 33.8l7.4 5.8c10.5 8.2 25.6 6.3 33.8-4.1z"/>
  <path class="st1" d="M214.1 1797.4c-8.3 0-16.3-2.8-22.9-7.9l-7.4-5.8c-16.1-12.7-19-36.1-6.3-52.2L359.9 1499c6.1-7.8 15-12.8 24.8-14 9.9-1.2 19.6 1.5 27.4 7.7l7.4 5.8c16.1 12.7 19 36.1 6.3 52.2L243.4 1783c-6.1 7.8-15 12.8-24.8 14-1.5.3-3 .4-4.5.4zm175-286.3c-3.2 0-6.4 1.4-8.6 4.2l-182.4 232.3c-1.8 2.3-2.6 5.1-2.2 8 .3 2.9 1.8 5.5 4.1 7.3l7.4 5.8c2.3 1.8 5.1 2.6 8 2.2 2.9-.3 5.5-1.8 7.3-4.1l182.4-232.3c1.8-2.3 2.6-5.1 2.2-8-.3-2.9-1.8-5.5-4.1-7.3l-7.4-5.8c-2-1.5-4.3-2.3-6.7-2.3z"/>
  <g class="st0">
    <path class="st1" d="M213.8 1709.9s36.8 15.5 199.5-186.1l2.1 17.2-186.5 237.6-17.6 6.1-28.4-21.2s-8.9-11.4-4.5-16.9 35.4-36.7 35.4-36.7z"/>
  </g>
  <g class="st0">
    <path class="st1" d="m427.3 1557-81 114c-25.7 36.2-12.7 86.9 27.5 105.9 84.3 39.9 218.6 85.9 283.8 14.1l-.1 23-110.4 140.7-28.2-2.2L233.1 1775 416 1545.9l11.3 11.1z"/>
  </g>
  <g class="st0">
    <path class="st1" d="M218.9 1469.3s85.8 94.5 107.6 66.8l10.6 8.3s-41.2 56.1-41.6 53c-.4-3.1-80.8-122.6-80.8-122.6l4.2-5.5z"/>
  </g>
  <path class="st7" d="M268.7 1800.9s88.2-109.4 179.9-44.9c84.8 59.6 71.9 175.7 35.6 193.4-55.6 27-222.8 14.9-215.5-148.5z"/>
  <g class="st0">
    <path class="st1" d="M465.1 1774.5c7.3 44.3-5.6 85-26 94.9-35.5 17.2-116.7 18.4-168.7-25.7 18.3 127.2 162.8 135.4 213.7 110.7 33.8-16.4 47.3-117.7-19-179.9z"/>
  </g>
  <path class="st1" d="M425.7 1976.6c-35.3 0-74.5-8.9-106-29.6-32.6-21.4-70.7-64.3-67-146.8.2-3.4 1.4-6.7 3.5-9.3 33.8-41.9 119.3-105.8 201.6-47.9 57.2 40.2 73.6 103.5 69.9 149.4-2.8 35-16.5 61.7-36.6 71.5-16.8 8.1-40.1 12.7-65.4 12.7zM284.5 1807c-1 51.4 16.7 89.5 52.8 113.2 46.6 30.6 112.3 28.2 139.9 14.8 7.7-3.8 16.6-20.5 18.6-45.2 3-37-10.3-88.2-56.4-120.7-70.3-49.4-139 19.9-154.9 37.9z"/>
  <path d="M1899.8 54.3s-18.6-2.3-45.3.2c-31.9 3.1-52.1 35.4-41.7 65.6 7.6 21.9 19.7 45.3 39 59.7" fill="#ff5722"/>
  <path class="st1" d="M1851.8 195.9c-3.3 0-6.7-1-9.6-3.2-19-14.2-34-36.9-44.5-67.3-6.7-19.2-4.2-40.1 6.8-57.2 10.8-16.9 28.5-27.7 48.4-29.6 28.2-2.7 48-.3 48.9-.2 8.8 1.1 15 9.1 13.9 17.9-1.1 8.8-9.1 14.9-17.9 13.9-.5-.1-17.6-2-41.8.3-10.1 1-19.1 6.5-24.6 15.1-5.6 8.8-6.9 19.5-3.5 29.4 8.4 24.2 19.6 41.8 33.5 52.1 7.1 5.3 8.5 15.3 3.2 22.4-3.1 4.1-8 6.4-12.8 6.4z"/>
  <path class="st1" d="M2075.1 416.1c-24.2 0-49.7-3.5-75.6-12.1-62.5-20.7-113.6-70.7-136.6-133.7-24.4-66.6-24.7-126.5-.9-178.1 29.8-64.7 97.7-101.7 164.9-90 39 6.8 88.5 31.2 110.4 107.7 21.9-6.5 58.6-13.5 81.6 3.8 8.4 6.3 17.7 17.9 18.9 38.5 14.6 3.6 36.6 11.9 52.7 30.9 15.7 18.4 22.3 42.2 19.8 70.8-4 45.4-30.7 87.4-71.6 112.4-34.2 20.9-94.1 49.8-163.6 49.8zm-73-384.1c-46.3 0-90.2 28.3-111.1 73.6-20.1 43.7-19.5 95.4 1.8 153.7 19.7 53.9 63.3 96.7 116.6 114.3 83.6 27.7 161.8-3.6 212.6-34.7 32.2-19.7 53.3-52.5 56.4-87.9 1.7-19.7-2.4-35.6-12.3-47.2-16.8-19.8-45.6-22.3-45.9-22.3-4.3-.3-8.4-2.4-11.2-5.7-2.8-3.3-4.1-7.7-3.6-12 1.4-12.3-.6-20.5-5.8-24.5-12.8-9.6-47.9-1.9-67.5 6.3-4.4 1.8-9.4 1.6-13.6-.6-4.2-2.2-7.2-6.2-8.2-10.9-12.3-58.5-42.2-92.3-88.9-100.4-6.4-1.2-12.8-1.7-19.3-1.7z"/>
  <g class="st3">
    <path class="st4" d="M2105.9 292.4s61.3-99.2-58.2-89.1c0 .1 77.9 29.9 58.2 89.1"/>
  </g>
  <g class="st3">
    <path class="st4" d="M2222 189.1c2.8 3.4 7 5.6 11.4 5.9.2 0 19.4 1.7 35.5 13-.9-1.3-1.8-2.6-2.9-3.8-16.7-19.8-45.5-22.4-45.8-22.4-.6 0-1.1-.2-1.7-.3.6 2.8 1.7 5.4 3.5 7.6z"/>
  </g>
  <g class="st3">
    <path class="st4" d="M1906.5 272.3c-21.3-58.2-21.9-109.9-1.9-153.4 20.8-45.1 64.5-73.3 110.7-73.3 6.4 0 12.8.5 19.3 1.7 17.8 3.1 33.1 9.9 46 20.5-15.1-18.1-34.8-29.4-59.1-33.6-6.4-1.1-12.9-1.7-19.3-1.7-46.1 0-89.9 28.2-110.7 73.3-20.1 43.5-19.4 95.2 1.9 153.4 10.7 29.1 28.4 55 50.8 75.3-16.3-17.9-29.2-39-37.7-62.2z"/>
  </g>
  <g class="st3">
    <path class="st4" d="M2123.1 147.3c1 4.8 4.1 8.9 8.4 11.2 4.3 2.3 9.5 2.5 14 .6 16.4-6.8 43.5-13.3 59.3-9.6-.9-4.5-2.7-7.8-5.4-9.9-12.6-9.5-47.5-1.8-67.1 6.4-3 1.3-6.3 1.5-9.4.9.2.1.2.2.2.4z"/>
  </g>
  <path class="st1" d="M2043.7 204.5c4.3-2.9 9.1-5 14-6.7 4.9-1.8 10.1-3 15.5-3.8 10.6-1.5 22.3-.7 33.4 4.1 11.1 4.7 20.8 13.7 26.7 24.2 6 10.5 8.9 21.9 10.2 32.8v.2c0 .4.1.9.1 1.3-.1 3.9-.5 6.5-1 9.6-.5 3-1.2 5.8-2 8.7-1.8 5.7-4.1 11.2-7.2 16.4-6.2 10.4-15.3 19.2-25.9 24.6-10.7 5.3-22 7.3-32.9 7.4-5.4-.1-10.7-.9-15.9-1.6-5.1-1.3-10.2-2.7-15.1-4.4 5.2-1.2 10.1-2.1 15-2.9 4.8-1.5 9.6-2.4 14.1-3.9 9-3.1 17.1-7 23.7-12.1 6.4-5.4 11.4-11.6 14.8-18.9.9-1.8 1.5-3.7 2.4-5.6.6-1.9 1.2-3.9 1.7-5.9.5-2 1-4 1.2-6 .3-1.9.5-4.3.5-5.4l.1 1.5c-.9-8.8-2.9-17-6-24.2-3.2-7.2-7.8-13.1-14.3-17.6-6.5-4.6-14.9-7.7-24-9.4-9-2-18.8-2.6-29.1-2.4z"/>
  <circle class="st1" cx="1952.6" cy="130.8" r="21.7"/>
  <path class="st8" d="M251.9 2018.6c2.3 9.8 5.3 19.2 8.7 28.5 1.7 4.6 3.4 9.3 5.4 13.8 1.8 4.6 3.8 9.1 5.9 13.5 8.3 17.9 17.7 35.1 28.3 51.4 21.2 32.7 46.6 62.3 74.9 88.6 28.4 26.2 59.5 49.3 92.6 69.3 33.2 19.9 68.2 36.8 104.1 51.6 72.2 28.8 148.2 49.4 225.8 63.5 77.6 14.6 156.5 23.3 236.3 31.9-79.8 8-160.5 7.6-240.8-1.1-80.3-8.6-160.2-27.2-236.1-57.6-37.8-15.7-74.6-34.1-109.1-56.5-34.4-22.5-66.5-48.9-94.6-79.1-28.1-30.1-51.5-64.5-69.8-101.1-8.6-18.6-16.2-37.5-21.7-57.1-5.5-19.4-9.6-39.4-9.9-59.6zM206.4 2252c4.9 12.3 11 24 17.7 35.2 6.8 11.2 13.8 22.1 21.9 32.4 3.8 5.2 8 10.2 12.1 15.3 4.3 4.8 8.4 9.9 12.9 14.5 4.5 4.7 8.8 9.4 13.5 13.9 2.3 2.2 4.6 4.6 6.9 6.7l7.2 6.4c38.7 34.1 83.1 61 130.5 81.4 47.3 20.6 97.5 34.6 148.6 45.3 51.2 10.4 103.4 16.4 156.2 21.7-52.8 5-106.3 4.3-159.3-2.8-26.5-3.6-52.9-8.4-78.9-15.5-13.1-3.2-25.8-7.5-38.6-11.6-6.4-2-12.6-4.7-19-7-6.3-2.4-12.6-4.8-18.7-7.6-24.9-10.5-48.7-23.6-71.3-38.5-22.5-15-43.8-32.1-62.6-51.6-19-19.3-35.8-40.7-49.4-63.9-6.8-11.6-12.9-23.6-17.9-36-5.2-12.4-9.5-25.2-11.8-38.3zM2478.2 1583c8.2 16.3 14.6 33.5 20.4 50.9 5.8 17.4 10.4 35.2 14.4 53.2 7.8 36 12.3 72.9 13.2 110 1.8 74.3-11.8 149.9-41.7 219.1-3.9 8.5-7.7 17.2-11.9 25.6l-13.4 24.9c-2.2 4.2-4.8 8.1-7.3 12.1l-7.6 11.9c-2.6 3.9-5 7.9-7.7 11.8l-8.5 11.3-8.5 11.2c-2.8 3.8-5.6 7.5-8.8 11l-18.6 21.1c-3 3.6-6.4 6.8-9.7 10.1l-10 9.8c-6.7 6.5-13.3 13.1-20.6 18.9-56.6 48.5-121.6 85.4-190.5 109.2 61.3-39.4 118.8-82.6 168.1-133 6.5-6 12.1-12.8 17.9-19.3l8.8-9.8c2.9-3.3 5.9-6.5 8.5-10l16.2-20.6c2.8-3.3 5.3-7 7.7-10.6l7.4-10.8c19.5-28.8 36.9-59.1 50.3-91.1 27.5-63.8 42.9-132.8 47.2-203.2 2.3-35.2 1.8-70.8-.7-106.5-.4-9-1.5-17.8-2.2-26.8l-3.3-26.8c-1.1-8.9-2.5-17.9-4.1-26.8-1.4-9-3.1-17.9-5-26.8zM2067.9 515.4c-17.3 4.4-35.2 6.1-53.2 7-17.9.6-36-.1-54-2.5-35.9-4.5-71.7-15.8-103.2-35.5-15.6-9.9-30.4-21.5-42.7-35.5-12.3-13.9-23-29.3-30.9-46-15.8-33.3-22.2-69.9-20.9-105.5 7.7 34.8 18.6 68.2 35.9 97.5 8.9 14.5 19.2 27.8 30.9 39.9l9 8.8 9.7 8c6.6 5.1 13.3 10.2 20.6 14.5 28.5 17.9 61 29.7 94.6 37.3 16.9 3.7 34 6.7 51.4 8.6 17.4 1.9 35 3 52.8 3.4z"/>
  <g>
    <path class="st8" d="M2402.3 332c-.5 2.4.2 4.9.6 7.3l1.4 7.4c.9 5 1.4 10.1 1.9 15.2.7 10.3.3 20.8-1.5 31.3-3.6 20.9-13.9 41.8-29.8 57-7.9 7.6-16.9 14-26.4 19.1-4.9 2.2-9.6 4.8-14.7 6.4-2.5.9-5 1.9-7.5 2.6l-7.6 2c-20.3 5.1-41.1 5.9-61.3 2.8 19.4-6.2 38.3-11.8 55.6-19.6 8.8-3.7 16.9-8.2 24.8-12.9 7.7-5 14.8-10.4 21.2-16.6 12.8-12.3 22.3-27.8 28.5-45.4 3.2-8.8 5.5-18 7.6-27.6 1.1-4.8 1.9-9.7 2.8-14.6l1.5-7.5c.8-2 1.1-4.9 2.9-6.9z"/>
  </g>
  <g>
    <path class="st8" d="M2450.3 443.1c-1 1.9-.9 4.2-1.1 6.4l-.4 6.6c-.3 4.4-.9 8.9-1.5 13.4-1.5 8.9-3.8 17.8-7.5 26.3-7 17.1-19.5 32.8-35.7 42.9-8.1 5.1-16.8 8.9-25.7 11.6-9 2.4-18.2 4.2-27.3 4.4-18.3 1.1-36.3-1.5-53.3-7 17.8-1 35.2-2 51.8-5.2 8.3-1.5 16.4-3.8 24.2-6.4 7.7-2.9 15.1-6.4 21.9-10.7 13.7-8.5 24.7-20.7 33.2-35 4.2-7.2 7.8-14.9 11-22.9 1.7-4 3.1-8.1 4.7-12.2l2.4-6.2c.8-2.1 1.5-4.5 3.3-6z"/>
  </g>
  <g>
    <path class="st7" d="M2262.1 1786.1c-102.5 151.4-277.6 16.8-375.4-76.1-65.2-61.9-113.9-88.6-166.5-90.3-43-1.4-84.6 15-116.6 43.6l-83.2 74.2c-22 19.7-38.8 44.6-48.2 72.6-23.8 70.8-20.3 139.7 46.4 228.2 81.1 107.8 194.9 297.1 32.8 381.7-32.6 17-63 16.5-90.1 6.2-82.2-31.1-135.6-152-135.6-152-404.5-157-261.2-428.2-261.2-428.2-209.9-241.6-404.8-664-404.8-664l474.2-422.9s63.9 36.6 154.4 95.5c117.8 76.7 280.7 191.3 406.6 312.4 20.1 19.2 39.2 38.7 57 58.2 0 0 281.2-99.7 391 320 0 0 116.8 68.5 136.4 155.2 6.2 27.3 2.6 56.4-17.2 85.7z"/>
  </g>
  <g class="st0">
    <path class="st1" d="M2262.1 1786.1c-102.5 151.4-277.6 16.8-375.4-76.1-65.2-61.9-113.9-88.6-166.5-90.3-43-1.4-84.6 15-116.6 43.6l-83.2 74.2c-22 19.7-38.8 44.6-48.2 72.6-23.8 70.8-20.3 139.7 46.4 228.2 81.1 107.8 194.9 297.1 32.8 381.7-32.6 17-63 16.5-90.1 6.2 58.6-16.4 169.4-66.5 131.8-205.6-50.3-186.4-166.3-79.4-226.6-276-60.4-196.6 190.6-439.7 355.4-427.6 214.1 15.7 191 158.2 256.2 226.3 75.4 78.7 269.4 106.1 301.4-42.9 6 27.3 2.4 56.4-17.4 85.7z"/>
  </g>
  <g>
    <path class="st1" d="M1136.4 754.4c59 27.8 115.3 60.2 170.5 94.4 55.1 34.4 108.9 70.9 161.6 109.1 52.4 38.6 103.7 78.7 153.3 121.1 49.4 42.7 97.1 87.3 141.9 135.3l-17.1-4.3c3.8-1.3 6.6-2.1 9.8-2.9 3.1-.8 6.2-1.5 9.3-2.2 6.2-1.4 12.4-2.4 18.7-3.3 12.5-1.8 25-2.6 37.6-2.8 25.1 0 50.4 2.8 74.7 9.4 48.7 13.1 93.5 39.9 128.5 75.3 17.6 17.6 33.7 36.6 47.2 57.2 7.3 10 13.2 20.7 19.6 31.2 3.3 5.2 5.8 10.8 8.7 16.1l8.4 16.3c21.2 44 36.8 90.1 49.2 136.7l-7.4-9.8c11 6.6 20.7 13.3 30.6 20.6 9.8 7.2 19.3 14.7 28.6 22.7 18.5 15.9 35.8 33.4 50.9 53.4 14.8 20 27.8 42.8 33.7 68.9.6 3.3 1.5 6.5 1.9 9.8l1.1 10c.1 6.8.4 13.6-.6 20.3-.3 3.4-.7 6.8-1.5 10.1s-1.4 6.7-2.3 9.9c-2.1 6.4-4.2 12.9-7.3 18.8-2.6 6.2-6.3 11.7-9.7 17.3-3.5 5.4-7.4 10.3-11.1 15.4-4.1 4.9-8.2 9.7-12.6 14.4l-7 6.7-3.5 3.3-3.8 3.1-7.7 6.1c-2.6 2-5.5 3.6-8.2 5.5-5.4 3.8-11.5 6.5-17.3 9.5-12.2 5.2-24.9 9.5-38 11.1-13 1.9-26.2 2.3-38.9 1-6.5-.4-12.7-1.6-19-2.6-6.2-1.3-12.4-2.6-18.4-4.4-24.2-6.9-46.9-16.8-68.2-28.6-42.8-23.6-80.9-53.1-116.8-84.6-8.9-7.9-17.8-15.9-26.4-24.1-8.6-8.1-16.9-15.8-25.5-23.4-17.2-15.1-35.2-28.9-54.1-40.4-19-11.3-39-20-59.8-23.5-20.8-3.7-42.4-2.7-62.8 2.9-20.5 5.6-39.8 15.7-56.5 29-2.1 1.7-4.1 3.5-6.1 5.2l-6.6 5.8-13.1 11.7-26.3 23.5-26.3 23.5-13 11.6c-3.9 3.6-7.7 7.4-11.2 11.4-14.2 16-25 34.6-31.5 55.1-6.8 21.2-11.5 42.8-11.7 64.4l-.1 8.1.5 8.1c.1 5.4 1.2 10.7 1.8 16.1 1 5.3 2 10.6 3.4 15.9 1.6 5.2 2.7 10.5 4.7 15.6 7.1 20.7 17.4 40.5 29.6 59.4 3 4.7 6.1 9.5 9.5 14 3.4 4.6 6.5 9.1 10.1 14 7.1 9.5 14.1 19.2 20.9 29 27.1 39.3 52.2 80.5 70.7 125.7 9.3 22.5 16.6 46.2 20.7 71 1.1 6.2 1.6 12.5 2.2 18.8.3 6.4.8 12.7.4 19.2-.1 12.8-2.1 25.9-5.4 38.6-3.1 12.8-8.9 24.9-15.4 36.4-3.7 5.5-7.1 11.2-11.5 16.1-2.1 2.5-4.1 5.2-6.4 7.5l-6.9 6.9-3.5 3.4-3.7 3.1-7.5 6.2c-5.2 3.8-10.5 7.4-15.8 10.9-5.5 3.1-10.8 6.4-16.6 9.3-6 2.7-11.9 5.7-18.3 7.6-6.2 2.4-12.9 3.7-19.5 5.1-3.3.6-6.7.8-10.1 1.2-3.4.5-6.8.4-10.2.4-6.8.2-13.6-.8-20.3-1.8l-9.9-2.2c-3.3-.7-6.4-2-9.6-3-25.3-8.8-46.4-24.3-64.6-41.3-18.1-17.3-33.6-36.5-47.2-56.7-6.9-10.1-13.3-20.4-19.3-31-6-10.7-11.6-21.1-16.9-32.7l8.8 8.4c-45-17.6-89-38.6-130.2-64.9l-15.1-10.4c-5-3.5-10.2-6.8-15-10.7-9.7-7.6-19.5-14.9-28.6-23.4-4.5-4.2-9.4-8-13.6-12.6l-13-13.3c-4.3-4.5-8.2-9.4-12.3-14.1-2-2.4-4.1-4.7-6-7.1l-5.6-7.5c-30.2-39.7-50.2-88.3-55.3-138.6-2.5-25.1-1.5-50.5 2.5-75.3 2.2-12.4 4.9-24.6 8.6-36.7 1.8-6 3.8-12 6.1-17.9 1.1-3 2.3-5.9 3.6-8.9 1.3-3 2.5-5.7 4.3-9.2l2.1 18c-25.9-30-50.6-60.8-74.3-92.4-23.8-31.4-46.4-63.8-68.1-96.6-21.5-33-41.8-66.7-60.8-101.1-18.9-34.5-36.5-69.7-51.4-106.2-1.1-2.7.2-5.9 2.9-7 2.3-1 4.9-.2 6.4 1.8 23.5 31.6 45.3 64 66.9 96.4l64.5 97.3c21.4 32.4 43.4 64.4 66.1 95.8 22.8 31.3 46.6 61.9 71.9 91.1 4.4 5 5 12 2.2 17.6l-.2.3c-.9 1.8-2.2 4.5-3.2 6.9-1.1 2.5-2.1 5-3.1 7.6-2 5.2-3.7 10.5-5.4 15.8-3.2 10.7-5.7 21.6-7.6 32.7-3.5 22.1-4.4 44.6-2.2 66.7 4.5 44.3 21.9 86.9 49.1 122.8l5 6.8c1.8 2.2 3.7 4.3 5.5 6.5 3.7 4.2 7.2 8.7 11.1 12.8l11.9 12.1c3.8 4.2 8.4 7.7 12.6 11.6 8.3 7.8 17.5 14.7 26.5 21.7 4.4 3.7 9.3 6.7 14 10l14.2 9.8c38.9 24.8 81 45 124.4 62 4 1.6 7.1 4.6 8.8 8.3l.1.2c4.4 9.7 9.9 20.1 15.5 29.8 5.6 9.9 11.6 19.5 18 28.8 12.7 18.7 26.9 36.2 42.8 51.4 16 15 33.8 27.7 53.1 34.3 9.6 3.5 19.5 5.2 29.4 5.2 2.5.1 4.9.1 7.4-.3 2.5-.3 4.9-.4 7.4-.8 4.9-1.1 9.8-1.9 14.5-3.8 4.9-1.4 9.5-3.8 14.2-5.9 4.7-2.3 9.4-5.3 14.1-7.9 4.5-3 8.9-6 13.2-9.1l6.1-5.1 3.1-2.5 2.8-2.8 5.6-5.5c1.8-1.9 3.3-4 5-5.9 3.5-3.8 6-8.3 9-12.5 5-8.9 9.5-18.2 11.9-28.3 2.6-10 4.2-20.4 4.3-31 .3-5.3-.2-10.7-.3-16-.6-5.4-1-10.8-1.9-16.2-3.5-21.6-10.1-43.1-18.7-64-17.2-41.9-41.1-81.5-67.3-119.5-6.6-9.5-13.3-18.9-20.3-28.1-3.4-4.5-7-9.7-10.6-14.6-3.6-4.9-7-10-10.3-15.2-13.3-20.5-24.9-42.6-33-66.4-2.3-5.8-3.7-12-5.4-18.1-1.6-6.1-2.7-12.4-3.9-18.6-.7-6.3-2-12.6-2.1-18.9l-.6-9.5.1-9.5c.3-25.5 5.8-50.3 13.3-73.7 7.7-24.4 20.9-47.3 38-66.4 4.2-4.8 8.8-9.4 13.5-13.7l13.3-11.9 26.3-23.5 26.3-23.5 13.2-11.7 6.6-5.9c2.4-2.1 4.8-4.2 7.3-6.2 20-16 43.2-28.1 68.1-34.9 24.9-6.8 51.4-8 76.8-3.5 25.6 4.3 49.4 14.9 70.7 27.6 21.3 12.9 40.6 27.9 58.7 43.8 9 7.9 18 16.2 26.4 24.2 8.4 8 17 15.7 25.6 23.4 34.7 30.4 71.4 58.7 111 80.5 19.8 11 40.4 19.9 61.4 25.9 5.2 1.6 10.6 2.6 15.8 3.8 5.3.8 10.6 1.9 15.9 2.2 10.6 1.2 21.1.7 31.3-.7 10.3-1.3 20-4.7 29.4-8.6 4.5-2.4 9.3-4.4 13.5-7.5 2.1-1.4 4.4-2.7 6.5-4.3l6.1-4.9 3.1-2.4 2.8-2.8 5.7-5.5c3.6-3.9 7.1-8 10.6-12.1 3.1-4.4 6.6-8.7 9.5-13.1 2.6-4.4 5.6-8.7 7.5-13.4 2.4-4.5 3.8-9.3 5.5-14 .7-2.4 1.1-4.8 1.7-7.2.7-2.4.9-4.9 1.1-7.3 1.2-9.8.6-19.8-1.8-29.8-4.4-19.9-15-39.1-28-56.7-13.3-17.5-29.1-33.6-46.2-48.4-8.6-7.4-17.4-14.4-26.6-21.1-9.1-6.6-18.7-13.3-27.9-18.8l-.1-.1c-3.7-2.2-6.2-5.8-7.2-9.7-12-45.1-27.1-89.3-47.1-130.9l-8-15.3c-2.7-5.1-5.1-10.3-8.2-15.2-5.9-9.8-11.5-19.9-18.2-29.1-12.6-19.1-27.3-36.5-43.3-52.4-31.8-32.1-71.3-55.5-114.3-67.2-21.5-5.9-43.9-8.4-66.2-8.3-11.2.2-22.3.9-33.4 2.5-5.5.8-11 1.7-16.4 2.9-2.7.6-5.4 1.2-8 1.9-2.5.6-5.4 1.5-7.3 2.1l-.3.1c-6.2 2-12.7.1-16.9-4.4-43.5-46.7-90.8-90.2-139.7-131.8-24.9-20.3-49.6-40.9-75.2-60.3-25.1-20-51.2-39-77-58.2-51.9-38.1-104.8-75-157.8-111.6-53.1-36.6-106.4-73.1-159.3-110.5h-.1c-2.4-1.7-3-5-1.3-7.5 1.7-2 4.5-2.7 6.8-1.6z"/>
  </g>
  <g>
    <path class="st7" d="M1156.2 1599.7c-28.6 53.3-98.4 105.2-148.5 137.6-30 19.4-70.1 10.2-88.7-20.4-17-27.9-10.1-64.1 15.9-83.8 44.2-33.4 108.8-85.6 141.8-128.2"/>
    <g class="st0">
      <path class="st1" d="M1156.3 1599.6c-28.6 53.4-98.4 105.2-148.4 137.6-30 19.4-70.2 10.1-88.7-20.4-3.8-6.2-6.4-12.9-7.9-19.7 18.6 7.7 40.6 6.5 58.9-5.3 50-32.3 119.7-84.1 148.3-137.3l37.8 45.1z"/>
    </g>
    <path class="st1" d="M973.6 1763.4c-6 0-12-.7-17.9-2-21.1-4.8-39-17.7-50.2-36.2-21.4-35.1-12.8-80.1 19.9-104.8 65.1-49.2 114.3-93.6 138.8-125.2 5.1-6.6 20.6-19.6 53.8 2 33.4 21.6 73.1 71.6 52.4 110.2-29.9 55.7-100.2 108.7-153.9 143.4-13 8.3-27.8 12.6-42.9 12.6zm113.6-246c-34 42.7-96.1 93.2-142.7 128.4-19.5 14.8-24.6 41.7-11.9 62.7 6.7 11.1 17.4 18.8 30.1 21.7 12.6 2.9 25.5.6 36.3-6.4 71.5-46.2 122.3-92.9 143-131.7 5.7-10.6-3.2-26.8-7.3-33.2-15-24.1-38.6-39.5-47.5-41.5zm69 82.3z"/>
    <path class="st7" d="M1486.1 1325.2c57.6-18.4 121.3-77.6 162.3-121 24.5-26 22.7-67.1-3.9-91-24.3-21.8-61.2-21.6-85.2.4-40.9 37.4-104 91.4-151.8 116.1"/>
    <g class="st0">
      <path class="st1" d="M1648.4 1204.3c-40.9 43.3-104.6 102.5-162.3 120.9l-37.8-45.8c57.6-18.5 121.2-77.6 162-120.9 14.9-15.7 20.1-37 15.9-56.7 6.5 2.7 12.7 6.5 18.3 11.4 26.6 24 28.4 65.1 3.9 91.1z"/>
    </g>
    <path class="st1" d="M1476.5 1342.7c-36.5 0-70.8-41.4-84.3-73.9-15.2-36.6.4-49.5 7.9-53.3 35.5-18.3 88.2-58.7 148.4-113.7 30.2-27.7 76.1-27.9 106.7-.5 16.1 14.5 25.5 34.3 26.5 56 .9 21.6-6.8 42.2-21.6 57.9-43.9 46.5-108.8 106-169 125.2-5 1.6-9.8 2.3-14.6 2.3zm-58.7-100.3c.4 9.1 11.2 35.1 32.1 54.4 5.6 5.2 19.9 16.8 31.4 13.2 41.9-13.4 97.1-54.8 155.5-116.7 8.9-9.4 13.4-21.7 12.9-34.6-.5-12.9-6.2-24.8-15.8-33.5-18.3-16.4-45.7-16.3-63.8.3-43.2 39.4-104.2 91.3-152.3 116.9z"/>
    <path class="st7" d="m1397.5 1184.8 126.8 152.4c23.5 28.3 19.6 70.7-8.6 94.2L1235 1665c-28.2 23.5-70.6 19.6-94.2-8.7L1014 1503.9c-23.5-28.3-19.6-70.6 8.6-94.1l280.7-233.5c16.6-13.8 38.2-18.2 57.9-13.7 13.8 3.1 26.6 10.6 36.3 22.2z"/>
    <path class="st1" d="M1192.3 1696.4c-23.8 0-47.4-10.2-63.8-29.8l-126.8-152.4c-14.1-17-20.8-38.5-18.7-60.6 2-22.1 12.5-42 29.4-56.1l280.7-233.5c17-14.1 38.4-20.8 60.5-18.7 22.1 2 42 12.5 56.1 29.4l126.8 152.4c14.1 17 20.8 38.5 18.7 60.6-2 22.1-12.5 42-29.4 56.1l-280.7 233.5c-15.3 12.8-34.1 19.1-52.8 19.1zm153.6-519.6c-11.9 0-23.2 4.1-32.4 11.7L1032.9 1422c-10.4 8.6-16.8 20.9-18 34.5-1.2 13.6 2.8 26.8 11.5 37.2l126.8 152.4c17.9 21.6 50.1 24.5 71.6 6.6l280.7-233.5c10.4-8.6 16.8-20.9 18-34.5 1.2-13.6-2.8-26.8-11.5-37.2l-126.8-152.4c-8.6-10.4-20.9-16.8-34.5-18-1.6-.2-3.2-.3-4.8-.3z"/>
    <circle transform="rotate(-39.763 1368.443 1337.806)" cx="1368.6" cy="1337.9" fill="#22a7f0" r="57.7"/>
    <g class="st0">
      <path class="st1" d="M1536.2 1358.7c8.4 25.4 1.2 54.6-20.6 72.7L1235 1664.9c-28.2 23.5-70.6 19.6-94.2-8.7l-47.4-57c92.5-5.1 240.6-77.9 271.4-203.9-15.2-1-30-8-40.5-20.7-4.7-5.7-8.2-11.9-10.3-18.5 17.8 9.9 40.1 9.8 58.1-1.2 1.7-19.7-2.8-39.5-12.9-56.6-34.5-58.3-12.1-144.1 29.4-200.7 19.8-27 21.4-63.1 4.4-91.9-15.7-26.6-37.3-57.9-63.7-83.1l-228.8-98.9s83 0 186.9 13.7c122.5 79.8 291.8 198.9 422.8 324.8-9 94.6-71.5 180.3-174 196.5z"/>
    </g>
    <path class="st1" d="M1368.7 1407.5c-2.2 0-4.3-.1-6.5-.3-18.5-1.7-35.3-10.5-47.2-24.8-11.9-14.3-17.5-32.4-15.8-50.9 1.7-18.5 10.5-35.3 24.8-47.2 14.3-11.9 32.4-17.5 50.9-15.8 18.5 1.7 35.3 10.5 47.2 24.8 11.9 14.3 17.5 32.4 15.8 50.9-1.7 18.5-10.5 35.3-24.8 47.2-12.6 10.5-28.2 16.1-44.4 16.1zm-.2-115.3c-10.6 0-20.8 3.7-29.1 10.6-9.4 7.8-15.2 18.8-16.3 30.9-1.1 12.1 2.6 24 10.4 33.4 7.8 9.4 18.8 15.2 30.9 16.3 12.1 1.1 24-2.6 33.4-10.4 9.4-7.8 15.2-18.8 16.3-30.9 1.1-12.1-2.6-24-10.4-33.4-7.8-9.4-18.8-15.2-30.9-16.3-1.5-.1-2.9-.2-4.3-.2zM1349.2 1582c-3.4 0-6.9-1.5-9.2-4.3l-86.6-104.1-85.3 4.2c-3.8.2-7.4-1.4-9.8-4.3l-86.8-104.3c-4.2-5.1-3.5-12.7 1.5-16.9 5.1-4.2 12.7-3.5 16.9 1.5l82.9 99.7 85.3-4.2c3.8-.2 7.4 1.4 9.8 4.3l90.4 108.7c4.2 5.1 3.5 12.7-1.6 16.9-2.1 1.8-4.8 2.8-7.5 2.8z"/>
  </g>
  <g>
    <path class="st7" d="M1527.4 1350.3c-201-11.4-147.6-219-61.8-287.6l-2.3-1.6-116.4-80.1-1.6-1.2-188.9-146.4s388.8 0 523.8 142.2c130.3 137 51.5 386.2-152.8 374.7z"/>
  </g>
  <g class="st0">
    <path class="st1" d="M1519.6 996.4c-15 34.5-37.8 54-56.3 64.7L1346.9 981l-1.6-1.2c27.8 5.2 66.6 12.8 90.9 19.4 43.5 11.7 81.7-2.2 83.4-2.8z"/>
  </g>
  <g class="st0">
    <path class="st1" d="M1527.4 1350.3c-78.9-4.5-118.6-39.2-132.5-83.9 21.8 23.3 56.7 39.3 108.5 42.2 174.8 9.9 257.8-171.1 196.5-309.4 101.5 140.1 20.6 362-172.5 351.1z"/>
  </g>
  <g>
    <path class="st1" d="M1156.4 828.1c15.5-3.9 31-5.5 46.5-6.6 15.5-.9 31-1 46.4-.2 30.9 1.2 61.7 4.4 92.3 9.1 61.2 9.5 122.3 20.9 181.9 40 29.8 9.6 59.2 21 87.4 35.7 28.1 14.7 55.3 32.7 78.5 56.1 3.1 2.8 5.5 6 8.3 9 2.6 3.1 5.5 6 8 9.3 4.9 6.5 10 12.9 14.3 20 9.1 13.6 16.3 28.4 22.4 43.6 6.1 15.2 10.2 31.1 13.4 47.1 2.7 16.1 4.2 32.4 4 48.7-.6 32.6-7.1 65.2-20.1 95.3-12.9 30.1-32.2 57.9-57.2 79.7-12.5 10.9-26.1 20.6-41 28-3.7 2-7.3 3.9-11.2 5.4l-11.5 4.8c-7.9 2.4-15.7 5.5-23.8 7.1-16 4.2-32.5 5.6-48.8 6.4-16.4-.1-32.5-.7-48.7-3.7-8.1-1.1-16.1-3.3-24.2-5.3-8-2.7-16-5.1-23.7-8.8-15.5-7-30.3-16.9-42.3-29.8-12.1-12.8-21.2-28.5-26.7-45-5.6-16.5-7.8-33.7-7.6-50.4.4-33.6 9.3-65.8 23.2-95.2 14.1-29.3 33.1-56.6 59.4-78.3l.9 25.8c-19.9-13.5-40.6-25.7-59.8-40.2-9.6-7.2-19.1-14.6-28-22.9-4.5-4.1-8.8-8.4-13-13-4.2-4.5-8.2-9.2-11.9-14.5-1.8-2.6-1.2-6.1 1.4-7.9 1.4-1 3.1-1.2 4.6-.9 6.2 1.5 12.1 3.6 17.8 5.9 5.8 2.2 11.3 4.8 16.7 7.5 10.9 5.3 21.2 11.6 31.4 18 20.4 12.8 39.2 27.7 58.9 41.5h.1c7.3 5.1 9.1 15.1 4 22.4-.9 1.3-2 2.4-3.1 3.3-21.3 17.1-38.2 41.2-50.6 66.9-12.2 25.8-19.8 54.1-20.1 81.8-.4 27.6 7.7 54.4 25.7 73.2 8.9 9.5 20 16.9 32.3 22.6 6 3 12.7 5 19.3 7.2 6.8 1.6 13.5 3.6 20.6 4.5 14 2.6 28.5 3.1 42.7 3.2 14.2-.8 28.4-1.8 42-5.5 6.9-1.3 13.5-4 20.2-6l9.7-4.1c3.3-1.2 6.4-2.9 9.5-4.5 12.6-6.2 24-14.4 34.6-23.6 21.1-18.4 37.7-42.2 48.9-68.3 11.3-26.1 17-54.6 17.5-83.2.2-14.3-1.2-28.5-3.5-42.6-2.8-14-6.3-27.8-11.7-41.1-5.3-13.2-11.6-26.1-19.5-37.9-3.6-6.1-8.2-11.6-12.4-17.4-2.1-2.9-4.6-5.4-6.9-8.1-2.4-2.6-4.6-5.5-7.2-7.8-19.9-20.1-44.3-36.5-70.4-50.1-26.1-13.6-53.9-24.5-82.4-33.6-57.1-18.1-116.6-30.1-176.6-37.1l-90.3-10c-30.1-3.2-60.3-7.3-90.5-15.1h-.1c-2.9-.8-4.7-3.8-3.9-6.7.5-1.8 2.1-3.3 3.9-3.7z"/>
  </g>
  <g>
    <path class="st1" d="M1456.9 1049.3c1-1.2 2.8-2.9 4.2-4.3l4.8-4.5c3.2-3 6.4-6 9.7-9 6.4-6.1 13-12.1 19-18.7 6.1-6.6 11.7-13.7 16.7-21.4 5.4-7.6 9.3-16.2 13.8-25.3l.1-.2c.6-1.2 2-1.7 3.2-1.1.7.4 1.2 1 1.3 1.8 1.5 10.2 1.7 21.2-.6 31.7-2.1 10.5-5.6 21-10.6 30.6-4.9 9.7-10.8 18.9-18.1 26.9-3.7 4-7.5 7.8-11.8 11.1-2.1 1.7-4.3 3.3-6.6 4.8-2.4 1.6-4.5 2.8-7.6 4.4-7.9 3.9-17.4.7-21.3-7.2-2.8-5.7-1.9-12.2 1.7-16.9l2.1-2.7z"/>
  </g>
  <g>
    <path class="st7" d="M1256.1 494.9c-5 4.4-12.7 3.9-17.1-1.1l-230.9-262.7c-4.4-5-3.9-12.7 1.1-17.1 52.8-46.4 133.3-41.3 179.8 11.6l78.7 89.6c46.4 52.8 41.2 133.2-11.6 179.7z"/>
    <path class="st1" d="M1248.1 500.8h-1c-4-.3-7.7-2.1-10.3-5.1L1005.9 233c-2.6-3-4-6.9-3.7-10.9.3-4 2.1-7.7 5.1-10.3 26.1-23 59.7-34.4 94.4-32.1 34.7 2.2 66.5 17.9 89.5 44l78.7 89.6c23 26.1 34.4 59.6 32.1 94.4-2.2 34.7-17.9 66.5-44 89.5-2.8 2.3-6.3 3.6-9.9 3.6zm-155-315.7c-30.2 0-59.1 10.8-82 31-1.9 1.6-3 3.9-3.1 6.4-.2 2.5.7 4.9 2.3 6.7l230.9 262.7c1.6 1.9 3.9 3 6.4 3.1 2.5.2 4.9-.6 6.7-2.3 25-22 39.9-52.3 42-85.5 2.1-33.2-8.8-65.2-30.7-90.2l-78.7-89.6c-22-25-52.3-39.9-85.5-42.1-2.9-.1-5.6-.2-8.3-.2z"/>
    <g class="st0">
      <path class="st1" d="m1230.8 273.1 36.9 42c46.4 52.8 41.2 133.3-11.6 179.8-5 4.4-12.7 3.9-17.2-1.1l-61.4-69.8c4.2 1.9 9.3 1.3 13.1-1.9l6.2-5.5c41.8-36.7 53.8-94.7 34-143.5z"/>
    </g>
    <path class="st1" d="M1248.1 513.9c-.6 0-1.2 0-1.9-.1-7.5-.5-14.4-3.9-19.3-9.5L996.1 241.7c-5-5.6-7.4-12.9-6.9-20.4.5-7.5 3.9-14.4 9.5-19.3 28.8-25.3 65.6-37.9 103.9-35.4 38.2 2.5 73.2 19.7 98.5 48.4l78.7 89.6c25.3 28.8 37.8 65.6 35.4 103.9-2.5 38.2-19.7 73.2-48.4 98.5-5.3 4.4-11.9 6.9-18.7 6.9zm-225.4-290.4 225.7 256.8c20.6-19.4 32.9-45.5 34.8-73.9 1.9-29.7-7.8-58.3-27.5-80.7l-78.7-89.6c-19.6-22.3-46.8-35.7-76.5-37.6-28.5-1.8-55.9 7-77.8 25z"/>
    <path class="st7" d="M142.1 976c5-4.4 12.7-3.9 17.1 1.1l230.9 262.7c4.4 5 3.9 12.7-1.1 17.1-52.8 46.4-133.3 41.3-179.8-11.6l-78.7-89.6c-46.4-52.8-41.2-133.2 11.6-179.7z"/>
    <path class="st1" d="M305 1291.5c-36.2 0-72.2-14.9-97.9-44.2l-78.7-89.6c-47.4-54-42.1-136.4 11.8-183.8 3-2.6 6.9-3.9 10.9-3.7 4 .3 7.7 2.1 10.3 5.1L392.3 1238c2.6 3 4 6.9 3.7 10.9-.3 4-2.1 7.7-5.1 10.3-24.7 21.6-55.3 32.3-85.9 32.3zM150.1 975.9c-2.3 0-4.4.8-6.1 2.3-51.6 45.3-56.6 124.1-11.3 175.7l78.7 89.6c45.3 51.6 124.1 56.6 175.7 11.3 1.9-1.6 3-3.9 3.1-6.4.2-2.5-.7-4.9-2.3-6.7L157.1 979c-1.6-1.9-3.9-3-6.4-3.1h-.6zm-8 .1z"/>
    <g class="st0">
      <path class="st1" d="m326.1 1166.9 64 72.9c4.4 5 3.9 12.7-1.1 17.2-27.7 24.4-63.1 34.5-97.2 31-30.8-3.2-60.5-17.5-82.5-42.6l-33.2-37.7c44.1 19.9 97.8 13.6 136.5-20.4l9.6-8.4c3.5-3.2 4.8-7.7 3.9-12z"/>
    </g>
    <path class="st1" d="M305 1304.6c-39.8 0-79.5-16.5-107.8-48.7l-78.7-89.6c-52.2-59.4-46.3-150.2 13-202.3 5.6-5 12.9-7.4 20.4-6.9 7.5.5 14.4 3.9 19.3 9.5l230.9 262.7c5 5.6 7.4 12.9 6.9 20.4-.5 7.5-3.9 14.4-9.5 19.3-27.1 23.8-60.8 35.6-94.5 35.6zm-155.2-314c-43.4 40.9-47 109.4-7.3 154.6l78.7 89.6c39.7 45.1 108.1 50.5 154.2 12.6L149.8 990.6zm-7.7-14.6z"/>
    <circle transform="rotate(-37.246 699.198 735.442)" class="st7" cx="699.2" cy="735.4" r="596"/>
    <path class="st1" d="M699.9 1334c-180.9 0-359.7-81.4-477.4-236.2C22.6 835 73.9 458.6 336.7 258.7 599.6 58.9 976 110.1 1175.9 373c96.8 127.3 138.2 284.7 116.7 443.2-21.6 158.5-103.6 299.1-230.9 395.9-108.2 82.2-235.5 121.9-361.8 121.9zm-1.4-1191.5c-125.1 0-251.2 39.3-358.3 120.7C79.9 461.2 29.1 834 227 1094.4c197.9 260.3 570.7 311.1 831.1 113.2 126.1-95.9 207.3-235.1 228.7-392.1 21.4-157-19.7-312.9-115.5-439-116.5-153.3-293.7-234-472.8-234z"/>
    <g class="st0">
      <path class="st1" d="M1119.1 312.5c19.3 19.2 37.5 39.9 54.5 62.2 199.2 262 148.3 635.9-113.7 835.1-262 199.2-635.9 148.3-835.1-113.7-5.7-7.5-11.3-15.2-16.6-22.9 207.6 206.6 540.9 233.8 780.6 51.5 254.4-193.5 309.8-551.7 130.3-812.2z"/>
    </g>
    <path class="st1" d="M699.9 1347.1c-184.8 0-367.6-83.2-487.9-241.3C7.8 837.2 60.2 452.5 328.8 248.3 597.4 44 982.1 96.4 1186.3 365c98.9 130.1 141.3 291 119.2 452.9-22.1 162-105.9 305.6-236 404.6-110.4 84-240.5 124.6-369.6 124.6zm-1.4-1191.4c-122.4 0-245.6 38.5-350.3 118.1-254.6 193.5-304.3 558-110.7 812.6 193.5 254.6 558.1 304.2 812.7 110.7 123.3-93.8 202.7-229.9 223.6-383.4 20.9-153.5-19.2-305.9-113-429.3-113.9-149.9-287.2-228.7-462.3-228.7z"/>
    <path class="st1" d="M1181.3 388c72 91.8 109 200.3 113.4 310.8 3.3 82.8-81.2 298.4-273.7 452.2-178.5 142.6-417.2 175.1-496.8 152.2-106.2-30.5-202.8-92.3-274.8-184.1-190.5-242.8-60.9-507.1 196.5-709s544.9-264.9 735.4-22.1z"/>
    <path class="st1" d="M585.7 1325.9c-27 0-49.5-2.6-66-7.3-113.4-32.6-211.2-98.1-283-189.6-93.5-119.3-117.9-248.7-72.2-384.8C204.3 625.5 298.2 505.6 436 397.5c137.9-108.1 276.6-170.8 401.3-181.1 143-11.9 263 42.6 356.5 161.8 71.7 91.5 112.1 202.1 116.8 320 3.2 81.8-75.5 302.2-279.7 465.4-148.7 118.8-334.5 162.3-445.2 162.3zM875.9 246.3c-169.4 0-335 109.6-420.2 176.4C322.8 527 232.6 641.6 194.8 754.3c-42 125.2-19.4 244.6 67.1 354.9 67.6 86.1 159.8 147.9 266.6 178.6 75.9 21.8 308.4-10.3 482.4-149.3 192.9-154.1 270.6-365.3 267.7-439.1-4.4-111.1-42.4-215.4-110-301.5-87.8-112-190.9-151.6-292.7-151.6z"/>
    <g class="st14">
      <ellipse transform="rotate(-27.839 1004.032 473.858)" class="st7" cx="1004" cy="473.9" rx="76.4" ry="105.5"/>
    </g>
    <g class="st14">
      <ellipse transform="rotate(-19.898 1059.156 695.895)" class="st7" cx="1059.3" cy="696" rx="41.5" ry="48.4"/>
    </g>
    <g class="st0">
      <path d="M913 232.6c99.6 9.7 191.8 57.9 268.3 155.4 72 91.8 109 200.3 113.4 310.8 3.2 82.8-81.2 298.4-273.7 452.3-68 54.3-144.6 92.6-218 118 232.6-194.1 334.8-457.6 330.7-560.3-5.5-140.2-52.5-278-143.9-394.4-24.3-31.2-50.1-58.3-76.8-81.8z" fill="#111a28"/>
    </g>
    <g>
      <path class="st1" d="M122 900.5h-.7c-8.4-.4-15-7.2-15.3-15.5-12.5-185.6 92.8-380.3 289.1-534.3C590 197.9 802.3 139.7 977.8 191c7.1 1.6 12.4 8 12.4 15.6 0 8.8-7.2 16-16 16-.5 0-1.1 0-1.6-.1-1-.1-2.1-.3-3.1-.6-165.6-48.7-367.8 7.4-554.7 154C226.9 523.4 126 708.3 138 883.3V885.2c-.4 8.6-7.5 15.3-16 15.3zm-.3-16h.3-.3zm852.4-678z"/>
    </g>
    <g class="st14">
      <path class="st7" d="M467.3 1181.5S204.2 1001 258.4 804.2s240.3-342 245.3-326.7c0 0-166.6 211.1-119.5 436.7 36.2 174 83.1 267.3 83.1 267.3z"/>
    </g>
  </g>
  <g>
    <path class="st1" d="M2040.6 1700.1c12.5-10.6 24.2-21.9 34.7-33.8 10.7-11.8 20.1-24.4 28-37.4 7.8-13 13.6-26.7 17.6-40.3 4.1-13.7 5.5-27.6 6.1-42v-.7c.4-8.9 7.9-15.7 16.7-15.4 7.7.3 13.9 6 15.1 13.3 3.2 18.3 1.1 37.7-4.9 55.2-5.9 17.7-16 33.2-27.3 46.8-11.5 13.5-24.7 25-38.8 34.8-14.2 9.6-29 17.8-45.1 23.5-1.2.4-2.5-.2-2.9-1.4-.3-.9 0-1.9.7-2.5l.1-.1z"/>
  </g>
  <g>
    <path class="st1" d="M1485.7 2173.9c-5.9 16-14.3 30.7-24.2 44.8-9.9 13.9-21.7 26.9-35.4 38.2-13.7 11.2-29.4 21-47.2 26.6-17.6 5.8-37 7.5-55.3 4.1-8.7-1.6-14.4-10-12.8-18.8 1.4-7.6 7.9-12.9 15.3-13.1h.7c14.4-.4 28.3-1.6 42.1-5.5 13.7-3.8 27.5-9.4 40.6-17 13.1-7.7 25.8-16.9 37.8-27.4 12-10.4 23.6-21.9 34.3-34.2l.1-.1c.8-1 2.3-1.1 3.3-.2.8.7 1 1.7.7 2.6z"/>
  </g>
  <g>
    <path class="st1" d="M1722 1048.7c-3.1 0-6.1-1.2-8.5-3.5-86.4-85.8-202.1-8.4-206.9-5.1-5.5 3.7-12.9 2.3-16.7-3.1-3.7-5.5-2.4-12.9 3.1-16.7 1.4-.9 136.8-92 237.4 7.9 4.7 4.7 4.7 12.3.1 17-2.3 2.3-5.4 3.5-8.5 3.5z"/>
  </g>
  <g>
    <path class="st1" d="M744 1718.9c-4.4 0-8.6-2.4-10.7-6.6-46.7-92.7-206.8-200-208.4-201.1-5.5-3.7-7-11.1-3.3-16.6 3.7-5.5 11.1-7 16.6-3.3 6.8 4.5 167 111.9 216.5 210.3 3 5.9.6 13.1-5.3 16.1-1.8.7-3.6 1.2-5.4 1.2z"/>
  </g>
  <g>
    <path class="st1" d="M1813.4 1663c-5.6 0-10.6-4-11.8-9.7-1.3-6.9-31.9-169.3 38.5-287.9 73.8-124.1 192.3-66.8 193.5-66.2 5.9 3 8.3 10.2 5.4 16.1-3 5.9-10.2 8.3-16.1 5.4-4-2-99.9-47.7-162.2 57-65.7 110.6-35.9 269.4-35.6 271 1.3 6.5-3 12.8-9.5 14.1-.7.1-1.4.2-2.2.2z"/>
  </g>
</svg>