<svg xmlns="http://www.w3.org/2000/svg" width="20" height="20" viewBox="0 0 30 30"><g transform="translate(-39.385)"><g transform="translate(39.385)"><path d="M59.73,13.91a7.4,7.4,0,0,0,3.746-6.218C63.476,3.451,59.4,0,54.385,0s-9.091,3.451-9.091,7.692A7.4,7.4,0,0,0,49.04,13.91c-5.639,1.826-9.655,6.453-9.655,11.859,0,2.333,2.243,4.231,5,4.231h20c2.757,0,5-1.9,5-4.231C69.385,20.363,65.369,15.737,59.73,13.91ZM48.021,7.692c0-2.969,2.855-5.385,6.364-5.385s6.364,2.416,6.364,5.385-2.855,5.385-6.364,5.385S48.021,10.661,48.021,7.692Zm16.364,20h-20a2.122,2.122,0,0,1-2.273-1.923c0-5.726,5.505-10.385,12.273-10.385s12.273,4.658,12.273,10.385A2.122,2.122,0,0,1,64.385,27.692Z" transform="translate(-39.385)" fill="#fff"/></g></g></svg>