<svg xmlns="http://www.w3.org/2000/svg" width="20" height="28" viewBox="0 0 26.459 34.723">
  <g id="bell" transform="translate(-4.38 -2)">
    <path id="Path_194" data-name="Path 194" d="M17.61,36.723a5.208,5.208,0,0,0,5.208-5.208h8.021L29.572,29a14.9,14.9,0,0,1-1.545-6.58V19.362a10.416,10.416,0,0,0-5.988-9.426,5.087,5.087,0,0,0,.779-2.727,5.208,5.208,0,1,0-10.417,0,5.087,5.087,0,0,0,.781,2.726,10.417,10.417,0,0,0-5.99,9.427v3.056A14.9,14.9,0,0,1,5.647,29L4.38,31.515H12.4A5.208,5.208,0,0,0,17.61,36.723Zm0-31.251a1.736,1.736,0,1,1-1.736,1.736A1.736,1.736,0,0,1,17.61,5.472Zm1.736,26.042a1.736,1.736,0,1,1-3.472,0Z" transform="translate(0 0)" fill="#fff"/>
  </g>
</svg>
