<svg xmlns="http://www.w3.org/2000/svg" width="12.771" height="8.264" viewBox="0 0 12.771 8.264">
  <g id="caret" transform="translate(0 100.286)">
    <g id="Group_1" data-name="Group 1" transform="translate(0 -100.286)">
      <path id="Path_192" data-name="Path 192" d="M12.389-99.779a1.636,1.636,0,0,1-.082,2.19L7.434-92.475a1.448,1.448,0,0,1-1.051.453,1.448,1.448,0,0,1-1.051-.453L.46-97.578a1.647,1.647,0,0,1-.082-2.19,1.445,1.445,0,0,1,2.153-.054l3.121,3.269a.994.994,0,0,0,1.453,0l3.121-3.269A1.448,1.448,0,0,1,12.389-99.779Z" transform="translate(0 100.286)" fill="#fff"/>
    </g>
  </g>
</svg>
