<svg xmlns="http://www.w3.org/2000/svg" width="27.369" height="25.552" viewBox="0 0 27.369 25.552">
  <g id="chat" transform="translate(0 -16.996)">
    <path id="Path_347" data-name="Path 347" d="M17.811,22.237A9.388,9.388,0,0,0,0,26.351a9.254,9.254,0,0,0,.895,4l-.879,4.4a.8.8,0,0,0,.942.944l4.452-.88a9.223,9.223,0,0,0,1.857.65A10.97,10.97,0,0,1,17.811,22.237Z" transform="translate(0)" fill="#fff"/>
    <path id="Path_348" data-name="Path 348" d="M179.349,158.355a9.325,9.325,0,0,0,.4-.99h-.029a9.365,9.365,0,0,0-8.423-12.352h0a9.354,9.354,0,1,0-.449,18.7,9.252,9.252,0,0,0,3.986-.9c4.875.964,4.5.9,4.607.9a.8.8,0,0,0,.786-.959Z" transform="translate(-152.874 -121.164)" fill="#fff"/>
  </g>
</svg>
