<svg xmlns="http://www.w3.org/2000/svg" width="20" height="20" viewBox="0 0 28.956 29.166"><g transform="translate(-1.842)"><path d="M24.352,2.5H23.273V1.339A1.34,1.34,0,0,0,21.935,0H9.988a.427.427,0,1,0,0,.854H21.935a.485.485,0,0,1,.484.484V2.5H5.6A1.34,1.34,0,0,0,4.26,3.84V25.81H3.181a.485.485,0,0,1-.484-.484V1.339A.485.485,0,0,1,3.181.854H7.99A.427.427,0,0,0,7.99,0H3.181A1.34,1.34,0,0,0,1.842,1.339V25.326a1.34,1.34,0,0,0,1.339,1.339H4.26v1.162A1.34,1.34,0,0,0,5.6,29.166H24.352a1.34,1.34,0,0,0,1.339-1.339V3.84A1.34,1.34,0,0,0,24.352,2.5Zm.484,25.326a.485.485,0,0,1-.484.484H5.6a.485.485,0,0,1-.484-.484V3.84A.485.485,0,0,1,5.6,3.355H24.352a.485.485,0,0,1,.484.484Z" transform="translate(0 0)" fill="#fff"/><path d="M104.583,105.236a1.7,1.7,0,1,0,1.7,1.7A1.705,1.705,0,0,0,104.583,105.236Zm0,2.552a.849.849,0,1,1,.849-.849A.85.85,0,0,1,104.583,107.788Z" transform="translate(-95.282 -99.241)" fill="#fff"/><path d="M189.555,111.988h-9.531a.427.427,0,0,0,0,.854h9.531a.427.427,0,1,0,0-.854Z" transform="translate(-167.629 -105.609)" fill="#fff"/><path d="M180.024,144.139h7.467a.427.427,0,0,0,0-.854h-7.467a.427.427,0,0,0,0,.854Z" transform="translate(-167.629 -135.123)" fill="#fff"/><path d="M104.583,201.614a1.7,1.7,0,1,0,1.7,1.7A1.705,1.705,0,0,0,104.583,201.614Zm0,2.552a.849.849,0,1,1,.849-.849A.85.85,0,0,1,104.583,204.166Z" transform="translate(-95.282 -190.129)" fill="#fff"/><path d="M189.555,208.366h-9.531a.427.427,0,1,0,0,.854h9.531a.427.427,0,1,0,0-.854Z" transform="translate(-167.629 -196.497)" fill="#fff"/><path d="M180.024,240.517h7.467a.427.427,0,1,0,0-.854h-7.467a.427.427,0,0,0,0,.854Z" transform="translate(-167.629 -226.011)" fill="#fff"/><path d="M104.583,297.992a1.7,1.7,0,1,0,1.7,1.7A1.705,1.705,0,0,0,104.583,297.992Zm0,2.552a.849.849,0,1,1,.849-.849A.85.85,0,0,1,104.583,300.544Z" transform="translate(-95.282 -281.017)" fill="#fff"/><path d="M189.555,304.744h-9.531a.427.427,0,1,0,0,.854h9.531a.427.427,0,1,0,0-.854Z" transform="translate(-167.629 -287.384)" fill="#fff"/><path d="M180.024,336.9h7.467a.427.427,0,1,0,0-.854h-7.467a.427.427,0,0,0,0,.854Z" transform="translate(-167.629 -316.899)" fill="#fff"/><path d="M104.583,394.37a1.7,1.7,0,1,0,1.7,1.7A1.705,1.705,0,0,0,104.583,394.37Zm0,2.552a.849.849,0,1,1,.849-.849A.85.85,0,0,1,104.583,396.922Z" transform="translate(-95.282 -371.905)" fill="#fff"/><path d="M189.555,401.122h-9.531a.427.427,0,1,0,0,.854h9.531a.427.427,0,1,0,0-.854Z" transform="translate(-167.629 -378.272)" fill="#fff"/><path d="M187.491,432.419h-7.467a.427.427,0,0,0,0,.854h7.467a.427.427,0,1,0,0-.854Z" transform="translate(-167.629 -407.787)" fill="#fff"/><path d="M440.875,130.677h-1.647A1.353,1.353,0,0,0,438,132.134c0,.612,0,4.591,0,5.537a.427.427,0,0,0,.854,0v-3.544h2.4v10.365h-2.4v-4.827a.427.427,0,0,0-.854,0v5.254a.442.442,0,0,0,.035.17h0l1.373,3.166a.687.687,0,0,0,1.293,0l1.373-3.166h0a.442.442,0,0,0,.035-.169V132.134A1.361,1.361,0,0,0,440.875,130.677Zm-2.024,2.6v-1.139c0-.341.192-.6.378-.6h1.647c.179,0,.378.248.378.6v1.139Zm1.2,14.326-.977-2.252h1.954Z" transform="translate(-411.309 -123.233)" fill="#fff"/></g></svg>