<svg xmlns="http://www.w3.org/2000/svg" width="20" height="30" viewBox="0 0 27.435 37.723">
  <g id="flameWhite" transform="translate(-112 -1)">
    <path id="Path_193" data-name="Path 193" d="M13.718,37.723A13.646,13.646,0,0,1,0,24.15Q0,19.957,4.29,12.9C7.15,8.2,5.878,14.5,9.1,10.736Q12.329,6.971,13.718,0,27.435,16.653,27.435,24.15A13.646,13.646,0,0,1,13.718,37.723Zm.508-2.039a7.018,7.018,0,0,0,7.113-6.918q0-3.821-7.113-12.453Q7.113,24.945,7.113,28.766A7.018,7.018,0,0,0,14.226,35.684Z" transform="translate(112 1)" fill="#fff" fill-rule="evenodd"/>
  </g>
</svg>
