<svg id="Hero-image" xmlns="http://www.w3.org/2000/svg" width="903" height="707.18" viewBox="0 0 903 707.18">
  <path id="Path_1" data-name="Path 1" d="M784.527,475.322h-720c-2.455,0-10.391-41.645-10.909-44.536-2.509-11.536-4.445-23.127-6.327-34.745C29.51,286.813,40.528,153.313,122.865,70.759,187.255,5.986,275.619-5.768,360.928,18.723c64.445,18.518,119.1,59.209,182.209,79.091,56.891,18.027,99.218-6.736,155.454,0,69.382,8.345,126.273,51.354,134.591,176.209S784.527,475.322,784.527,475.322Z" transform="translate(68.988 11.772)" fill="#fff"/>
  <path id="Path_2" data-name="Path 2" d="M270.665,72.6s-56.891,2.318-72.6,19.091-66.6,114.245-75.382,133.2-17.564,40.227-17.564,40.227,9.245-5.1,46.364,7.855,43.009,19.091,43.009,19.091l16.636-30.518s-1.391,109.091-.464,111.818,240.491-.464,243.272-3.245-17.1-158.182-17.1-158.182l37.009,74.454a113.892,113.892,0,0,1,46.718-15.273c25.445-1.855,36.082-1.855,36.082-1.855s-27.273-91.582-54.109-139.091S448.892,78.842,417.992,72.9,343.074,62.26,343.074,62.26,275.738,67.005,270.665,72.6Z" transform="translate(181.451 107.407)" fill="#f23e6e"/>
  <path id="Path_3" data-name="Path 3" d="M335.8,251.916H189.758c-39.545-3.3-74.018-8.182-84.191-15.955-21.464-16.118,4.418-74.209,17.236-99.627,5.727-.464,18.027.382,41.973,8.755s35.1,13.936,39.791,16.745l-6.682,16.8-.655,1.636v.218a236.866,236.866,0,0,0,26.645,14.154,498.526,498.526,0,0,0,47.564,19.091,177.9,177.9,0,0,1,58.173,32.345C332.04,248.261,334.113,250.143,335.8,251.916Z" transform="translate(168.022 235.179)" fill="#ffa896"/>
  <path id="Path_4" data-name="Path 4" d="M268.034,176.226s-41.618-.927-43.936,1.391-85.091,62.891-85.091,62.891a24.845,24.845,0,0,1,1.691,11.264,12.219,12.219,0,0,1-2.727,6.3l187.309,14.345,100.364-80.482V178.053Z" transform="translate(238.192 303.941)" fill="#fff"/>
  <path id="Path_5" data-name="Path 5" d="M207.718,223.66a29.786,29.786,0,0,0,.164-4.936V213.9a40.821,40.821,0,0,0-.191-4.827,11.429,11.429,0,0,0-.655-4.582.273.273,0,0,0-.491,0,12.082,12.082,0,0,0,0,4.527q.136,2.509.218,5.018c0,1.609,0,3.218.136,4.827a36,36,0,0,0,.218,4.745.409.409,0,0,0,.764,0Z" transform="translate(356.271 352.807)" fill="#1e2959"/>
  <path id="Path_6" data-name="Path 6" d="M138.142,200.657a71.141,71.141,0,0,1,7.936.191c4.745.245,9.491.518,14.236.845q9.491.627,18.955,1.364l22.364,1.718,24.109,1.909,24.545,1.936,23.427,1.745q10.5.764,21,1.418c5.618.355,11.264.682,16.909.9a110.463,110.463,0,0,0,11.455.218,17.676,17.676,0,0,0,1.827-.218c.518-.055.709-1.145,0-1.091h-9.873c-5.264-.164-10.527-.436-15.764-.709q-10.036-.573-20.045-1.255l-23.045-1.636L231.8,206.139l-24.545-1.882L184.4,202.539q-9.982-.736-19.991-1.418c-5.155-.355-10.309-.682-15.464-.927-3.191-.164-6.409-.3-9.6-.218h-1.309c-.491,0-.491.791,0,.764Z" transform="translate(237.665 345.237)" fill="#1e2959"/>
  <path id="Path_7" data-name="Path 7" d="M206.984,255.022q19.446-15.573,39.218-31.064t39.709-30.627l11.073-8.318,5.727-4.255a45.433,45.433,0,0,0,5.455-4.282.518.518,0,0,0-.627-.818,40.055,40.055,0,0,0-5.182,3.573L297.283,183l-10.173,7.364Q277.1,197.913,267.2,205.577C254.056,215.75,240.965,226,228.093,236.559c-7.255,5.918-14.4,11.945-21.573,17.973-.273.218,0,.573.382.382Z" transform="translate(356.405 303.144)" fill="#1e2959"/>
  <path id="Path_8" data-name="Path 8" d="M208.737,201.623c-1.118-.273-3.027-.382-3.191,1.173s1.718,1.882,2.864,1.718a11.455,11.455,0,0,0,2.455-.764,1.855,1.855,0,0,0,.982-.709,1.146,1.146,0,0,0,0-1.145,2.346,2.346,0,0,0-2.018-.927,9.463,9.463,0,0,0-1.473,0,5.889,5.889,0,0,0-1.309.245,1.2,1.2,0,0,0-.9,1.064,1.173,1.173,0,0,0,.709,1.037,4.064,4.064,0,0,0,3,0,.573.573,0,0,0,.355-.845,1.691,1.691,0,0,0-2.1-.627.586.586,0,1,0,.955.436c0-.355-.355-.464-.655-.491l.164,1.118a.627.627,0,0,1,.682.164l.355-.845a4.009,4.009,0,0,1-1.936.3h-.327c0-.136.191,0,.245,0a7.169,7.169,0,0,1,1.991-.218,1.937,1.937,0,0,1,1.336.3h0a2.047,2.047,0,0,1-.682.327,14.368,14.368,0,0,1-1.882.573h-.546a1.933,1.933,0,0,1-.6,0h-.436a.9.9,0,0,1,.409-.273,2.482,2.482,0,0,1,1.391,0c.464,0,.682-.627.191-.736Z" transform="translate(354.897 346.944)" fill="#1e2959"/>
  <path id="Path_9" data-name="Path 9" d="M213.367,197.773c-1.118-.273-3.027-.382-3.191,1.173s1.718,1.882,2.864,1.718a11.455,11.455,0,0,0,2.455-.764,1.854,1.854,0,0,0,.982-.709,1.145,1.145,0,0,0,0-1.145,2.345,2.345,0,0,0-2.018-.927,9.415,9.415,0,0,0-1.473,0,5.891,5.891,0,0,0-1.336.245,1.2,1.2,0,0,0-.9,1.064,1.173,1.173,0,0,0,.709,1.036,4.064,4.064,0,0,0,3,0,.573.573,0,0,0,.354-.845,1.691,1.691,0,0,0-2.1-.627.586.586,0,1,0,.954.436c0-.355-.354-.464-.655-.491l.136,1.118a.627.627,0,0,1,.682.164l.354-.845a4.008,4.008,0,0,1-1.936.3h-.327c0-.136.191,0,.245,0a7.171,7.171,0,0,1,1.991-.218,1.937,1.937,0,0,1,1.336.3h0a2.071,2.071,0,0,1-.682.327,14.361,14.361,0,0,1-1.882.573h-.545a1.934,1.934,0,0,1-.6,0h-.436a.9.9,0,0,1,.409-.273,2.481,2.481,0,0,1,1.391,0c.464,0,.682-.627.191-.736Z" transform="translate(362.894 340.294)" fill="#1e2959"/>
  <path id="Path_10" data-name="Path 10" d="M217.347,194.433c-1.118-.273-3.027-.382-3.191,1.173s1.718,1.882,2.864,1.718a11.453,11.453,0,0,0,2.455-.764,1.854,1.854,0,0,0,.982-.709,1.146,1.146,0,0,0,0-1.146,2.318,2.318,0,0,0-2.018-.927,9.444,9.444,0,0,0-1.473,0,5.889,5.889,0,0,0-1.309.245,1.2,1.2,0,0,0-.9,1.064,1.173,1.173,0,0,0,.709,1.036,4.064,4.064,0,0,0,3,0,.573.573,0,0,0,.354-.845,1.691,1.691,0,0,0-2.1-.627.586.586,0,1,0,.954.436c0-.355-.354-.464-.655-.491l.164,1.118a.627.627,0,0,1,.682.164l.355-.845a4.008,4.008,0,0,1-1.936.3h-.327c0-.136.191,0,.245,0a7.172,7.172,0,0,1,1.991-.218,1.936,1.936,0,0,1,1.336.3h0a2.073,2.073,0,0,1-.682.327,14.4,14.4,0,0,1-1.882.573h-.545a1.934,1.934,0,0,1-.6,0h-.436a.926.926,0,0,1,.409-.273,2.482,2.482,0,0,1,1.391,0c.464,0,.682-.627.191-.736Z" transform="translate(369.769 334.525)" fill="#1e2959"/>
  <path id="Path_11" data-name="Path 11" d="M221.167,191.433c-1.118-.273-3.027-.382-3.191,1.173s1.718,1.882,2.864,1.718a11.453,11.453,0,0,0,2.455-.764,1.854,1.854,0,0,0,.982-.709,1.146,1.146,0,0,0,0-1.146,2.346,2.346,0,0,0-2.018-.927,9.414,9.414,0,0,0-1.473,0,5.889,5.889,0,0,0-1.309.245,1.2,1.2,0,0,0-.9,1.064,1.172,1.172,0,0,0,.709,1.036,4.063,4.063,0,0,0,3,0,.573.573,0,0,0,.355-.845,1.691,1.691,0,0,0-2.1-.627.586.586,0,1,0,.955.436c0-.355-.354-.464-.655-.491l.164,1.118a.627.627,0,0,1,.682.164l.355-.845a4.009,4.009,0,0,1-1.936.3h-.327c0-.136.191,0,.245,0a7.171,7.171,0,0,1,1.991-.218,1.936,1.936,0,0,1,1.336.3h0a2.072,2.072,0,0,1-.682.327,14.372,14.372,0,0,1-1.882.573h-.545a1.936,1.936,0,0,1-.6,0H219.2a.927.927,0,0,1,.409-.273,2.481,2.481,0,0,1,1.391,0c.464,0,.682-.627.191-.736Z" transform="translate(376.367 329.343)" fill="#1e2959"/>
  <path id="Path_12" data-name="Path 12" d="M224.777,188.353c-1.118-.273-3.027-.382-3.191,1.173s1.718,1.882,2.864,1.718a11.455,11.455,0,0,0,2.455-.764,1.855,1.855,0,0,0,.982-.709,1.146,1.146,0,0,0,0-1.146,2.346,2.346,0,0,0-2.018-.927,9.44,9.44,0,0,0-1.473,0,5.893,5.893,0,0,0-1.309.245,1.2,1.2,0,0,0-.9,1.064,1.173,1.173,0,0,0,.709,1.036,4.064,4.064,0,0,0,3,0,.573.573,0,0,0,.355-.845,1.691,1.691,0,0,0-2.1-.627.586.586,0,1,0,.955.436c0-.355-.355-.464-.655-.491l.164,1.118a.627.627,0,0,1,.682.164l.355-.845a4.009,4.009,0,0,1-1.936.3h-.327c0-.136.191,0,.245,0a7.148,7.148,0,0,1,1.991-.218,1.936,1.936,0,0,1,1.336.3h0a2.073,2.073,0,0,1-.682.327,14.335,14.335,0,0,1-1.882.573h-.546a1.934,1.934,0,0,1-.6,0h-.436a.9.9,0,0,1,.409-.273,2.481,2.481,0,0,1,1.391,0c.464,0,.682-.627.191-.736Z" transform="translate(382.603 324.023)" fill="#1e2959"/>
  <path id="Path_13" data-name="Path 13" d="M228.437,185.513c-1.118-.273-3.027-.382-3.191,1.173s1.718,1.882,2.864,1.718a11.456,11.456,0,0,0,2.455-.764,1.854,1.854,0,0,0,.982-.709,1.145,1.145,0,0,0,0-1.146,2.345,2.345,0,0,0-2.018-.927,9.415,9.415,0,0,0-1.473,0,5.893,5.893,0,0,0-1.309.246,1.2,1.2,0,0,0-.9,1.064,1.173,1.173,0,0,0,.709,1.036,4.064,4.064,0,0,0,3,0,.573.573,0,0,0,.355-.845,1.691,1.691,0,0,0-2.1-.627.586.586,0,1,0,.955.436c0-.355-.355-.464-.655-.491l.164,1.118a.627.627,0,0,1,.682.164l.355-.845a4.008,4.008,0,0,1-1.936.3h-.327c0-.136.191,0,.245,0a7.172,7.172,0,0,1,1.991-.218,1.937,1.937,0,0,1,1.336.3h0a2.072,2.072,0,0,1-.682.327,14.377,14.377,0,0,1-1.882.573h-.545a1.935,1.935,0,0,1-.6,0h-.436a.927.927,0,0,1,.409-.273,2.483,2.483,0,0,1,1.391,0c.464,0,.682-.627.191-.736Z" transform="translate(388.924 319.118)" fill="#1e2959"/>
  <path id="Path_14" data-name="Path 14" d="M232.027,183c-1.118-.273-3.027-.382-3.191,1.173s1.718,1.882,2.864,1.718a11.453,11.453,0,0,0,2.455-.764,1.855,1.855,0,0,0,.982-.709,1.146,1.146,0,0,0,0-1.145,2.345,2.345,0,0,0-2.018-.927,9.408,9.408,0,0,0-1.473,0,5.889,5.889,0,0,0-1.309.245,1.2,1.2,0,0,0-.9,1.064,1.172,1.172,0,0,0,.709,1.036,4.063,4.063,0,0,0,3,0,.573.573,0,0,0,.355-.845,1.691,1.691,0,0,0-2.1-.627.586.586,0,1,0,.955.436c0-.354-.355-.464-.655-.491l.164,1.118a.627.627,0,0,1,.682.164l.355-.845a4.009,4.009,0,0,1-1.936.3h-.327c0-.136.191,0,.245,0a7.171,7.171,0,0,1,1.991-.218,1.936,1.936,0,0,1,1.336.3h0a2.074,2.074,0,0,1-.682.327,14.371,14.371,0,0,1-1.882.573H231.1a1.939,1.939,0,0,1-.6,0h-.436a.926.926,0,0,1,.409-.273,2.482,2.482,0,0,1,1.391,0c.464,0,.682-.627.191-.736Z" transform="translate(395.125 314.782)" fill="#1e2959"/>
  <path id="Path_15" data-name="Path 15" d="M235.777,180.313c-1.118-.273-3.027-.382-3.191,1.173s1.718,1.882,2.864,1.718a11.432,11.432,0,0,0,2.454-.764,1.854,1.854,0,0,0,.982-.709,1.146,1.146,0,0,0,0-1.145,2.346,2.346,0,0,0-2.018-.927,9.441,9.441,0,0,0-1.473,0,5.919,5.919,0,0,0-1.309.245,1.2,1.2,0,0,0-.9,1.064A1.173,1.173,0,0,0,233.9,182a4.064,4.064,0,0,0,3,0,.573.573,0,0,0,.355-.845,1.691,1.691,0,0,0-2.1-.627.586.586,0,1,0,.955.436c0-.355-.355-.464-.655-.491l.164,1.118a.627.627,0,0,1,.682.164l.355-.845a4.009,4.009,0,0,1-1.936.3h-.327c0-.136.191,0,.245,0a7.146,7.146,0,0,1,1.991-.218,1.937,1.937,0,0,1,1.336.3h0a2.074,2.074,0,0,1-.682.327,14.336,14.336,0,0,1-1.882.573h-.546a1.937,1.937,0,0,1-.6,0h-.436a.9.9,0,0,1,.409-.273,2.482,2.482,0,0,1,1.391,0c.464,0,.682-.627.191-.736Z" transform="translate(401.602 310.136)" fill="#1e2959"/>
  <path id="Path_16" data-name="Path 16" d="M208.23,205.877a8.454,8.454,0,0,1,3.409-3.218,6.545,6.545,0,0,1,4.664-.3,10.691,10.691,0,0,1,6.709,7.254,17.373,17.373,0,0,1,0,10.909,7.8,7.8,0,0,1-3.082,3.954,10.909,10.909,0,0,1-4.554,1.145c-.682,0-.682,1.091-.191,1.391,2.727,1.691,6.573-.409,8.455-2.482a13.909,13.909,0,0,0,3.027-10.255,18.191,18.191,0,0,0-3.573-10.391,11.128,11.128,0,0,0-8.7-4.336c-3.245,0-7.391,2.318-7.664,5.918a.755.755,0,0,0,1.391.382Z" transform="translate(356.959 344.544)" fill="#1e2959"/>
  <path id="Path_17" data-name="Path 17" d="M212.43,201.807a8.456,8.456,0,0,1,3.409-3.218,6.546,6.546,0,0,1,4.664-.3,10.691,10.691,0,0,1,6.709,7.255,17.373,17.373,0,0,1,0,10.909,7.8,7.8,0,0,1-3.082,3.954,10.909,10.909,0,0,1-4.555,1.146c-.682,0-.682,1.091-.191,1.391,2.727,1.691,6.573-.409,8.455-2.482a13.882,13.882,0,0,0,3.027-10.255,18.192,18.192,0,0,0-3.573-10.391,11.127,11.127,0,0,0-8.7-4.336c-3.246,0-7.391,2.318-7.664,5.918a.755.755,0,0,0,1.391.382Z" transform="translate(364.213 337.514)" fill="#1e2959"/>
  <path id="Path_18" data-name="Path 18" d="M216.62,198.627a8.455,8.455,0,0,1,3.409-3.218,6.545,6.545,0,0,1,4.664-.3,10.691,10.691,0,0,1,6.709,7.255,17.372,17.372,0,0,1,0,10.909,7.8,7.8,0,0,1-3.082,3.954,10.91,10.91,0,0,1-4.555,1.145c-.682,0-.682,1.091-.191,1.391,2.727,1.691,6.573-.409,8.455-2.482a13.882,13.882,0,0,0,3.027-10.255,18.191,18.191,0,0,0-3.573-10.391,11.127,11.127,0,0,0-8.7-4.336c-3.245,0-7.391,2.318-7.664,5.918a.755.755,0,0,0,1.391.382Z" transform="translate(371.451 332.021)" fill="#1e2959"/>
  <path id="Path_19" data-name="Path 19" d="M220.336,195.628a8.455,8.455,0,0,1,3.409-3.218,6.545,6.545,0,0,1,4.664-.3,10.691,10.691,0,0,1,6.709,7.255,17.373,17.373,0,0,1,0,10.909,7.773,7.773,0,0,1-3.082,3.954,10.908,10.908,0,0,1-4.554,1.145c-.682,0-.682,1.091-.191,1.391,2.727,1.691,6.573-.409,8.455-2.482a13.882,13.882,0,0,0,3.027-10.255,18.192,18.192,0,0,0-3.409-10.282,11.127,11.127,0,0,0-8.7-4.336c-3.246,0-7.391,2.318-7.664,5.918a.755.755,0,0,0,1.391.382Z" transform="translate(378.152 327.03)" fill="#1e2959"/>
  <path id="Path_20" data-name="Path 20" d="M223.95,192.647a8.455,8.455,0,0,1,3.409-3.218,6.545,6.545,0,0,1,4.664-.3,10.691,10.691,0,0,1,6.709,7.255,17.373,17.373,0,0,1,0,10.909,7.773,7.773,0,0,1-3.082,3.954,10.908,10.908,0,0,1-4.554,1.145c-.682,0-.682,1.091-.191,1.391,2.727,1.691,6.573-.409,8.455-2.482a13.882,13.882,0,0,0,3.027-10.255,18.191,18.191,0,0,0-3.573-10.391,11.127,11.127,0,0,0-8.7-4.336c-3.245,0-7.391,2.318-7.664,5.918a.755.755,0,0,0,1.391.382Z" transform="translate(384.112 321.692)" fill="#1e2959"/>
  <path id="Path_21" data-name="Path 21" d="M227.69,190.007a8.455,8.455,0,0,1,3.409-3.218,6.545,6.545,0,0,1,4.664-.3,10.691,10.691,0,0,1,6.709,7.255,17.372,17.372,0,0,1,0,10.909,7.8,7.8,0,0,1-3.082,3.955,10.909,10.909,0,0,1-4.555,1.145c-.682,0-.682,1.091-.191,1.391,2.727,1.691,6.573-.409,8.455-2.482a13.882,13.882,0,0,0,3.027-10.255,18.19,18.19,0,0,0-3.573-10.391,11.128,11.128,0,0,0-8.7-4.336c-3.245,0-7.391,2.318-7.664,5.918a.755.755,0,0,0,1.391.382Z" transform="translate(390.572 317.132)" fill="#1e2959"/>
  <path id="Path_22" data-name="Path 22" d="M231.12,187.247a8.455,8.455,0,0,1,3.409-3.218,6.546,6.546,0,0,1,4.664-.3,10.691,10.691,0,0,1,6.709,7.255,17.372,17.372,0,0,1,0,10.909,7.8,7.8,0,0,1-3.082,3.954,10.909,10.909,0,0,1-4.555,1.146c-.682,0-.682,1.091-.191,1.391,2.727,1.691,6.573-.409,8.455-2.482a13.882,13.882,0,0,0,3.027-10.255,18.192,18.192,0,0,0-3.573-10.391,11.127,11.127,0,0,0-8.7-4.336c-3.245,0-7.391,2.318-7.664,5.918a.755.755,0,0,0,1.391.382Z" transform="translate(396.496 312.365)" fill="#1e2959"/>
  <path id="Path_23" data-name="Path 23" d="M235.02,184.347a8.455,8.455,0,0,1,3.409-3.218,6.546,6.546,0,0,1,4.664-.3,10.691,10.691,0,0,1,6.709,7.255,17.372,17.372,0,0,1,0,10.909,7.8,7.8,0,0,1-3.082,3.954,10.909,10.909,0,0,1-4.555,1.145c-.682,0-.682,1.091-.191,1.391,2.727,1.691,6.573-.409,8.455-2.482a13.882,13.882,0,0,0,3.027-10.255,18.218,18.218,0,0,0-3.573-10.391,11.127,11.127,0,0,0-8.7-4.336c-3.245,0-7.391,2.318-7.664,5.918a.755.755,0,0,0,1.391.382Z" transform="translate(403.232 307.356)" fill="#1e2959"/>
  <path id="Path_24" data-name="Path 24" d="M239.22,181.287a8.455,8.455,0,0,1,3.409-3.218,6.545,6.545,0,0,1,4.664-.3A10.691,10.691,0,0,1,254,185.024a17.373,17.373,0,0,1,0,10.909,7.8,7.8,0,0,1-3.082,3.954,10.909,10.909,0,0,1-4.555,1.146c-.682,0-.682,1.091-.191,1.391,2.727,1.691,6.573-.409,8.455-2.482a13.882,13.882,0,0,0,3.027-10.255,18.191,18.191,0,0,0-3.573-10.391,11.127,11.127,0,0,0-8.7-4.336c-3.245,0-7.391,2.318-7.664,5.918a.755.755,0,0,0,1.391.382Z" transform="translate(410.487 302.071)" fill="#1e2959"/>
  <path id="Path_25" data-name="Path 25" d="M139.142,202.095c2.373,0,4.745.191,7.118.355l14.182.955,19.418,1.391,23.127,1.718,24.927,1.855,25.145,1.855,23.755,1.691L297.3,213.3l15.655.982c3,.164,6,.382,9,.436h1.009V214.5c-2.373,0-4.773-.245-7.118-.382l-14.182-1.009-19.418-1.445-23.127-1.773-24.927-1.855-25.145-1.882-23.755-1.718-20.509-1.473-15.655-1.036c-3-.191-6-.382-9-.491h-1.009a.355.355,0,0,0,0,.709Z" transform="translate(239.556 347.809)" fill="#1e2959"/>
  <path id="Path_26" data-name="Path 26" d="M139.039,204.346h3.545a15.6,15.6,0,0,0,3.464-.273.3.3,0,0,0,0-.545,15.516,15.516,0,0,0-3.464-.273h-3.545a.545.545,0,0,0,0,1.064Z" transform="translate(239.305 350.929)" fill="#1e2959"/>
  <path id="Path_27" data-name="Path 27" d="M145.7,204.164q13.173.818,26.373,1.282l13.091.382,6.655.136a33.073,33.073,0,0,0,6.3,0,.218.218,0,1,0,0-.436,35.011,35.011,0,0,0-6.3-.218h-6.655q-6.545-.136-13.091-.382-13.2-.491-26.373-1.227a.314.314,0,0,0,0,.627Z" transform="translate(251.021 351.712)" fill="#1e2959"/>
  <path id="Path_28" data-name="Path 28" d="M167.717,205.34l1.2.164h1.227a.3.3,0,0,0,.218-.436,3.63,3.63,0,0,0-.6-.218h-.6l-1.227-.191a.436.436,0,1,0,0,.845Z" transform="translate(289.009 353.345)" fill="#1e2959"/>
  <path id="Path_29" data-name="Path 29" d="M174.233,206.515q14.536,1.418,29.1,2.264c4.855.273,9.709.491,14.591.655s9.736.191,14.591.436c2.727.136,5.455.273,8.345.355a40.342,40.342,0,0,0,7.991,0,.273.273,0,0,0,0-.518,39.167,39.167,0,0,0-7.145-.273h-7.091c-4.882,0-9.736-.218-14.591-.464q-14.591-.682-29.154-1.773-8.182-.627-16.636-1.336a.382.382,0,0,0,0,.764Z" transform="translate(300.192 355.443)" fill="#1e2959"/>
  <path id="Path_30" data-name="Path 30" d="M205.092,207.813h1.473a.3.3,0,0,0,0-.573h-1.473a.478.478,0,1,0,0,.955Z" transform="translate(353.279 357.827)" fill="#1e2959"/>
  <path id="Path_31" data-name="Path 31" d="M139.152,205.544c19.527,2.564,39.191,4.309,58.854,5.291,5.455.273,11.209.709,16.8.6a.355.355,0,1,0,0-.709c-4.964-.382-9.955-.382-14.918-.655s-9.791-.545-14.7-.873c-9.791-.682-19.582-1.5-29.345-2.727-5.455-.627-11.127-1.282-16.691-1.991-.573,0-.573.845,0,.927Z" transform="translate(239.492 353.06)" fill="#1e2959"/>
  <path id="Path_32" data-name="Path 32" d="M170.293,207.342h3.491a2.726,2.726,0,0,0,1.118-.164.218.218,0,0,0,0-.382,2.729,2.729,0,0,0-1.091-.164h-3.545a.341.341,0,0,0,0,.682Z" transform="translate(293.387 356.771)" fill="#1e2959"/>
  <path id="Path_33" data-name="Path 33" d="M176.153,207.9c19.936.873,39.873,1.527,59.754,3.245l8.182.736,4.336.382a15.872,15.872,0,0,0,4.009.164c.273,0,.218-.436,0-.518a13.037,13.037,0,0,0-3.382-.518l-3.736-.355-7.445-.6c-4.964-.382-9.955-.764-14.918-1.091q-14.918-1.009-30-1.555c-5.673-.218-11.345-.382-17.018-.382a.245.245,0,0,0,0,.464Z" transform="translate(303.482 358.12)" fill="#1e2959"/>
  <path id="Path_34" data-name="Path 34" d="M205.688,209.7a.327.327,0,1,0-.234-.314.327.327,0,0,0,.234.314Z" transform="translate(354.755 360.988)" fill="#1e2959"/>
  <path id="Path_35" data-name="Path 35" d="M137.746,207.144c2.591.3,5.182.491,7.8.709l14.727,1.173,19.855,1.445,23.509,1.691,25.391,1.773,25.582,1.773,24.082,1.664,20.809,1.473,16.036,1.173c3.164.245,6.327.518,9.491.655h1.118a.819.819,0,0,0,0-1.636H325l-1.664-.191c-1.609-.191-3.191-.273-4.8-.382l-14.591-1.009-19.773-1.309-23.454-1.555L235.355,212.9l-25.582-1.691-24.109-1.582-20.891-1.391-16.145-1.118c-3.218-.218-6.436-.436-9.627-.736h-1.173a.491.491,0,0,0,0,.982Z" transform="translate(237.134 356.341)" fill="#1e2959"/>
  <path id="Path_36" data-name="Path 36" d="M207.12,262.378c33.109-26.454,66.573-53.7,99.054-80.918" transform="translate(357.633 313.298)" fill="none" stroke="#1e2959" stroke-linecap="round" stroke-miterlimit="10" stroke-width="1.25"/>
  <path id="Path_37" data-name="Path 37" d="M207.8,214.451c3.082-2.018,6.082-4.2,9-6.464a62.073,62.073,0,0,0,8.564-7.364s0-.382-.191-.245c-2.973,2.073-5.618,4.582-8.482,6.818s-6.082,4.555-9.164,6.764c-.3.218,0,.709.3.491Z" transform="translate(358.124 345.925)" fill="#1e2959"/>
  <path id="Path_38" data-name="Path 38" d="M217.619,216.543c6.245-4.527,12.382-9.164,18.382-14.018q4.5-3.682,8.945-7.445l4.418-3.791a25.943,25.943,0,0,0,4.145-3.873c.164-.218-.136-.436-.327-.327a28.556,28.556,0,0,0-4.364,3.627l-4.254,3.655q-4.336,3.709-8.782,7.309c-6.027,4.936-12.109,9.818-18.3,14.536-.164,0,0,.436.164.3Z" transform="translate(375.415 322.969)" fill="#1e2959"/>
  <path id="Path_39" data-name="Path 39" d="M232.933,189.922c2.536-2.182,5.155-4.309,7.5-6.709v-.136c-2.727,1.991-5.236,4.255-7.773,6.464-.273.218,0,.6.382.382Z" transform="translate(401.556 316.073)" fill="#1e2959"/>
  <path id="Path_40" data-name="Path 40" d="M237,189.427c2.591-1.909,5.127-3.873,7.664-5.836l3.709-2.727a39.754,39.754,0,0,0,3.736-2.918.136.136,0,1,0-.164-.218,34.964,34.964,0,0,0-3.9,2.727L244.2,183.4c-2.482,1.909-4.909,3.9-7.282,5.945h0Z" transform="translate(409.105 306.803)" fill="#1e2959"/>
  <path id="Path_41" data-name="Path 41" d="M208.208,219.217l11.891-9.164c1.855-1.418,3.682-2.727,5.455-4.309a59.118,59.118,0,0,0,5.891-4.936.194.194,0,0,0-.245-.3,54.959,54.959,0,0,0-5.755,4.282c-1.964,1.555-3.927,3.109-5.864,4.691l-11.645,9.464c-.136,0,0,.382.191.245Z" transform="translate(358.945 346.123)" fill="#1e2959"/>
  <path id="Path_42" data-name="Path 42" d="M219.024,216.411c5.454-4.2,10.909-8.618,16.364-13.036,2.727-2.209,5.291-4.609,8.018-6.818a83.186,83.186,0,0,0,8.182-7.009s0-.3-.164-.218c-2.727,1.964-5.236,4.336-7.8,6.545-1.336,1.145-2.727,2.318-4.009,3.409s-2.945,2.182-4.364,3.327c-5.455,4.473-11.155,8.755-16.773,13.091a.429.429,0,0,0,.518.682Z" transform="translate(376.983 326.865)" fill="#1e2959"/>
  <path id="Path_43" data-name="Path 43" d="M233.148,202.883c4.309-4.255,8.809-8.182,13.336-12.327q3.354-2.973,6.791-5.891l3.355-2.727a18.493,18.493,0,0,0,3.327-2.918c.164-.218,0-.409-.327-.327a16.364,16.364,0,0,0-3.382,2.727l-3.491,2.973q-3.409,2.918-6.736,5.918c-4.5,4.036-8.809,8.182-13.091,12.545a.164.164,0,0,0,.218.218Z" transform="translate(402.186 308.484)" fill="#1e2959"/>
  <path id="Path_44" data-name="Path 44" d="M208.106,214.736l6.327-4.255a66.739,66.739,0,0,0,6.082-4.336c.245-.218,0-.573-.327-.436a66.9,66.9,0,0,0-6.327,4.036l-6.218,4.227c-.464.327,0,1.091.436.764Z" transform="translate(358.201 355.13)" fill="#1e2959"/>
  <path id="Path_45" data-name="Path 45" d="M219.837,216.334q7.309-6.218,14.564-12.491c4.827-4.173,9.791-8.182,14.345-12.709v-.164c-5.073,3.818-9.791,8.182-14.618,12.191s-9.818,8.427-14.673,12.682c-.355.3.164.818.518.518Z" transform="translate(378.734 329.696)" fill="#1e2959"/>
  <path id="Path_46" data-name="Path 46" d="M234.49,198.945c3.464-3.027,7.009-5.945,10.582-8.864l5.182-4.227a55.819,55.819,0,0,0,5.455-4.527.175.175,0,1,0-.218-.273,42.11,42.11,0,0,0-5.236,3.955l-5.454,4.527c-3.573,3-7.036,6.109-10.527,9.218-.164.136,0,.382.218.218Z" transform="translate(404.417 312.531)" fill="#1e2959"/>
  <path id="Path_47" data-name="Path 47" d="M216.637,200.96c.627-1.855-1.636-2.727-3.109-2.236a8.618,8.618,0,0,0-2.727,2.345c-.464.464-1.718,1.827-2.4,1.009a13.643,13.643,0,0,1-.736-1.609,4.854,4.854,0,0,0-5.291-2.727c-1.718.518-4.745,4.582-6.545,2.373-.164-.191-.409,0-.327.245.709,1.664,2.864,1.445,4.118.518s1.773-1.964,3.027-2.4a3.573,3.573,0,0,1,3.736,1.391,5.29,5.29,0,0,1,1.009,1.827,3.354,3.354,0,0,0,.464,1.091c.682.845,1.691.327,2.4-.218a21.822,21.822,0,0,0,2.209-2.373,3.437,3.437,0,0,1,2.182-1.282c.982,0,1.964.846,1.636,1.855,0,.3.355.409.464,0Z" transform="translate(337.534 341.279)" fill="#839fcf"/>
  <path id="Path_48" data-name="Path 48" d="M194.1,199.6h-.136l-.273-.245h0l-.164-.191h0v-.191l-.164-.327a.191.191,0,0,0-.355,0,1.746,1.746,0,0,0,0,.709v.164a1.035,1.035,0,0,0,0,.245l.164.3a2.073,2.073,0,0,0,.545.6,1.31,1.31,0,0,0,.682.246,1.173,1.173,0,0,0,.845-.327.491.491,0,0,0,0-.709.518.518,0,0,0-.709,0Z" transform="translate(333.203 342.775)" fill="#839fcf"/>
  <path id="Path_49" data-name="Path 49" d="M206.81,201.016c-1.609,1.145-3.736.409-5.455,0l-6.409-1.664-6.409-1.636-3.218-.791a11.809,11.809,0,0,0-2.918-.545.218.218,0,0,0,0,.382,13.637,13.637,0,0,0,3.191,1.064l3.382.927,7.173,1.936c2.236.6,4.445,1.282,6.709,1.773a5.018,5.018,0,0,0,4.527-.764.41.41,0,0,0-.491-.655Z" transform="translate(314.742 339.069)" fill="#839fcf"/>
  <path id="Path_50" data-name="Path 50" d="M213.839,201.036a5.836,5.836,0,0,0-6.109,1.118l.573.436c.464-2.727-3.682-3.764-5.455-2.127-.518.491-.682.982-1.5,1.091a5.728,5.728,0,0,1-1.445,0c-1.473-.164-2.945-.327-4.418-.573s-2.236-.436-3.382-.573l-2.045-.218a6.136,6.136,0,0,1-2.4-.327c-.464-.327-.655-1.091-1.118-1.5a4.364,4.364,0,0,0-1.827-.9,13.064,13.064,0,0,0-4.718-.355,12.458,12.458,0,0,0-2.182.464c-1.391.218-1.445-1.418-2.455-1.964a3.845,3.845,0,0,0-2.1-.273,15.654,15.654,0,0,1-3.6,0,14.236,14.236,0,0,0-6.545-.273c-1.473.464-3.409,1.691-3.191,3.464,0,.273.436.464.573.164a4.473,4.473,0,0,1,2.591-2.727,8.183,8.183,0,0,1,4.064-.136,24.544,24.544,0,0,0,4.418.545c1.227,0,3.109-.709,3.845.6a1.964,1.964,0,0,0,2.209,1.255c1.091-.136,2.154-.6,3.245-.791a5.455,5.455,0,0,1,6.027,2.727.327.327,0,0,0,.273.164,14.4,14.4,0,0,1,3.6.6,28.576,28.576,0,0,0,3.327.573c2.264.245,4.473,1.009,6.736,1.227a2.182,2.182,0,0,0,1.718-.518c.573-.518.818-1.336,1.582-1.609,1.5-.518,2.727.764,3.355,2.018a.382.382,0,0,0,.709,0,3.573,3.573,0,0,1,2.536-1.609,5.263,5.263,0,0,1,2.727.627c.409.164.627-.464.273-.682Z" transform="translate(276.077 336.349)" fill="#839fcf"/>
  <path id="Path_51" data-name="Path 51" d="M160.533,195.975H156.77a1.5,1.5,0,0,0-.573.191.327.327,0,0,0,0,.573,1.5,1.5,0,0,0,.573.191h3.764a.5.5,0,1,0,0-1.009Z" transform="translate(269.383 338.274)" fill="#839fcf"/>
  <path id="Path_52" data-name="Path 52" d="M213.434,197.962a2.727,2.727,0,0,0-3.382-3.845c-1.255.218-1.882,1.145-2.727,2.073a3.491,3.491,0,0,1-1.336,1.091,2.484,2.484,0,0,1-.709.164,2.725,2.725,0,0,1-.791,0,.273.273,0,0,0-.327.409c.436.955,1.854.655,2.536.191a9.627,9.627,0,0,0,1.936-2.536,2.728,2.728,0,0,1,1.418-1.064,2.155,2.155,0,0,1,1.691.409,2.427,2.427,0,0,1,.845,2.891.409.409,0,1,0,.736.3Z" transform="translate(352.436 334.841)" fill="#839fcf"/>
  <path id="Path_53" data-name="Path 53" d="M214.921,196.872a3.273,3.273,0,0,0-3.518-3.545c-2.427,0-4.282,2.291-5.673,3.982l.818.218c-.464-2.073-2.891-2.564-4.718-2.427a11.59,11.59,0,0,0-3.436,1.064c-.709.3-1.391.6-2.127.845a12.133,12.133,0,0,0-1.909.627.273.273,0,0,0,0,.491,4.228,4.228,0,0,0,2.727-.518c1.118-.491,2.182-1.173,3.327-1.555a3.818,3.818,0,0,1,5.073,1.745.491.491,0,0,0,.9,0,7.363,7.363,0,0,1,3.873-3.764c1.473-.382,3.791.627,3.518,2.427,0,.655.927.955,1.036.273Z" transform="translate(335.322 333.777)" fill="#839fcf"/>
  <path id="Path_54" data-name="Path 54" d="M192.078,195.048l-1.936-.818s-.218.164,0,.218l1.773,1.064a.273.273,0,1,0,.273-.464Z" transform="translate(328.138 335.355)" fill="#839fcf"/>
  <path id="Path_55" data-name="Path 55" d="M188.568,194.329H188l-.245-.164h0v-.191h0a.246.246,0,0,0-.464,0,1.063,1.063,0,0,0,0,.273.709.709,0,0,0,0,.382,1.445,1.445,0,0,0,.382.573,1.554,1.554,0,0,0,1.2.409,1.364,1.364,0,0,0,.791-.355.409.409,0,0,0,0-.6.436.436,0,0,0-.6,0Z" transform="translate(323.33 334.629)" fill="#839fcf"/>
  <path id="Path_56" data-name="Path 56" d="M200.908,195.193c-1.2,1.091-3.436.218-4.8-.164a3.682,3.682,0,0,0-3.682.191h.736a5.018,5.018,0,0,0-4.2-2.727,5.236,5.236,0,0,0-4.827,2.318l.573-.245a10.636,10.636,0,0,0-7.964.273.464.464,0,1,0,.464.764,5.918,5.918,0,0,1,7.118,0,.518.518,0,0,0,.627,0,4.364,4.364,0,0,1,4.064-2.236,4.609,4.609,0,0,1,3.354,2.564.464.464,0,0,0,.736,0c1.145-1.473,3.245-.436,4.636,0a3.409,3.409,0,0,0,3.764-.245c.382-.355-.191-.927-.573-.573Z" transform="translate(304.581 332.319)" fill="#839fcf"/>
  <path id="Path_57" data-name="Path 57" d="M211.559,194.387a3.137,3.137,0,0,0-.382-3.055,2.345,2.345,0,0,0-2.727-.273,6.71,6.71,0,0,0-2.209,1.855,6.543,6.543,0,0,1-1.064,1.009c-.382.273-.845.409-1.227.682a.245.245,0,0,0,0,.409c.818.382,1.664-.273,2.209-.818a18.876,18.876,0,0,1,1.745-1.909c.518-.382,1.5-.927,2.127-.491s.464,1.609.3,2.291.927,1.009,1.091.3Z" transform="translate(351.967 329.335)" fill="#839fcf"/>
  <path id="Path_58" data-name="Path 58" d="M210.911,191.661a3.546,3.546,0,0,0-3.355-1.091,5.454,5.454,0,0,0-3.191,1.555l.982.273c-.464-1.8-2.727-2.127-4.282-1.964a12.054,12.054,0,0,0-2.973.791,8.182,8.182,0,0,0-2.973,1.473s0,.409,0,.436a3.845,3.845,0,0,0,2.264-.655,11.564,11.564,0,0,1,2.891-1.255,3.737,3.737,0,0,1,2.373.273,5.074,5.074,0,0,1,1.609,1.445.6.6,0,0,0,.982-.273,2.727,2.727,0,0,1,2.4-1.364,4.282,4.282,0,0,1,2.509.982.464.464,0,0,0,.655-.655Z" transform="translate(336.905 328.733)" fill="#839fcf"/>
  <path id="Path_59" data-name="Path 59" d="M195.119,190.36h-2.427a.218.218,0,0,0,0,.382l.518.245.327.164h.273l.545.218.6.164a.553.553,0,1,0,.3-1.064Z" transform="translate(332.516 328.671)" fill="#839fcf"/>
  <path id="Path_60" data-name="Path 60" d="M198.506,190.511l-1.664-.436a5.672,5.672,0,0,0-1.582,0H192.07a22.712,22.712,0,0,0-3.055.218,7.472,7.472,0,0,0-3.109.927.191.191,0,0,0,0,.354,15.385,15.385,0,0,0,2.973-.573,25.41,25.41,0,0,1,3.082-.464,11.207,11.207,0,0,1,3.109,0,11.1,11.1,0,0,0,1.445.327,4.178,4.178,0,0,1,1.718.245.311.311,0,0,0,.164-.6Z" transform="translate(320.783 328.083)" fill="#839fcf"/>
  <path id="Path_61" data-name="Path 61" d="M184.716,190.391h-1.364a.164.164,0,0,0,0,.3h1.364a.245.245,0,1,0,0-.491Z" transform="translate(316.409 328.394)" fill="#839fcf"/>
  <path id="Path_62" data-name="Path 62" d="M181.621,189.616h-1.173a2.914,2.914,0,0,0-1.173.164.191.191,0,0,0,0,.355,2.914,2.914,0,0,1,1.173.164h1.173a.409.409,0,0,0,0-.818Z" transform="translate(309.331 327.151)" fill="#839fcf"/>
  <path id="Path_63" data-name="Path 63" d="M179.593,189.9a14.346,14.346,0,0,1-3.136.791c-1.064.136-2.155.191-3.245.3a.192.192,0,0,0,0,.382,10.909,10.909,0,0,0,6.573-.873c.355-.164.218-.764-.164-.6Z" transform="translate(298.76 327.824)" fill="#839fcf"/>
  <path id="Path_64" data-name="Path 64" d="M213.366,194.624a2.427,2.427,0,0,1,.573-1.255,2.154,2.154,0,0,1,.9-.736h.355l.327-.273a3.35,3.35,0,0,0,.464-.436,3.11,3.11,0,0,0,.573-1.036,2.727,2.727,0,0,0-.136-2.209A1.418,1.418,0,0,0,215.6,188a.982.982,0,0,0-.982.136.327.327,0,0,0,0,.518l.327.191h0v.191h0v.491h0a1.744,1.744,0,0,1-.245.736c-.164.273-.464.573-.627.873s0,.218,0,.355v.164a2.727,2.727,0,0,1-.3.464A3.217,3.217,0,0,0,212.93,194c0,.191.273.191.3,0Z" transform="translate(367.668 324.461)" fill="#839fcf"/>
  <path id="Path_65" data-name="Path 65" d="M213.025,191.536a3.954,3.954,0,0,0,3.354-1.418,1.745,1.745,0,0,0-.9-2.727,5.073,5.073,0,0,0-3.273.545,5.889,5.889,0,0,0-1.336.927,5.619,5.619,0,0,0-1.145,1.364.518.518,0,0,0,.436.736c1.336.164,1.909-1.582,1.391-2.727s-2.536-1.173-3.682-.627v.273c.791,0,2.182-.218,2.727.627.218.382.164,1.282-.409,1.309l.491.627a3.438,3.438,0,0,1,.545-1.145,3.82,3.82,0,0,1,.955-.845,3.545,3.545,0,0,1,2.482-.6.919.919,0,0,1,.927.6,1.5,1.5,0,0,1-.191.9c-.436.764-1.555.845-2.318.927s-.709,1.145,0,1.091Z" transform="translate(358.928 323.322)" fill="#839fcf"/>
  <path id="Path_66" data-name="Path 66" d="M207.971,188.07H205.68v.245h2.291a.273.273,0,0,0,0-.545Z" transform="translate(355.145 324.197)" fill="#839fcf"/>
  <path id="Path_67" data-name="Path 67" d="M217.6,188.642a10.909,10.909,0,0,0-11.4.6l.873.682c.655-1.882-1.255-3.382-2.891-3.818a11.673,11.673,0,0,0-7.064,1.555.273.273,0,0,0,0,.518,5.126,5.126,0,0,0,2.455-.327,17.7,17.7,0,0,1,2.727-1.091c1.718-.382,4.255.791,3.545,2.727-.218.627.6.955,1.009.573a8.482,8.482,0,0,1,10.091-.573.573.573,0,0,0,.573-.982Z" transform="translate(340.034 321.225)" fill="#839fcf"/>
  <path id="Path_68" data-name="Path 68" d="M197.434,186.8a4.608,4.608,0,0,1-1.064.764l-.327.164h-.491a.655.655,0,0,0-.245.273l.164-.164h-.191V188a.273.273,0,0,0,0,.436h.273a.736.736,0,0,0,.355,0h.273l.436-.164.655-.355a6.134,6.134,0,0,0,1.227-.982.491.491,0,1,0-.682-.682Z" transform="translate(336.992 321.211)" fill="#839fcf"/>
  <path id="Path_69" data-name="Path 69" d="M193.408,188.043v-.464a.952.952,0,0,0,0-.3v-.218a.253.253,0,0,0-.491,0v.218a.953.953,0,0,0,0,.3v.464a.382.382,0,1,0,.764,0Z" transform="translate(333.081 322.642)" fill="#839fcf"/>
  <path id="Path_70" data-name="Path 70" d="M190.788,186.572l-.818.873.982.245v-.573a1.887,1.887,0,0,0,0-.3q0-.218,0,0h0v-.164a.7.7,0,0,0-.191-.573,1.832,1.832,0,0,0,0-.327l-.164-.245a.3.3,0,0,0-.545.082v.273a1.583,1.583,0,0,0,0,.382v.682h0a.464.464,0,0,0,0,.164,2.183,2.183,0,0,0,0,.409v.627a.573.573,0,0,0,.982.245l.791-.873a.573.573,0,1,0-.791-.791Z" transform="translate(328.01 320.049)" fill="#839fcf"/>
  <path id="Path_71" data-name="Path 71" d="M191.806,185.224c-.627,1.118-1.227,2.264-1.882,3.382l1.064.136a3.327,3.327,0,0,0-4.473-1.827l.845.327a3.756,3.756,0,0,0-.245-1.064,1.99,1.99,0,0,0-.436-.927.3.3,0,0,0-.464,0,2.019,2.019,0,0,0,0,1.064,2.849,2.849,0,0,0,.164,1.173.614.614,0,0,0,.845.327,2.1,2.1,0,0,1,1.609,0,2.318,2.318,0,0,1,1.227,1.255.6.6,0,0,0,1.009,0c.545-1.173,1.118-2.318,1.691-3.491a.47.47,0,0,0-.818-.464Z" transform="translate(321.401 319.189)" fill="#839fcf"/>
  <path id="Path_72" data-name="Path 72" d="M186.071,186.175l-1.309.273h.191c-.245-.355-.464-.736-.736-1.091a11.235,11.235,0,0,0-.791-1.036h-.164a11.374,11.374,0,0,0,.655,1.118c.218.355.491.709.736,1.064a.164.164,0,0,0,.191,0l1.309-.3c.191,0,0-.327,0-.3Z" transform="translate(316.418 318.238)" fill="#839fcf"/>
  <path id="Path_73" data-name="Path 73" d="M186.744,184.606l-2.482,2.155h.709a4.473,4.473,0,0,0-3.382-1.718,4.911,4.911,0,0,0-1.936,0c-.545.164-1.309.518-1.473,1.118,0,.164,0,.355.273.273s.845-.6,1.336-.845a3.654,3.654,0,0,1,1.718-.409,3.191,3.191,0,0,1,2.727,1.909.464.464,0,0,0,.709,0l2.427-2.209c.409-.355-.191-.955-.6-.6Z" transform="translate(307.645 317.979)" fill="#839fcf"/>
  <path id="Path_74" data-name="Path 74" d="M220.31,186.963a1.8,1.8,0,0,0,1.827-1.691,1.308,1.308,0,0,0-.164-.655.436.436,0,0,0-.327-.273h-.3a2.535,2.535,0,0,0-.682,0h-.655a1.936,1.936,0,0,0-1.309.9.437.437,0,1,0,.682.545l.245-.218.218-.273h0l.3-.164h1.145l-.136-.191h0a1.279,1.279,0,0,1,0,.136h0v.136h0v.136h0l-.164.273h-.3a.464.464,0,0,0,0,.927Z" transform="translate(377.47 318.241)" fill="#839fcf"/>
  <path id="Path_75" data-name="Path 75" d="M216.073,185.026a.368.368,0,1,0-.368-.368.368.368,0,0,0,.368.368Z" transform="translate(372.461 318.186)" fill="#839fcf"/>
  <path id="Path_76" data-name="Path 76" d="M359.394,234.7c-22.882,10.391-129.027,21.818-129.027,21.818a109.712,109.712,0,0,1-12.709-15.354,28.593,28.593,0,0,1-1.855-3.382c-3.464-7.636-2.1-22.2,2.727-25.664,2.536-1.827,23.809-11.373,43.636-20.645,15.955-7.445,30.955-14.727,34.609-17.645a2.509,2.509,0,0,0,.818-.9,2.481,2.481,0,0,0,0-.845c0-3.436-4.445-12.409-7.991-19.091a112.745,112.745,0,0,1,42.818-13.036c16.582-1.2,26.891-1.636,32.045-1.773,9.382,22.664,19.255,49.473,20.454,59.809C387.131,215.962,382.276,224.28,359.394,234.7Z" transform="translate(369.294 238.542)" fill="#ffa896"/>
  <path id="Path_77" data-name="Path 77" d="M193.14,225.089s29.618-93.9,36.791-92.073-23.045,88.173-23.045,88.173Z" transform="translate(333.485 229.578)" fill="#315faf"/>
  <path id="Path_78" data-name="Path 78" d="M285.635,218.955a43.145,43.145,0,0,1-24.982,10.064H242.462l-35.454-.245a24.763,24.763,0,0,1-10.909-1.718,13.112,13.112,0,0,1-1.882-1.146c-.355-.245-.682-.518-1.009-.791a23.181,23.181,0,0,1-5.591-8.4l-.355-.873c-.327-.791-.6-1.555-.9-2.345a41.939,41.939,0,0,1-1.991-7.227,2.858,2.858,0,0,0-.136-1.064,18.083,18.083,0,0,1,0-4.882,27.873,27.873,0,0,1,7.664-13.636,84,84,0,0,1,28.473-21.982,48.273,48.273,0,0,1,35.454-2.182c5.045,1.827,10.909,4.527,16.555,6.055a36.516,36.516,0,0,0,3.873.818,23.894,23.894,0,0,0,3.055.273l6.027-.355c2.591,4.773,2.264,9.955,1.827,15.273-.164,1.882-.327,3.764-.409,5.673a31.609,31.609,0,0,0,.273,6.082C288.417,206.518,294.771,211.318,285.635,218.955Z" transform="translate(317.818 276.485)" fill="#ffa896"/>
  <path id="Path_79" data-name="Path 79" d="M280.869,41.475a69.409,69.409,0,0,0-13.336-20.945A62.454,62.454,0,0,0,246.288,6.02C228.478-1.48,208.569-1.207,190,3.048c-15.736,3.6-31.936,10.309-42.573,22.936a39.143,39.143,0,0,0-3.491,4.827c-.382.6.518,1.118.927.6a20.427,20.427,0,0,0,0,15.055,27.655,27.655,0,0,0,10.909,13.009c11.373,7.5,25.8,7.745,38.891,9.164,7.309.791,14.727,1.445,21.818,2.727a30,30,0,0,1,15.845,8.345c9.327,9.327,12.791,22.336,17.427,34.282a114.54,114.54,0,0,0,8.945,17.891c3.436,5.7,7.091,11.264,10.009,17.264.736,1.5,1.418,3,2.045,4.527a.572.572,0,0,0,.191.245h0a.232.232,0,1,0,.409.218v-.191a.736.736,0,0,0,.682-.927h0a98.812,98.812,0,0,0,10.527-24.955,178.728,178.728,0,0,0,4.664-29.809C288.942,79.275,288.342,59.366,280.869,41.475Z" transform="translate(247.611 -0.016)" fill="#1e2959"/>
  <path id="Path_80" data-name="Path 80" d="M224.442,35s3.709,30,9.709,49.5a124.854,124.854,0,0,0,16.636,33.764s-10.173,33.327-40.227,39.464S176.8,155,176.8,155s-.464-37.936-8.782-51.818C160.951,91.4,167.087,62.027,181.9,50S224.442,35,224.442,35Z" transform="translate(285.029 60.322)" fill="#ffa896"/>
  <path id="Path_81" data-name="Path 81" d="M181.519,145.783a105.168,105.168,0,0,0,9.055-8.182,106.211,106.211,0,0,0,8.182-8.618,64.313,64.313,0,0,0,8.182-13.173,97.447,97.447,0,0,0,7.991-30.273,107.263,107.263,0,0,0-.736-31.582,111.826,111.826,0,0,0-4.336-15.873l-.736-2.073c-8.864,2.182-19.691,5.891-27.273,12-14.809,12.027-20.945,41.4-13.882,53.182,6.682,11.127,8.182,37.718,8.673,47.809A43.962,43.962,0,0,0,181.519,145.783Z" transform="translate(284.943 62.067)" fill="#1e2959"/>
  <path id="Path_82" data-name="Path 82" d="M148.781,32.423s-10.636,43.009-2.318,85.554,30.518,62.918,56.045,58.745,38.836-30.982,47.645-50.864,7.855-60.573,7.855-60.573,2.318-38.4-28.2-46.718S150.172,28.741,148.781,32.423Z" transform="translate(247.371 28.263)" fill="#ffa896"/>
  <path id="Path_83" data-name="Path 83" d="M277.707,25.309c-11.618-11.891-29.782-15.764-46.145-12.9-6.191,1.091-12.409,3.027-18.627,2.155a41.7,41.7,0,0,1-10.255-3.382c-5.7-2.4-5.018-5.727-10.718-8.182L174.616,15.055c-11.1,1.745-22.664,3.873-29.1,7.255S133.38,31.745,133.107,39a9.627,9.627,0,0,0,1.555,6c3.191,4.418,9.845,3.791,15.136,2.727a22.882,22.882,0,0,0-8.536,8.782,12.355,12.355,0,0,0,.164,11.864c3.327,5.209,10.582,6.136,16.718,5.455A49.909,49.909,0,0,0,181.789,64.2a26.4,26.4,0,0,0-4.936,11.236,6.436,6.436,0,0,0,1.118,5.836,6.164,6.164,0,0,0,4.145,1.336c9.382.327,18-6.136,22.718-14.236a21.955,21.955,0,0,0,39.491,6.491A29.127,29.127,0,0,0,249.534,88.2a15.3,15.3,0,0,0,12.436,6.273,19.254,19.254,0,0,0,10.336-4.527A44.809,44.809,0,0,0,289.57,58.827a43.009,43.009,0,0,0-11.864-33.518Z" transform="translate(229.746 5.049)" fill="#1e2959"/>
  <path id="Path_84" data-name="Path 84" d="M237.038,57.914c-.191-1.555-.409-3.082-.655-4.527a28.255,28.255,0,0,0-17.264-22.5C201.093,23.96,188.6,34,182.356,48.914S182,87.1,193.456,94s28.8,5.209,37.473-5.209C237.583,80.687,238.265,68.414,237.038,57.914Z" transform="translate(310.478 49.353)" fill="#42bafc"/>
  <path id="Path_85" data-name="Path 85" d="M146.78,20.616a73.882,73.882,0,0,1,46.364-11.1c27.736,2.427,44.4,18.382,54.109,35.455s11.455,43.636,11.455,43.636L271.2,83.752s-.682-36.082-24.273-60.354A75.355,75.355,0,0,0,172.8,2.643C157.525,7.089,146.78,20.616,146.78,20.616Z" transform="translate(253.409 -0.049)" fill="#42bafc"/>
  <path id="Path_86" data-name="Path 86" d="M147.9,49.41a12.845,12.845,0,0,0,.845,5.891,7.472,7.472,0,0,0,4.146,4.118,5.291,5.291,0,0,0,5.454-1.145,8.182,8.182,0,0,0,1.718-3.9,10.718,10.718,0,0,0,.245-4.445,10.909,10.909,0,0,0-1.418-3.273c-2.182-3.736-7.636-6.273-10.173-1.227a10.146,10.146,0,0,0-.818,3.982Z" transform="translate(255.258 73.457)" fill="#1e2959"/>
  <path id="Path_87" data-name="Path 87" d="M165.5,51.463a13.282,13.282,0,0,0,.873,6.082,7.718,7.718,0,0,0,4.282,4.255,5.455,5.455,0,0,0,5.755-1.2,8.346,8.346,0,0,0,1.773-4.036,11.073,11.073,0,0,0,.245-4.582,11.319,11.319,0,0,0-1.473-3.382c-2.264-3.845-7.882-6.491-10.527-1.255a10.5,10.5,0,0,0-.927,4.118Z" transform="translate(285.657 76.587)" fill="#1e2959"/>
  <path id="Path_88" data-name="Path 88" d="M147.544,45.438a62.02,62.02,0,0,1,9.545-.818c1.636,0,3.245-.136,4.882,0h1.664a7.227,7.227,0,0,0,3.627,0,3.436,3.436,0,0,0,2.045-4.991,7.691,7.691,0,0,0-6.791-2.727,33.025,33.025,0,0,0-5.727.3,36.245,36.245,0,0,0-11.236,3.6,2.536,2.536,0,0,0-1.036,3.164,2.727,2.727,0,0,0,3,1.473Z" transform="translate(249.154 63.52)" fill="#1e2959"/>
  <path id="Path_89" data-name="Path 89" d="M166.543,45.53c.818.191,1.636.491,2.455.655a31.318,31.318,0,0,0,3.191.464l2.727.273h.573l2.073.3h.327l1.473.3a25.061,25.061,0,0,1,2.564.709l.9.327.6.218q-.927-.409-.245,0a11.481,11.481,0,0,0,2.727,1.145,4.227,4.227,0,0,0,4.445-1.527,4.336,4.336,0,0,0,.327-4.691c-1.964-4.2-8.182-4.855-12.191-5.155a29.73,29.73,0,0,0-5.727.3,25.144,25.144,0,0,0-3.409.627,25.991,25.991,0,0,0-2.727,1.036,2.727,2.727,0,0,0-1.855,2.455,2.564,2.564,0,0,0,1.855,2.455Z" transform="translate(284.483 66.401)" fill="#1e2959"/>
  <path id="Path_90" data-name="Path 90" d="M155.189,66.144a30,30,0,0,0,9.791,1.773,56.4,56.4,0,0,0,10.336-.245,61.911,61.911,0,0,0,10.091-2.018,23.946,23.946,0,0,0,9.027-4.145c.436-.382,0-.955-.518-.873a95.161,95.161,0,0,0-9.518,2.727,62.4,62.4,0,0,1-9.464,1.909,70.119,70.119,0,0,1-9.6.491,31.459,31.459,0,0,1-4.8-.245,31.385,31.385,0,0,0-5.1-.436c-.491,0-.791.764-.273,1.009Z" transform="translate(267.418 104.587)" fill="#1e2959"/>
  <path id="Path_91" data-name="Path 91" d="M166.109,39.406a146.427,146.427,0,0,0-.245,16.364L166,63.952c0,2.727.218,5.455,0,8.045a9.3,9.3,0,0,1-.545,3.409c-.573,1.145-2.236,1.5-3.355,1.8a23.452,23.452,0,0,1-3.764.709,18.164,18.164,0,0,0-2.727.382,3,3,0,0,0-2.509,3.655c.573,1.964,2.945,2.891,4.636,3.573a27.272,27.272,0,0,0,7.773,1.855,12.3,12.3,0,0,0,7.991-1.036c.736-.518.791-1.882-.273-2.1a33.573,33.573,0,0,0-6.627.218,24.547,24.547,0,0,1-6.627-.927c-.9-.245-5.455-1.282-4.855-2.727.191-.627,1.227-.818,1.773-.927,1.091-.218,2.236-.273,3.327-.491a14.427,14.427,0,0,0,5.891-2.045c1.636-1.282,1.636-3.682,1.773-5.455.382-4.964.327-9.927.355-14.918a156.023,156.023,0,0,0-.436-17.482.818.818,0,0,0-1.636,0Z" transform="translate(264.189 66.661)" fill="#1e2959"/>
  <path id="Path_92" data-name="Path 92" d="M209.3,29.631a33.464,33.464,0,0,0-8.673,3.764,32.727,32.727,0,0,0-7.009,6.055,33.873,33.873,0,0,0-7.745,17.427A42.572,42.572,0,0,0,187.913,77.3,27.545,27.545,0,0,0,200.622,92.74c5.836,2.918,14.755,2.564,18.464-3.545a.417.417,0,0,0-.655-.518,14.536,14.536,0,0,1-16.173,2.891,24.955,24.955,0,0,1-12.3-13.936c-4.527-11.455-3.709-25.745,3.818-35.755a30.49,30.49,0,0,1,6.845-6.573,44.727,44.727,0,0,1,8.973-4.882c.464-.191.3-.927-.218-.791Z" transform="translate(320.166 51.019)" fill="#1e2959"/>
  <path id="Path_93" data-name="Path 93" d="M189.98,32.638a13.144,13.144,0,0,0,.245-3.409,10.908,10.908,0,0,0-.245-1.718c0-.491-.273-1.255-.791-1.418a.382.382,0,0,0-.382,0c-.382.355-.218,1.064-.191,1.5s0,1.064,0,1.582a29.694,29.694,0,0,1,0,3.191.6.6,0,0,0,1.173.164Z" transform="translate(325.572 44.848)" fill="#1e2959"/>
  <path id="Path_94" data-name="Path 94" d="M191.563,30.961a5.645,5.645,0,0,0,.164-2.1,3.573,3.573,0,0,0-.273-1.145.46.46,0,0,0-.191-.436,1.746,1.746,0,0,0-.355-.436.355.355,0,0,0-.6.245,2.48,2.48,0,0,0,0,.518,3.348,3.348,0,0,1,0,.382v.545h0v.409a9.765,9.765,0,0,1,0,1.827.543.543,0,0,0,1.064.136Z" transform="translate(328.571 46.061)" fill="#1e2959"/>
  <path id="Path_95" data-name="Path 95" d="M188.1,44.471a18.436,18.436,0,0,0,1.091,5.918,16.8,16.8,0,0,0,1.255,2.727c.409.709,1.145,1.909,2.073,1.936a.436.436,0,0,0,.409-.3,1.909,1.909,0,0,0-.191-1.2,11.591,11.591,0,0,0-.655-1.282,26.709,26.709,0,0,1-1.2-2.455,22.008,22.008,0,0,1-1.473-5.455c0-.818-1.336-.873-1.309,0Z" transform="translate(324.78 75.397)" fill="#fff"/>
  <path id="Path_96" data-name="Path 96" d="M191,49.606a5.183,5.183,0,0,0,1.009,1.827,4.938,4.938,0,0,0,.736.682,4.064,4.064,0,0,0,.982.545,1.855,1.855,0,0,0,1.091,0,.491.491,0,0,0,.382-.6.928.928,0,0,0-.464-.491l-.791-.464-.355-.245h0l-.218-.191-.355-.355h0l-.245-.436a1.276,1.276,0,0,1,0-.245h0V49.47a.889.889,0,0,0-1.773.136Z" transform="translate(329.787 83.898)" fill="#fff"/>
  <path id="Path_97" data-name="Path 97" d="M168.85,104.713a22.037,22.037,0,0,0,9.027,3.709,54.549,54.549,0,0,0,9.982,1.118,58.826,58.826,0,0,0,19.745-2.973,59.782,59.782,0,0,0,35.454-31.582c.709-1.555,1.391-3.164,1.964-4.773a18.9,18.9,0,0,0,1.309-5.1.655.655,0,0,0-1.2-.327c-1.282,2.727-1.964,5.455-3.136,8.182a59.43,59.43,0,0,1-4.173,7.827A57.873,57.873,0,0,1,191.1,107.823a56.209,56.209,0,0,1-10.909-.464,37.362,37.362,0,0,1-10.773-3.3c-.409-.191-.927.355-.518.682Z" transform="translate(291.366 111.263)" fill="#1e2959"/>
  <path id="Path_98" data-name="Path 98" d="M170.11,76.779c-5.1,2.945-5.236,9.573-2.209,14.073a18.109,18.109,0,0,0,6.654,5.673,34.251,34.251,0,0,0,4.609,1.964,14.372,14.372,0,0,0,5.018,1.173.545.545,0,0,0,.273-1.009,15.408,15.408,0,0,0-3.927-1.582,35.457,35.457,0,0,1-4.255-1.664A18.3,18.3,0,0,1,170,90.743a10.309,10.309,0,0,1-2.564-6.845,8.536,8.536,0,0,1,3.027-6.464c.355-.273,0-.873-.382-.627Z" transform="translate(286.424 132.433)" fill="#1e2959"/>
  <path id="Path_99" data-name="Path 99" d="M175.844,86.574a9.6,9.6,0,0,0,8.673-.655.355.355,0,0,0-.273-.627,39.368,39.368,0,0,1-4.036.573,11.918,11.918,0,0,1-4.036-.436c-.736-.218-1.009.9-.3,1.145Z" transform="translate(302.945 147.184)" fill="#1e2959"/>
  <path id="Path_100" data-name="Path 100" d="M185.017,119.183a67.445,67.445,0,0,0,25.173-13.636,62.018,62.018,0,0,0,17.318-23.591,44.536,44.536,0,0,0,2.4-8.018c.245-1.282.436-2.564.573-3.873a18.332,18.332,0,0,0-.218-4.364.491.491,0,0,0-.982,0c-.136,1.173-.409,2.318-.545,3.491s-.3,2.727-.545,3.9a45.048,45.048,0,0,1-1.854,6.709,53.617,53.617,0,0,1-6.818,12.791,69.545,69.545,0,0,1-20.4,19.091,80.073,80.073,0,0,1-14.318,6.845c-.545.191-.327,1.064.245.9Z" transform="translate(318.535 112.503)" fill="#1e2959"/>
  <path id="Path_101" data-name="Path 101" d="M146.006,97.741c-.818,6.6-.873,13.364-1.064,20.018s-.382,13.364-.518,20.018q-.436,20.018-.545,40.064a206.27,206.27,0,0,0,.355,22.527.477.477,0,0,0,.955,0c.655-6.627.382-13.364.436-20.045s0-13.364.191-20.045q.245-20.045.791-40.064c.191-7.473.709-15.055.3-22.527a.436.436,0,1,0-.873,0Z" transform="translate(248.128 167.844)" fill="#1e2959"/>
  <path id="Path_102" data-name="Path 102" d="M110.328,131.96a64.662,64.662,0,0,1,16.909,0,92.535,92.535,0,0,1,16.173,4.009,165.227,165.227,0,0,1,16.036,6.518c4.636,2.1,9.273,4.227,13.636,6.709a62.124,62.124,0,0,1,6.927,4.445c2.318,1.745,4.445,3.736,6.682,5.455.273.218.736,0,.518-.409a32.181,32.181,0,0,0-11.264-9.736,124.686,124.686,0,0,0-13.936-6.927c-5.318-2.346-10.636-4.609-16.064-6.682a83.812,83.812,0,0,0-16.827-4.718,44.318,44.318,0,0,0-18.927.518c-.409,0-.355.845,0,.791Z" transform="translate(189.716 224.143)" fill="#1e2959"/>
  <path id="Path_103" data-name="Path 103" d="M152.734,153.309l-.655,1.636A50.7,50.7,0,0,0,143.9,152.9a48.846,48.846,0,0,0-20.045.736.285.285,0,0,1-.164-.545,46.855,46.855,0,0,1,28.936.191Z" transform="translate(213.173 260.504)" fill="#1e2959"/>
  <path id="Path_104" data-name="Path 104" d="M199.932,163.849c.382-1.009.709-2.018,1.036-3.027a10.91,10.91,0,0,0,.545-3.136.382.382,0,0,0-.682-.191,10.909,10.909,0,0,0-1.309,2.946c-.327,1.036-.627,2.045-.845,3.082a.655.655,0,0,0,1.255.355Z" transform="translate(343.03 271.646)" fill="#1e2959"/>
  <path id="Path_105" data-name="Path 105" d="M200.961,157.79c.245-.573.491-1.145.709-1.745a8.476,8.476,0,0,0,.464-1.718.327.327,0,0,0-.573-.245,5.856,5.856,0,0,0-.491.736c-.136.245-.3.491-.409.736s-.491,1.064-.736,1.609a.627.627,0,0,0,.218.818.6.6,0,0,0,.818-.218Z" transform="translate(345.082 265.813)" fill="#1e2959"/>
  <path id="Path_106" data-name="Path 106" d="M232.119,189.746a.327.327,0,0,1-.6,0,43.087,43.087,0,0,0-.791-4.855,34.691,34.691,0,0,0-6.464-14.045,42.82,42.82,0,0,0-7.391-7.282l-.464-.355a36.522,36.522,0,0,0,3.873.818,39.786,39.786,0,0,1,5.727,5.945,33.381,33.381,0,0,1,5.155,9.273,19.882,19.882,0,0,1,.954,10.5Z" transform="translate(373.679 281.775)" fill="#1e2959"/>
  <path id="Path_107" data-name="Path 107" d="M266.705,157.855a.6.6,0,0,1-.764.573,11.235,11.235,0,0,1-2.727-2.236,16.527,16.527,0,0,0-2.973-2.018,18.928,18.928,0,0,0-6.955-2.127,26.425,26.425,0,0,0-9.027.791,1.433,1.433,0,0,0,.818-1.745,25.146,25.146,0,0,1,8.755-.6,20.863,20.863,0,0,1,7.5,2.264,17.047,17.047,0,0,1,3.109,2.127A5.455,5.455,0,0,1,266.705,157.855Z" transform="translate(421.783 259.558)" fill="#1e2959"/>
  <path id="Path_108" data-name="Path 108" d="M238.728,155.589c17.945-7.936,36-16.036,55.091-20.809q3.927-.982,7.882-1.745a47.233,47.233,0,0,0,8.182-1.773.573.573,0,0,0-.136-1.118,24.545,24.545,0,0,0-7.336.627q-3.682.655-7.336,1.527-7.118,1.664-14.045,4.009a282.461,282.461,0,0,0-27.436,11.127c-5.155,2.346-10.255,4.855-15.355,7.336-.518.245,0,.982.436.764Z" transform="translate(411.006 224.569)" fill="#1e2959"/>
  <path id="Path_109" data-name="Path 109" d="M221.567,109.576q5.782,9.382,11.4,18.818c1.882,3.136,3.736,6.3,5.618,9.464a53.373,53.373,0,0,0,5.727,9.082.491.491,0,0,0,.845-.491,48.573,48.573,0,0,0-5.127-9.436c-1.882-3.136-3.818-6.273-5.755-9.382q-5.809-9.355-11.918-18.518c-.327-.464-1.064,0-.764.436Z" transform="translate(382.512 188.001)" fill="#1e2959"/>
  <path id="Path_110" data-name="Path 110" d="M226.229,168.064a13.635,13.635,0,0,1-4.718,2.727l-4.909,2.536q-8.864,4.691-17.291,10.064c-5.127,3.273-10.064,6.818-15.055,10.309a2.859,2.859,0,0,0-.136-1.064c2.318-1.936,4.745-3.764,7.2-5.455q8.182-5.945,16.909-11.073,4.364-2.564,8.836-4.909l4.582-2.345a9.928,9.928,0,0,1,4.227-1.555.491.491,0,0,1,.355.764Z" transform="translate(317.905 288.84)" fill="#1e2959"/>
  <path id="Path_111" data-name="Path 111" d="M234.328,172.829a27.709,27.709,0,0,1-5.727,2.591l-5.945,2.536c-6.764,2.973-13.636,6.055-20.1,9.409-5.755,2.945-11.373,6.082-16.991,9.245l-.355-.873c2.727-1.718,5.591-3.355,8.427-4.991,6.518-3.709,13.227-7.173,19.991-10.473q5.018-2.427,10.173-4.664l5.073-2.155A21,21,0,0,1,234,171.683C234.683,171.6,234.737,172.556,234.328,172.829Z" transform="translate(319.788 296.402)" fill="#1e2959"/>
  <path id="Path_112" data-name="Path 112" d="M238.472,177.727a44.842,44.842,0,0,1-6.055,2.291l-6.082,2.264q-19.091,7.2-37.936,15.382c-.355-.245-.682-.518-1.009-.791L195,193.436q10.555-4.636,21.273-8.918,5.455-2.127,10.773-4.173l5.318-1.991a37.412,37.412,0,0,1,5.455-1.936C238.69,176.281,239.208,177.318,238.472,177.727Z" transform="translate(323.553 304.567)" fill="#1e2959"/>
  <path id="Path_113" data-name="Path 113" d="M191.634,196.078c4.855.518,9.818.409,14.727.545l13.991.327q7.309.218,14.618.191a141.388,141.388,0,0,0,14.645-.6,43.936,43.936,0,0,0,13.473-3.382c3.955-1.8,7.036-5.1,11.127-6.627a56.126,56.126,0,0,1,11.564-2.591c3.218-.464,6.464-.791,9.709-1.118,3.982-.409,7.964-.709,11.945-1.118a79.552,79.552,0,0,0,9.736-1.2.736.736,0,0,0-.191-1.445,82.775,82.775,0,0,0-8.455.818l-10.718,1.227c-3.327.382-6.655.818-9.982,1.064a61.8,61.8,0,0,0-10.255,1.309,27.274,27.274,0,0,0-6.245,2.236c-1.964,1.036-3.764,2.291-5.618,3.491a33.683,33.683,0,0,1-12.627,4.691,102.3,102.3,0,0,1-14.455,1.118c-4.936.164-9.873.273-14.836.355s-10.609,0-15.927,0-10.909-.382-16.364,0a.327.327,0,0,0,0,.655Z" transform="translate(330.083 309.152)" fill="#1e2959"/>
  <path id="Path_114" data-name="Path 114" d="M241.346,181.146a57.93,57.93,0,0,0,8.482-.818l4.309-.682c1.118-.191,2.727,0,3.491-1.173a.382.382,0,0,0,0-.518c-1.009-.709-2.727,0-3.764.191l-4.118.736c-2.727.491-5.591.927-8.345,1.664a.3.3,0,0,0,0,.6Z" transform="translate(416.325 306.712)" fill="#1e2959"/>
  <path id="Path_115" data-name="Path 115" d="M248.992,178.233h.818l.273-.164.164-.136v-.164a.245.245,0,0,0,0-.273.273.273,0,0,0-.273,0h-.955a.518.518,0,0,0-.409,0,.742.742,0,0,0-.245.764h.409Z" transform="translate(428.806 306.379)" fill="#1e2959"/>
  <path id="Path_116" data-name="Path 116" d="M162.182,165.588c6.464,2.373,12.873,4.827,19.091,7.745a151.959,151.959,0,0,1,18.818,10.2q2.318,1.527,4.555,3.164a23.725,23.725,0,0,0,4.418,3.136c.518.218.982-.491.709-.927a14.1,14.1,0,0,0-3.491-3.109q-2.045-1.582-4.173-3.027-4.391-3.027-8.945-5.755a109.721,109.721,0,0,0-19.636-9.218A68.453,68.453,0,0,0,162.4,164.77a.4.4,0,0,0-.218.764Z" transform="translate(279.516 284.443)" fill="#1e2959"/>
  <path id="Path_117" data-name="Path 117" d="M268.669,199.665a20.944,20.944,0,0,0,8.891-3.655,32.29,32.29,0,0,0,7.418-6.545,32.727,32.727,0,0,0,7.473-19.418,25.09,25.09,0,0,0-1.991-12.164c-.327-.682-1.282-.164-1.146.491a54.551,54.551,0,0,1,1.445,10.282,32.072,32.072,0,0,1-1.691,10.2,31.609,31.609,0,0,1-11.345,15.218,34.344,34.344,0,0,1-4.336,2.727c-1.582.818-3.3,1.418-4.882,2.291a.355.355,0,0,0,.164.655Z" transform="translate(463.374 272.02)" fill="#1e2959"/>
  <path id="Path_118" data-name="Path 118" d="M232.251,70.5a76.363,76.363,0,0,1,30,18.409,118.308,118.308,0,0,1,21.273,29.755c3.245,6.164,5.809,12.518,8.455,18.955.409,1.009,2.018.655,1.691-.464a98.733,98.733,0,0,0-7.255-17.209,148.032,148.032,0,0,0-9.9-16.773,88.228,88.228,0,0,0-25.445-25.364A68.182,68.182,0,0,0,232.5,69.631a.44.44,0,1,0-.245.845Z" transform="translate(400.492 120.109)" fill="#1e2959"/>
  <path id="Path_119" data-name="Path 119" d="M116.308,145.955c3.736-6.382,7.173-12.927,10.718-19.391s7.064-12.982,10.582-19.473a49.773,49.773,0,0,0,5.264-11.073.327.327,0,0,0-.545-.327,43.337,43.337,0,0,0-5.455,9.191L131.69,114.7c-3.464,6.545-6.818,13.118-10.255,19.664-1.936,3.709-3.9,7.418-5.727,11.182-.218.464.436.873.709.409Z" transform="translate(199.663 164.985)" fill="#1e2959"/>
  <path id="Path_120" data-name="Path 120" d="M127.555,96.293a12.044,12.044,0,0,0,.382-1.418,2.868,2.868,0,0,0,0-.464v-.164h0a2.4,2.4,0,0,0,0-.436s0-.245,0-.382a.355.355,0,0,0-.655-.164l-.218.3a2.242,2.242,0,0,0-.164.382h0v.136a2.892,2.892,0,0,0-.164.436c-.136.464-.273.927-.382,1.418a.6.6,0,0,0,1.145.327Z" transform="translate(218.116 160.674)" fill="#1e2959"/>
  <path id="Path_121" data-name="Path 121" d="M137.38,179.954c10.036.355,20.1.245,30,.273h30c5.645,0,11.318.164,16.936-.327a.491.491,0,1,0,0-.982c-5.018-.409-10.036-.3-15.055-.327H154.207c-5.645,0-11.291,0-16.936.245a.491.491,0,0,0,0,.982Z" transform="translate(236.136 308.341)" fill="#1e2959"/>
  <path id="Path_122" data-name="Path 122" d="M118.089,215.79s162.327,15.273,162.327,19.418-142.227,82.554-142.227,82.554S99.38,263.654,118.089,215.79Z" transform="translate(195.046 372.595)" fill="#404972"/>
  <path id="Path_123" data-name="Path 123" d="M215.754,230.667h0l-1.118-.164c-7.691-1.118-15.382-2.073-23.1-2.973l-2.1-.245h0l-6.191-.736-14.891-1.718h0l-2.4-.273h0l-19.091-2.127h-.191l-1.991-.218L125.59,220.14a7.361,7.361,0,0,0,.218,1.064l16.118,1.855h1.036l-8.345,4.909-6.273,3.736h-1.064l.191,1.009.164,1.009,1.227-.736,4.255.491,14.727,1.691q-7.118,4.145-14.209,8.345l-2.727,1.664-1.582-.164.136,1.036h0V247l1.118-.627,21.191,2.482h.9L141,256l-5.236,3.273h0l-4.882-.545.136,1.255,3.082.355-2.727,1.827v1.009l4.364-2.727h0l20.454,2.482-4.609,2.727q-9.518,5.727-18.873,11.673l.164.818q12.327-7.691,24.9-15.027h0l1.855-1.064,8.182-4.773q4.827-2.727,9.709-5.455h0l1.882-1.064q9.055-4.991,18.218-9.764l1.964-1.009,5.945-3.055,10.227-5.155,1.773-.873ZM178.526,227.2l9.136,1.091-2.209,1.255-6.382,3.682-6,3.491h0l-21.354-2.454,8.864-5.1,6.055-3.409Zm-40.664,5.455-7.364-.818q7.309-4.364,14.673-8.618l19.091,2.209-3.055,1.827-9.164,5.455-2.373,1.391Zm-5.455,12.491,17.482-9.927h0l19.745,2.318,1.555.191h0l-4.936,2.918-11.809,7.064Zm25.773,16.664c-5.836-.736-11.673-1.418-17.536-2.1l-3.109-.355q8.591-5.209,17.209-10.391l21.245,2.727q-8.918,4.991-17.782,10.227ZM189,244.44q-5.455,3-11.073,6.082c-7.091-.927-14.209-1.745-21.3-2.591h0q8.4-5.018,16.827-9.955l22.555,2.727Zm18.873-9.927-9.982,5.182h0c-7.582-1.009-15.136-1.882-22.745-2.727l2.727-1.582,7.091-4.091,3.736-2.127,1.118-.627,21.245,2.727,2.727.355Z" transform="translate(216.808 380.109)" fill="#1e2959"/>
  <path id="Path_124" data-name="Path 124" d="M28.046,384,.31,166.2S6.092,154.169,15.8,153.487s298.991,28.445,303.163,33.982,32.727,218.536,32.727,218.536S472.4,340.087,475.182,342.869s.682,16.636.682,16.636S346.128,439.278,339.2,442.06,27.583,410.151,26.9,407.369,28.046,384,28.046,384Z" transform="translate(0.416 264.961)" fill="#1e2959"/>
  <path id="Path_125" data-name="Path 125" d="M123.732,166.22c-1.827,1.255-3.6,2.536-5.455,3.845a35.456,35.456,0,0,0-5.155,3.955,2.1,2.1,0,0,0-.545,2.045,2.373,2.373,0,0,0,.955,1.255,2.1,2.1,0,0,0,2.127,0,24.082,24.082,0,0,0,4.991-4.145,47.619,47.619,0,0,0,4.527-4.991c.818-1.009-.245-2.727-1.527-1.964Z" transform="translate(194.203 286.647)" fill="#787f9b"/>
  <path id="Path_126" data-name="Path 126" d="M112.705,171.146c5.455,37.609,10.091,75.354,15.082,113.018l8.4,63.109c1.855,13.636,2.536,28.309,5.918,41.755a1.445,1.445,0,0,0,2.727-.382c-.191-13.855-3.3-28.145-5.073-41.864q-4.336-33.709-8.891-67.391c-4.882-36.327-9.136-72.873-15.791-108.927-.3-1.636-2.727-.9-2.455.682Z" transform="translate(194.375 292.712)" fill="#787f9b"/>
  <path id="Path_127" data-name="Path 127" d="M129.208,247.175a.436.436,0,1,0-.328-.423A.436.436,0,0,0,129.208,247.175Z" transform="translate(222.49 425.346)" fill="#fff"/>
  <path id="Path_128" data-name="Path 128" d="M123.991,251.567c-1.145,3.873-.191,8.182,0,12.3,0,3.3-.709,7.146,1.691,9.655a1.2,1.2,0,0,0,1.691,0c2.427-2.727,1.282-7.036,1.036-10.473a28.744,28.744,0,0,0-2.155-11.809,1.227,1.227,0,0,0-2.209.3Z" transform="translate(213.089 432.845)" fill="#787f9b"/>
  <path id="Path_129" data-name="Path 129" d="M11.928,240.506C46.7,241.679,82.046,248.47,116.6,252.261c54.054,5.945,108.082,12.382,162.191,17.7,13.2,1.309,26.482,3.055,39.764,3.436a1.174,1.174,0,0,0,0-2.345c-10.391-.327-21.164-2.727-31.5-3.818-24.382-2.727-48.791-5.455-73.173-8.018-54.054-5.809-108.082-11.809-162.191-17.182-13.145-1.309-26.564-3.409-39.764-3.764a1.118,1.118,0,0,0,0,2.209Z" transform="translate(18.852 411.424)" fill="#787f9b"/>
  <path id="Path_130" data-name="Path 130" d="M.988,159.536c34.773,1.173,70.118,7.964,104.673,11.755,54.054,5.945,108.082,12.382,162.191,17.7,13.2,1.309,26.482,3.055,39.764,3.436a1.174,1.174,0,0,0,0-2.345c-10.391-.327-21.164-2.727-31.5-3.818-24.382-2.727-48.791-5.455-73.173-8.018-54.054-5.809-108.082-11.809-162.191-17.182C27.606,159.755,14.188,157.655.988,157.3a1.118,1.118,0,0,0,0,2.209Z" transform="translate(-0.044 271.567)" fill="#787f9b"/>
  <path id="Path_131" data-name="Path 131" d="M130.6,287.309c16.091-12.164,37.527-20.209,55.364-29.509,21.655-11.291,43.636-24.845,66.354-33.682.873-.327.545-1.718-.409-1.445-22.582,6.409-44.209,20.482-64.8,31.336-18.6,9.791-40.909,18.436-57.654,31.309-1.145.9,0,2.891,1.173,1.991Z" transform="translate(222.657 384.422)" fill="#8389a4"/>
  <path id="Path_132" data-name="Path 132" d="M117.4,168.043c3.627,10.527,3.818,23.4,5.455,34.364q5.291,35.755,10.282,71.564t10.336,72.191c1.718,11.782,5.182,24.3,5.455,36.218a.833.833,0,0,0,1.664,0c-1.173-35.454-9.191-71.509-14.427-106.363q-5.455-36.545-11.1-73.091c-1.745-11.236-1.991-24.545-5.755-35.454-.436-1.255-2.455-.709-2.018.545Z" transform="translate(202.364 287.906)" fill="#8389a4"/>
  <path id="Path_133" data-name="Path 133" d="M364.478,305.492l-1.118.655h0a14.4,14.4,0,0,1-1.718.791h0a17.536,17.536,0,0,1-2.373.709c-9.273,2.182-22.855-1.418-41.127-5.7-22.2-5.209-98.182-24.545-98.182-26.018,0-.545,1.227-1.555,2.945-3.518l.764-.9a36.452,36.452,0,0,0,2.536-3.436l.409-.655a42.515,42.515,0,0,0,4.745-10.909l.164-.573.245-.873a20.475,20.475,0,0,0,.573-3.382v-.6a28.091,28.091,0,0,0-1.309-9.627l-.218-.655h0a45,45,0,0,0-2.727-6.245l-.382-.764a60,60,0,0,0-5.918-9.136l-.927-1.145c1.036.218,88.527,19.091,100.582,19.773s38.509,2.073,46.827,17.345S373.505,299.574,364.478,305.492Z" transform="translate(379.811 385.929)" fill="#fff"/>
  <path id="Path_134" data-name="Path 134" d="M491.349,276.423c-1.146.464-7.391,4.145-25.664,12.245s-55.718,24.545-75.845,37.473A228.542,228.542,0,0,1,364.8,340.323h0l-1.718.791h0c-2.182.955-3.082,1.2-2.373.709l.845-.491c5.1-2.727,11.345-12.027,11.1-29.591s-6.464-21.955-14.782-27.055-46.364-7.173-64.282-10.173c-14.836-2.509-56.645-12.382-70.173-15.627l-4.282-1.036.464-.709s25.664-12.491,47.4-22.882,72.845-29.836,74.454-30.518,123.027,18.491,128.809,20.127a36.491,36.491,0,0,1,15.3,7.145c.573.491,1.118,1.036,1.691,1.582a29.045,29.045,0,0,1,6.845,12.3C498.74,261.614,492.494,275.959,491.349,276.423Z" transform="translate(378.394 351.753)" fill="#f23e6e"/>
  <path id="Path_135" data-name="Path 135" d="M394.478,215.342c-1.173.709-2.4,1.336-3.573,2.018q-3.218,1.8-6.518,3.573-6.627,3.545-13.364,6.927c-15.955,7.991-32.264,15.191-48.573,22.418-8.182,3.627-16.364,7.227-24.545,10.909s-16.364,7.555-24.545,11.236a.381.381,0,0,1-.245,0,.436.436,0,0,1-.382-.382.354.354,0,0,1,.218-.382c8.809-4.909,17.973-9.245,27.109-13.473,16.2-7.5,32.536-14.618,48.736-22.118,8.182-3.764,16.118-7.609,24.054-11.645q6-3.055,11.945-6.245l5.973-3.3,1.991-1.118A10.66,10.66,0,0,1,394.478,215.342Z" transform="translate(470.956 369.089)" fill="#1e2959"/>
  <path id="Path_136" data-name="Path 136" d="M291.118,244.256c-3.055-.709-6.136-1.309-9.191-2.018q-18.245-4.173-36.409-8.618-8.373-2.045-16.718-4.145c-1.854-.491-3.764-.9-5.618-1.391l-.382-.764c2.727.736,5.291,1.282,7.882,1.909,12.273,3,24.545,5.864,36.9,8.782,7.909,1.854,15.764,3.845,23.673,5.727C291.527,243.82,291.527,244.338,291.118,244.256Z" transform="translate(384.716 392.51)" fill="#1e2959"/>
  <path id="Path_137" data-name="Path 137" d="M250.539,234.371l6.136,1.309c2.045.409,4.145.627,6.191,1.091,3.982.927,7.964,1.773,11.973,2.564,7.909,1.609,15.818,3.736,23.836,4.691.3,0,.327-.409,0-.491a227.167,227.167,0,0,0-23.918-5.045c-3.791-.736-7.582-1.527-11.4-2.1-2.127-.327-4.2-.927-6.3-1.364s-4.282-.818-6.436-1.2C250.348,233.634,250.184,234.18,250.539,234.371Z" transform="translate(432.277 403.678)" fill="#1e2959"/>
  <path id="Path_138" data-name="Path 138" d="M269.8,238.71l.6.273h.627a.465.465,0,0,0,.273,0,.273.273,0,0,0,.136-.245.546.546,0,0,0,0-.245l-.136-.164a1.664,1.664,0,0,0-.355-.218l-.573-.327a.519.519,0,0,0-.382,0,.491.491,0,0,0-.3.218,1.22,1.22,0,0,0,.109.709Z" transform="translate(465.651 410.52)" fill="#1e2959"/>
  <path id="Path_139" data-name="Path 139" d="M240.154,236.435a72.277,72.277,0,0,0,13.255,2.727.136.136,0,0,0,0-.273c-4.364-1.309-8.945-1.936-13.391-3.054s-8.864-2.291-13.227-3.655v.164C231.208,233.844,235.545,235.262,240.154,236.435Z" transform="translate(391.608 400.905)" fill="#1e2959"/>
  <path id="Path_140" data-name="Path 140" d="M252.2,237.875c-3.109-.627-6.409-1.064-9.464-1.991a.273.273,0,0,0-.164.518c2.509.764,5.236,1.118,7.827,1.664l16.991,3.436,38.618,7.773c3.464.709,6.955,1.227,10.391,2.018.218,0,.327-.273,0-.327-8.618-2.045-17.345-3.655-26.018-5.454Q271.3,241.666,252.2,237.875Z" transform="translate(418.585 407.292)" fill="#1e2959"/>
  <path id="Path_141" data-name="Path 141" d="M242.258,235.717l-3.709-.627c-.355,0-.518.464-.164.518l3.736.682,1.909.355a4.719,4.719,0,0,0,1.718.164.191.191,0,0,0,0-.327,4.938,4.938,0,0,0-1.664-.409Z" transform="translate(411.294 405.931)" fill="#1e2959"/>
  <path id="Path_142" data-name="Path 142" d="M224.2,235.44l5.127,1.309,6.382,1.636a35.288,35.288,0,0,1,6.382,1.827c.191,0,0,.382,0,.382a35.649,35.649,0,0,1-6.491-1.527l-6.382-1.691-5.1-1.364Z" transform="translate(386.996 406.536)" fill="#1e2959"/>
  <path id="Path_143" data-name="Path 143" d="M233.821,238.539l.736.164h.382a1.229,1.229,0,0,0,.382,0,.218.218,0,0,0,0-.409,1.229,1.229,0,0,0-.355-.191H233.93l-1.445-.273a.355.355,0,0,0-.436.218.327.327,0,0,0,.245.409Z" transform="translate(400.668 410.637)" fill="#1e2959"/>
  <path id="Path_144" data-name="Path 144" d="M331.933,258.3a68.153,68.153,0,0,0-7.009-1.418q-4.336-.791-8.618-1.691-10.473-2.168-20.945-4.473c-14.155-3.082-28.255-6.327-42.464-9.109-4.964-.982-9.954-1.991-14.973-2.727a.164.164,0,1,0,0,.327c4.336.682,8.618,1.664,12.873,2.727l19.473,4.418c14.509,3.273,29.045,6.518,43.636,9.491,3.382.682,6.736,1.364,10.118,2.018a45.875,45.875,0,0,0,7.882,1.145.355.355,0,0,0,.027-.709Z" transform="translate(410.556 412.478)" fill="#1e2959"/>
  <path id="Path_145" data-name="Path 145" d="M235.809,243.349c-2.727-.545-5.236-1.391-7.909-1.991q-2.727-.627-5.7-1.064l.409-.655q2.727.382,5.454.955a41.37,41.37,0,0,1,8.045,2.291C236.327,242.995,236.082,243.349,235.809,243.349Z" transform="translate(383.68 413.79)" fill="#1e2959"/>
  <path id="Path_146" data-name="Path 146" d="M276.829,251.821l-6.273-1.555q-6.382-1.555-12.818-2.973c-8.645-1.882-17.345-3.627-26.127-4.964-.382,0-.545.491-.164.573,8.7,1.636,17.4,3.273,26.045,5.182q6.436,1.418,12.818,3l6.273,1.582a40.654,40.654,0,0,0,6.355,1.609.355.355,0,0,0,.191-.682A35.914,35.914,0,0,0,276.829,251.821Z" transform="translate(399.278 418.437)" fill="#1e2959"/>
  <path id="Path_147" data-name="Path 147" d="M301,256.8a6.818,6.818,0,0,0-2.4-.436,21.2,21.2,0,0,1-3.218-.409c-1.991-.327-3.982-.627-5.945-1.009-3.818-.736-7.582-1.609-11.373-2.509a214.034,214.034,0,0,0-23.7-4.664c-.491,0-.491.655,0,.736a237.911,237.911,0,0,1,24.055,5.182c3.764.927,7.555,1.8,11.373,2.482,1.8.327,3.627.627,5.455.818l2.918.273a6.981,6.981,0,0,0,2.727,0C301.109,257.179,301.218,256.906,301,256.8Z" transform="translate(438.598 427.833)" fill="#1e2959"/>
  <path id="Path_148" data-name="Path 148" d="M275.3,245.5c-3.436-.436-6.764-1.118-10.145-1.854-9.109-2.018-18.191-4.145-27.273-6.245-4.473-1.036-8.973-2.127-13.445-3.136v-.6l2.209.464c9.109,1.936,18.218,4.009,27.273,6.055,7.118,1.636,14.264,3.136,21.327,4.991C275.522,245.224,275.495,245.5,275.3,245.5Z" transform="translate(387.549 403.461)" fill="#1e2959"/>
  <path id="Path_149" data-name="Path 149" d="M257.255,250.539c-1.882-.3-3.709-.845-5.455-1.282s-3.545-.791-5.455-1.2c-3.518-.818-7.036-1.527-10.555-2.373l-10.909-2.727-3.873-.927.764-.9,3.655.9,10.746,2.727c3.573.9,7.118,1.909,10.664,2.727s7.145,1.609,10.527,2.727Z" transform="translate(381.624 416.364)" fill="#1e2959"/>
  <path id="Path_150" data-name="Path 150" d="M256.446,249.049A30.675,30.675,0,0,0,252,247.986l-4.309-.9c-2.918-.6-5.864-1.173-8.809-1.745-.3,0-.436.382-.136.464,2.973.655,5.945,1.309,8.945,1.909l4.5.9a28.554,28.554,0,0,0,4.227.709Z" transform="translate(411.97 423.636)" fill="#1e2959"/>
  <path id="Path_151" data-name="Path 151" d="M261.7,238.286a23.4,23.4,0,0,1-4.173-.6l-4.8-.9c-9.545-1.855-19.091-3.818-28.609-6.191l-.218-.655h.273c6.709,1.636,13.418,3.136,20.182,4.527q4.8,1.009,9.6,1.936a61.122,61.122,0,0,1,7.909,1.527.2.2,0,0,1-.164.355Z" transform="translate(386.616 397.036)" fill="#1e2959"/>
  <path id="Path_152" data-name="Path 152" d="M254.913,236.976c4.718.9,9.409,1.964,14.127,2.891l13.882,2.727c4.691.927,9.409,2.073,14.155,2.727.436,0,.655-.573.191-.682-4.582-1.091-9.273-1.827-13.909-2.727L269.2,239.185c-4.636-.9-9.3-1.718-13.936-2.727s-9.382-2.045-14.1-2.918c-.436,0-.627.573-.191.655C245.613,235.34,250.276,236.076,254.913,236.976Z" transform="translate(415.685 403.254)" fill="#1e2959"/>
  <path id="Path_153" data-name="Path 153" d="M289.3,247.517l-31.936-6.736c-2.727-.573-5.455-1.173-8.018-1.691-.355,0-.518.464-.164.545,6.955,1.364,13.882,2.945,20.809,4.418,10.636,2.264,21.273,4.582,31.909,6.791,2.727.545,5.455,1.036,8.182,1.555.218,0,.327-.3,0-.355-2.182-.436-4.336-1.036-6.518-1.5Z" transform="translate(429.949 412.84)" fill="#1e2959"/>
  <path id="Path_154" data-name="Path 154" d="M229.8,240.221h.627l2.345.491,8.182,1.745,26.864,5.7,32.236,6.791q13.964,2.945,27.954,5.836l9.354,2.018,2.891.6a7.528,7.528,0,0,0,1.527.3h.245c.218,0,.218-.327,0-.355a26.033,26.033,0,0,1-3.191-.682l-8.182-1.773-26.836-5.782-32.182-6.9-27.927-5.918-9.191-1.936a42.97,42.97,0,0,0-4.418-.927h-.3a.382.382,0,0,0,0,.764C229.445,240.166,229.718,240.194,229.8,240.221Z" transform="translate(396.153 413.428)" fill="#1e2959"/>
  <path id="Path_155" data-name="Path 155" d="M220.152,243.219a54.534,54.534,0,0,0,8.482,3.136c4.173,1.309,8.345,2.727,12.545,3.818,10.473,2.973,21,5.782,31.527,8.564l30.464,7.991c6.573,1.745,13.145,3.464,19.664,5.455a99.241,99.241,0,0,0,26.4,5.018,27.709,27.709,0,0,0,9.927-1.064,67.583,67.583,0,0,0,9.955-4.554,33.676,33.676,0,0,0,5.455-3.436c.627-.518-.164-1.309-.791-1.036-3.818,1.718-7.364,3.927-11.182,5.618a23.59,23.59,0,0,1-8.182,2.373,81.382,81.382,0,0,1-26.782-3.709c-3.655-1.036-7.282-2.209-10.909-3.246s-6.982-1.909-10.5-2.727q-14.755-3.927-29.536-7.745-15.791-4.118-31.582-8.345c-7.664-2.045-15.273-4.227-22.909-6.355-.573-.164-1.145-.245-1.718-.382a.416.416,0,0,0-.327.764Z" transform="translate(379.728 418.857)" fill="#1e2959"/>
  <path id="Path_156" data-name="Path 156" d="M282.176,263.009c3.3-1.691,6.464-3.736,9.655-5.618s6.464-3.709,9.709-5.455,6.518-3.6,9.818-5.455l4.964-2.564a14.7,14.7,0,0,0,4.391-2.864c.136-.164,0-.491-.191-.464a13.254,13.254,0,0,0-4.691,1.718l-4.936,2.727c-3.355,1.773-6.682,3.6-9.982,5.455s-6.436,3.764-9.627,5.7a109.4,109.4,0,0,0-9.545,6.191.409.409,0,0,0,.409.709Z" transform="translate(486.167 415.43)" fill="#1e2959"/>
  <path id="Path_157" data-name="Path 157" d="M297.2,241.39l1.173-.491.327-.164.3-.218h.164a1.981,1.981,0,0,0,.218-.273.3.3,0,0,0-.273-.464h-1.145l-1.036.6a.421.421,0,0,0,.327.764Z" transform="translate(512.408 414.032)" fill="#1e2959"/>
  <path id="Path_158" data-name="Path 158" d="M302,252.808c13.418-4.827,26.482-10.527,39.436-16.364,1.718-.791,3.464-1.527,5.155-2.427,1.227-.655,3.273-1.555,3.627-3.027,0-.3-.164-.736-.518-.709-1.336.164-2.482,1.391-3.682,2.018s-2.891,1.418-4.336,2.1l-9.709,4.391-19.255,8.536c-3.682,1.609-7.282,3.327-10.909,5.018-.3,0,0,.627.218.518Z" transform="translate(520.969 397.622)" fill="#1e2959"/>
  <path id="Path_159" data-name="Path 159" d="M313.192,233.51c1.255-.382,2.536-.655,3.791-1.064l1.827-.655a2.728,2.728,0,0,0,1.636-1.036.355.355,0,0,0-.218-.518,1.745,1.745,0,0,0-.9,0,4.822,4.822,0,0,0-.927.273l-1.827.682c-1.2.491-2.345,1.118-3.573,1.609-.436.191-.273.873.191.736Z" transform="translate(540.078 397.448)" fill="#1e2959"/>
  <path id="Path_160" data-name="Path 160" d="M317.878,231.1l1.255-.709.3-.164h.327l.218-.164a1.581,1.581,0,0,0,.245-.355.382.382,0,0,0-.327-.545,1.5,1.5,0,0,0-.436,0h-.3l-.464.191-.3.164-1.255.736a.6.6,0,1,0,.6,1.036Z" transform="translate(547.093 395.661)" fill="#1e2959"/>
  <path id="Path_161" data-name="Path 161" d="M238.787,228.587c17.155,4.691,34.964,6.164,52.527,8.591a217.552,217.552,0,0,1,24.164,4.118c7.036,1.8,14.1,4.936,18.218,11.209a27.819,27.819,0,0,1,3.982,10.336,67.745,67.745,0,0,1,.491,11.236.688.688,0,0,0,1.364.191,28.173,28.173,0,0,0,.245-10.145,31.773,31.773,0,0,0-2.727-9.736,27.273,27.273,0,0,0-16.064-13.636,116.927,116.927,0,0,0-24-4.882c-9.027-1.282-18.109-2.345-27.273-3.436-10.282-1.227-20.645-2.536-30.764-4.773a.436.436,0,0,0-.218.818Z" transform="translate(411.847 393.098)" fill="#1e2959"/>
  <path id="Path_162" data-name="Path 162" d="M219.395,224.383c4.582,1.227,9.218,2.209,13.855,3.273l14.182,3.327c9.491,2.236,19.091,4.445,28.582,6.491L284,239.165a52.448,52.448,0,0,0,7.745,1.364.784.784,0,0,0,.218-1.527,56.506,56.506,0,0,0-6.9-1.473l-7.036-1.418q-7.118-1.5-14.236-3.109l-28.282-6.409c-5.264-1.2-10.527-2.482-15.845-3.382-.736,0-1.091.955-.327,1.173Z" transform="translate(378.003 385.411)" fill="#1e2959"/>
  <path id="Path_163" data-name="Path 163" d="M358.484,269.577c-7.473,4.882-20.155,1.445-38.564-2.864s-81.491-20.454-81.491-21.6c0-.464,1.064-1.336,2.536-3.027l.6-.709A33.246,33.246,0,0,0,248,228.641v-.791a16.147,16.147,0,0,0,.491-3.136v-.464a24.109,24.109,0,0,0-1.282-8.182l-.164-.518a46.992,46.992,0,0,0-7.991-13.8s73.418,15.845,83.509,16.364,31.964,1.718,38.864,14.4S365.957,264.7,358.484,269.577Z" transform="translate(411.713 348.344)" fill="#fff"/>
  <path id="Path_164" data-name="Path 164" d="M237.72,230.2s47.018,11.318,61.8,13.827,46.364,4.227,53.373,8.455,12.082,7.882,12.273,22.445-4.991,22.255-9.218,24.545,6.9-1.909,23.618-12.682,47.809-24.382,62.973-31.091,20.345-9.791,21.3-10.173,6.136-12.273,2.1-26.1-14.973-16.118-19.773-17.454S340.593,184.707,339.256,185.28s-43.636,16.691-61.8,25.336S238.1,229.707,238.1,229.707" transform="translate(410.487 319.869)" fill="#42bafc"/>
  <path id="Path_165" data-name="Path 165" d="M282.665,242.845c3.109-1.582,6.027-3.518,9.027-5.264s6.027-3.464,9.082-5.127c6.109-3.355,12.273-6.545,18.518-9.627,12.491-6.191,25.118-12.054,37.636-18.191q5.209-2.564,10.391-5.182l5.455-2.727a17.59,17.59,0,0,0,4.8-2.973.709.709,0,0,0-.682-1.173,16.2,16.2,0,0,0-4.609,2.045l-4.636,2.4q-4.664,2.373-9.354,4.691c-6.3,3.109-12.655,6.164-19.091,9.218-12.573,6.082-25.145,12.218-37.391,19.091-3.382,1.882-6.736,3.791-10.036,5.782a89.74,89.74,0,0,0-9.655,6.218c-.464.382,0,1.036.6.791Z" transform="translate(486.851 332.476)" fill="#1e2959"/>
  <path id="Path_166" data-name="Path 166" d="M237.8,202.5c5.018,1.745,10.336,2.727,15.491,4.145s9.927,2.509,14.918,3.627,10.009,2.073,15,3.164,10.036,2.236,15.082,3.245c10.473,2.073,21.109,2.727,31.691,4.2,4.936.627,9.9,1.336,14.782,2.318a31.771,31.771,0,0,1,11.591,4.336,18.627,18.627,0,0,1,7.609,12.082,81.429,81.429,0,0,1,.382,15.055.491.491,0,0,0,.954,0,38.319,38.319,0,0,0,.6-13.636,21.819,21.819,0,0,0-4.773-11.7c-5.836-6.845-15.6-8.045-23.945-9.3-5.618-.845-11.236-1.527-16.882-2.127s-10.909-1.091-16.364-2.018c-10.445-1.8-20.809-4.255-31.2-6.409-5.727-1.2-11.427-2.536-17.1-3.873l-8.591-2.018c-3.055-.709-6.109-1.473-9.218-1.882-.436,0-.464.573,0,.709Z" transform="translate(410.083 348.275)" fill="#1e2959"/>
  <path id="Path_167" data-name="Path 167" d="M279.025,243.051a13.014,13.014,0,0,0,2.155.245,15.861,15.861,0,0,0,2.318-.3,22.793,22.793,0,0,0,4.309-1.336,66.235,66.235,0,0,0,8.318-4.309l18.3-10.745,5.018-2.945a19.909,19.909,0,0,0,4.964-3.382.682.682,0,0,0-.655-1.118,21.355,21.355,0,0,0-5.7,2.945l-5.754,3.436-11.155,6.845c-3.573,2.155-7.118,4.391-10.773,6.436a28.858,28.858,0,0,1-5.455,2.482,19.579,19.579,0,0,1-5.836.982c-.573,0-.518.791,0,.845Z" transform="translate(481.218 378.389)" fill="#1e2959"/>
  <path id="Path_168" data-name="Path 168" d="M297.654,220.6c.436-.273.873-.545,1.309-.845a6.89,6.89,0,0,0,.709-.573,1.581,1.581,0,0,0,.518-.709.409.409,0,0,0-.409-.518,1.692,1.692,0,0,0-.9.245l-.655.382c-.436.273-.845.573-1.282.873a.735.735,0,0,0-.3.409.682.682,0,0,0,1.009.764Z" transform="translate(512.225 376.326)" fill="#1e2959"/>
  <path id="Path_169" data-name="Path 169" d="M302.46,231.2c13.636-5.455,26.836-11.318,40.118-17.291,1.909-.845,3.818-1.691,5.727-2.564l2.727-1.255a13.123,13.123,0,0,0,1.5-.736c.464-.3.873-.709,1.364-.982s.191-1.364-.491-1.145a24.054,24.054,0,0,0-2.509.709l-2.427,1.036c-1.746.736-3.436,1.527-5.155,2.291l-9.9,4.473c-6.655,3.027-13.309,6.082-19.909,9.191-3.764,1.773-7.5,3.627-11.236,5.455-.409.218,0,.955.327.764Z" transform="translate(521.684 357.757)" fill="#1e2959"/>
  <path id="Path_170" data-name="Path 170" d="M239.817,218.026l-1.636-.382v.327c2.891.655,5.782,1.664,8.618,2.536s5.455,1.8,8.345,2.727c3.518,1.255,7.145,2.209,10.745,3.245,17.836,5.127,35.782,9.873,53.864,13.964q7.568,1.718,15.164,3.218a109.3,109.3,0,0,0,14.182,2.073.545.545,0,0,0,.136-1.064c-8.564-2.018-17.318-3.355-25.936-5.236q-14.155-3.109-28.173-6.736c-8.755-2.236-17.509-4.609-26.236-6.982l-10.909-3c-3.082-.818-6.191-1.445-9.273-2.264s-6.873-2.155-10.364-2.864c-.218,0-.3.3,0,.327l1.636.327c.191,0,.273-.245,0-.3Z" transform="translate(411.227 375.704)" fill="#1e2959"/>
  <path id="Path_171" data-name="Path 171" d="M315.649,210.739a30.621,30.621,0,0,0,4.827-1.227q1.173-.409,2.318-.927a5.205,5.205,0,0,0,1.091-.627c.273-.218.654-.491.709-.845a.382.382,0,0,0-.164-.409,1.636,1.636,0,0,0-1.118,0,5.779,5.779,0,0,0-1.118.382l-2.209.955c-1.527.627-3.027,1.309-4.555,1.909a.41.41,0,0,0,.218.791Z" transform="translate(544.194 356.728)" fill="#1e2959"/>
  <path id="Path_172" data-name="Path 172" d="M320.517,207.243l.327-.273.327-.3.3-.3a3.815,3.815,0,0,0,.3-.409.3.3,0,0,0-.327-.436l-.464.164-.382.218-.382.218-.355.245a.628.628,0,0,0-.245.327.465.465,0,0,0,.355.709.573.573,0,0,0,.464-.164Z" transform="translate(551.844 354.852)" fill="#1e2959"/>
  <path id="Path_173" data-name="Path 173" d="M241.3,205.194c2.318.818,4.8,1.282,7.173,1.882q6.914,1.677,13.827,3.3,15.055,3.518,30,6.873c2.536.545,5.073,1.009,7.609,1.582.3,0,.409-.382,0-.464-6.545-1.5-13.064-3.082-19.609-4.555-10.2-2.291-20.373-4.582-30.545-6.982a88.165,88.165,0,0,1-8.591-2.155C241.113,204.594,240.977,205.085,241.3,205.194Z" transform="translate(416.312 353.382)" fill="#1e2959"/>
  <path id="Path_174" data-name="Path 174" d="M264.947,210.487l5.073,1.036c1.691.327,3.436.464,5.127.845,3.3.736,6.6,1.391,9.9,2.018,6.545,1.255,13.091,2.973,19.718,3.682a.2.2,0,0,0,0-.409,183.825,183.825,0,0,0-19.8-3.982c-3.136-.573-6.273-1.2-9.436-1.636-1.773-.245-3.464-.736-5.209-1.091s-3.545-.627-5.455-.927C264.783,209.968,264.647,210.4,264.947,210.487Z" transform="translate(457.196 362.626)" fill="#1e2959"/>
  <path id="Path_175" data-name="Path 175" d="M280.939,213.979l.518.218h.409a.382.382,0,0,0,.218,0,.218.218,0,0,0,0-.191.464.464,0,0,0,0-.218v-.136a1.362,1.362,0,0,0-.3-.191l-.491-.273a.389.389,0,0,0-.545.491A.382.382,0,0,0,280.939,213.979Z" transform="translate(484.759 368.051)" fill="#1e2959"/>
  <path id="Path_176" data-name="Path 176" d="M256.393,212.4a58.474,58.474,0,0,0,10.909,2.127v-.218c-3.627-1.064-7.418-1.527-11.073-2.4s-7.336-1.827-10.909-2.945v.136C248.975,210.3,252.629,211.469,256.393,212.4Z" transform="translate(423.614 360.798)" fill="#1e2959"/>
  <path id="Path_177" data-name="Path 177" d="M266.315,213.472a75.005,75.005,0,0,1-7.827-1.582.218.218,0,0,0,0,.436c2.1.627,4.336.9,6.464,1.309L279,216.363l31.936,6.109c2.727.545,5.755.955,8.591,1.582.191,0,.245-.245,0-.273-7.118-1.636-14.345-2.891-21.518-4.255Z" transform="translate(445.982 365.859)" fill="#1e2959"/>
  <path id="Path_178" data-name="Path 178" d="M258.1,211.754l-3.055-.464c-.3,0-.409.409,0,.436l3.109.518,1.582.273a3.819,3.819,0,0,0,1.418,0,.164.164,0,0,0,0-.3,4.009,4.009,0,0,0-1.364-.327Z" transform="translate(439.958 364.822)" fill="#1e2959"/>
  <path id="Path_179" data-name="Path 179" d="M242.086,211.45l7.527,1.854,5.291,1.282a29.261,29.261,0,0,1,5.291,1.473.164.164,0,1,1,0,.327,28.94,28.94,0,0,1-5.455-1.2l-5.291-1.364-7.5-1.909Z" transform="translate(417.793 365.099)" fill="#1e2959"/>
  <path id="Path_180" data-name="Path 180" d="M251.2,214.342h1.227a.191.191,0,0,0,0-.355l-.3-.164h-.873l-1.173-.218a.3.3,0,0,0-.355.191.273.273,0,0,0,.191.355Z" transform="translate(431.204 368.807)" fill="#1e2959"/>
  <path id="Path_181" data-name="Path 181" d="M332.346,229.793a55.109,55.109,0,0,0-5.782-1.118l-7.145-1.336c-5.782-1.118-11.564-2.345-17.318-3.545-11.7-2.427-23.4-5.018-35.155-7.2-4.118-.764-8.182-1.555-12.382-2.073a.136.136,0,0,0,0,.273c3.573.518,7.118,1.309,10.664,2.073l16.118,3.491c12,2.727,24.027,5.155,36.109,7.5l8.373,1.582a37.118,37.118,0,0,0,6.518.873.273.273,0,0,0,0-.518Z" transform="translate(439.352 370.401)" fill="#1e2959"/>
  <path id="Path_182" data-name="Path 182" d="M241.031,215.19c-.382,0-.382.545,0,.6q3.436.382,6.818,1.091c2.182.464,4.336,1.173,6.545,1.582.218,0,.409-.3.164-.382a33.321,33.321,0,0,0-6.655-1.827Q244.509,215.558,241.031,215.19Z" transform="translate(415.712 371.559)" fill="#1e2959"/>
  <path id="Path_183" data-name="Path 183" d="M286.794,224.96l-5.182-1.255q-5.291-1.227-10.609-2.345c-7.173-1.5-14.373-2.864-21.6-3.9-.3,0-.464.436,0,.491,7.2,1.282,14.4,2.564,21.573,4.064q5.455,1.118,10.609,2.373l5.182,1.255a32.98,32.98,0,0,0,5.264,1.282.3.3,0,0,0,.164-.573,29.132,29.132,0,0,0-5.4-1.391Z" transform="translate(430.167 375.48)" fill="#1e2959"/>
  <path id="Path_184" data-name="Path 184" d="M306.857,228.864a5.454,5.454,0,0,0-1.964-.327,16.152,16.152,0,0,1-2.727-.327c-1.636-.245-3.3-.491-4.936-.791-3.164-.573-6.273-1.255-9.409-1.964a173.232,173.232,0,0,0-19.609-3.655c-.382,0-.382.573,0,.627a192.708,192.708,0,0,1,19.909,4.091c3.109.736,6.245,1.418,9.409,1.964,1.5.245,3,.491,4.527.627l2.4.191a5.619,5.619,0,0,0,2.291,0C306.966,229.191,307.048,228.945,306.857,228.864Z" transform="translate(462.659 382.976)" fill="#1e2959"/>
  <path id="Path_185" data-name="Path 185" d="M242.2,210l5.127,1.036q11.332,2.332,22.609,4.8c5.891,1.282,11.809,2.482,17.645,3.955.164,0,0,.273,0,.273-2.727-.327-5.591-.873-8.373-1.445-7.527-1.582-15.055-3.273-22.555-4.936-4.8-1.064-9.6-2.209-14.427-3.191Z" transform="translate(418.225 362.594)" fill="#1e2959"/>
  <path id="Path_186" data-name="Path 186" d="M272.9,224.615c-1.555-.218-3.055-.682-4.609-1.009s-2.945-.627-4.418-.955c-2.891-.655-5.836-1.227-8.727-1.882l-9.082-2.155c-2.236-.518-4.5-1.009-6.709-1.636l.6-.709c2.209.464,4.364,1.036,6.545,1.527l8.891,2.1c2.945.709,5.891,1.527,8.836,2.264s5.918,1.282,8.727,2.209Z" transform="translate(413.302 373.424)" fill="#1e2959"/>
  <path id="Path_187" data-name="Path 187" d="M269.97,222.848a24.844,24.844,0,0,0-3.682-.845l-3.573-.709c-2.427-.491-4.855-.927-7.282-1.364-.245,0-.355.327,0,.382,2.455.518,4.936,1.036,7.391,1.5l3.709.709a23.086,23.086,0,0,0,3.491.545S270.079,222.848,269.97,222.848Z" transform="translate(440.691 379.746)" fill="#1e2959"/>
  <path id="Path_188" data-name="Path 188" d="M241.67,206.77l3.518.845c5.455,1.309,11.1,2.482,16.691,3.6l7.936,1.5a50.387,50.387,0,0,1,6.545,1.2.15.15,0,0,1,0,.3,19.227,19.227,0,0,1-3.436-.464l-3.982-.709c-9.055-1.664-18.136-3.464-27.055-5.755Z" transform="translate(417.31 357.015)" fill="#1e2959"/>
  <path id="Path_189" data-name="Path 189" d="M268.572,212.625c3.9.709,7.773,1.527,11.673,2.264l11.482,2.182c3.9.736,7.773,1.636,11.7,2.209.355,0,.545-.491.164-.573-3.791-.873-7.691-1.418-11.509-2.155l-11.7-2.182c-3.845-.709-7.691-1.336-11.509-2.073s-7.773-1.609-11.673-2.318c-.355,0-.518.491-.164.545C260.881,211.344,264.726,211.916,268.572,212.625Z" transform="translate(443.508 362.56)" fill="#1e2959"/>
  <path id="Path_190" data-name="Path 190" d="M297.051,221.3l-26.4-5.455c-2.209-.436-4.418-.927-6.655-1.336-.3,0-.436.409,0,.464,5.755,1.064,11.482,2.318,17.209,3.491,8.809,1.8,17.591,3.6,26.4,5.455,2.209.436,4.445.818,6.682,1.227.191,0,.273-.245,0-.3-1.8-.327-3.6-.818-5.455-1.2Z" transform="translate(455.392 370.384)" fill="#1e2959"/>
  <path id="Path_191" data-name="Path 191" d="M248.057,215.695h.518l1.936.382,6.845,1.364,22.227,4.5,26.673,5.454L329.384,232l7.609,1.5,2.4.464a6.084,6.084,0,0,0,1.255.245h.191c.191,0,.191-.273,0-.3a21.113,21.113,0,0,1-2.727-.518l-6.845-1.418-22.227-4.555-26.645-5.455-23.1-4.691-7.609-1.527a34.825,34.825,0,0,0-3.655-.709h-.245a.328.328,0,0,0,0,.655Z" transform="translate(427.341 371.3)" fill="#1e2959"/>
</svg>
