<svg xmlns="http://www.w3.org/2000/svg" width="20" height="20" viewBox="0 0 30 30"><g transform="translate(0 -16)"><path d="M29.664,31.374,23.2,24.365V19.75a1.174,1.174,0,1,0-2.344,0v2.073l-5.024-5.449a1.121,1.121,0,0,0-1.671,0l-13.828,15A1.31,1.31,0,0,0,.35,33.141a1.121,1.121,0,0,0,1.657-.015l.336-.365V44.75A1.213,1.213,0,0,0,3.515,46H26.484a1.213,1.213,0,0,0,1.172-1.25V32.762l.336.365a1.121,1.121,0,0,0,1.657.015,1.31,1.31,0,0,0,.014-1.768ZM18.515,43.5H11.484V34.75a1.214,1.214,0,0,1,1.172-1.25h4.687a1.214,1.214,0,0,1,1.172,1.25Zm6.8,0H20.859V34.75A3.643,3.643,0,0,0,17.344,31H12.656A3.643,3.643,0,0,0,9.14,34.75V43.5H4.687V30.219L15,19.033,25.312,30.219Z" transform="translate(0 0)" fill="#fff"/><path d="M196,177.361a1.361,1.361,0,0,0,1.361,1.361H202.8a1.361,1.361,0,0,0,0-2.722h-5.443A1.361,1.361,0,0,0,196,177.361Z" transform="translate(-185.082 -150.081)" fill="#fff"/></g></svg>