<svg xmlns="http://www.w3.org/2000/svg" width="160" height="160" viewBox="0 0 160 160">
  <g id="Group_425" data-name="Group 425" transform="translate(-55 -156)">
    <g id="Rectangle_94" data-name="Rectangle 94" transform="translate(55 156)" fill="#707070" stroke="#707070" stroke-width="1">
      <rect width="160" height="160" stroke="none"/>
      <rect x="0.5" y="0.5" width="159" height="159" fill="none"/>
    </g>
    <g id="image-gallery" transform="translate(90 192.911)">
      <g id="Group_420" data-name="Group 420" transform="translate(0 30.735)">
        <path id="Path_383" data-name="Path 383" d="M65.121,63.055a7.443,7.443,0,0,1-1.9-.246L5.521,47.357A7.531,7.531,0,0,1,.245,38.216l7.28-27.134a1.865,1.865,0,0,1,3.6.963L3.853,39.171A3.787,3.787,0,0,0,6.5,43.757L64.177,59.2a3.714,3.714,0,0,0,4.541-2.627l2.914-10.8a1.866,1.866,0,0,1,3.6.97l-2.91,10.783A7.453,7.453,0,0,1,65.121,63.055Z" transform="translate(0 -9.701)" fill="#fff"/>
      </g>
      <g id="Group_421" data-name="Group 421" transform="translate(14.924 2)">
        <path id="Path_384" data-name="Path 384" d="M71.164,61.7h-59.7A7.47,7.47,0,0,1,4,54.238V9.463A7.47,7.47,0,0,1,11.463,2h59.7a7.47,7.47,0,0,1,7.463,7.463V54.238A7.47,7.47,0,0,1,71.164,61.7Zm-59.7-55.97A3.737,3.737,0,0,0,7.731,9.463V54.238a3.737,3.737,0,0,0,3.731,3.731h59.7a3.737,3.737,0,0,0,3.731-3.731V9.463a3.737,3.737,0,0,0-3.731-3.731Z" transform="translate(-4 -2)" fill="#fff"/>
      </g>
      <g id="Group_422" data-name="Group 422" transform="translate(26.118 13.194)">
        <path id="Path_385" data-name="Path 385" d="M14.463,19.925a7.463,7.463,0,1,1,7.463-7.463A7.47,7.47,0,0,1,14.463,19.925Zm0-11.194a3.731,3.731,0,1,0,3.731,3.731A3.737,3.737,0,0,0,14.463,8.731Z" transform="translate(-7 -5)" fill="#fff"/>
      </g>
      <g id="Group_423" data-name="Group 423" transform="translate(15.184 22.709)">
        <path id="Path_386" data-name="Path 386" d="M5.936,42.55a1.864,1.864,0,0,1-1.321-3.183L22.238,21.744a5.735,5.735,0,0,1,7.914,0L35.4,26.99,49.921,9.565A5.606,5.606,0,0,1,54.182,7.55h.041A5.594,5.594,0,0,1,58.473,9.5L77.988,32.27A1.866,1.866,0,0,1,75.156,34.7L55.641,11.931a1.846,1.846,0,0,0-1.418-.649,1.981,1.981,0,0,0-1.433.672l-15.832,19a1.858,1.858,0,0,1-1.351.668,1.8,1.8,0,0,1-1.4-.545l-6.69-6.69a1.917,1.917,0,0,0-2.638,0L7.253,42a1.859,1.859,0,0,1-1.317.545Z" transform="translate(-4.07 -7.55)" fill="#fff"/>
      </g>
    </g>
  </g>
</svg>
