<svg xmlns="http://www.w3.org/2000/svg" width="300" height="250" viewBox="0 0 447.533 362.191">
  <g id="Group_359" data-name="Group 359" transform="translate(-517.177 -631.948)">
    <g id="Group_228" data-name="Group 228" transform="translate(517.177 632.028)">
      <g id="Group_197" data-name="Group 197" transform="translate(381.065 343.997)">
        <g id="Group_196" data-name="Group 196" transform="translate(0)">
          <path id="Path_269" data-name="Path 269" d="M841.128,3099.359c0,.864,1.86,1.619,4.638,2.034a3.205,3.205,0,0,1,2.727,2.6c.435,2.648,1.227,4.421,2.134,4.421s1.7-1.772,2.134-4.42a3.2,3.2,0,0,1,2.727-2.6c2.78-.415,4.644-1.169,4.644-2.034s-1.863-1.625-4.641-2.037a3.205,3.205,0,0,1-2.731-2.6c-.436-2.65-1.227-4.423-2.134-4.423s-1.7,1.773-2.134,4.423a3.205,3.205,0,0,1-2.731,2.6C842.986,3097.735,841.128,3098.489,841.128,3099.359Z" transform="translate(-841.128 -3090.299)" fill="#fff"/>
        </g>
      </g>
      <g id="Group_199" data-name="Group 199" transform="translate(0 249.978)">
        <g id="Group_198" data-name="Group 198">
          <path id="Path_270" data-name="Path 270" d="M3439.535,2429.219c.2.844,2.18,1.2,4.984,1.031a3.288,3.288,0,0,1,3.248,1.974c1.024,2.493,2.2,4.06,3.081,3.874s1.256-2.079,1.082-4.75a3.116,3.116,0,0,1,2.072-3.1c2.617-.977,4.265-2.1,4.07-2.939s-2.185-1.2-4.988-1.033a3.287,3.287,0,0,1-3.252-1.975c-1.025-2.5-2.2-4.062-3.083-3.875s-1.255,2.078-1.08,4.752a3.118,3.118,0,0,1-2.075,3.1C3440.98,2427.253,3439.338,2428.372,3439.535,2429.219Z" transform="translate(-3439.519 -2418.416)" fill="#fff"/>
        </g>
      </g>
      <g id="Group_201" data-name="Group 201" transform="translate(75.181 15.103)">
        <g id="Group_200" data-name="Group 200" transform="translate(0)">
          <path id="Path_271" data-name="Path 271" d="M2910.57,749.993c0,.958,2.06,1.793,5.136,2.253a3.549,3.549,0,0,1,3.021,2.879c.483,2.932,1.359,4.9,2.364,4.9s1.881-1.963,2.363-4.9a3.549,3.549,0,0,1,3.021-2.879c3.079-.46,5.144-1.295,5.144-2.253s-2.063-1.8-5.14-2.256a3.55,3.55,0,0,1-3.025-2.88c-.482-2.935-1.359-4.9-2.363-4.9s-1.882,1.963-2.364,4.9a3.55,3.55,0,0,1-3.024,2.88C2912.628,748.193,2910.57,749.03,2910.57,749.993Z" transform="translate(-2910.57 -739.958)" fill="#fff"/>
        </g>
      </g>
      <g id="Group_203" data-name="Group 203" transform="translate(41.854 87.709)">
        <g id="Group_202" data-name="Group 202" transform="translate(0 0)">
          <path id="Path_334" data-name="Path 334" d="M2.645,5.354A2.8,2.8,0,0,0,5.354,2.645,2.5,2.5,0,0,0,2.772.064,2.8,2.8,0,0,0,.064,2.772,2.5,2.5,0,0,0,2.645,5.354Z" transform="translate(3.83 7.481) rotate(-135)" fill="#fff"/>
        </g>
      </g>
      <g id="Group_205" data-name="Group 205" transform="translate(47.198 299.824)">
        <g id="Group_204" data-name="Group 204" transform="translate(0 0)">
          <path id="Path_335" data-name="Path 335" d="M2.422,5.069A2.558,2.558,0,0,0,4.879,2.517,2.387,2.387,0,0,0,2.492.035,2.558,2.558,0,0,0,.035,2.588,2.387,2.387,0,0,0,2.422,5.069Z" transform="translate(1.537 6.175) rotate(-108.232)" fill="#fff"/>
        </g>
      </g>
      <g id="Group_207" data-name="Group 207" transform="translate(21.416 340.995)">
        <g id="Group_206" data-name="Group 206" transform="translate(0 0)">
          <ellipse id="Ellipse_21" data-name="Ellipse 21" cx="3.212" cy="3.062" rx="3.212" ry="3.062" transform="translate(6.424 6.14) rotate(-179.837)" fill="#fff"/>
        </g>
      </g>
      <g id="Group_209" data-name="Group 209" transform="translate(342.983 66.095)">
        <g id="Group_208" data-name="Group 208" transform="translate(0 0)">
          <path id="Path_336" data-name="Path 336" d="M3.539,7.431A3.642,3.642,0,0,0,7.083,3.713,3.616,3.616,0,0,0,3.55.005,3.642,3.642,0,0,0,.005,3.724,3.616,3.616,0,0,0,3.539,7.431Z" transform="matrix(-0.031, -1, 1, -0.031, 0.22, 7.305)" fill="#fff"/>
        </g>
      </g>
      <g id="Group_211" data-name="Group 211" transform="translate(149.722 40.788)">
        <g id="Group_210" data-name="Group 210" transform="translate(0)">
          <ellipse id="Ellipse_23" data-name="Ellipse 23" cx="2.709" cy="2.581" rx="2.709" ry="2.581" fill="#fff"/>
        </g>
      </g>
      <g id="Group_213" data-name="Group 213" transform="translate(370.15 0)">
        <g id="Group_212" data-name="Group 212" transform="translate(0)">
          <path id="Path_337" data-name="Path 337" d="M3.688,7.187A3.778,3.778,0,0,0,7.437,3.563,3.484,3.484,0,0,0,3.81.061,3.778,3.778,0,0,0,.061,3.685,3.484,3.484,0,0,0,3.688,7.187Z" transform="matrix(-0.927, -0.376, 0.376, -0.927, 6.948, 9.377)" fill="#fff"/>
        </g>
      </g>
      <g id="Group_215" data-name="Group 215" transform="translate(429.322 312.258)">
        <g id="Group_214" data-name="Group 214" transform="translate(0 0)">
          <path id="Path_338" data-name="Path 338" d="M2.907,6.1A3.052,3.052,0,0,0,5.847,3.035a2.9,2.9,0,0,0-2.875-3A3.052,3.052,0,0,0,.032,3.1,2.9,2.9,0,0,0,2.907,6.1Z" transform="translate(1.363 7.063) rotate(-103.404)" fill="#fff"/>
        </g>
      </g>
      <g id="Group_217" data-name="Group 217" transform="translate(7.857 143.626)">
        <g id="Group_216" data-name="Group 216" transform="translate(0)">
          <ellipse id="Ellipse_26" data-name="Ellipse 26" cx="1.393" cy="1.328" rx="1.393" ry="1.328" fill="#fff"/>
        </g>
      </g>
      <g id="Group_219" data-name="Group 219" transform="translate(108.866 355.064)">
        <g id="Group_218" data-name="Group 218" transform="translate(0 0)">
          <path id="Path_339" data-name="Path 339" d="M1.6,3.284a1.706,1.706,0,0,0,1.64-1.661A1.526,1.526,0,0,0,1.677.037,1.706,1.706,0,0,0,.037,1.7,1.526,1.526,0,0,0,1.6,3.284Z" transform="matrix(-0.604, -0.797, 0.797, -0.604, 1.981, 4.516)" fill="#fff"/>
        </g>
      </g>
      <g id="Group_221" data-name="Group 221" transform="translate(299.097 10.773)">
        <g id="Group_220" data-name="Group 220" transform="translate(0 0)">
          <path id="Path_340" data-name="Path 340" d="M1.9,3.683A1.931,1.931,0,0,0,3.828,1.829,1.8,1.8,0,0,0,1.954.026,1.931,1.931,0,0,0,.026,1.881,1.8,1.8,0,0,0,1.9,3.683Z" transform="matrix(-0.951, -0.309, 0.309, -0.951, 3.666, 4.653)" fill="#fff"/>
        </g>
      </g>
      <g id="Group_223" data-name="Group 223" transform="translate(412.273 84.83)">
        <g id="Group_222" data-name="Group 222" transform="translate(0 0)">
          <path id="Path_341" data-name="Path 341" d="M1.9,3.676A1.923,1.923,0,0,0,3.829,1.826a1.811,1.811,0,0,0-1.88-1.8A1.923,1.923,0,0,0,.023,1.872,1.811,1.811,0,0,0,1.9,3.676Z" transform="translate(3.713 4.535) rotate(-164.538)" fill="#fff"/>
        </g>
      </g>
      <g id="Group_225" data-name="Group 225" transform="translate(392.922 149.997)">
        <g id="Group_224" data-name="Group 224" transform="translate(0)">
          <path id="Path_272" data-name="Path 272" d="M868.5,1705.469a1.566,1.566,0,1,0,1.521-1.531A1.534,1.534,0,0,0,868.5,1705.469Z" transform="translate(-868.498 -1703.937)" fill="#fff"/>
        </g>
      </g>
      <g id="Group_227" data-name="Group 227" transform="translate(438.734 163.795)">
        <g id="Group_226" data-name="Group 226" transform="translate(0 0)">
          <path id="Path_342" data-name="Path 342" d="M3.12,6.233A3.279,3.279,0,0,0,6.311,3.08,2.932,2.932,0,0,0,3.263.072,3.279,3.279,0,0,0,.072,3.224,2.932,2.932,0,0,0,3.12,6.233Z" transform="translate(5.073 8.683) rotate(-142.63)" fill="#fff"/>
        </g>
      </g>
    </g>
    <g id="Group_358" data-name="Group 358" transform="translate(570.29 724.678)">
      <g id="Group_230" data-name="Group 230" transform="translate(164.598 146.399)">
        <g id="Group_229" data-name="Group 229">
          <path id="Path_273" data-name="Path 273" d="M1527.723,2340.318a63.015,63.015,0,0,0,16.636,31.539c10.769,11.041,28.156,11.791,26.855,22.2h-88.021Z" transform="translate(-1483.193 -2340.318)" fill="#fff"/>
        </g>
      </g>
      <g id="Group_232" data-name="Group 232" transform="translate(164.599 146.397)">
        <g id="Group_231" data-name="Group 231" transform="translate(0)">
          <path id="Path_274" data-name="Path 274" d="M1483.209,2394.042h88.017c1.3-10.407-16.081-11.157-26.851-22.2a63.959,63.959,0,0,1-13.21-20.191,58.618,58.618,0,0,1-3.137-9.844c-.213-.968-.292-1.5-.292-1.5l-12.775,15.417-3.593,4.338-26.235,31.661Z" transform="translate(-1483.209 -2340.305)" fill="#fff"/>
        </g>
      </g>
      <g id="Group_234" data-name="Group 234" transform="translate(164.598 168.167)" opacity="0.35">
        <g id="Group_233" data-name="Group 233" transform="translate(0)">
          <path id="Path_275" data-name="Path 275" d="M1660.225,2527.842h62.1c-4.753-2.376-9.015-6.285-14.274-9.48-8.235-5-8.986-18.058-7.633-22.487Z" transform="translate(-1660.225 -2495.875)" fill="#371a45"/>
        </g>
      </g>
      <g id="Group_236" data-name="Group 236" transform="translate(162.471 144.374)">
        <g id="Group_235" data-name="Group 235">
          <path id="Path_276" data-name="Path 276" d="M1470.814,2383.634h88.021a2.093,2.093,0,0,0,2.112-1.787c.931-7.451-5.777-10.8-12.879-14.336-4.82-2.4-10.285-5.127-14.531-9.481a61.614,61.614,0,0,1-16.088-30.441,2.064,2.064,0,0,0-1.551-1.672,2.189,2.189,0,0,0-2.223.7l-44.529,53.735a1.95,1.95,0,0,0-.245,2.14A2.138,2.138,0,0,0,1470.814,2383.634Zm85.871-4.053H1475.2l39.007-47.071a66.161,66.161,0,0,0,16.212,28.281c4.743,4.863,10.551,7.759,15.675,10.313C1552.233,2374.162,1556.066,2376.242,1556.686,2379.581Z" transform="translate(-1468.688 -2325.847)" fill="#371a45"/>
        </g>
      </g>
      <g id="Group_238" data-name="Group 238" transform="translate(2.103 79.061)">
        <g id="Group_237" data-name="Group 237">
          <path id="Path_277" data-name="Path 277" d="M1777.481,1884.7c1.775,3.46,5.927,5.675,12.307,5.71,8.1.041,8.277,1.094,8.224,1.327a.21.21,0,0,1-.021.045s-1.387,2.062-3.264,5.457c-.006.01-.01.025-.016.035-.079.137-.159.279-.239.426a.144.144,0,0,1-.021.04c-5.635,10.341-15.092,31.905-5.507,46.314,11.743,17.642,65.578,26.316,84.307,30.992,15.363,3.841,43.836,5.533,67.657,2.807a137.1,137.1,0,0,0,14.826-2.457c14.954-3.41,22.2-21.164,25.57-34.4a112.134,112.134,0,0,0,2.5-13.057c.149-1.185.208-1.859.208-1.859s-39.6-32.123-95.083-35.517a151.535,151.535,0,0,0-28.435.912c-16.884,2.154-27.643,6.329-27.643,6.329-2.626-7.22,6.177-18.656.75-28.981-6.379-12.139-45.16-15.286-55.223,4.535C1776.184,1877.682,1775.919,1881.675,1777.481,1884.7Z" transform="translate(-1776.487 -1859.107)" fill="#fff"/>
        </g>
      </g>
      <g id="Group_240" data-name="Group 240" transform="translate(20.088 117.234)">
        <g id="Group_239" data-name="Group 239" transform="translate(0)">
          <path id="Path_278" data-name="Path 278" d="M3066.027,2131.9c-.08.137-.159.279-.239.426A2.324,2.324,0,0,0,3066.027,2131.9Z" transform="translate(-3065.788 -2131.896)" fill="#fff"/>
        </g>
      </g>
      <g id="Group_242" data-name="Group 242" transform="translate(3.098 101.492)" opacity="0.35">
        <g id="Group_241" data-name="Group 241">
          <path id="Path_279" data-name="Path 279" d="M2987.146,2022.57c1.776,3.461,5.927,5.675,12.307,5.71,8.1.04,8.276,1.094,8.224,1.327a129.515,129.515,0,0,1,8.245-10.164s-3.365-.679-11.307,3.557C3000.186,2025.362,2991.127,2027.019,2987.146,2022.57Z" transform="translate(-2987.146 -2019.404)" fill="#371a45"/>
        </g>
      </g>
      <g id="Group_244" data-name="Group 244" transform="translate(10.453 110.525)" opacity="0.35">
        <g id="Group_243" data-name="Group 243">
          <path id="Path_280" data-name="Path 280" d="M1760.642,2137.446c33.385,29.653,119.561,41.076,166.789,31.346,12.749-2.91,19.891-16.236,23.809-28.3a17.4,17.4,0,0,1,7.343-9.275l.055-.035c-1.988-5.445-3.42-8.384-2.929-11.7,0,0-39.6-32.122-95.082-35.517,13.933,43.346,50.4,69.094,90.356,51.421-4.21,10.123-10.935,19.765-21.546,22.182-25.522,5.822-63.755,4.332-82.483-.35-6.13-1.53-6.656-43.735-13.008-34.879-30.775,42.919-68.183,13.472-72.436,6.617-3.647-5.877-3.248-13.751-2.908-19.785C1755.906,2118.639,1755.161,2129.213,1760.642,2137.446Z" transform="translate(-1756.536 -2083.958)" fill="#371a45"/>
        </g>
      </g>
      <g id="Group_246" data-name="Group 246" transform="translate(0 77.04)">
        <g id="Group_245" data-name="Group 245">
          <path id="Path_281" data-name="Path 281" d="M1972.581,1944.374a55.843,55.843,0,0,1-7.023,9.2,32.436,32.436,0,0,1-4.274,3.7,23.421,23.421,0,0,1-4.864,2.665,26.659,26.659,0,0,1-5.473,1.442l-2.943.56-2.975.445c-3.96.624-7.969,1.022-11.979,1.4a235.254,235.254,0,0,1-48.39-.773,119.2,119.2,0,0,1-11.822-2.042l-1.454-.328-1.5-.365-3-.694-5.982-1.321c-7.963-1.728-15.893-3.456-23.743-5.435s-15.624-4.172-23.164-6.873a113.815,113.815,0,0,1-11.016-4.559,53.385,53.385,0,0,1-9.894-6.01c-.768-.561-1.408-1.217-2.1-1.83-.336-.315-.619-.662-.933-.99a8.242,8.242,0,0,1-.866-1.022c-.261-.355-.534-.7-.79-1.061l-.69-1.156a8.914,8.914,0,0,1-.626-1.19c-.187-.408-.4-.8-.567-1.22a26.982,26.982,0,0,1-1.838-10.671,46.6,46.6,0,0,1,1.619-11.071,76.034,76.034,0,0,1,3.768-10.782,99.388,99.388,0,0,1,5.185-10.31c.479-.836.978-1.661,1.483-2.475l.382-.605.191-.3.1-.146.045-.067a2.287,2.287,0,0,0,.284-.576,2.17,2.17,0,0,0,.088-.912,2.51,2.51,0,0,0-.2-.693,3,3,0,0,0-.28-.448,2.042,2.042,0,0,0-.266-.29c-.084-.08-.173-.156-.264-.228-.076-.056-.132-.09-.2-.134a3.61,3.61,0,0,0-.383-.216,6.485,6.485,0,0,0-1.121-.4,20.69,20.69,0,0,0-3.432-.495q-1.613-.107-3.183-.129c-1.1,0-1.952-.069-2.9-.1a19.136,19.136,0,0,1-2.665-.454,9.967,9.967,0,0,1-4.405-2.195,6.656,6.656,0,0,1-2.088-3.948,10.757,10.757,0,0,1,.5-4.864c.152-.409.259-.825.44-1.229l.549-1.211c.193-.4.436-.773.649-1.162l.329-.579.387-.545a19.269,19.269,0,0,1,3.641-3.969,28.529,28.529,0,0,1,9.909-5.163,44.377,44.377,0,0,1,11.459-1.81c.975-.056,1.953-.01,2.929-.015.974.057,1.953.07,2.923.178a44.123,44.123,0,0,1,5.764.863,34.381,34.381,0,0,1,5.5,1.636,22.393,22.393,0,0,1,4.868,2.559l1.024.81c.3.3.616.58.9.88.24.32.54.615.744.943a9.418,9.418,0,0,1,.6,1.028,13.807,13.807,0,0,1,1.36,4.922c.318,3.479-.51,7.138-1.451,10.89-.465,1.89-.974,3.816-1.29,5.89a13.661,13.661,0,0,0,.377,6.725,2.139,2.139,0,0,0,2.679,1.26l.086-.03.046-.018c1.43-.535,3.029-1.045,4.577-1.512s3.144-.9,4.731-1.312q4.768-1.214,9.632-2.1c3.237-.591,6.5-1.1,9.774-1.44l4.914-.513,4.934-.3a159.587,159.587,0,0,1,19.765.317,164.176,164.176,0,0,1,19.56,2.852,172.619,172.619,0,0,1,37.4,12.323c11.9,5.526,23.207,12.026,34.615,18.6l.023.013a.735.735,0,0,0,.98-.23.658.658,0,0,0-.084-.812,63.107,63.107,0,0,0-7.533-6.54c-1.322-1.012-2.692-1.959-4.061-2.911-1.393-.916-2.78-1.843-4.211-2.705a143.53,143.53,0,0,0-17.836-9.23,191.976,191.976,0,0,0-38.386-12.469,168.522,168.522,0,0,0-20.1-2.93,164.049,164.049,0,0,0-20.347-.327l-5.083.313-5.063.528c-3.375.354-6.727.873-10.06,1.482s-6.646,1.33-9.932,2.167c-1.641.427-3.279.867-4.906,1.361s-3.219.994-4.9,1.625l2.811,1.212a10,10,0,0,1-.184-4.823c.268-1.778.748-3.634,1.218-5.529.935-3.785,1.929-7.851,1.551-12.171a17.746,17.746,0,0,0-1.748-6.3,13.6,13.6,0,0,0-.886-1.52A17.315,17.315,0,0,0,1831.4,1853c-.4-.424-.821-.808-1.235-1.21-.437-.362-.885-.7-1.33-1.054a26.64,26.64,0,0,0-5.816-3.075,38.78,38.78,0,0,0-6.174-1.841,48.516,48.516,0,0,0-6.322-.947c-1.059-.115-2.124-.134-3.186-.193-1.063,0-2.128-.043-3.192.015a48.8,48.8,0,0,0-12.622,2,32.817,32.817,0,0,0-11.414,5.977,23.383,23.383,0,0,0-4.388,4.787,21.5,21.5,0,0,0-2.872,5.778,14.582,14.582,0,0,0-.633,6.647,10.68,10.68,0,0,0,3.337,6.255,14.242,14.242,0,0,0,6.281,3.2,23.489,23.489,0,0,0,3.354.57c1.091.051,2.278.12,3.217.119.993.011,1.972.054,2.933.118a17.067,17.067,0,0,1,2.616.357c.154.042.3.093.313.1s-.042-.016-.053-.031l-.041-.034a.816.816,0,0,1-.125-.1c-.051-.051-.041-.048-.137-.157a1.253,1.253,0,0,1-.177-.294,1.5,1.5,0,0,1-.148-.518,1.66,1.66,0,0,1,.071-.731c.152-.393.308-.576.2-.416l-.058.088-.107.164-.209.324-.407.645c-.534.86-1.054,1.721-1.554,2.592a103.357,103.357,0,0,0-5.394,10.727,79.852,79.852,0,0,0-3.961,11.344,50.382,50.382,0,0,0-1.744,12,30.849,30.849,0,0,0,2.132,12.209c.2.491.447.965.67,1.448a11.687,11.687,0,0,0,.745,1.416l.826,1.378c.311.446.65.882.977,1.321a11.131,11.131,0,0,0,1.053,1.246c.372.392.724.81,1.114,1.178.8.713,1.561,1.476,2.413,2.1a57.565,57.565,0,0,0,10.7,6.52,118.143,118.143,0,0,0,11.437,4.735c7.747,2.776,15.647,5,23.582,7s15.925,3.741,23.881,5.468l5.947,1.313,2.949.683,1.462.354,1.525.345a123.539,123.539,0,0,0,12.262,2.121c8.2,1.016,16.42,1.564,24.653,1.757a222.966,222.966,0,0,0,24.711-.669c4.115-.355,8.223-.831,12.309-1.531l3.061-.536,3.045-.658a27.72,27.72,0,0,0,6.222-1.91,26.606,26.606,0,0,0,9.912-7.969,39.317,39.317,0,0,0,5.856-10.574.669.669,0,0,0-.428-.868.729.729,0,0,0-.849.284Z" transform="translate(-1772.067 -1844.666)" fill="#371a45"/>
        </g>
      </g>
      <g id="Group_248" data-name="Group 248" transform="translate(108.884 195.315)">
        <g id="Group_247" data-name="Group 247">
          <path id="Path_282" data-name="Path 282" d="M1679.064,2719.926l-74.721-21.957a7.538,7.538,0,0,1-5.913-7.183h0l126.884-.9v31.154l-33.454.338A52.49,52.49,0,0,1,1679.064,2719.926Z" transform="translate(-1598.43 -2689.882)" fill="#008cff"/>
        </g>
      </g>
      <g id="Group_250" data-name="Group 250" transform="translate(109.199 198.257)" opacity="0.35">
        <g id="Group_249" data-name="Group 249">
          <path id="Path_283" data-name="Path 283" d="M1598.42,2710.9a7.652,7.652,0,0,0,5.6,5.144l74.725,21.959a52.505,52.505,0,0,0,12.8,1.446l33.454-.339-2.11-4.348-33.454.542a52.335,52.335,0,0,1-12.805-1.37l-74.871-21.367A7.815,7.815,0,0,1,1598.42,2710.9Z" transform="translate(-1598.42 -2710.902)" fill="#371a45"/>
        </g>
      </g>
      <g id="Group_252" data-name="Group 252" transform="translate(107.037 193.553)">
        <g id="Group_251" data-name="Group 251">
          <path id="Path_284" data-name="Path 284" d="M1680.673,2712.3l.552,0,35.27-.357v-34.646l-130.566.93.012,1.748a9.305,9.305,0,0,0,7.25,8.856l74.77,21.969A54.461,54.461,0,0,0,1680.673,2712.3Zm-12.262-3.2h0Zm44.413-.621-31.638.32a50.275,50.275,0,0,1-12.281-1.385l-74.767-21.967a5.887,5.887,0,0,1-4.227-3.753l122.914-.875Z" transform="translate(-1585.93 -2677.289)" fill="#371a45"/>
        </g>
      </g>
      <g id="Group_254" data-name="Group 254" transform="translate(109.247 194.71)">
        <g id="Group_253" data-name="Group 253">
          <path id="Path_285" data-name="Path 285" d="M1680.8,2708.773l-82.332-21.621a.045.045,0,0,1,.01-.089l126.474-1.508v24.435h-32.908A52.508,52.508,0,0,1,1680.8,2708.773Z" transform="translate(-1598.43 -2685.555)" fill="#008cff"/>
        </g>
      </g>
      <g id="Group_256" data-name="Group 256" transform="translate(153.568 200.037)">
        <g id="Group_255" data-name="Group 255" transform="translate(0)">
          <path id="Path_286" data-name="Path 286" d="M1773.2,2736.337l-52.761-10.916a.676.676,0,0,1,.127-1.345l63.66-.452v14.256Z" transform="translate(-1719.858 -2723.623)" fill="#afb2b1"/>
        </g>
      </g>
      <g id="Group_258" data-name="Group 258" transform="translate(151.733 198.275)">
        <g id="Group_257" data-name="Group 257" transform="translate(0)">
          <path id="Path_287" data-name="Path 287" d="M1775.4,2729.075v-18.043l-65.508.465a2.487,2.487,0,0,0-2.523,2.209,2.439,2.439,0,0,0,2.081,2.606l52.823,10.926Zm-12.861-3.568h0Zm9.19-10.951v10.469l-8.862-1.24-42.833-8.861Zm-61.808.439h0Zm.246-2.113c.02,0,.039.007.059.012Z" transform="translate(-1707.358 -2711.032)" fill="#371a45"/>
        </g>
      </g>
      <g id="Group_260" data-name="Group 260" transform="translate(107.412 192.939)">
        <g id="Group_259" data-name="Group 259">
          <path id="Path_288" data-name="Path 288" d="M1681.378,2700.854h34.744V2672.9l-129.957,1.549-.223,1.581a1.8,1.8,0,0,0,1.386,1.928l82.4,21.636A54.507,54.507,0,0,0,1681.378,2700.854Zm-11.243-2.966h0Zm42.316-.533h-31.073a50.687,50.687,0,0,1-10.794-1.164l-70.125-18.416,111.992-1.335Zm-124.6-19.429h0Z" transform="translate(-1585.93 -2672.899)" fill="#371a45"/>
        </g>
      </g>
      <g id="Group_262" data-name="Group 262" transform="translate(33.283 115.788)">
        <g id="Group_261" data-name="Group 261">
          <path id="Path_289" data-name="Path 289" d="M2816.546,2121.711a31.557,31.557,0,0,0-4.017,1.9c-1.279.7-2.5,1.471-3.7,2.277a51.912,51.912,0,0,0-6.68,5.457,47.7,47.7,0,0,0-5.651,6.4l-1.219,1.733c-.377.6-.736,1.2-1.088,1.81l-.529.906-.465.942c-.314.623-.6,1.256-.9,1.882a.285.285,0,0,0,.155.383.315.315,0,0,0,.361-.083l.012-.014a62.984,62.984,0,0,1,5.61-6.008,66.236,66.236,0,0,1,6.256-5.221c2.179-1.622,4.455-3.111,6.745-4.564.586-.344,1.155-.712,1.731-1.07l1.743-1.047,3.451-2.022.1-.057a1.975,1.975,0,0,0,.7-2.791A2.185,2.185,0,0,0,2816.546,2121.711Z" transform="translate(-2792.271 -2121.563)" fill="#371a45"/>
        </g>
      </g>
      <g id="Group_264" data-name="Group 264" transform="translate(21.232 100.948)">
        <g id="Group_263" data-name="Group 263" transform="translate(0)">
          <path id="Path_290" data-name="Path 290" d="M2994.451,2015.518a16.646,16.646,0,0,0-3.394,2.026,27.825,27.825,0,0,0-2.885,2.523,35.659,35.659,0,0,0-2.588,2.824,20.258,20.258,0,0,0-2.159,3.226,1.716,1.716,0,0,0,.838,2.347,1.894,1.894,0,0,0,2.329-.581l.014-.021c1.348-1.874,2.713-3.854,4.093-5.861.679-1.012,1.4-2,2.028-3.078A22.417,22.417,0,0,0,2994.451,2015.518Z" transform="translate(-2983.235 -2015.518)" fill="#371a45"/>
        </g>
      </g>
      <g id="Group_266" data-name="Group 266" transform="translate(46.443 72.752)">
        <g id="Group_265" data-name="Group 265">
          <path id="Path_291" data-name="Path 291" d="M2331.3,1820.325c-8.519-7.141-48.394-9.986-66.845,1.1-16.948,10.181-21.3,43.406-11,41.241,23.138-4.864,41.461-7.057,75.632-1.376C2351.132,1864.208,2339.823,1827.465,2331.3,1820.325Z" transform="translate(-2247.934 -1814.024)" fill="#fff"/>
        </g>
      </g>
      <g id="Group_268" data-name="Group 268" transform="translate(46.443 85.957)" opacity="0.35">
        <g id="Group_267" data-name="Group 267">
          <path id="Path_292" data-name="Path 292" d="M2253.463,1943.828c23.141-4.864,41.46-7.058,75.631-1.378,11.792,1.565,14.04-8.223,12.28-18.757-1.265,5.3-4.906,8.765-12.28,7.788-10.2-1.7-24.58-23.094-24.58-23.094s-.611,17.612-7.837,21.1c-9.069,4.379-30.705.737-43.214,3.366-2.5.527-4.136-1.039-4.939-3.851C2246.962,1937.783,2248.53,1944.867,2253.463,1943.828Z" transform="translate(-2247.943 -1908.386)" fill="#371a45"/>
        </g>
      </g>
      <g id="Group_270" data-name="Group 270" transform="translate(44.283 70.705)">
        <g id="Group_269" data-name="Group 269">
          <path id="Path_293" data-name="Path 293" d="M2240.6,1852.216a6.681,6.681,0,0,0,1.371-.146c24.828-5.22,42.355-6.755,74.809-1.358l.072.011c8.21,1.087,11.9-2.788,13.56-6.231,5.027-10.453-2.655-32.4-9.645-38.261-9.607-8.053-50.494-10.441-69.383.905-13.948,8.379-20.388,31.707-16.372,41.028A6.047,6.047,0,0,0,2240.6,1852.216Zm40.66-8.9c-13.918,0-26.055,1.815-40.207,4.79-.5.107-1.345.283-2.108-1.488-2.989-6.937,2.047-28.455,14.706-36.059,17.883-10.743,56.777-7.6,64.307-1.29h0c5.391,4.519,12.986,24.378,8.587,33.528-1.551,3.226-4.521,4.5-9.073,3.91A219.1,219.1,0,0,0,2281.257,1843.321Zm38.1-35.569h0Z" transform="translate(-2233.829 -1799.397)" fill="#371a45"/>
        </g>
      </g>
      <g id="Group_272" data-name="Group 272" transform="translate(52.925 88.127)">
        <g id="Group_271" data-name="Group 271">
          <path id="Path_294" data-name="Path 294" d="M2685.524,1925.147c4.253,5.307,3.815,21.851-.062,22.951s-17.574,2.205-20.577-.119-4.333-11.279-1.452-15.973C2666.341,1927.266,2682.4,1921.245,2685.524,1925.147Z" transform="translate(-2661.833 -1923.892)" fill="#fff"/>
        </g>
      </g>
      <g id="Group_274" data-name="Group 274" transform="translate(53.159 95.7)" opacity="0.35">
        <g id="Group_273" data-name="Group 273">
          <path id="Path_295" data-name="Path 295" d="M2661.831,1988.276c.436,2.771,1.457,5.2,2.817,6.252,3,2.325,16.7,1.221,20.578.122,2.818-.8,3.817-9.759,2.525-16.634-.553,4.185-2.042,7.61-3.976,7.468-3.052-.223-4.636-6.344-4.636-6.344s-.771,7.595-3.812,10.458c-3.8,3.577-10.978.77-12.9-.715A3.538,3.538,0,0,1,2661.831,1988.276Z" transform="translate(-2661.831 -1978.016)" fill="#371a45"/>
        </g>
      </g>
      <g id="Group_276" data-name="Group 276" transform="translate(51.441 86.728)">
        <g id="Group_275" data-name="Group 275" transform="translate(0)">
          <path id="Path_296" data-name="Path 296" d="M2664.773,1942.138a58.453,58.453,0,0,0,12.645-1.3c1.321-.375,2.346-1.607,3.048-3.663,1.76-5.155,1.591-16.7-2.238-21.479-1.077-1.344-3.036-1.94-5.812-1.779-6.093.357-16.125,4.563-18.713,8.78-3.289,5.36-1.762,15.012,1.794,17.766C2657.1,1941.708,2660.806,1942.138,2664.773,1942.138Zm8.486-25.445a3.607,3.607,0,0,1,2.636.7h0c2.92,3.644,3.487,13.91,1.779,18.914-.475,1.388-.961,1.809-1.094,1.846-4.011,1.139-16.941,1.91-19.231.136-2.313-1.791-3.717-9.935-1.111-14.181,1.877-3.059,10.744-7.07,16.358-7.4C2672.826,1916.7,2673.047,1916.693,2673.259,1916.693Zm3.8-.146h0Z" transform="translate(-2651.887 -1913.894)" fill="#371a45"/>
        </g>
      </g>
      <g id="Group_278" data-name="Group 278" transform="translate(65.614 94.634)">
        <g id="Group_277" data-name="Group 277" transform="translate(0)">
          <path id="Path_297" data-name="Path 297" d="M2714.433,1970.61a87.647,87.647,0,0,1-.044,10.1,21.022,21.022,0,0,1-.843,4.639,5.79,5.79,0,0,1-.874,1.738,2.2,2.2,0,0,1-1.2.8l-.269.075a1.378,1.378,0,0,0-.988,1.72,1.457,1.457,0,0,0,1.59.985,8.745,8.745,0,0,0,.948-.144,5.674,5.674,0,0,0,.919-.349,4.812,4.812,0,0,0,1.473-1.154,7.166,7.166,0,0,0,1.459-2.818,16.476,16.476,0,0,0,.433-5.47,35.093,35.093,0,0,0-.742-5.2,38.2,38.2,0,0,0-1.449-5,.214.214,0,0,0-.271-.123.2.2,0,0,0-.141.2Z" transform="translate(-2710.155 -1970.395)" fill="#371a45"/>
        </g>
      </g>
      <g id="Group_280" data-name="Group 280" transform="translate(95.021 77.892)">
        <g id="Group_279" data-name="Group 279" transform="translate(0)">
          <path id="Path_298" data-name="Path 298" d="M2476.963,1852.045c.837,3.42,1.827,6.844,2.287,10.118.068.41.089.807.132,1.208l.121,1.326.234,2.657.406,5.28c.116,1.749.185,3.49.188,5.192a27.063,27.063,0,0,1-.387,4.906,6.876,6.876,0,0,1-1.641,3.62,5.41,5.41,0,0,1-3.62,1.226l-.077,0a2.066,2.066,0,0,0-2.016,2.126,2.089,2.089,0,0,0,2.092,1.923,11.715,11.715,0,0,0,3.428-.389,8.373,8.373,0,0,0,3.307-1.776,8.844,8.844,0,0,0,2.118-2.872,14.076,14.076,0,0,0,.974-3.022,28.086,28.086,0,0,0,.479-5.751c.006-1.867-.137-3.69-.285-5.5s-.36-3.6-.583-5.383l-.339-2.668-.176-1.335c-.086-.483-.158-.974-.271-1.44a28.11,28.11,0,0,0-1.777-5.357,31.652,31.652,0,0,0-2.65-4.909,1.107,1.107,0,0,0-1.485-.313,1,1,0,0,0-.47,1.1Z" transform="translate(-2472.588 -1850.754)" fill="#371a45"/>
        </g>
      </g>
      <g id="Group_282" data-name="Group 282" transform="translate(41.32 113.793)">
        <g id="Group_281" data-name="Group 281">
          <path id="Path_299" data-name="Path 299" d="M2669.8,2174.363a16.09,16.09,0,0,0,15.539,4.069,84.615,84.615,0,0,1-3.583-22.4,64.328,64.328,0,0,1,.59-10.392c3.131-21.9,20.918-34.565,20.918-34.565s-9.537-9.069-21.891.942c-9.181,7.443-15.05,26.8-15.8,42.307C2665.12,2163.349,2666.417,2171.07,2669.8,2174.363Z" transform="translate(-2665.481 -2107.305)" fill="#fff"/>
        </g>
      </g>
      <g id="Group_284" data-name="Group 284" transform="translate(41.32 156.988)" opacity="0.35">
        <g id="Group_283" data-name="Group 283">
          <path id="Path_300" data-name="Path 300" d="M2791.889,2439.851a16.088,16.088,0,0,0,15.539,4.068,84.609,84.609,0,0,1-3.583-22.4c-1.537,3.516-3.578,7.032-5.348,6.358-2.5-.958-2.015-9.236-2.238-11.79-.07-.8-2.77,3.531-3.456,10.513-.42,4.235-3.386-2.386-5.146-6.789C2787.21,2428.836,2788.508,2436.557,2791.889,2439.851Z" transform="translate(-2787.572 -2415.988)" fill="#371a45"/>
        </g>
      </g>
      <g id="Group_286" data-name="Group 286" transform="translate(39.193 111.776)">
        <g id="Group_285" data-name="Group 285">
          <path id="Path_301" data-name="Path 301" d="M2661.124,2168.638a17.009,17.009,0,0,0,4.968-.686l1.952-.646-.622-1.879c-.052-.158-5.192-15.951-2.912-31.916,2.966-20.756,19.917-33.094,20.088-33.216l1.963-1.4-1.736-1.653c-.11-.1-11.083-10.258-24.773.838-9.876,8-15.806,28.105-16.558,43.825-.286,5.983-.038,16.729,4.844,21.481A17.968,17.968,0,0,0,2661.124,2168.638Zm1.605-4.135a13.822,13.822,0,0,1-11.354-3.956c-2.7-2.631-4.061-9.532-3.634-18.461.693-14.481,6.209-33.745,15.066-40.922,7.717-6.254,14.061-4.161,17.1-2.414-4.985,4.224-17.022,16.109-19.608,34.215C2658.366,2146.475,2661.344,2159.488,2662.729,2164.5Z" transform="translate(-2643.413 -2092.893)" fill="#371a45"/>
        </g>
      </g>
      <g id="Group_288" data-name="Group 288" transform="translate(199.407 24.683)" opacity="0.2">
        <g id="Group_287" data-name="Group 287">
          <path id="Path_302" data-name="Path 302" d="M928.007,1563.062s-107.178-92.622-107.713-92.551c67.339,79.691-42.044,130.068-42.044,130.068l-8.234,66Z" transform="translate(-770.016 -1470.511)" fill="#fce85b"/>
        </g>
      </g>
      <g id="Group_325" data-name="Group 325" transform="translate(95.991 0)">
        <g id="Group_291" data-name="Group 291" transform="translate(15.569 1.998)">
          <g id="Group_289" data-name="Group 289" transform="translate(0.254 0.224)">
            <path id="Path_303" data-name="Path 303" d="M1490.271,1426.608a77.773,77.773,0,0,1-29.447,26.275,83.224,83.224,0,0,1-7.82,3.531c-1.311.517-2.654,1-4.016,1.461a85.373,85.373,0,0,1-36.05,3.9q-2.318-.254-4.607-.621c-27.931-4.54-52.61-22.738-62.921-49.64-15.2-39.626,6.541-83.114,48.542-97.138a84.911,84.911,0,0,1,24.514-4.339c.954-.035,1.912-.043,2.87-.033q3.842.016,7.634.375a85.415,85.415,0,0,1,17.1,3.41,84.287,84.287,0,0,1,15.858,6.705q2.391,1.313,4.691,2.781a80.619,80.619,0,0,1,6.656,4.741,76.545,76.545,0,0,1,24.257,32.723A71.943,71.943,0,0,1,1490.271,1426.608Z" transform="translate(-1340.564 -1310)" fill="#fff"/>
          </g>
          <g id="Group_290" data-name="Group 290">
            <path id="Path_304" data-name="Path 304" d="M1420.543,1461.106q1.907,0,3.8-.085a85.792,85.792,0,0,0,23.259-4.308c1.5-.509,2.815-.988,4.028-1.466a84.082,84.082,0,0,0,7.841-3.541A78.293,78.293,0,0,0,1489,1425.352a71.952,71.952,0,0,0,7.282-66.066,77.046,77.046,0,0,0-24.327-32.819,81.6,81.6,0,0,0-6.675-4.754c-1.507-.963-3.09-1.9-4.7-2.788a84.626,84.626,0,0,0-15.9-6.725,85.823,85.823,0,0,0-17.148-3.419c-2.523-.239-5.1-.365-7.656-.376-1.005-.011-1.974,0-2.88.034a85.118,85.118,0,0,0-24.582,4.351c-20.456,6.83-36.775,20.78-45.953,39.279a71.685,71.685,0,0,0-2.732,58.147c9.966,26,34.145,45.077,63.1,49.783,1.529.245,3.083.455,4.62.623A86.075,86.075,0,0,0,1420.543,1461.106Zm68.063-35.992a77.824,77.824,0,0,1-29.359,26.2,83.633,83.633,0,0,1-7.8,3.521c-1.206.475-2.516.952-4.006,1.458a85.136,85.136,0,0,1-35.944,3.888c-1.528-.167-3.074-.376-4.595-.62-28.79-4.679-52.83-23.645-62.739-49.5a71.253,71.253,0,0,1,2.716-57.8c9.123-18.39,25.348-32.258,45.683-39.048a84.634,84.634,0,0,1,24.443-4.327c.9-.033,1.861-.043,2.86-.033,2.544.011,5.1.136,7.613.374a85.322,85.322,0,0,1,17.05,3.4,84.144,84.144,0,0,1,15.813,6.686c1.606.882,3.181,1.815,4.678,2.772a81.028,81.028,0,0,1,6.637,4.727,76.593,76.593,0,0,1,24.186,32.628,71.525,71.525,0,0,1-7.239,65.674Z" transform="translate(-1338.845 -1308.401)" fill="#371a45"/>
          </g>
        </g>
        <g id="Group_293" data-name="Group 293" transform="translate(15.823 36.379)" opacity="0.35">
          <g id="Group_292" data-name="Group 292">
            <path id="Path_305" data-name="Path 305" d="M1366.711,1621.452c10.308,26.9,34.99,45.1,62.922,49.64q2.29.37,4.6.622a85.485,85.485,0,0,0,36.053-3.9c1.359-.467,2.7-.947,4.015-1.461a84.289,84.289,0,0,0,7.819-3.535,77.742,77.742,0,0,0,29.448-26.276,73.8,73.8,0,0,0,8.979-19.052,77.869,77.869,0,0,1-28.447,24.8,82.384,82.384,0,0,1-7.819,3.535c-1.309.516-2.651,1-4.015,1.461a84.917,84.917,0,0,1-12.427,3.128,85.2,85.2,0,0,1-23.622.771q-2.321-.255-4.609-.624c-27.932-4.535-52.609-22.733-62.922-49.64a71.546,71.546,0,0,1-1.708-46.825A71.983,71.983,0,0,0,1366.711,1621.452Z" transform="translate(-1361.864 -1554.097)" fill="#371a45"/>
          </g>
        </g>
        <g id="Group_295" data-name="Group 295" transform="translate(13.996 0.499)">
          <g id="Group_294" data-name="Group 294">
            <path id="Path_306" data-name="Path 306" d="M1411.4,1453.394q1.943,0,3.872-.087a87.489,87.489,0,0,0,23.7-4.391c1.531-.52,2.872-1.008,4.109-1.5a85.67,85.67,0,0,0,7.988-3.607,79.838,79.838,0,0,0,30.117-26.875,73.377,73.377,0,0,0,7.428-67.377,78.544,78.544,0,0,0-24.8-33.458,82.847,82.847,0,0,0-6.8-4.844c-1.537-.983-3.15-1.939-4.8-2.843a86.231,86.231,0,0,0-16.206-6.852,87.475,87.475,0,0,0-17.474-3.485c-2.572-.243-5.2-.372-7.8-.383-1.02-.012-2.016,0-2.947.034a86.743,86.743,0,0,0-25.04,4.434c-20.857,6.964-37.5,21.188-46.856,40.053a73.106,73.106,0,0,0-2.787,59.3c10.159,26.5,34.8,45.95,64.314,50.746,1.56.25,3.141.463,4.705.635A87.83,87.83,0,0,0,1411.4,1453.394Zm66.73-38.287a76.276,76.276,0,0,1-28.776,25.676,81.9,81.9,0,0,1-7.645,3.452c-1.186.467-2.472.936-3.937,1.433a83.486,83.486,0,0,1-35.243,3.81c-1.5-.164-3.015-.369-4.508-.608-28.232-4.588-51.808-23.185-61.524-48.532a69.835,69.835,0,0,1,2.661-56.648c8.942-18.025,24.846-31.617,44.782-38.274a83,83,0,0,1,23.968-4.243c.888-.032,1.824-.044,2.8-.033,2.506.011,5.017.134,7.476.367a83.643,83.643,0,0,1,16.721,3.334,82.512,82.512,0,0,1,15.511,6.558c1.576.865,3.119,1.78,4.587,2.719a79.44,79.44,0,0,1,6.507,4.634,75.106,75.106,0,0,1,23.716,31.991,70.1,70.1,0,0,1-7.094,64.364Z" transform="translate(-1328.129 -1297.692)" fill="#371a45"/>
          </g>
        </g>
        <g id="Group_297" data-name="Group 297" transform="translate(13.472)">
          <g id="Group_296" data-name="Group 296">
            <path id="Path_307" data-name="Path 307" d="M1408.355,1450.823q1.956,0,3.9-.088a88.014,88.014,0,0,0,23.852-4.418c1.542-.524,2.891-1.015,4.136-1.505a86.23,86.23,0,0,0,8.037-3.63,80.347,80.347,0,0,0,30.313-27.048h0a73.856,73.856,0,0,0,7.476-67.814,79.049,79.049,0,0,0-24.96-33.672,83.448,83.448,0,0,0-6.843-4.873c-1.547-.99-3.171-1.952-4.827-2.862a86.8,86.8,0,0,0-16.307-6.895,88,88,0,0,0-17.583-3.506c-2.588-.245-5.23-.375-7.854-.385-1.026-.012-2.03,0-2.97.035a87.281,87.281,0,0,0-25.193,4.462c-20.991,7.009-37.738,21.324-47.157,40.311a73.577,73.577,0,0,0-2.806,59.687c10.223,26.673,35.022,46.241,64.718,51.067,1.569.252,3.16.466,4.733.638A88.4,88.4,0,0,0,1408.355,1450.823Zm66.287-39.052a75.764,75.764,0,0,1-28.581,25.5,81.513,81.513,0,0,1-7.6,3.43c-1.179.465-2.458.93-3.914,1.424a82.923,82.923,0,0,1-35.009,3.784c-1.485-.163-2.995-.366-4.479-.6-28.046-4.558-51.467-23.032-61.118-48.211a69.36,69.36,0,0,1,2.642-56.263c8.882-17.9,24.679-31.4,44.482-38.016a82.453,82.453,0,0,1,23.81-4.215q1.329-.048,2.776-.032c2.493.01,4.987.133,7.43.364a83.141,83.141,0,0,1,16.612,3.313,81.983,81.983,0,0,1,15.41,6.515c1.567.86,3.1,1.769,4.558,2.7a79.065,79.065,0,0,1,6.465,4.6,74.6,74.6,0,0,1,23.558,31.778,69.621,69.621,0,0,1-7.046,63.927Z" transform="translate(-1324.558 -1294.123)" fill="#371a45"/>
          </g>
        </g>
        <g id="Group_299" data-name="Group 299" transform="translate(40.1 19.706)">
          <g id="Group_298" data-name="Group 298">
            <path id="Path_308" data-name="Path 308" d="M1453.2,1549.132c-49.184,28.26-112.208,2.238-112.371-51.637-.111-36.653,37.944-64.8,75.365-62.4,27.235,1.747,53.1,14.657,62.065,55.153,0,0,1.033,18.485-4.994,30.389a170.683,170.683,0,0,1-14.03,22.511Z" transform="translate(-1340.834 -1434.949)" fill="#371a45"/>
          </g>
        </g>
        <g id="Group_301" data-name="Group 301" transform="translate(40.103 51.402)">
          <g id="Group_300" data-name="Group 300">
            <path id="Path_309" data-name="Path 309" d="M1503.643,1692.3c.162,53.873,63.187,79.9,112.369,51.638l1.222-1.215c-52.584,5.622-102.692-26.8-103.934-81.274A54.606,54.606,0,0,0,1503.643,1692.3Z" transform="translate(-1503.643 -1661.451)" fill="#220f2d"/>
          </g>
        </g>
        <g id="Group_303" data-name="Group 303" transform="translate(29.258 9.7)">
          <g id="Group_302" data-name="Group 302">
            <path id="Path_310" data-name="Path 310" d="M1405.132,1509.206c.681,0,1.358-.007,2.041-.022l.362-.034a87.4,87.4,0,0,0,12.783-3.216c1.542-.524,2.891-1.014,4.136-1.505a86.1,86.1,0,0,0,8.037-3.63,80.347,80.347,0,0,0,30.313-27.048h0a73.857,73.857,0,0,0,7.476-67.814,79.047,79.047,0,0,0-24.96-33.672l-.184-.146-.212-.107c-9.473-4.777-20.633-7.607-33.169-8.411-22.567-1.447-46.258,6.822-63.374,22.119-15.42,13.781-23.88,31.626-23.823,50.247.064,20.262,7.745,38.077,22.216,51.52C1361.693,1501.348,1382.868,1509.206,1405.132,1509.206Zm1.753-4.46c-21.706.437-42.414-7.021-56.857-20.439-13.553-12.591-20.748-29.31-20.808-48.352-.054-17.375,7.884-34.064,22.35-46.993,16.19-14.471,38.575-22.293,59.872-20.928,11.785.756,22.244,3.38,31.09,7.8a74.576,74.576,0,0,1,23.369,31.628,69.62,69.62,0,0,1-7.046,63.926h0a75.756,75.756,0,0,1-28.581,25.5,81.452,81.452,0,0,1-7.6,3.43c-1.179.465-2.458.93-3.914,1.424A82.472,82.472,0,0,1,1406.885,1504.746Z" transform="translate(-1324.558 -1363.438)" fill="#371a45"/>
          </g>
        </g>
        <g id="Group_305" data-name="Group 305" transform="translate(37.77 17.487)">
          <g id="Group_304" data-name="Group 304">
            <path id="Path_311" data-name="Path 311" d="M1396.726,1549.277a88.794,88.794,0,0,0,44.1-11.884l.264-.151,6.46-6.441a170.948,170.948,0,0,0,14.237-22.842c6.215-12.277,5.265-30.694,5.222-31.472l-.047-.341c-7.871-35.536-29.467-54.684-64.189-56.911a79.094,79.094,0,0,0-56.574,19.743c-13.771,12.307-21.328,28.247-21.277,44.883.073,24.1,12.516,44.578,34.138,56.178A79.592,79.592,0,0,0,1396.726,1549.277Zm41.431-15.538c-24.337,13.868-53.74,14.806-76.811,2.429-20.119-10.793-31.7-29.863-31.764-52.32-.047-15.39,6.987-30.174,19.8-41.629a74.224,74.224,0,0,1,53.073-18.551c32.329,2.073,52.482,19.978,59.9,53.219.079,1.835.625,18.479-4.773,29.141a169.81,169.81,0,0,1-13.73,22.055Z" transform="translate(-1324.921 -1419.089)" fill="#371a45"/>
          </g>
        </g>
        <g id="Group_307" data-name="Group 307" transform="translate(4.212 52.96)">
          <g id="Group_306" data-name="Group 306">
            <path id="Path_312" data-name="Path 312" d="M2235.162,1696.39c-1.875,14.9,5.907,28.487,17.386,30.354s22.3-8.7,24.177-23.592c.014-.093.023-.192.032-.287,1.743-14.783-6.02-28.215-17.418-30.068-8.867-1.443-17.344,4.533-21.607,14.192A33.782,33.782,0,0,0,2235.162,1696.39Z" transform="translate(-2234.884 -1672.584)" fill="#fff"/>
          </g>
        </g>
        <g id="Group_309" data-name="Group 309" transform="translate(4.212 67.366)" opacity="0.35">
          <g id="Group_308" data-name="Group 308">
            <path id="Path_313" data-name="Path 313" d="M2236.828,1784.932c-1.875,14.9,5.907,28.487,17.386,30.354s22.3-8.7,24.177-23.592c.013-.093.023-.192.032-.286a5.962,5.962,0,0,1-6.2,1.569c-4.549-1.649-11.708-12.588-11.708-12.588s-9.141-2.163-21.113-4.856A33.776,33.776,0,0,0,2236.828,1784.932Z" transform="translate(-2236.549 -1775.532)" fill="#371a45"/>
          </g>
        </g>
        <g id="Group_311" data-name="Group 311" transform="translate(1.882 50.735)">
          <g id="Group_310" data-name="Group 310">
            <path id="Path_314" data-name="Path 314" d="M2241.682,1715.506a20.113,20.113,0,0,0,11.734-3.924c6.518-4.637,10.924-12.6,12.088-21.842,2.017-16.03-6.646-30.747-19.311-32.808a19.7,19.7,0,0,0-14.8,3.675c-6.518,4.637-10.924,12.6-12.088,21.842h0c-2.017,16.03,6.646,30.747,19.311,32.807A19.041,19.041,0,0,0,2241.682,1715.506Zm1.48-54.376a13.972,13.972,0,0,1,2.247.182c10.254,1.668,17.192,14.184,15.467,27.9-1,7.924-4.828,14.956-10.247,18.811a14.98,14.98,0,0,1-11.224,2.856c-10.254-1.668-17.193-14.183-15.467-27.9,1-7.924,4.828-14.956,10.247-18.811A15.428,15.428,0,0,1,2243.161,1661.13Z" transform="translate(-2219.016 -1656.684)" fill="#371a45"/>
          </g>
        </g>
        <g id="Group_314" data-name="Group 314" transform="translate(0.606 59.632)">
          <g id="Group_312" data-name="Group 312" transform="translate(0 0)">
            <path id="Path_343" data-name="Path 343" d="M17.129,43.213c9.46-.01,17.14-9.688,17.154-21.616S26.638.008,17.179.019.039,9.707.025,21.635,7.669,43.224,17.129,43.213Z" transform="translate(34.298 43.984) rotate(-178.659)" fill="#fff"/>
          </g>
          <g id="Group_313" data-name="Group 313" transform="translate(0.277 0.133)">
            <path id="Path_315" data-name="Path 315" d="M2324.836,1764.893a14.24,14.24,0,0,0,4.764-.837c9.234-3.266,14.743-15.335,12.28-26.9-1.373-6.449-4.968-11.636-9.862-14.231a13.933,13.933,0,0,0-11.438-.872c-9.234,3.266-14.743,15.334-12.28,26.9,1.373,6.449,4.967,11.636,9.862,14.231A14.164,14.164,0,0,0,2324.836,1764.893Zm.505-43.214a13.663,13.663,0,0,1,6.439,1.649c4.77,2.529,8.276,7.6,9.622,13.918,2.417,11.354-2.954,23.186-11.973,26.376a13.439,13.439,0,0,1-11.031-.843c-4.77-2.529-8.277-7.6-9.621-13.918h0c-2.417-11.354,2.953-23.186,11.972-26.375A13.728,13.728,0,0,1,2325.341,1721.679Z" transform="translate(-2307.712 -1721.214)" fill="#371a45"/>
          </g>
        </g>
        <g id="Group_316" data-name="Group 316" transform="translate(2.789 70.396)" opacity="0.35">
          <g id="Group_315" data-name="Group 315">
            <path id="Path_316" data-name="Path 316" d="M2343.391,1819.365a24.315,24.315,0,0,0,1.473-12.135c-4.312,8.412-13.267,11-20.726,5.67-4.822-3.439-7.907-9.394-8.7-15.717-.276.529-.528,1.089-.764,1.667-3.938,9.714-.7,22.182,7.228,27.846S2339.453,1829.073,2343.391,1819.365Z" transform="translate(-2312.996 -1797.183)" fill="#371a45"/>
          </g>
        </g>
        <g id="Group_318" data-name="Group 318" transform="translate(0 56.647)">
          <g id="Group_317" data-name="Group 317">
            <path id="Path_317" data-name="Path 317" d="M2319.46,1747.712a15.069,15.069,0,0,0,8.761-2.936c5.281-3.742,9-10.667,9.959-18.527,1.643-13.5-4.9-25.411-14.9-27.114a14.7,14.7,0,0,0-11.117,2.736c-5.28,3.741-9,10.667-9.96,18.527h0c-1.642,13.5,4.905,25.411,14.9,27.114A14.026,14.026,0,0,0,2319.46,1747.712Zm1.492-44.331a8.994,8.994,0,0,1,1.5.127c7.327,1.248,12.408,11.428,11.094,22.229-.81,6.665-3.843,12.449-8.11,15.473a9.977,9.977,0,0,1-7.516,1.928c-7.327-1.248-12.408-11.427-11.094-22.229.811-6.665,3.843-12.449,8.11-15.473A10.385,10.385,0,0,1,2320.952,1703.381Z" transform="translate(-2301.948 -1698.935)" fill="#371a45"/>
          </g>
        </g>
        <g id="Group_320" data-name="Group 320" transform="translate(94.61 29.552)" opacity="0.5">
          <g id="Group_319" data-name="Group 319">
            <path id="Path_318" data-name="Path 318" d="M1409.537,1509.186s35.233,4.391,53.442,24.789l.057.064a30.908,30.908,0,0,1,7.368,15,60.513,60.513,0,0,1,.743,17.061c-1.152,13.9-4.456,20.19-4.456,20.19,9.015-6.672,14.443-14.63,15.524-26.2q.155-1.711.188-3.534c.006-.28.006-.557,0-.836.007,0,0-.009,0-.017a73.741,73.741,0,0,0-1.121-9.309c-2.024-10.911-7.317-25.355-21.025-32.957C1434.625,1499.224,1408.441,1507.637,1409.537,1509.186Z" transform="translate(-1409.504 -1505.305)" fill="#fff"/>
          </g>
        </g>
        <g id="Group_322" data-name="Group 322" transform="translate(54.457 51.937)" opacity="0.5">
          <g id="Group_321" data-name="Group 321" transform="translate(0 0)">
            <path id="Path_344" data-name="Path 344" d="M10.759,23.995C16.7,23.9,21.6,18.5,21.708,11.915S17.079.074,11.137.164.293,5.664.189,12.244,4.817,24.086,10.759,23.995Z" transform="matrix(-0.939, -0.345, 0.345, -0.939, 20.55, 29.794)" fill="#fff"/>
          </g>
        </g>
        <g id="Group_324" data-name="Group 324" transform="translate(52.108 81.325)" opacity="0.5">
          <g id="Group_323" data-name="Group 323" transform="translate(0 0)">
            <path id="Path_345" data-name="Path 345" d="M4.427,9.957A4.921,4.921,0,0,0,8.948,4.938,4.5,4.5,0,0,0,4.615.081,4.921,4.921,0,0,0,.094,5.1,4.5,4.5,0,0,0,4.427,9.957Z" transform="translate(8.159 12.728) rotate(-154.471)" fill="#fff"/>
          </g>
        </g>
      </g>
      <g id="Group_327" data-name="Group 327" transform="translate(199.408 114.218)">
        <g id="Group_326" data-name="Group 326">
          <path id="Path_319" data-name="Path 319" d="M741.087,2222.91l109.862-.728a9.79,9.79,0,0,0,9.158-6.2l1.968-5.266,32.155-85.923c2.646-7.07-2.884-14.491-10.756-14.441L776.922,2111a11.866,11.866,0,0,0-1.75.14,11.23,11.23,0,0,0-8.864,7.038l-34.517,92.256C729.505,2216.541,734.281,2222.955,741.087,2222.91Z" transform="translate(-731.213 -2110.35)" fill="#008cff"/>
        </g>
      </g>
      <g id="Group_330" data-name="Group 330" transform="translate(204.547 115.991)">
        <g id="Group_329" data-name="Group 329" transform="translate(0)" opacity="0.35">
          <g id="Group_328" data-name="Group 328">
            <path id="Path_320" data-name="Path 320" d="M1074.39,2231.713l-109.739.727c-6.805.045-11.581-6.369-9.3-12.471l34.517-92.256a10.815,10.815,0,0,1,3.461-4.7c-4.757,17.616-12.138,54.093,1.123,75.084,16.011,25.335,68.445,24.54,86.045,23.509l-1.968,5.266a9.468,9.468,0,0,1-4.423,4.992C1074.2,2231.813,1074.3,2231.766,1074.39,2231.713Z" transform="translate(-954.778 -2123.013)" fill="#371a45"/>
          </g>
        </g>
      </g>
      <g id="Group_332" data-name="Group 332" transform="translate(234.348 114.218)" opacity="0.4">
        <g id="Group_331" data-name="Group 331">
          <path id="Path_321" data-name="Path 321" d="M860.014,2124.611l-36.276,96.943a9.572,9.572,0,0,0,5.7-5.574l34.123-91.189c2.646-7.07-2.884-14.491-10.756-14.441L746.248,2111a11.422,11.422,0,0,0-10.035,5.9,6.5,6.5,0,0,1,.987-.077l116.483-.719A6.415,6.415,0,0,1,860.014,2124.611Z" transform="translate(-736.213 -2110.35)" fill="#fff"/>
        </g>
      </g>
      <g id="Group_334" data-name="Group 334" transform="translate(197.29 112.19)">
        <g id="Group_333" data-name="Group 333">
          <path id="Path_322" data-name="Path 322" d="M728.589,2212.468h.083l109.863-.73a11.938,11.938,0,0,0,11.146-7.545l34.126-91.187a12.19,12.19,0,0,0-1.7-11.745,13.514,13.514,0,0,0-10.981-5.408h-.091l-106.55.656a13.488,13.488,0,0,0-12.6,8.526l-34.52,92.252a10.929,10.929,0,0,0,1.51,10.4A12.12,12.12,0,0,0,728.589,2212.468Zm.053-4.053h-.056a7.693,7.693,0,0,1-6.25-3.077,6.94,6.94,0,0,1-.971-6.688l34.521-92.252a9.23,9.23,0,0,1,8.623-5.834l106.551-.656h.062a9.246,9.246,0,0,1,7.514,3.7,8.341,8.341,0,0,1,1.166,8.037l-34.126,91.187a7.679,7.679,0,0,1-7.17,4.854Z" transform="translate(-716.668 -2095.853)" fill="#371a45"/>
        </g>
      </g>
      <g id="Group_343" data-name="Group 343" transform="translate(271.854 153.839)">
        <g id="Group_336" data-name="Group 336" transform="translate(1.836 1.75)">
          <g id="Group_335" data-name="Group 335">
            <path id="Path_323" data-name="Path 323" d="M1130.324,2419.092l3.854,3.81a2.789,2.789,0,0,1,.761,1.339,2.706,2.706,0,0,1,.015,1.216l-.172.8-.936,4.385a2.964,2.964,0,0,0,4.251,3.143l4.993-2.313a3.126,3.126,0,0,1,2.789.085l4.832,2.6a2.978,2.978,0,0,0,4.448-2.88l-.767-5.241a2.792,2.792,0,0,1,.947-2.5l4.1-3.571a2.811,2.811,0,0,0-1.2-4.86c-.1-.026-.2-.048-.3-.066l-5.467-.926a2.987,2.987,0,0,1-2.2-1.63l-1.848-3.865-.453-.949a3.069,3.069,0,0,0-5.38-.165l-2.612,4.67a3.01,3.01,0,0,1-2.309,1.493l-5.516.6A2.834,2.834,0,0,0,1130.324,2419.092Z" transform="translate(-1129.482 -2405.992)" fill="#ffda22"/>
          </g>
        </g>
        <g id="Group_338" data-name="Group 338" transform="translate(1.836 1.75)" opacity="0.6">
          <g id="Group_337" data-name="Group 337">
            <path id="Path_324" data-name="Path 324" d="M1212.028,2419.092l3.853,3.81a2.791,2.791,0,0,1,.762,1.339c.185-.1.367-.216.549-.328a2.565,2.565,0,0,0,.971-.879,1.56,1.56,0,0,0-.117-1.517,3.484,3.484,0,0,0-1.193-1.087c-.752-.458-1.689-.923-1.805-1.77a1.63,1.63,0,0,1,.928-1.546,4.536,4.536,0,0,1,1.912-.439,22.451,22.451,0,0,1,2.808-.017,6.8,6.8,0,0,0,1.937-.048,4.335,4.335,0,0,0,2.781-2.88,31.7,31.7,0,0,1,1.344-3.869,2.035,2.035,0,0,1,.589-.729,2.41,2.41,0,0,1,.872-.311,10.979,10.979,0,0,1,1.9-.2l-.453-.949a3.068,3.068,0,0,0-5.38-.165l-2.613,4.67a3.01,3.01,0,0,1-2.308,1.493l-5.516.6A2.834,2.834,0,0,0,1212.028,2419.092Z" transform="translate(-1211.187 -2405.992)" fill="#fff"/>
          </g>
        </g>
        <g id="Group_340" data-name="Group 340" transform="translate(6.135 10.864)">
          <g id="Group_339" data-name="Group 339">
            <path id="Path_325" data-name="Path 325" d="M1129.547,2486.656a2.964,2.964,0,0,0,4.251,3.143l4.993-2.313a3.126,3.126,0,0,1,2.789.085l4.832,2.606a2.979,2.979,0,0,0,4.448-2.881l-.767-5.241a2.793,2.793,0,0,1,.947-2.5l4.1-3.57a2.811,2.811,0,0,0-1.2-4.86,2.8,2.8,0,0,1-.139.332,5.237,5.237,0,0,1-1.86,2c-1.475.966-3.262,1.559-4.412,2.861-1.62,1.838-1.509,4.483-1.661,6.878a1.611,1.611,0,0,1-.417,1.165,1.474,1.474,0,0,1-1.2.214c-1.384-.251-2.529-1.353-3.937-1.394-1.926-.055-6.059,4.025-7.585,2.875-1.216-.916.711-4.019-2.244-3.781Z" transform="translate(-1129.482 -2471.121)" fill="#fa0"/>
          </g>
        </g>
        <g id="Group_342" data-name="Group 342" transform="translate(0)">
          <g id="Group_341" data-name="Group 341">
            <path id="Path_326" data-name="Path 326" d="M1141.527,2425.532a4.989,4.989,0,0,0,2.715-.8,4.5,4.5,0,0,0,2.071-4.447l-.765-5.24a1.082,1.082,0,0,1,.368-.973l4.1-3.571a4.442,4.442,0,0,0,1.379-4.686,4.729,4.729,0,0,0-3.8-3.252l-5.465-.925a1.158,1.158,0,0,1-.857-.634l-2.3-4.816a4.943,4.943,0,0,0-8.668-.26h0l-2.612,4.668a1.165,1.165,0,0,1-.9.581l-5.516.6a4.768,4.768,0,0,0-4,3.018,4.425,4.425,0,0,0,1.066,4.759l3.851,3.811a1.075,1.075,0,0,1,.3.992l-1.11,5.184a4.471,4.471,0,0,0,1.773,4.563,5,5,0,0,0,5.079.5l4.992-2.313a1.213,1.213,0,0,1,1.083.033l4.83,2.608A5.019,5.019,0,0,0,1141.527,2425.532Zm-6.958-28.547h.037a1.143,1.143,0,0,1,1.023.65l2.3,4.816a4.807,4.807,0,0,0,3.555,2.629l5.465.925a1.113,1.113,0,0,1,.915.783,1.047,1.047,0,0,1-.332,1.129l-4.1,3.572a4.486,4.486,0,0,0-1.525,4.036l.765,5.24a1.067,1.067,0,0,1-.5,1.072,1.183,1.183,0,0,1-1.229.048l-4.83-2.609a5.045,5.045,0,0,0-4.5-.135l-4.992,2.313a1.176,1.176,0,0,1-1.223-.122,1.06,1.06,0,0,1-.427-1.1l1.111-5.185a4.465,4.465,0,0,0-1.255-4.119l-3.851-3.811a1.044,1.044,0,0,1-.257-1.146,1.122,1.122,0,0,1,.965-.727l5.516-.6a4.843,4.843,0,0,0,3.723-2.41l2.612-4.668h0A1.142,1.142,0,0,1,1134.57,2396.984Z" transform="translate(-1116.983 -2393.485)" fill="#371a45"/>
          </g>
        </g>
      </g>
      <g id="Group_345" data-name="Group 345" transform="translate(13.957 124.868)">
        <g id="Group_344" data-name="Group 344">
          <path id="Path_327" data-name="Path 327" d="M2938.6,2192.469a1.469,1.469,0,0,0,1.374-.9,1.38,1.38,0,0,0-.852-1.8c-.643-.233-15.888-5.662-27.149-2.094a1.386,1.386,0,0,0-.93,1.77,1.486,1.486,0,0,0,1.856.886c10.26-3.25,25.033,2,25.181,2.055A1.534,1.534,0,0,0,2938.6,2192.469Z" transform="translate(-2910.963 -2186.456)" fill="#371a45"/>
        </g>
      </g>
      <g id="Group_347" data-name="Group 347" transform="translate(76.946 140.007)">
        <g id="Group_346" data-name="Group 346">
          <path id="Path_328" data-name="Path 328" d="M2083.113,2294.639s-34.787,35.42-12.014,53.738c19.146,15.4,39.65-5.211,39.65-5.211a17.85,17.85,0,0,0,9.339,9.785c8.626,3.654,18.8-2.978,18.8-2.978s3.738,9.544,11.383,6.7c8.171-3.041,2.295-30.783-14.191-46.478-19.073-18.158-47.24-2.339-47.24-2.339" transform="translate(-2063.368 -2294.639)" fill="#fff"/>
        </g>
      </g>
      <g id="Group_349" data-name="Group 349" transform="translate(76.948 177.952)" opacity="0.35">
        <g id="Group_348" data-name="Group 348">
          <path id="Path_329" data-name="Path 329" d="M2063.387,2565.8a19.52,19.52,0,0,0,7.729,15.793c19.143,15.4,39.652-5.213,39.652-5.213a17.855,17.855,0,0,0,9.335,9.789c8.628,3.653,18.8-2.979,18.8-2.979s3.737,9.545,11.382,6.7c3.482-1.3,4.413-7.068,3.057-14.485-.1,5.178-1.43,8.76-4.062,9.271-7.347,1.429-5.943-11.339-5.943-11.339s-5.476,12.145-17.729,8.213c-12-3.861-14.843-15.687-14.843-15.687s-24.272,20.242-40.694,8.355A18.623,18.623,0,0,1,2063.387,2565.8Z" transform="translate(-2063.387 -2565.803)" fill="#371a45"/>
        </g>
      </g>
      <g id="Group_351" data-name="Group 351" transform="translate(74.845 139.415)">
        <g id="Group_350" data-name="Group 350">
          <path id="Path_330" data-name="Path 330" d="M2070.259,2290.538a36.988,36.988,0,0,0-5.178,4.416,54.589,54.589,0,0,0-4.445,5.053,64.464,64.464,0,0,0-7.125,11.389c-.514,1-.925,2.053-1.385,3.08-.393,1.06-.843,2.093-1.171,3.181a38.518,38.518,0,0,0-1.664,6.618,28.872,28.872,0,0,0-.264,6.939,22.8,22.8,0,0,0,1.82,6.871,21.892,21.892,0,0,0,1.813,3.124l.518.743.26.37.3.34,1.2,1.354a14.047,14.047,0,0,0,1.305,1.244c.452.393.885.82,1.357,1.183l1.431,1.066c.471.361,1,.655,1.5.984a27.2,27.2,0,0,0,6.654,2.994,25.539,25.539,0,0,0,7.333.98,32.544,32.544,0,0,0,13.934-3.552,46.6,46.6,0,0,0,6.046-3.567c.956-.662,1.882-1.362,2.788-2.087.915-.742,1.758-1.458,2.665-2.341l-3.566-.771c.167.462.3.772.471,1.135s.33.689.512,1.022a20.587,20.587,0,0,0,1.183,1.939,20.066,20.066,0,0,0,3.009,3.471,19.41,19.41,0,0,0,3.833,2.733,16.139,16.139,0,0,0,2.207.969l1.167.4,1.2.262a20.833,20.833,0,0,0,9.421-.473,32.733,32.733,0,0,0,4.3-1.5c.688-.3,1.371-.619,2.04-.962.682-.358,1.3-.684,2.023-1.143l-3.193-.964a16.326,16.326,0,0,0,.926,1.88,18.031,18.031,0,0,0,1.108,1.72,13.883,13.883,0,0,0,3.016,3.077,9.516,9.516,0,0,0,4.435,1.8,8.74,8.74,0,0,0,2.472-.032,10.25,10.25,0,0,0,2.3-.612,6.408,6.408,0,0,0,2.273-1.567l.433-.488a5.906,5.906,0,0,0,.348-.506l.325-.514c.1-.172.168-.344.252-.516a12.93,12.93,0,0,0,1.1-4.072,29.453,29.453,0,0,0-.248-7.683,57.448,57.448,0,0,0-4.28-14.271,66.324,66.324,0,0,0-7.479-12.955,58.635,58.635,0,0,0-4.91-5.792,36.59,36.59,0,0,0-5.972-5.033,33.4,33.4,0,0,0-14.912-5.386,45.47,45.47,0,0,0-7.945-.182,51.752,51.752,0,0,0-7.8,1.056,38.162,38.162,0,0,0-7.385,2.454,23.7,23.7,0,0,0-6.477,4.219.675.675,0,0,0,0,.987.755.755,0,0,0,.671.187l.045-.009c4.951-1.059,9.51-2.549,14.2-3.6a47.861,47.861,0,0,1,7.071-1.2,34.78,34.78,0,0,1,7.1.109,29,29,0,0,1,12.992,4.684,41.889,41.889,0,0,1,9.85,9.846,62.373,62.373,0,0,1,7.024,12.174,53.626,53.626,0,0,1,4,13.286,25.781,25.781,0,0,1,.234,6.64,9.127,9.127,0,0,1-.749,2.86,2.876,2.876,0,0,1-1.389,1.527,4.959,4.959,0,0,1-5.008-.632,9.814,9.814,0,0,1-2.1-2.162,14.211,14.211,0,0,1-.862-1.339,13.047,13.047,0,0,1-.681-1.368l-.005-.012a2.178,2.178,0,0,0-2.777-1.157,2.273,2.273,0,0,0-.411.205c-.456.291-1.078.629-1.64.921-.581.3-1.176.572-1.774.837a28.344,28.344,0,0,1-3.688,1.285,16.43,16.43,0,0,1-7.41.411l-.876-.185-.833-.295a11.878,11.878,0,0,1-1.655-.721,15.2,15.2,0,0,1-2.963-2.117,15.989,15.989,0,0,1-2.4-2.77,16.7,16.7,0,0,1-.956-1.566c-.147-.266-.28-.539-.405-.808s-.252-.573-.316-.749l-.007-.017a2.175,2.175,0,0,0-2.737-1.253,2.2,2.2,0,0,0-.823.5c-.675.657-1.516,1.384-2.326,2.036-.825.661-1.673,1.3-2.547,1.907a42.262,42.262,0,0,1-5.481,3.234,28.16,28.16,0,0,1-12.039,3.107,21.105,21.105,0,0,1-6.056-.808,22.857,22.857,0,0,1-5.572-2.515c-.428-.284-.882-.527-1.292-.844l-1.241-.925c-.409-.312-.759-.67-1.143-1a10.833,10.833,0,0,1-1.093-1.038l-.99-1.115-.248-.279-.208-.3-.418-.6a17.826,17.826,0,0,1-1.471-2.524,18.886,18.886,0,0,1-1.481-5.619,23.858,23.858,0,0,1,.248-5.952,40.211,40.211,0,0,1,4.114-11.643,109.142,109.142,0,0,1,6.521-10.939c2.373-3.568,4.841-7.116,7.15-10.845l.01-.016a.67.67,0,0,0-.255-.942A.753.753,0,0,0,2070.259,2290.538Z" transform="translate(-2048.93 -2290.408)" fill="#371a45"/>
        </g>
      </g>
      <g id="Group_353" data-name="Group 353" transform="translate(150.805 184.153)">
        <g id="Group_352" data-name="Group 352" transform="translate(0)">
          <path id="Path_331" data-name="Path 331" d="M2136.026,2610.3a38.778,38.778,0,0,1-2.449,5.4c-.456.821-1,1.549-1.491,2.267s-1.052,1.329-1.538,2.047l-.128.189a1.707,1.707,0,0,0,.55,2.428,1.918,1.918,0,0,0,2.06-.04,8.132,8.132,0,0,0,2.449-2.639,10.943,10.943,0,0,0,1.215-3.2,14.373,14.373,0,0,0,.328-3.261,11.758,11.758,0,0,0-.472-3.193.275.275,0,0,0-.339-.176.269.269,0,0,0-.179.16Z" transform="translate(-2130.126 -2610.111)" fill="#371a45"/>
        </g>
      </g>
      <g id="Group_355" data-name="Group 355" transform="translate(121.76 177.363)">
        <g id="Group_354" data-name="Group 354" transform="translate(0)">
          <path id="Path_332" data-name="Path 332" d="M2347.192,2561.717a11.14,11.14,0,0,0-1.213,2.737,16.34,16.34,0,0,0-.559,2.913,14.539,14.539,0,0,0-.034,2.939,9.156,9.156,0,0,0,.729,2.889,1.891,1.891,0,0,0,2.441.917,1.766,1.766,0,0,0,1.117-1.636l0-.15a14.569,14.569,0,0,0-.342-2.555c-.164-.857-.4-1.708-.6-2.572s-.388-1.734-.562-2.624-.3-1.791-.458-2.75v-.011a.281.281,0,0,0-.511-.1Z" transform="translate(-2345.325 -2561.59)" fill="#371a45"/>
        </g>
      </g>
      <g id="Group_357" data-name="Group 357" transform="translate(88.605 147.891)">
        <g id="Group_356" data-name="Group 356" transform="translate(0)">
          <path id="Path_333" data-name="Path 333" d="M2441.292,2403.3a1.893,1.893,0,0,0,.936-.246,1.7,1.7,0,0,0,.639-2.4c-11.4-18.258,16.918-46.433,17.205-46.715a1.692,1.692,0,0,0-.04-2.474,1.9,1.9,0,0,0-2.595.037c-1.253,1.231-30.555,30.386-17.725,50.94A1.854,1.854,0,0,0,2441.292,2403.3Z" transform="translate(-2436.47 -2350.977)" fill="#371a45"/>
        </g>
      </g>
    </g>
  </g>
</svg>
