<svg xmlns="http://www.w3.org/2000/svg" width="23.705" height="40.602" viewBox="0 0 23.705 40.602"><g transform="translate(-118.183 -20)"><path d="M118.379,48.023a.516.516,0,0,0,.5.079l13.813-5.127a.516.516,0,0,0,.322-.364l2.2-9.18.767-.973.168.133a.516.516,0,0,0,.725-.086l4.9-6.22a.516.516,0,0,0-.086-.725l-6.911-5.448a.516.516,0,0,0-.725.086l-4.9,6.22a.516.516,0,0,0,.086.725l.168.133-.767.973-8.413,4.282a.516.516,0,0,0-.278.4l-1.761,14.628a.516.516,0,0,0,.193.467Zm14.532-24.708,6.1,4.81-1,1.263-6.1-4.81Zm1.635-2.073,6.1,4.81-1,1.263-6.1-4.81Zm-3.269,4.147,6.1,4.81-1,1.263-6.1-4.81Zm3.893,6.431-.517.656L129.7,28.57l.517-.656Zm-14.231,1.505,7.975-4.059,5.246,4.135-2.085,8.7-11.833,4.392,5.141-6.521a2.821,2.821,0,0,0,1.325.33,2.9,2.9,0,0,0,.341-.02,2.851,2.851,0,1,0-2.477-.949l-5.141,6.521Zm4.648,5.556a1.819,1.819,0,0,1,.913-3.236,1.851,1.851,0,0,1,.217-.013,1.82,1.82,0,1,1-1.13,3.248Z" fill="#fff"/><path d="M127.31,363a5.88,5.88,0,0,0,.044.718,5.8,5.8,0,1,0-.044-.718Zm10.561,0a4.764,4.764,0,0,1-9.493.591,4.841,4.841,0,0,1-.036-.591,4.764,4.764,0,1,1,9.529,0Z" transform="translate(-8.342 -308.2)" fill="#fff"/><path d="M160.649,388.416v2.124h-2.124a.516.516,0,1,0,0,1.032h2.124V393.7a.516.516,0,0,0,1.032,0v-2.124h2.124a.516.516,0,1,0,0-1.032h-2.124v-2.124a.516.516,0,1,0-1.032,0Z" transform="translate(-36.401 -336.26)" fill="#fff"/></g></svg>