<svg xmlns="http://www.w3.org/2000/svg" width="87" height="108.511" viewBox="0 0 87 108.511"><g transform="translate(-869.015 -545.964)"><g transform="translate(918.702 589.162)"><g transform="translate(0.799 0.654)"><path d="M2181.634,1688.361l.969,3.469.493,1.767,8.5,30.473s2.045-.7,4.712-1.854c.521-.226,1.067-.469,1.626-.729,4.164-1.93,9.054-4.732,10.245-7.654,1.779-4.37-3.514-20.7-8.457-26.151-2.265-2.5-8.886-1.57-13.458-.546-.511.114-1,.229-1.447.342C2182.919,1687.951,2181.634,1688.361,2181.634,1688.361Z" transform="translate(-2181.634 -1686.084)" fill="#fff"/></g><g transform="translate(1.768 4.553)" opacity="0.35"><path d="M2206.816,1789.3l.493,1.767,6.752,24.2,1.751,6.277.124-.043.079-.028.074-.027.06-.02.024-.009.12-.044.029-.01.111-.04.166-.061.129-.048.138-.051.185-.069c.129-.049.265-.1.409-.156.127-.047.26-.1.4-.154.16-.063.328-.128.5-.2.642-.255,1.374-.556,2.161-.9l.466-.2.333-.149c.271-.121.548-.247.827-.377,4.166-1.93,9.054-4.732,10.244-7.654,1.467-3.6-1.863-15.3-5.845-22.372,2.567,6.466,4.187,13.78,3.081,16.492-.546,1.341-5.379-1.121-6.023-3.254-1.662-5.5-4.876-12.222-11.289-14.715C2212.15,1787.392,2209.341,1788.745,2206.816,1789.3Z" transform="translate(-2206.816 -1787.455)" fill="#371a45"/></g><g transform="translate(0)"><path d="M2171.179,1708.556l-10.319-36.983.6-.192a60.584,60.584,0,0,1,7.794-1.847c5.641-.92,9.334-.466,10.98,1.351,5.157,5.691,10.448,22.245,8.577,26.838-2.252,5.53-16.378,10.4-16.978,10.609Zm-8.719-36.116,9.6,34.421c2.8-1.026,13.761-5.273,15.537-9.632.755-1.855.079-6.652-1.724-12.221-1.848-5.708-4.381-10.783-6.612-13.245C2176.686,1668.917,2166.784,1671.14,2162.46,1672.441Z" transform="translate(-2160.86 -1669.072)" fill="#371a45"/></g><g transform="translate(17.833 15.64)"><path d="M2631.014,2075.808l-5.747,2.382a1.218,1.218,0,0,0-.741,1.294c.282,2.014,1.174,6.632,3.5,7.487a4.8,4.8,0,0,0,5.433-1.97c1.178-1.92-.093-6.319-.828-8.462A1.22,1.22,0,0,0,2631.014,2075.808Z" transform="translate(-2624.513 -2075.715)" fill="#fff"/></g><g transform="translate(17.834 18.957)" opacity="0.35"><path d="M2624.533,2162.4c.28,2.013,1.174,6.632,3.5,7.486a4.8,4.8,0,0,0,5.433-1.97c.724-1.182.522-3.3.088-5.254a5.208,5.208,0,0,1-.471,2.612c-2.02,3.863-5.357,1.191-5.357,1.191s-.113.953-.4,1.1c-1.218.618-2.274-3.483-2.771-5.618A1.179,1.179,0,0,0,2624.533,2162.4Z" transform="translate(-2624.521 -2161.944)" fill="#371a45"/></g><g transform="translate(17.179 14.987)"><path d="M2613.046,2071.531a4.617,4.617,0,0,1-1.594-.274c-2.574-.944-3.566-5.424-3.928-8.01a1.873,1.873,0,0,1,1.139-1.989l5.747-2.382h0A1.873,1.873,0,0,1,2616.9,2060c1.03,3,2,7.007.767,9.016A5.536,5.536,0,0,1,2613.046,2071.531Zm2.082-11.491a.564.564,0,0,0-.217.044h0l-5.747,2.382a.564.564,0,0,0-.344.6c.539,3.85,1.691,6.453,3.082,6.963a4.132,4.132,0,0,0,4.65-1.7c.732-1.193.4-4.149-.889-7.907a.566.566,0,0,0-.535-.383Zm-.468-.56h0Z" transform="translate(-2607.506 -2058.733)" fill="#371a45"/></g><g transform="translate(19.918 19.909)"><path d="M2683.25,2194.125a2.45,2.45,0,0,1-.339-.095c-.1-.035-.2-.073-.288-.115a4.292,4.292,0,0,1-.533-.28,5.2,5.2,0,0,1-.927-.717,6.6,6.6,0,0,1-1.334-1.83,9.372,9.372,0,0,1-.431-1.021c-.134-.345-.226-.688-.328-1.036s-.182-.7-.249-1.057c-.032-.179-.063-.358-.084-.541a3.735,3.735,0,0,1-.031-.567.172.172,0,0,1,.344-.006v.019a3.6,3.6,0,0,0,.076.49c.036.168.081.336.127.5.1.333.21.663.335.989s.254.656.408.96a8.571,8.571,0,0,0,.484.9,5.748,5.748,0,0,0,1.308,1.482,4.206,4.206,0,0,0,.806.51,3.291,3.291,0,0,0,.428.175c.072.025.143.044.214.062a1.4,1.4,0,0,0,.177.033.581.581,0,1,1-.031,1.161.548.548,0,0,1-.1-.01Z" transform="translate(-2678.704 -2186.7)" fill="#371a45"/></g><g transform="translate(9.504 1.232)"><path d="M2408.14,1704.306c.695-.339,1.39-.656,2.094-.966s1.413-.605,2.133-.883,1.446-.544,2.192-.773a16.241,16.241,0,0,1,2.315-.562.655.655,0,0,1,.2,1.294l-.044.005h-.007a15.119,15.119,0,0,0-2.159.371c-.726.168-1.449.378-2.17.6s-1.438.465-2.151.721-1.425.523-2.123.806h0a.337.337,0,0,1-.275-.616Z" transform="translate(-2407.95 -1701.115)" fill="#371a45"/></g></g><g transform="translate(869.673 574.81)"><path d="M911.911,1316.76c.723,1.629,1.76,3.243,2.09,4.1l-1.7,2.994-1.926,3.391q-1.455.168-2.8.25c-16.038.991-20.753-6.756-21.28-10.461a15.894,15.894,0,0,1,5.07-13.882,12.405,12.405,0,0,1,.99-.865c6.379-5.025,23.073-9.729,27.9-3.032,2.72,3.77.843,10.228-7.607,12.777C910.582,1312.657,911,1314.719,911.911,1316.76Z" transform="translate(-886.134 -1295.939)" fill="#fff"/></g><g transform="translate(869.673 592.465)" opacity="0.35"><path d="M913.026,1760.33a19.266,19.266,0,0,1,.976,1.9l-3.625,6.386c-18.3,2.119-23.521-6.3-24.078-10.211a15.818,15.818,0,0,1-.121-3.441c.021.222.414,3.136.469,3.36,1.019,4.213,10.727,9.477,13.524,8.067.688-.347,1.211-.761,1.529-.87.58-.2.874.631,1.774.574.824-.052.907-1.44,1.542-1.263.51.142,1.136,1.384,1.884,1.342Z" transform="translate(-886.135 -1754.966)" fill="#371a45"/></g><g transform="translate(869.015 574.155)"><path d="M888.338,1311.879c-5.511,0-10.025-1.1-13.465-3.287a11.9,11.9,0,0,1-5.684-7.827c-.769-5.405,1-10.264,5.26-14.442,4.01-3.933,14.689-7.992,22.447-7.33,3.462.3,5.963,1.479,7.433,3.518A7.07,7.07,0,0,1,905.2,1289c-1.112,3.284-4.327,5.945-8.819,7.3-4.821,1.454-10.44,3.872-11.112,5.243a.224.224,0,0,0-.034.123.654.654,0,1,1-1.221.469,1.424,1.424,0,0,1,.081-1.167c1.323-2.7,11.478-5.79,11.909-5.92,4.082-1.231,6.983-3.588,7.958-6.467a5.778,5.778,0,0,0-.691-5.3c-1.237-1.716-3.418-2.718-6.483-2.98-7.3-.624-17.686,3.3-21.42,6.96-3.946,3.87-5.588,8.353-4.881,13.323.6,4.205,6.25,11.635,23.356,9.653a.654.654,0,0,1,.15,1.3A49.236,49.236,0,0,1,888.338,1311.879Z" transform="translate(-869.015 -1278.922)" fill="#371a45"/></g><g transform="translate(874.229 569.117)"><path d="M1085.555,1155.005a12.861,12.861,0,0,1-1.444,3.807c-5.442,9.813-24.534,17.6-24.534,17.6s1.084,3.4,3.43,9.45c.054.142.11.283.166.428.725,1.857,1.564,3.953,2.523,6.267,1.123,2.709,2.411,5.718,3.872,8.991a170.712,170.712,0,0,1,6.529,18.245s8.383,2.849,8.264,8.028a4.812,4.812,0,0,1-.094.849c-.985,4.979-20.194,3.937-21.8,1.579-1.929-2.823-2.707-5.267-4.609-9.561-1.409-3.179-2.9-6.463-6.182-9.124-3.711-2.727-9.811-2.758-13.754-2.394-5.669.524-6.605,4.028-7.318,6.566-1.189,4.225-.476,12.929-4.51,15.412-2.2,1.358-20.376,3.459-21.433-2.778a4.889,4.889,0,0,1,.482-3.209c1.55-2.9,5.764-3.85,5.764-3.85a83.165,83.165,0,0,1-.006-10.585c1.025-9.283,12.57-13.538,12.57-13.538s-.041-.9-.476-3.807c-.539-3.594-1.1-6.366-1.527-8.214-.4-1.764-.679-2.691-.679-2.691l-1.067-3.125-.6-1.766,6.682-3.155,25.279-11.938c.822-.51,1.734-1.114,2.717-1.781,7.482-5.075,19.1-13.787,26.765-12.7C1084.465,1148.562,1086.257,1151.3,1085.555,1155.005Z" transform="translate(-1004.576 -1147.917)" fill="#fff"/></g><g transform="translate(921.698 576.205)" opacity="0.35"><path d="M2272.264,1332.2a12.859,12.859,0,0,1-1.444,3.807c-5.442,9.814-24.534,17.6-24.534,17.6s1.084,3.4,3.43,9.45l-1.222.56c-1.41-4.358-6.109-1.987-6.42-3.749-.157-.889,2.619-1.758,1.743-3.435s-5.135-.63-5.062-1.984c.057-1.038,2.364-.878,3.953-1.3s-.854-2.686-1.024-3.426c-.267-1.157,2.294-.16,5.365-.394C2259.652,1348.381,2268.957,1336.9,2272.264,1332.2Z" transform="translate(-2238.754 -1332.201)" fill="#371a45"/></g><g transform="translate(874.229 624.404)" opacity="0.35"><path d="M1084.362,2609.984a4.813,4.813,0,0,1-.094.849c-.985,4.979-20.194,3.937-21.8,1.579-1.929-2.823-2.707-5.267-4.609-9.56-1.409-3.179-2.9-6.463-6.182-9.124-3.711-2.728-9.811-2.758-13.754-2.395-5.669.524-6.605,4.028-7.318,6.566-1.189,4.225-.476,12.929-4.51,15.412-2.2,1.358-20.376,3.459-21.433-2.778a4.89,4.89,0,0,1,.482-3.209c.2,1.188,1.123,2.493,3.785,3.338,5.982,1.9,16.056,2.252,17.412-2.094s.469-8.334.519-12.043c.04-2.947-.318-6.776,1.588-7.94,1-.612,2.227.768,3.784.574s1.577-3.742,2.675-3.792c1.355-.063,1.147,2.323,3.982,3.275,2.559.86,9.122.72,11.449-1.582,2.222-2.2,1.49,1.711,2.077,2.842,1.13,2.182,5.62-1.446,6.26.212.294.763-.806,3.573-.275,6.865.664,4.117,3.224,11.156,8.315,13.778C1070.328,2612.62,1080.541,2613.026,1084.362,2609.984Z" transform="translate(-1004.576 -2585.366)" fill="#371a45"/></g><g transform="translate(873.575 568.464)"><path d="M999.281,1216.953a22.034,22.034,0,0,1-8.559-1.372,4.707,4.707,0,0,1-3.055-3.423c-.759-4.479,3.461-6.88,6.208-7.667a77.354,77.354,0,0,1,.027-10.158c.951-8.6,10.286-12.966,12.528-13.894-.052-.523-.17-1.539-.431-3.282a88.847,88.847,0,0,0-2.187-10.815.654.654,0,0,1,1.254-.372,88.177,88.177,0,0,1,2.227,10.993c.436,2.909.482,3.838.483,3.876l.021.477-.448.166c-.112.041-11.177,4.229-12.147,13a83.07,83.07,0,0,0,.009,10.473l.034.555-.543.123c-.267.061-6.552,1.553-5.746,6.311a3.5,3.5,0,0,0,2.305,2.45c5.31,2.406,16.746.74,18.141-.118,2.528-1.557,3.021-6.1,3.455-10.1a32.772,32.772,0,0,1,.767-4.931l.018-.065c.718-2.554,1.8-6.413,7.87-6.975,3.575-.33,10.174-.443,14.2,2.519l.024.019c3.458,2.8,5,6.291,6.367,9.366.494,1.113.918,2.118,1.292,3a34.053,34.053,0,0,0,3.259,6.453c.8,1.168,9.788,2.463,16.273,1.136,2.595-.531,4.14-1.409,4.351-2.473,1.007-5.087-7.652-8.1-7.74-8.131l-.322-.11-.1-.327a171.2,171.2,0,0,0-6.5-18.161c-6.881-15.425-9.986-25.108-10.017-25.2l-.183-.576.559-.228c.189-.077,18.942-7.816,24.208-17.315,1.577-2.844,1.939-5.427,1.019-7.274a5.05,5.05,0,0,0-4.091-2.563c-6.646-.939-16.639,5.944-23.936,10.97-1.875,1.292-3.647,2.512-5.109,3.421a.654.654,0,0,1-.69-1.111c1.436-.892,3.2-2.1,5.058-3.386,7.474-5.148,17.711-12.2,24.861-11.188a6.293,6.293,0,0,1,5.078,3.275c1.118,2.244.746,5.26-1.046,8.492-5.026,9.064-21.02,16.257-24.295,17.656.761,2.277,3.87,11.256,9.778,24.5a170.007,170.007,0,0,1,6.466,18.008c1.718.646,9.395,3.869,8.279,9.507-.329,1.661-2.136,2.838-5.372,3.5-5.7,1.168-16.147.47-17.616-1.68a35.011,35.011,0,0,1-3.383-6.682c-.372-.881-.794-1.88-1.283-2.983-1.3-2.937-2.778-6.266-5.983-8.871-3.681-2.7-9.907-2.574-13.294-2.261-5.173.479-6.037,3.554-6.732,6.026l-.018.065a32.015,32.015,0,0,0-.726,4.718c-.467,4.3-1,9.182-4.07,11.075C1008.948,1216.087,1004.145,1216.953,999.281,1216.953Z" transform="translate(-987.577 -1130.942)" fill="#371a45"/></g><g transform="translate(872.032 545.964)"><g transform="translate(3.866 28.269)" opacity="0.35"><path d="M1095.517,1288.041a23.944,23.944,0,0,1-14.411,19.408q-.632.264-1.281.494a23.052,23.052,0,0,1-6.865,1.285,23.317,23.317,0,0,1-3.815-.179c-.415-.056-.826-.119-1.233-.193l-.033-.006a24.109,24.109,0,0,1-2.516-.605,23.8,23.8,0,0,1-3.921-1.563,24.46,24.46,0,0,1-6.519-4.8,25.282,25.282,0,0,1-6.955-14.589c6.379-5.025,23.073-9.729,27.9-3.032,2.72,3.77.843,10.228-7.607,12.777-2.07.623-1.65,2.684-.74,4.726l25.279-11.938C1093.622,1289.311,1094.534,1288.707,1095.517,1288.041Z" transform="translate(-1047.968 -1280.94)" fill="#371a45"/></g><g transform="translate(0.618 0.618)"><path d="M973,608.526a26.034,26.034,0,0,0,11.359,6.694,26.4,26.4,0,0,0,2.746.623c.455.079.916.145,1.383.2a26.187,26.187,0,0,0,4.169.157,26.022,26.022,0,0,0,7.519-1.433q.712-.251,1.406-.538a26.195,26.195,0,0,0-15.058-49.9c-.3.057-.607.122-.909.194q-1.212.281-2.381.672a26.331,26.331,0,0,0-9.612,5.749q-.652.611-1.263,1.268A26.192,26.192,0,0,0,973,608.526Z" transform="translate(-965.283 -563.776)" fill="#fff"/><path d="M989.817,614.561a26.492,26.492,0,0,1-3.085-.181c-.513-.063-.966-.129-1.386-.2a26.609,26.609,0,0,1-2.753-.625,26.256,26.256,0,0,1-12.032-43.121c.4-.431.826-.858,1.266-1.271a26.4,26.4,0,0,1,9.637-5.765c.778-.26,1.581-.487,2.387-.674.321-.077.62-.141.912-.195a26.263,26.263,0,0,1,15.1,50.034c-.462.191-.937.373-1.41.54a26.089,26.089,0,0,1-7.539,1.437Q990.366,614.561,989.817,614.561ZM971.3,606.744a26.058,26.058,0,0,0,11.329,6.676,26.482,26.482,0,0,0,2.739.621c.418.073.869.139,1.379.2a26.234,26.234,0,0,0,4.158.157,25.964,25.964,0,0,0,7.5-1.429c.471-.166.943-.347,1.4-.537a26.126,26.126,0,0,0-15.019-49.77c-.29.054-.587.117-.906.194-.8.186-1.6.411-2.375.671a26.26,26.26,0,0,0-9.587,5.734c-.438.41-.862.836-1.26,1.264a26.123,26.123,0,0,0,.639,36.217Z" transform="translate(-963.538 -562.043)" fill="#371a45"/></g><g transform="translate(4.001 7.961)" opacity="0.35"><path d="M1100.359,774.93a26.174,26.174,0,0,1-15.972,21.138q-.694.288-1.4.538a26.235,26.235,0,0,1-11.689,1.277c-.466-.059-.927-.123-1.383-.2a26.755,26.755,0,0,1-2.746-.624,26.026,26.026,0,0,1-11.36-6.694,26.338,26.338,0,0,1-4.33-5.74,26.132,26.132,0,0,0,13.674,6.895c.454.079.915.144,1.382.2a26.11,26.11,0,0,0,11.688-1.276q.713-.252,1.406-.539a26.2,26.2,0,0,0,12.836-36.947A26.141,26.141,0,0,1,1100.359,774.93Z" transform="translate(-1051.475 -752.957)" fill="#371a45"/></g><g transform="translate(0.155 0.155)"><path d="M978.222,603.43a26.985,26.985,0,0,1-3.14-.184c-.523-.064-.984-.132-1.412-.206a27.091,27.091,0,0,1-2.8-.635,26.661,26.661,0,0,1-11.592-6.831h0a26.717,26.717,0,0,1-.654-37.052c.408-.439.841-.874,1.289-1.294a26.861,26.861,0,0,1,9.807-5.866c.792-.265,1.609-.5,2.43-.686.326-.078.632-.143.931-.2a26.727,26.727,0,0,1,15.361,50.918c-.471.195-.953.379-1.433.549a26.554,26.554,0,0,1-7.675,1.463Q978.78,603.43,978.222,603.43Zm-18.188-8.608a25.593,25.593,0,0,0,11.127,6.557,26.044,26.044,0,0,0,2.69.61c.412.072.856.137,1.358.2a25.769,25.769,0,0,0,4.082.154,25.492,25.492,0,0,0,7.366-1.4c.461-.163.925-.34,1.378-.528a25.662,25.662,0,0,0-14.752-48.886c-.287.054-.576.115-.888.19-.791.183-1.576.4-2.335.659a25.8,25.8,0,0,0-9.417,5.633c-.43.4-.846.821-1.237,1.242a25.66,25.66,0,0,0,.628,35.575Z" transform="translate(-951.479 -549.985)" fill="#371a45"/></g><g transform="translate(0 0)"><path d="M974.356,599.719a27.11,27.11,0,0,1-3.158-.185c-.526-.065-.99-.132-1.42-.208a27.257,27.257,0,0,1-2.816-.639,26.816,26.816,0,0,1-11.659-6.87h0a26.872,26.872,0,0,1-.657-37.266c.41-.441.846-.879,1.3-1.3a27.023,27.023,0,0,1,9.864-5.9c.8-.267,1.619-.5,2.444-.69.327-.078.635-.144.938-.2a26.882,26.882,0,0,1,15.448,51.212c-.474.2-.958.381-1.441.552a26.719,26.719,0,0,1-7.72,1.472Q974.918,599.719,974.356,599.719Zm-18.078-8.871a25.437,25.437,0,0,0,11.06,6.517,25.846,25.846,0,0,0,2.674.607c.41.071.851.136,1.351.2a25.619,25.619,0,0,0,4.056.153,25.334,25.334,0,0,0,7.322-1.4c.458-.161.92-.338,1.37-.524a25.507,25.507,0,0,0-14.663-48.592c-.286.053-.572.115-.882.188-.787.182-1.567.4-2.322.656a25.641,25.641,0,0,0-9.36,5.6c-.428.4-.842.816-1.23,1.234a25.5,25.5,0,0,0,.624,35.361Z" transform="translate(-947.459 -545.964)" fill="#371a45"/></g><g transform="translate(1.091 7.703)"><path d="M988.372,788.011c17.747,5.945,35.6-7.288,31.428-25.349-2.841-12.288-17.066-18.993-28.692-15.508-8.462,2.536-15.614,8.714-15.268,22.923,0,0,1.124,6.267,3.961,9.823a59.879,59.879,0,0,0,6.2,6.537Z" transform="translate(-975.827 -746.236)" fill="#371a45"/></g><g transform="translate(13.155 14.486)"><path d="M1321.389,932.223c4.177,18.06-13.681,31.293-31.427,25.349l-.481-.319c17.044-1.883,30.321-16.334,26.438-34.674A19.73,19.73,0,0,1,1321.389,932.223Z" transform="translate(-1289.481 -922.579)" fill="#220f2d"/></g><g transform="translate(0 4.367)"><path d="M974.358,708.891a27.1,27.1,0,0,1-3.158-.185c-.526-.065-.99-.132-1.42-.207a27.256,27.256,0,0,1-2.815-.639,26.816,26.816,0,0,1-11.659-6.87h0a26.882,26.882,0,0,1-2.432-35.148l.043-.057.054-.047a26.19,26.19,0,0,1,9.792-5.182,27.789,27.789,0,0,1,21.525,2.765,23.817,23.817,0,0,1,11.593,15.171,24.148,24.148,0,0,1-3.047,18.925,26.78,26.78,0,0,1-17.247,11.438l-.108.013Q974.921,708.891,974.358,708.891Zm-18.078-8.871a25.438,25.438,0,0,0,11.06,6.517,25.865,25.865,0,0,0,2.674.607c.41.071.851.136,1.351.2a25.656,25.656,0,0,0,4,.155,25.391,25.391,0,0,0,16.311-10.824,22.8,22.8,0,0,0,2.863-17.871A22.457,22.457,0,0,0,983.6,664.509a26.393,26.393,0,0,0-20.44-2.637,24.877,24.877,0,0,0-9.23,4.855,25.507,25.507,0,0,0,2.352,33.292Z" transform="translate(-947.461 -659.503)" fill="#371a45"/></g><g transform="translate(0.404 7.024)"><path d="M979.9,773.152a28.131,28.131,0,0,1-8.933-1.471l-.086-.029-2.527-1.682a59.954,59.954,0,0,1-6.278-6.622c-2.912-3.651-4.053-9.868-4.1-10.131l-.011-.1c-.3-12.435,5-20.374,15.758-23.6a24.8,24.8,0,0,1,19.21,2.467,21.6,21.6,0,0,1,3.9,34.828A25.076,25.076,0,0,1,979.9,773.152Zm-8.411-2.746c8.745,2.9,18.1,1.133,24.423-4.615a20.109,20.109,0,0,0,6.031-19.955,19.905,19.905,0,0,0-9.7-12.666,23.4,23.4,0,0,0-18.124-2.339c-10.076,3.02-15.048,10.487-14.78,22.193.113.59,1.249,6.253,3.813,9.466a59.7,59.7,0,0,0,6.08,6.42Z" transform="translate(-957.951 -728.575)" fill="#371a45"/></g><g transform="translate(42.522 13.184)"><path d="M2066.478,903.137a6.083,6.083,0,0,1-3.236,3.562c-3.477,1.447-7.723-1.317-9.484-6.172-.145-.4-.27-.8-.371-1.2-1.147-4.472.289-8.884,3.479-10.212,3.478-1.447,7.725,1.315,9.486,6.172A11.4,11.4,0,0,1,2066.478,903.137Z" transform="translate(-2052.995 -888.727)" fill="#fff"/></g><g transform="translate(42.913 22.939)" opacity="0.35"><path d="M2076.265,1147.017a6.083,6.083,0,0,1-3.236,3.562c-3.477,1.447-7.723-1.316-9.484-6.172-.145-.4-.27-.8-.371-1.2.827.719,2.546,1.691,4.132-.724l4-.117A16.44,16.44,0,0,1,2076.265,1147.017Z" transform="translate(-2063.174 -1142.362)" fill="#371a45"/></g><g transform="translate(41.841 12.493)"><path d="M2044.294,890.518a6.587,6.587,0,0,1-2.657-.586,10.91,10.91,0,0,1-5.538-6.426c-1.882-5.189-.316-10.7,3.49-12.284a6.051,6.051,0,0,1,4.857.146,10.91,10.91,0,0,1,5.538,6.426h0c1.881,5.189.316,10.7-3.49,12.284A5.692,5.692,0,0,1,2044.294,890.518Zm-2.5-18.359a4.326,4.326,0,0,0-1.672.332c-3.138,1.306-4.361,6.037-2.726,10.546a9.675,9.675,0,0,0,4.8,5.636,4.713,4.713,0,0,0,3.776.135c3.138-1.306,4.361-6.037,2.726-10.546h0a9.677,9.677,0,0,0-4.8-5.636A5.224,5.224,0,0,0,2041.79,872.159Z" transform="translate(-2035.303 -870.782)" fill="#371a45"/></g><g transform="translate(44.633 13.736)"><ellipse cx="5.545" cy="7.433" rx="5.545" ry="7.433" transform="matrix(0.966, -0.258, 0.258, 0.966, 0, 2.863)" fill="#fff"/><path d="M2153.863,949.516a4.615,4.615,0,0,1-.626-.043c-3.168-.432-5.852-4.077-5.981-8.125a6.99,6.99,0,0,1,2.01-5.482,4.26,4.26,0,0,1,3.523-1.1c3.168.432,5.851,4.077,5.981,8.125a6.988,6.988,0,0,1-2.01,5.482A4.253,4.253,0,0,1,2153.863,949.516Zm-1.7-14.646a4.114,4.114,0,0,0-2.8,1.1,6.847,6.847,0,0,0-1.963,5.371c.128,3.981,2.755,7.564,5.857,7.987a4.122,4.122,0,0,0,3.407-1.061,6.847,6.847,0,0,0,1.963-5.371c-.128-3.981-2.755-7.564-5.857-7.987A4.486,4.486,0,0,0,2152.163,934.87Z" transform="translate(-2145.736 -933.509)" fill="#371a45"/></g><g transform="translate(46.641 17.659)" opacity="0.35"><path d="M2161.508,1014.526a8.881,8.881,0,0,1-1.417-3.96c2.021,2.509,5.052,2.733,6.989.415a7.9,7.9,0,0,0,1.514-5.889c.128.157.252.327.372.5,2.006,2.972,1.963,7.381-.1,9.847S2163.514,1017.5,2161.508,1014.526Z" transform="translate(-2160.091 -1005.092)" fill="#371a45"/></g><g transform="translate(45.777 14.008)"><path d="M2144.922,926.454a4.942,4.942,0,0,1-1.983-.437,9.277,9.277,0,0,1-4.594-5.462c-1.565-4.368-.446-8.788,2.546-10.061a4.5,4.5,0,0,1,3.634.1,9.279,9.279,0,0,1,4.594,5.462c1.564,4.368.446,8.787-2.546,10.061A4.189,4.189,0,0,1,2144.922,926.454Zm-2.38-14.919a2.819,2.819,0,0,0-1.112.224c-2.285.972-3.087,4.71-1.79,8.332a7.9,7.9,0,0,0,3.851,4.666,3.156,3.156,0,0,0,2.544.1c2.285-.972,3.088-4.71,1.791-8.332a7.9,7.9,0,0,0-3.851-4.666A3.578,3.578,0,0,0,2142.542,911.535Z" transform="translate(-2137.639 -910.158)" fill="#371a45"/></g><g transform="translate(4.55 11.395)" opacity="0.5"><path d="M1085.322,842.645s-10.668,3.953-14.773,12.007l-.013.025a10.717,10.717,0,0,0-1.138,5.494,21.858,21.858,0,0,0,1.093,5.709,20.717,20.717,0,0,0,2.96,6.378,12.136,12.136,0,0,1-6.885-7.585c-.121-.371-.232-.758-.333-1.158-.024-.092-.045-.184-.065-.277,0,0,0,0,0-.006a26.582,26.582,0,0,1-.373-3.166c-.215-3.761.317-8.925,4.01-12.417C1076.709,841.121,1085.544,842.054,1085.322,842.645Z" transform="translate(-1065.753 -842.228)" fill="#fff"/></g><g transform="translate(30.645 14.899)" opacity="0.5"><ellipse cx="3.5" cy="4.079" rx="3.5" ry="4.079" transform="matrix(0.842, -0.539, 0.539, 0.842, 0, 3.773)" fill="#fff"/></g><g transform="translate(37.615 24.248)" opacity="0.5"><ellipse cx="1.445" cy="1.684" rx="1.445" ry="1.684" transform="matrix(0.794, -0.608, 0.608, 0.794, 0, 1.758)" fill="#fff"/></g></g><g transform="translate(889.615 609.896)"><circle cx="3.466" cy="3.466" r="3.466" transform="translate(0 0)" fill="#fff"/></g><g transform="translate(889.615 611.275)" opacity="0.35"><path d="M1404.685,2246.791a3.467,3.467,0,1,0,6.789-1.407,3.428,3.428,0,0,0-.627-1.383,3.467,3.467,0,0,1-6.136,1.272A3.428,3.428,0,0,0,1404.685,2246.791Z" transform="translate(-1404.612 -2244)" fill="#371a45"/></g><g transform="translate(888.96 609.242)"><path d="M1391.7,2199.383a4.128,4.128,0,0,1-4.034-3.285h0a4.118,4.118,0,1,1,4.034,3.285Zm-2.753-3.55a2.812,2.812,0,1,0,.4-2.115,2.816,2.816,0,0,0-.4,2.115Z" transform="translate(-1387.574 -2191.141)" fill="#371a45"/></g><g transform="translate(891.953 603.138)"><g transform="translate(0.655 0.655)"><path d="M1487.23,2067.722l17.51-1.363a3.793,3.793,0,0,0,3.477-4.064l-.726-9.318a3.8,3.8,0,0,0-3.3-3.459,3.655,3.655,0,0,0-.759-.018l-17.508,1.362a3.79,3.79,0,0,0-3.477,4.064l.573,7.38.15,1.938A3.793,3.793,0,0,0,1487.23,2067.722Z" transform="translate(-1482.432 -2049.489)" fill="#fff"/></g><g transform="translate(23.615 1.69)"><path d="M2095.864,2076.388a3.215,3.215,0,0,1,3.025,2.635,6.1,6.1,0,0,1-.516,3.657s-6.4,3.6-17.38,3.659c0,0-3.481-3.063-.274-6.181C2080.72,2080.157,2090.725,2079.316,2095.864,2076.388Z" transform="translate(-2079.362 -2076.388)" fill="#fff"/></g><g transform="translate(0.655 0.655)"><path d="M1487.23,2067.722l17.51-1.363a3.793,3.793,0,0,0,3.477-4.064l-.726-9.318a3.8,3.8,0,0,0-3.3-3.459,3.655,3.655,0,0,0-.759-.018l-17.508,1.362a3.79,3.79,0,0,0-3.477,4.064l.573,7.38.15,1.938A3.793,3.793,0,0,0,1487.23,2067.722Z" transform="translate(-1482.432 -2049.489)" fill="#fff"/></g><g transform="translate(23.615 1.69)"><path d="M2095.864,2076.388a3.215,3.215,0,0,1,3.025,2.635,6.1,6.1,0,0,1-.516,3.657s-6.4,3.6-17.38,3.659c0,0-3.481-3.063-.274-6.181C2080.72,2080.157,2090.725,2079.316,2095.864,2076.388Z" transform="translate(-2079.362 -2076.388)" fill="#fff"/></g><g transform="translate(2.012 2.997)" opacity="0.35"><path d="M1543.5,2123.191a3.8,3.8,0,0,1-3.478,4.064l-17.51,1.363a3.794,3.794,0,0,1-4.065-3.478l-.149-1.937-.573-7.381a3.788,3.788,0,0,1,3.476-4.063l17.508-1.362a3.654,3.654,0,0,1,.759.017,3.8,3.8,0,0,1,3.3,3.459l.1,1.232c2.4-.261,9.387-1.179,13.706-3.364.725,1.857.925,2.4,1.884,4.714-2.1,1.8-5.606,4.361-15.1,4.9Z" transform="translate(-1517.715 -2110.384)" fill="#371a45"/></g><g transform="translate(0.655 0.655)"><path d="M1487.23,2067.722l17.51-1.363a3.793,3.793,0,0,0,3.477-4.064l-.726-9.318a3.8,3.8,0,0,0-3.3-3.459,3.655,3.655,0,0,0-.759-.018l-17.508,1.362a3.79,3.79,0,0,0-3.477,4.064l.573,7.38.15,1.938A3.793,3.793,0,0,0,1487.23,2067.722Z" transform="translate(-1482.432 -2049.489)" fill="#fff"/></g><g transform="translate(1.24 0.685)" opacity="0.35"><path d="M1501.846,2068.458l17.51-1.363a3.793,3.793,0,0,0,3.477-4.064l-.726-9.318a3.8,3.8,0,0,0-3.3-3.459c-.943.738-1.542,1.209-1.542,1.209-.271,7.546.49,13.065-11.176,13.2a20.493,20.493,0,0,1-8.454-1.62l.15,1.938A3.793,3.793,0,0,0,1501.846,2068.458Z" transform="translate(-1497.632 -2050.254)" fill="#371a45"/></g><g transform="translate(0 0.001)"><path d="M1470.552,2052.026a4.442,4.442,0,0,1-4.419-4.092l-.725-9.319a4.441,4.441,0,0,1,4.078-4.767l17.509-1.362a4.447,4.447,0,0,1,4.767,4.079l.725,9.319a4.441,4.441,0,0,1-4.079,4.767l-17.509,1.362C1470.782,2052.022,1470.666,2052.026,1470.552,2052.026Zm16.79-18.245q-.122,0-.245.009l-17.509,1.362a3.131,3.131,0,0,0-2.876,3.361l.725,9.32a3.139,3.139,0,0,0,3.361,2.876l17.509-1.362a3.132,3.132,0,0,0,2.876-3.361l-.725-9.319A3.132,3.132,0,0,0,1487.341,2033.781Z" transform="translate(-1465.394 -2032.473)" fill="#371a45"/></g><g transform="translate(4.746 0.655)"><path d="M1588.783,2067.714a3.384,3.384,0,0,0,.708.014l17.51-1.363a3.789,3.789,0,0,0,3.258-2.483,3.718,3.718,0,0,0,.216-1.581l-.32-4.14-.106-1.366-.3-3.813a3.793,3.793,0,0,0-4.064-3.477l-3.784.3a3.792,3.792,0,0,1,3.361,3.462l.393,5.033.333,4.287a3.8,3.8,0,0,1-3.477,4.064Z" transform="translate(-1588.783 -2049.495)" fill="#fff"/></g><g transform="translate(4.746 7.956)" opacity="0.35"><path d="M1588.783,2250.232a3.319,3.319,0,0,0,.708.014l17.51-1.362a3.789,3.789,0,0,0,3.474-4.063l-.426-5.506a3.473,3.473,0,0,1-2.319,2.487,2.536,2.536,0,0,1-2.071-.986l.333,4.287a3.8,3.8,0,0,1-3.477,4.064Z" transform="translate(-1588.783 -2239.315)" fill="#371a45"/></g><g transform="translate(4.667)"><path d="M1587.227,2052.011a4.15,4.15,0,0,1-.5-.03l.028-1.3,13.734-1.067a3.137,3.137,0,0,0,2.874-3.36l-.725-9.32a3.131,3.131,0,0,0-2.779-2.865l.02-1.3,3.782-.3a4.447,4.447,0,0,1,4.767,4.08l.725,9.318a4.445,4.445,0,0,1-4.077,4.767l-17.51,1.362C1587.455,2052.007,1587.341,2052.011,1587.227,2052.011Zm15.254-18.136a4.428,4.428,0,0,1,1.462,2.957l.725,9.319a4.4,4.4,0,0,1-1.055,3.226l-.057.065,1.42-.11a3.137,3.137,0,0,0,2.874-3.36h0l-.725-9.319a3.139,3.139,0,0,0-3.361-2.876Z" transform="translate(-1586.729 -2032.457)" fill="#371a45"/></g><g transform="translate(14.688 6.361)"><path d="M1847.284,2201.176c.029.344.745,3.084.745,3.084l1.962-.164c1.351-.113,2.33-1.6,2.185-3.329s-1.357-3.033-2.708-2.92l-1.962.164S1847.237,2200.615,1847.284,2201.176Z" transform="translate(-1847.279 -2197.839)" fill="#22a7f0"/></g><g transform="translate(14.688 6.361)" opacity="0.35"><path d="M1847.284,2201.176c.029.344.745,3.084.745,3.084l1.962-.164c1.351-.113,2.33-1.6,2.185-3.329s-1.357-3.033-2.708-2.92l-1.962.164S1847.237,2200.615,1847.284,2201.176Z" transform="translate(-1847.279 -2197.839)" fill="#371a45"/></g><g transform="translate(14.198 5.87)"><path d="M1835.411,2192.517l-.1-.4c-.171-.652-.73-2.809-.76-3.168h0c-.049-.59.2-2.986.224-3.257l.042-.4,2.368-.2a2.687,2.687,0,0,1,2.207.926,4.092,4.092,0,0,1,1.03,2.442c.167,1.993-1.015,3.724-2.633,3.859Zm.114-3.649c.019.191.318,1.407.627,2.6l1.551-.13c1.079-.09,1.859-1.346,1.737-2.8a3.109,3.109,0,0,0-.772-1.857,1.732,1.732,0,0,0-1.406-.615l-1.556.13C1835.609,2187.193,1835.5,2188.538,1835.525,2188.867Z" transform="translate(-1834.54 -2185.082)" fill="#371a45"/></g><g transform="translate(12.47 6.327)"><ellipse cx="2.455" cy="3.136" rx="2.455" ry="3.136" transform="translate(0 0.409) rotate(-4.777)" fill="#22a7f0"/></g><g transform="translate(12.718 8.37)" opacity="0.35"><path d="M1800.948,2251.151c.145,1.725-.834,3.216-2.185,3.329s-2.565-1.195-2.708-2.922a3.815,3.815,0,0,1,0-.686,2.562,2.562,0,0,0,2.461,1.837,2.677,2.677,0,0,0,2.182-2.642A3.943,3.943,0,0,1,1800.948,2251.151Z" transform="translate(-1796.041 -2250.068)" fill="#371a45"/></g><g transform="translate(12.717 6.524)"><path d="M1800.947,2205.015a3.328,3.328,0,0,1,.013.349,2.652,2.652,0,0,0-2.567-2.153,2.767,2.767,0,0,0-2.2,2.982,3.979,3.979,0,0,1-.142-.771c-.145-1.725.834-3.216,2.185-3.329S1800.8,2203.288,1800.947,2205.015Z" transform="translate(-1796.04 -2202.087)" fill="#fff"/></g><g transform="translate(12.227 6.035)"><path d="M1786.331,2196.6a3.4,3.4,0,0,1-3.036-3.377h0a4.089,4.089,0,0,1,.611-2.58,2.687,2.687,0,0,1,2.023-1.28c1.62-.135,3.071,1.376,3.237,3.369a4.092,4.092,0,0,1-.611,2.58,2.688,2.688,0,0,1-2.023,1.279C1786.465,2196.592,1786.4,2196.6,1786.331,2196.6Zm-2.058-3.459c.121,1.453,1.1,2.559,2.178,2.472a1.73,1.73,0,0,0,1.284-.84,3.106,3.106,0,0,0,.453-1.959c-.121-1.453-1.1-2.562-2.178-2.472a1.729,1.729,0,0,0-1.284.84,3.107,3.107,0,0,0-.453,1.959Z" transform="translate(-1783.279 -2189.351)" fill="#371a45"/></g><g transform="translate(5.915 1.368)"><path d="M1624.153,2085.545a.49.49,0,0,1-.487-.441l-.576-5.671a.967.967,0,0,0-.513-.759l-1.741-.915a1.939,1.939,0,0,1-1.037-1.568l-.621-7.636a.491.491,0,0,1,.978-.08l.621,7.636a.965.965,0,0,0,.515.779l1.741.914a1.945,1.945,0,0,1,1.033,1.529l.576,5.671a.491.491,0,0,1-.439.538Z" transform="translate(-1619.176 -2068.026)" fill="#371a45"/></g></g><g transform="translate(915.568 604.828)"><path d="M2095.864,2076.388a3.215,3.215,0,0,1,3.025,2.635,6.1,6.1,0,0,1-.516,3.657s-6.4,3.6-17.38,3.659c0,0-3.481-3.063-.274-6.181C2080.72,2080.157,2090.725,2079.316,2095.864,2076.388Z" transform="translate(-2079.362 -2076.388)" fill="#fff"/></g><g transform="translate(915.566 607.323)" opacity="0.35"><path d="M2098.344,2145.05s-6.4,3.6-17.38,3.658c0,0-2.271-2-1.456-4.408l.013.038a3.144,3.144,0,0,0,3.086,2.071c9.951-.384,15.7-3.622,15.7-3.622a7.164,7.164,0,0,0,.508-1.535c.014.046.028.093.04.14A6.112,6.112,0,0,1,2098.344,2145.05Z" transform="translate(-2079.332 -2141.252)" fill="#371a45"/></g><g transform="translate(914.911 604.265)"><path d="M2065.469,2072.912a2.669,2.669,0,0,1-2.176-1.118,4.341,4.341,0,0,1-.189-5.318,2.676,2.676,0,0,1,1.9-1.114c2.092-.226,9.251-1.132,13.547-3.306h0a2.662,2.662,0,0,1,2.221-.1,3.967,3.967,0,0,1,2.327,2.838,5.924,5.924,0,0,1-.2,3.183,2.674,2.674,0,0,1-1.425,1.608,40.911,40.911,0,0,1-15.941,3.33Zm14.318-9.845a1.428,1.428,0,0,0-.645.157h0c-4.372,2.211-11.245,3.142-14,3.439a1.367,1.367,0,0,0-.971.567,3.043,3.043,0,0,0,.184,3.8,1.367,1.367,0,0,0,1.145.569,39.564,39.564,0,0,0,15.421-3.209,1.363,1.363,0,0,0,.729-.817,4.638,4.638,0,0,0,.182-2.457,2.7,2.7,0,0,0-1.562-1.96A1.27,1.27,0,0,0,2079.788,2063.067Zm-.94-.427h0Z" transform="translate(-2062.284 -2061.758)" fill="#371a45"/></g><g transform="translate(869.673 574.81)"><path d="M901.067,1318.256c-.743-1.934,7.846-5.1,11.568-6.227,8.451-2.549,10.328-9.005,7.608-12.777-5.105-7.08-23.474-1.417-28.891,3.9a15.9,15.9,0,0,0-5.07,13.883" transform="translate(-886.117 -1295.934)" fill="#fff"/></g><g transform="translate(882.542 580.511)" opacity="0.35"><path d="M1234.362,1454.546c-3.475,1.046-11.19,3.879-11.6,5.825-6.891-3.316,5.492-7.024,9.072-7.994,7.056-1.915,10.755-5.275,11.17-8.225C1243.744,1447.842,1241.215,1452.479,1234.362,1454.546Z" transform="translate(-1220.713 -1444.152)" fill="#371a45"/></g><g transform="translate(884.577 596.729)" opacity="0.35"><path d="M1274.543,1866.214l-.906-.242a.651.651,0,0,1,.016-.147A7.733,7.733,0,0,0,1274.543,1866.214Z" transform="translate(-1273.637 -1865.824)" fill="#371a45"/></g><g transform="translate(869.015 574.155)"><path d="M884.622,1302.552a.654.654,0,0,1-.611-.42,1.424,1.424,0,0,1,.081-1.167c1.323-2.7,11.478-5.79,11.909-5.92,4.082-1.231,6.983-3.588,7.958-6.467a5.778,5.778,0,0,0-.691-5.3c-1.237-1.716-3.418-2.718-6.483-2.98-7.3-.624-17.686,3.3-21.42,6.96-3.946,3.87-5.588,8.353-4.881,13.323a.654.654,0,0,1-1.3.184c-.769-5.405,1-10.264,5.26-14.442,4.01-3.933,14.689-7.992,22.447-7.33,3.462.3,5.963,1.479,7.433,3.518A7.07,7.07,0,0,1,905.2,1289c-1.112,3.284-4.327,5.945-8.819,7.3-4.821,1.454-10.44,3.872-11.112,5.243a.224.224,0,0,0-.034.123.654.654,0,0,1-.61.889Z" transform="translate(-869.015 -1278.922)" fill="#371a45"/></g><g transform="translate(933.821 574.05)"><path d="M2564.087,1292.356a.576.576,0,0,1-.3-.084c-7.094-4.314-9.73-14.925-9.839-15.374a.577.577,0,0,1,1.122-.272c.025.106,2.636,10.6,9.317,14.66a.577.577,0,0,1-.3,1.07Z" transform="translate(-2553.932 -1276.185)" fill="#371a45"/></g><g transform="translate(875.362 580.029)"><path d="M1045.144,1447.084h0a10.92,10.92,0,0,1-9.2-5.238,10.583,10.583,0,0,1-1.138-9.88.577.577,0,1,1,1.051.476,9.426,9.426,0,0,0,1.058,8.783,9.786,9.786,0,0,0,8.235,4.706.577.577,0,0,1,0,1.154Z" transform="translate(-1034.047 -1431.627)" fill="#371a45"/></g><g transform="translate(881.183 627.279)"><path d="M1204.771,2669.254a.577.577,0,0,1-.559-.438c-1.216-4.9-13.625-7.12-18.3-7.56a.577.577,0,1,1,.108-1.149c.72.068,17.655,1.732,19.316,8.431a.577.577,0,0,1-.421.7A.57.57,0,0,1,1204.771,2669.254Z" transform="translate(-1185.385 -2660.104)" fill="#371a45"/></g><g transform="translate(924.577 629.905)"><path d="M2315.158,2736.279c-.374,0-.721-.015-1.035-.046a.577.577,0,1,1,.114-1.148c4.476.447,15.6-2.505,16.524-6.275a.577.577,0,0,1,1.121.276c-.7,2.852-5.157,4.705-7.75,5.556A31.811,31.811,0,0,1,2315.158,2736.279Z" transform="translate(-2313.603 -2728.37)" fill="#371a45"/></g><g transform="translate(879.91 641.627)"><path d="M1152.776,3033.383c.131-.036.221-.056.327-.079s.2-.037.3-.055c.2-.031.4-.058.6-.073a11.557,11.557,0,0,1,1.192-.045,15.641,15.641,0,0,1,2.345.226,14.8,14.8,0,0,1,2.264.563c.186.055.366.128.547.2s.361.143.538.221a11.4,11.4,0,0,1,1.037.536c-.394-.01-.777-.045-1.156-.083s-.757-.071-1.133-.1l-1.119-.1c-.186-.014-.37-.04-.556-.051l-.555-.034c-.739-.038-1.475-.056-2.2-.033-.364.009-.726.03-1.084.058-.179.013-.356.034-.531.052l-.259.033c-.081.01-.178.026-.231.034l-.051.009a.653.653,0,0,1-.278-1.275Z" transform="translate(-1152.295 -3033.131)" fill="#371a45"/></g><g transform="translate(936.58 640.278)"><path d="M2625.669,3002.757a5.645,5.645,0,0,1,1.48-2.273,8.2,8.2,0,0,1,2.3-1.551,10.109,10.109,0,0,1,1.316-.469,6.723,6.723,0,0,1,.677-.172l.687-.118a5.235,5.235,0,0,1,.691-.071c.23-.016.462-.029.693-.039.461,0,.919.034,1.377.065a.652.652,0,0,1-.03,1.3h-.069c-.42.007-.839-.008-1.255-.01-.207.013-.415.025-.622.033a4.749,4.749,0,0,0-.619.049l-.616.073a2.267,2.267,0,0,0-.3.054l-.3.062a11.671,11.671,0,0,0-1.2.313,10.757,10.757,0,0,0-2.232,1.091A9.8,9.8,0,0,0,2625.669,3002.757Z" transform="translate(-2625.669 -2998.064)" fill="#371a45"/></g></g></svg>