<svg xmlns="http://www.w3.org/2000/svg" width="445.589" height="557.408" viewBox="0 0 445.589 557.408"><g transform="translate(-613.43 -775.664)"><g transform="translate(613.43 775.664)"><g transform="translate(14.184 511.941)" opacity="0.35"><ellipse cx="168.786" cy="22.734" rx="168.786" ry="22.734" fill="#371a45"/></g><g transform="translate(91.391 197.876)"><path d="M1765.245,1791.491V1919.6a45.344,45.344,0,0,1-4.718,20.274c-6.319,12.654-18.347,21.239-32.062,21.239H1622.8c-13.213,0-24.86-7.969-31.344-19.861a45.167,45.167,0,0,1-5.436-21.652V1791.491a46.045,46.045,0,0,1,.732-8.212,43.507,43.507,0,0,1,8.653-19.407c6.743-8.512,16.537-13.895,27.395-13.895h105.666c15.776,0,29.319,11.357,34.511,27.189A46,46,0,0,1,1765.245,1791.491Z" transform="translate(-1586.02 -1749.978)" fill="#fff"/></g><g transform="translate(88.649 194.775)"><path d="M1610.3,1952.042h105.67c21.791,0,39.52-20.014,39.52-44.613V1779.323c0-24.6-17.729-44.613-39.52-44.613H1610.3c-21.791,0-39.52,20.013-39.52,44.613v128.106C1570.776,1932.028,1588.5,1952.042,1610.3,1952.042Zm105.67-211.135c18.764,0,34.03,17.233,34.03,38.416v128.106c0,21.182-15.266,38.416-34.03,38.416H1610.3c-18.764,0-34.03-17.233-34.03-38.416V1779.323c0-21.182,15.266-38.416,34.03-38.416Z" transform="translate(-1570.776 -1734.71)" fill="#371a45"/></g><g transform="translate(183.587 209.999)"><path d="M1526.266,1809.671s45.763,58.748,45.763,107.814c0,41.993-45.763,56.439-45.763,56.439l-63.427-121.267Z" transform="translate(-1462.839 -1809.671)" fill="#fff"/></g><g transform="translate(183.586 209.995)"><path d="M1572.034,1917.465c0,42-45.763,56.442-45.763,56.442l-1.565-2.986-61.862-118.28,47.817-32.412,15.611-10.579S1572.034,1868.405,1572.034,1917.465Z" transform="translate(-1462.843 -1809.651)" fill="#fff"/></g><g transform="translate(183.585 220.574)" opacity="0.35"><path d="M1659.466,1964.721c0,24.25-15.259,39.313-28.149,47.711l-61.863-118.28,47.817-32.412C1628.043,1876.76,1659.466,1924.06,1659.466,1964.721Z" transform="translate(-1569.455 -1861.741)" fill="#371a45"/></g><g transform="translate(179.838 206.012)"><path d="M1513.463,1961.9l2.031-.641a84.214,84.214,0,0,0,23.695-12.9c15.749-12.2,24.074-28.284,24.074-46.522,0-49.665-44.551-107.426-46.447-109.86l-1.512-1.941-67.726,45.9Zm.705-163.867c7.78,10.544,43.6,61.409,43.6,103.8,0,34.314-33.213,49.414-41.769,52.732l-60.927-116.486Z" transform="translate(-1447.578 -1790.039)" fill="#371a45"/></g><g transform="translate(33.313 205.998)"><path d="M2494.1,1865.178s-19.389,27.413-50.449,21.362c-32.208-6.274-26.505-66.786-26.505-66.786l48.936-21.271s-3.041,18.9,4.047,18.9c7.936,0,22.1-21.087,34.478-27.413Z" transform="translate(-2416.757 -1789.969)" fill="#fff"/></g><g transform="translate(33.311 229.516)" opacity="0.35"><path d="M2519.577,1905.766l-7.224,51.695s-19.388,27.408-50.452,21.36c-32.206-6.274-26.5-66.789-26.5-66.789l22.51,13.634c-15.191,3.061-13.282,34.251,9.761,38.742,31.057,6.056,49.662-49.23,49.662-49.23Z" transform="translate(-2435.007 -1905.766)" fill="#371a45"/></g><g transform="translate(30.536 202.898)"><path d="M2440.194,1878.363c26.667,0,42.819-22.356,43.567-23.414a3.376,3.376,0,0,0-.432-4.355,2.538,2.538,0,0,0-3.855.485h0c-.185.26-18.807,25.9-47.84,20.246-26.271-5.118-24.961-51.592-24.373-61.542l43.045-18.71c-.313,4.713-.169,11.168,2.4,14.644a5.989,5.989,0,0,0,4.934,2.6h0c5.278,0,11.469-6.191,18.638-13.357,5.693-5.691,11.581-11.576,16.971-14.332a3.273,3.273,0,0,0,1.369-4.1,2.628,2.628,0,0,0-3.634-1.544c-6.145,3.141-12.348,9.342-18.347,15.337-5.532,5.53-11.8,11.8-15,11.8h0a.769.769,0,0,1-.719-.376c-1.683-2.274-1.367-10.218-.624-14.872l.866-5.421-55.055,23.929-.177,1.884c-.244,2.589-5.58,63.477,28.768,70.168A49.6,49.6,0,0,0,2440.194,1878.363Z" transform="translate(-2401.494 -1774.706)" fill="#371a45"/></g><g transform="translate(145.514 439.743)" opacity="0.35"><path d="M2276.38,2940.9c.3.153.6.3.9.442v.009C2276.983,2941.2,2276.682,2941.05,2276.38,2940.9Z" transform="translate(-2276.38 -2940.897)" fill="#371a45"/></g><g transform="translate(183.587 344.839)" opacity="0.35"><path d="M2057.368,2473.6q1.153,1.994,2.233,3.915C2058.876,2476.237,2058.129,2474.924,2057.368,2473.6Z" transform="translate(-2057.368 -2473.603)" fill="#371a45"/></g><g transform="translate(84.606 208.025)"><path d="M1737.971,2103.771c-.043.527-.108,1.054-.194,1.557-2.327,15.556-18.469,21.117-47.523,16.821-13.155-1.929-31.344-4.223-36.141-16.051-9.579-23.606.194-71.369-.941-101.979v-.049a96.558,96.558,0,0,1-23.689,0c-.007.251-.014.494-.021.746-.969,30.626,8.581,77.854-.919,101.281-4.8,11.827-22.978,14.121-36.141,16.051-29.089,4.3-45.232-1.273-47.537-16.869-.072-.5-.136-1-.187-1.508-1.673-19.009,21.815-27.837,21.815-27.837s-5.12-40.337-8.5-76.735a390.7,390.7,0,0,1-1.3-46.888q.162-6.116.481-12.217.452-8.669,1.156-17.2.614-7.393,1.386-14.608c1.91-18.069,4.481-35.166,7.13-50.2,2.37-13.489,4.8-25.333,6.894-34.736.467-2.075.9-4.029,1.328-5.861,2.549-11.081,4.316-17.534,4.316-17.534h123.89s1.781,6.5,4.337,17.64c1.508,6.526,3.282,14.656,5.127,24.011q1.077,5.484,2.183,11.511c2.966,16.237,5.9,35.166,8.028,55.31q.743,7.052,1.35,14.283c.488,5.885.891,11.844,1.192,17.834q.334,6.371.5,12.783.108,4.244.144,8.5a373.724,373.724,0,0,1-1.472,37.379c-3.375,36.4-8.495,76.735-8.495,76.735S1739.644,2084.762,1737.971,2103.771Z" transform="translate(-1544.593 -1799.951)" fill="#fff"/></g><g transform="translate(84.881 397.015)" opacity="0.35"><path d="M2213.4,2847.668c-4.8,11.825-22.98,14.121-36.139,16.06-29.092,4.28-45.234-1.281-47.537-16.883,23.814,10.682,65.8,4.582,72.974-8.972,9.3-17.551,10.8-35.093-3.655-56.96s-15.57-50.4-15.57-50.4c6.908,5.743,21.118,11.981,30.846,15.877C2213.341,2777.017,2222.9,2824.237,2213.4,2847.668Z" transform="translate(-2129.72 -2730.511)" fill="#371a45"/></g><g transform="translate(189.88 397.015)" opacity="0.35"><path d="M1634.043,2846.9c-2.326,15.557-18.467,21.108-47.521,16.828-13.159-1.939-31.349-4.234-36.147-16.06-9.574-23.605.2-71.374-.935-101.975,8.052-2.844,22.957-8.661,30.807-15.182,0,0,3.956,20.523-12.881,48.573-13.584,22.636-14.573,40.644-5.278,58.185C1568.68,2849.717,1607.864,2854.829,1634.043,2846.9Z" transform="translate(-1546.13 -2730.511)" fill="#371a45"/></g><g transform="translate(81.885 228.787)"><path d="M1560.4,1904.559c-3,10.119-5.451,20.423-7.631,30.8-1.078,5.191-2.1,10.4-3,15.637-.447,2.618-.916,5.233-1.335,7.859l-1.178,7.892c-.407,2.628-.764,5.267-1.107,7.907l-1.039,7.922q-.468,3.969-.882,7.948c-.3,2.648-.536,5.307-.766,7.966-1.044,10.62-1.573,21.305-1.974,31.991-.213,10.7-.377,21.407.16,32.117l.165,4.015.082,2.008.148,2.005.592,8.022c.406,5.342.977,10.6,1.488,15.9q3.222,31.717,7.194,63.3l1.85-3.379c-1.276.5-2.348,1.009-3.485,1.579q-1.675.846-3.3,1.816a47,47,0,0,0-6.248,4.458,35.418,35.418,0,0,0-5.536,5.84,27.006,27.006,0,0,0-4.012,7.651,24.362,24.362,0,0,0-1.133,9,25.346,25.346,0,0,0,2.026,8.739,20.607,20.607,0,0,0,5.141,7.066,24.126,24.126,0,0,0,6.815,4.246,44.934,44.934,0,0,0,14.454,3.1,95.085,95.085,0,0,0,14.3-.292c2.358-.229,4.713-.482,7.051-.825l6.948-1.025a104.2,104.2,0,0,0,14.02-3,46.838,46.838,0,0,0,6.972-2.687,27.723,27.723,0,0,0,6.629-4.447,21.119,21.119,0,0,0,2.852-3.294,18.547,18.547,0,0,0,2.1-4.033,50.712,50.712,0,0,0,2.334-7.99,97.009,97.009,0,0,0,1.838-16.163c.223-5.367.154-10.7-.036-15.994-.384-10.6-1.259-21.08-2.012-31.509-.736-10.417-1.456-20.834-1.121-31.037l-3.077,2.945c2.089.269,4.065.436,6.1.564s4.048.188,6.081.192,4.058-.067,6.08-.192,4.011-.295,6.1-.564l-3.078-2.945c.336,10.2-.385,20.62-1.121,31.037-.753,10.43-1.628,20.912-2.012,31.509-.19,5.3-.259,10.627-.036,15.994a96.97,96.97,0,0,0,1.838,16.163,50.737,50.737,0,0,0,2.334,7.99,18.536,18.536,0,0,0,2.1,4.033,21.17,21.17,0,0,0,2.852,3.294,27.727,27.727,0,0,0,6.63,4.447,46.82,46.82,0,0,0,6.972,2.687,104.208,104.208,0,0,0,14.02,3l6.948,1.025c2.338.343,4.692.6,7.05.825a95.086,95.086,0,0,0,14.3.292,44.94,44.94,0,0,0,14.455-3.1,24.129,24.129,0,0,0,6.814-4.246,20.6,20.6,0,0,0,5.141-7.066,25.346,25.346,0,0,0,2.027-8.739,24.352,24.352,0,0,0-1.133-9,27.012,27.012,0,0,0-4.012-7.651,35.415,35.415,0,0,0-5.536-5.84,46.978,46.978,0,0,0-6.248-4.458q-1.625-.967-3.3-1.816c-1.136-.57-2.208-1.077-3.485-1.579l1.851,3.379q3.972-31.862,7.242-63.794c.516-5.341,1.087-10.631,1.5-16.026.192-2.7.46-5.386.589-8.085l.405-8.093c.374-10.8.321-21.591-.058-32.361-.363-10.773-1.121-21.514-2.11-32.219-.219-2.68-.5-5.352-.771-8.025s-.55-5.346-.859-8.013c-.586-5.34-1.228-10.671-1.965-15.985-1.452-10.653-3.219-21.161-5.431-31.718q-.869-3.927-1.853-7.8c-.639-2.592-1.33-5.168-2.051-7.737a150.906,150.906,0,0,0-5.012-15.194.88.88,0,0,0-1.218-.515,1.079,1.079,0,0,0-.521,1.154l0,.014c1.9,10.441,3.649,20.939,5.489,31.382,1.649,10.4,3.293,20.961,4.818,31.452a567.137,567.137,0,0,1,6,63.458c.374,10.62.425,21.248.058,31.848-.387,10.593-1.389,21.111-2.461,31.764q-3.224,31.844-7.222,63.615l-.315,2.528,2.165.852c.918.361,1.994.859,2.978,1.357,1,.507,1.992,1.054,2.964,1.632a41.545,41.545,0,0,1,5.522,3.936,24.354,24.354,0,0,1,7.7,10.678,17.394,17.394,0,0,1,.808,6.451,18.55,18.55,0,0,1-1.46,6.384,16.25,16.25,0,0,1-8.985,8.284,40.181,40.181,0,0,1-12.831,2.712,90.3,90.3,0,0,1-13.546-.282c-2.27-.221-4.541-.464-6.811-.8l-6.871-1.014a99.556,99.556,0,0,1-13.349-2.844c-4.265-1.3-8.452-3.082-11.532-5.928a15.282,15.282,0,0,1-2.011-2.316l-.414-.634-.363-.661a7.282,7.282,0,0,1-.324-.681l-.158-.342-.152-.415a43.969,43.969,0,0,1-2.018-6.932,90.19,90.19,0,0,1-1.692-15c-.214-5.112-.15-10.281.037-15.461.375-10.366,1.241-20.777,2-31.254.736-10.48,1.484-21.027,1.134-31.8l-.108-3.328-2.97.383c-1.842.238-3.812.408-5.728.527s-3.859.18-5.782.183-3.854-.064-5.783-.183-3.885-.289-5.728-.527l-2.97-.383-.108,3.328c-.35,10.776.4,21.324,1.135,31.8.757,10.477,1.623,20.887,2,31.254.186,5.18.25,10.349.037,15.461a90.19,90.19,0,0,1-1.693,15,43.982,43.982,0,0,1-2.017,6.932l-.152.415-.158.342a7.438,7.438,0,0,1-.323.681l-.364.661-.414.634a15.277,15.277,0,0,1-2.012,2.316c-3.079,2.847-7.267,4.624-11.532,5.928a99.556,99.556,0,0,1-13.349,2.844l-6.871,1.014c-2.27.333-4.541.575-6.81.8a90.3,90.3,0,0,1-13.546.282,40.185,40.185,0,0,1-12.831-2.712,16.25,16.25,0,0,1-8.984-8.284,18.556,18.556,0,0,1-1.46-6.384,17.391,17.391,0,0,1,.808-6.451,24.351,24.351,0,0,1,7.7-10.678,41.536,41.536,0,0,1,5.522-3.936c.972-.578,1.961-1.125,2.964-1.632.984-.5,2.06-1,2.978-1.357l2.166-.852-.315-2.528q-3.928-31.491-7.173-63.119c-.508-5.261-1.081-10.55-1.478-15.791l-.58-7.855-.145-1.964-.072-1.972-.144-3.942c-.465-10.508-.3-21.058.022-31.59.906-21.068,2.909-42.084,5.64-63,2.779-20.911,6.141-41.719,9.351-62.67a1.032,1.032,0,0,0-.748-1.2A.917.917,0,0,0,1560.4,1904.559Z" transform="translate(-1529.412 -1902.179)" fill="#371a45"/></g><g transform="translate(189.722 444.32)"><path d="M1669.2,2980.137c22.5,0,30.242-11.063,30.694-11.742a3.37,3.37,0,0,0-.545-4.339,2.541,2.541,0,0,0-3.828.59c-.24.338-14.977,20.1-64.982.793a2.682,2.682,0,0,0-3.486,1.93,3.21,3.21,0,0,0,1.709,3.935C1645.747,2977.86,1658.994,2980.137,1669.2,2980.137Z" transform="translate(-1626.909 -2963.433)" fill="#371a45"/></g><g transform="translate(99.828 447.895)"><path d="M2155.025,2995.613c20.142,0,41.729-8.024,43.1-8.542a3.2,3.2,0,0,0,1.731-3.921,2.688,2.688,0,0,0-3.473-1.956c-.485.182-48.647,18.083-65.342.663a2.531,2.531,0,0,0-3.879.172,3.386,3.386,0,0,0,.153,4.379C2133.949,2993.33,2144.282,2995.613,2155.025,2995.613Z" transform="translate(-2126.433 -2981.033)" fill="#371a45"/></g><g transform="translate(63.202)"><g transform="translate(219.246 98.927)"><path d="M1353.015,1338.544h0a2.358,2.358,0,0,1-1.811-2.7l8.3-68.27a2.18,2.18,0,0,1,2.388-2.045h0c12.165,1.886,20.672,14.547,19,28.279l-2.832,23.28C1376.4,1330.826,1365.18,1340.429,1353.015,1338.544Z" transform="translate(-1350.691 -1264.954)" fill="#fff"/><path d="M1353.833,1337.153a20.934,20.934,0,0,0,13.687-5.219,26.3,26.3,0,0,0,8.78-16.95l2.832-23.28a27.964,27.964,0,0,0-4.408-18.994,22.217,22.217,0,0,0-15.015-9.912,2.383,2.383,0,0,0-1.933.572,3.024,3.024,0,0,0-1.009,1.948l-8.3,68.27a2.911,2.911,0,0,0,2.233,3.323h0A20.5,20.5,0,0,0,1353.833,1337.153Zm5.517-73.271a1.524,1.524,0,0,1,.225.017,21.255,21.255,0,0,1,14.362,9.483,26.75,26.75,0,0,1,4.217,18.17l-2.832,23.28a25.159,25.159,0,0,1-8.4,16.215,19.821,19.821,0,0,1-16.1,4.761,1.814,1.814,0,0,1-1.39-2.069l8.3-68.269a1.882,1.882,0,0,1,.628-1.214A1.5,1.5,0,0,1,1359.35,1263.882Z" transform="translate(-1348.437 -1262.768)" fill="#371a45"/></g><g transform="translate(219.738 140.15)" opacity="0.35"><path d="M1388.919,1465.744l-1.326,10.919c-1.671,13.728-12.886,23.334-25.054,21.453a2.364,2.364,0,0,1-1.811-2.7l2.2-18.149a2.225,2.225,0,0,0,1.739,1.7l1.435.218C1375.717,1480.678,1384.743,1474.989,1388.919,1465.744Z" transform="translate(-1360.708 -1465.744)" fill="#371a45"/></g><g transform="translate(216.994 96.384)"><path d="M1343.569,1329.716a23.011,23.011,0,0,0,15.043-5.737,28.907,28.907,0,0,0,9.65-18.63l2.832-23.28a30.738,30.738,0,0,0-4.845-20.877,24.426,24.426,0,0,0-16.5-10.895,4.428,4.428,0,0,0-3.6,1.066,5.631,5.631,0,0,0-1.879,3.629l-8.3,68.269c-.364,3,1.5,5.775,4.157,6.187h0A22.529,22.529,0,0,0,1343.569,1329.716Zm6.05-73.171a19.135,19.135,0,0,1,12.256,8.392,23.98,23.98,0,0,1,3.78,16.288l-2.832,23.28a22.557,22.557,0,0,1-7.529,14.535,17.8,17.8,0,0,1-13.807,4.352Z" transform="translate(-1335.916 -1250.245)" fill="#371a45"/></g><g transform="translate(2.253 67.768)"><path d="M2585.438,1112.33h0a2.359,2.359,0,0,1,1.811,2.7l-8.3,68.27a2.18,2.18,0,0,1-2.388,2.045h0c-12.164-1.886-20.672-14.547-19-28.28l2.832-23.28C2562.059,1120.047,2573.274,1110.444,2585.438,1112.33Z" transform="translate(-2556.853 -1111.535)" fill="#fff"/><path d="M2574.6,1183.729a2.4,2.4,0,0,0,1.573-.6,3.025,3.025,0,0,0,1.009-1.948l8.3-68.27a2.911,2.911,0,0,0-2.233-3.323h0a20.71,20.71,0,0,0-16.826,4.976,26.3,26.3,0,0,0-8.78,16.95l-2.833,23.28a27.968,27.968,0,0,0,4.408,18.994,22.22,22.22,0,0,0,15.015,9.912A2.339,2.339,0,0,0,2574.6,1183.729Zm8.521-73.038a1.813,1.813,0,0,1,1.39,2.068l-8.3,68.27a1.879,1.879,0,0,1-.628,1.213,1.477,1.477,0,0,1-1.2.356,21.255,21.255,0,0,1-14.362-9.482,26.752,26.752,0,0,1-4.217-18.17l2.832-23.28a25.161,25.161,0,0,1,8.4-16.215,19.821,19.821,0,0,1,16.1-4.76Z" transform="translate(-2554.604 -1109.345)" fill="#371a45"/></g><g transform="translate(2.749 103.488)" opacity="0.35"><path d="M2614.691,1302.327l-2.306,18.939a2.184,2.184,0,0,1-2.392,2.044,22,22,0,0,1-15.2-10.48,27.535,27.535,0,0,1-3.8-17.794l1.193-9.81c2.406,9.142,9.37,16.33,18.289,17.714l2.207.342A2.042,2.042,0,0,0,2614.691,1302.327Z" transform="translate(-2590.786 -1285.226)" fill="#371a45"/></g><g transform="translate(0 65.225)"><path d="M2564.335,1176.292a5.109,5.109,0,0,0,4.816-4.746l8.3-68.27c.365-3-1.5-5.774-4.157-6.187h0a22.764,22.764,0,0,0-18.493,5.47,28.908,28.908,0,0,0-9.651,18.63l-2.832,23.28a30.738,30.738,0,0,0,4.845,20.877,24.424,24.424,0,0,0,16.5,10.894A4.334,4.334,0,0,0,2564.335,1176.292Zm7.6-73.147-8.133,66.848a19.135,19.135,0,0,1-12.256-8.392,23.983,23.983,0,0,1-3.78-16.288l2.832-23.28a22.558,22.558,0,0,1,7.529-14.535A17.794,17.794,0,0,1,2571.93,1103.145Z" transform="translate(-2542.086 -1096.823)" fill="#371a45"/></g><g transform="translate(37.574 197.876)" opacity="0.35"><path d="M1766.2,1777.167q-2.757,3.259-5.7,6.266a112.069,112.069,0,0,1-11.532,10.279c-17.363,13.457-38.137,21.247-59.938,21.612a96.988,96.988,0,0,1-24.207-2.643,104.418,104.418,0,0,1-49.526-27.967q-1.637-1.629-3.21-3.332a116.491,116.491,0,0,1-8.674-10.5q-2.521-3.4-4.782-7.012c6.743-8.512,16.537-13.895,27.395-13.895h105.666C1747.469,1749.978,1761.012,1761.335,1766.2,1777.167Z" transform="translate(-1598.633 -1749.978)" fill="#371a45"/></g><g transform="translate(21.691 2.542)"><ellipse cx="104.021" cy="117.429" rx="104.021" ry="117.429" transform="translate(0.505 0.571)" fill="#fff"/><path d="M1560.959,1024.205c20.054,0,39.695-6.544,56.886-19.2,23.382-17.217,39.427-43.682,45.176-74.522a129.839,129.839,0,0,0-14.732-88.757c-15.251-26.4-38.695-44.509-66.013-51-56.393-13.4-111.929,27.493-123.8,91.155s24.353,126.358,80.745,139.758A93.973,93.973,0,0,0,1560.959,1024.205Zm-.236-234.911a92.221,92.221,0,0,1,21.349,2.519c27.061,6.43,50.283,24.371,65.391,50.519a128.612,128.612,0,0,1,14.594,87.92c-5.7,30.548-21.588,56.764-44.751,73.818s-50.822,22.905-77.881,16.475c-55.861-13.273-91.742-75.377-79.985-138.439C1469.691,827.129,1512.819,789.294,1560.723,789.294Z" transform="translate(-1456.222 -788.18)" fill="#371a45"/></g><g transform="translate(22.173 90.931)" opacity="0.35"><path d="M1668.314,1261.055a130.917,130.917,0,0,1-1.989,16.14c-11.84,63.46-67,104.078-123.22,90.726s-92.194-75.64-80.367-139.1c.339-1.825.717-3.643,1.13-5.423-3.567,57.568,30.919,110.738,82.356,122.963C1600.824,1359.327,1654.421,1321.388,1668.314,1261.055Z" transform="translate(-1460.489 -1223.396)" fill="#371a45"/></g><g transform="translate(19.439)"><path d="M1550.693,1016.774c20.486,0,40.55-6.685,58.111-19.615,23.886-17.588,40.276-44.624,46.15-76.128h0c5.874-31.5.529-63.7-15.05-90.67s-39.529-45.468-67.436-52.1c-57.6-13.688-114.341,28.084-126.468,93.119s24.878,129.081,82.486,142.769A95.983,95.983,0,0,0,1550.693,1016.774Zm-.24-234.912a90.214,90.214,0,0,1,20.884,2.464c26.472,6.29,49.19,23.841,63.968,49.42a125.821,125.821,0,0,1,14.277,86.008h0c-5.572,29.884-21.119,55.53-43.777,72.213s-49.719,22.406-76.187,16.117c-54.646-12.985-89.747-73.738-78.245-135.428C1461.4,818.874,1503.592,781.862,1550.454,781.862Z" transform="translate(-1443.7 -775.664)" fill="#371a45"/></g><g transform="translate(22.479 36.846)"><path d="M1672.266,1067.847A109.535,109.535,0,0,1,1644.2,1124.8c-10.557,11.161-48.663,26.378-90.95,17.525-39.208-8.208-70.755-39.6-76.83-54.414a117.7,117.7,0,0,1-7.085-64.687c10.3-59.688,59.992-74.445,116.034-62.123S1682.564,1008.159,1672.266,1067.847Z" transform="translate(-1467.613 -957.091)" fill="#371a45"/></g><g transform="translate(19.732 33.759)"><path d="M1566.747,1136.022c32.693,0,58.409-12.321,66.684-21.07a112.691,112.691,0,0,0,28.888-58.626c5.054-29.3-1.455-54.174-19.348-73.941-15.6-17.238-39.714-29.837-69.724-36.435s-56.545-5.134-76.739,4.233c-23.156,10.742-37.46,31.043-42.514,60.34a121.055,121.055,0,0,0,7.287,66.58c6.384,15.57,38.182,47.651,78.821,56.159A129.974,129.974,0,0,0,1566.747,1136.022Zm90.184-80.881a106.288,106.288,0,0,1-27.253,55.287c-9.411,9.948-46.194,25.614-88.573,16.74-38.241-8.006-69.048-38.543-74.84-52.668a114.185,114.185,0,0,1-6.882-62.792c4.68-27.121,17.872-45.892,39.213-55.791,19.2-8.907,44.651-10.249,73.6-3.882s52.1,18.392,66.932,34.781C1655.62,1005.032,1661.609,1028.02,1656.93,1055.141Z" transform="translate(-1452.224 -941.889)" fill="#371a45"/></g><g transform="translate(176.44 107.413)" opacity="0.7"><path d="M13.566,42.682C21.058,43,26.772,34.1,26.329,22.8S19.452,2.066,11.96,1.745-1.246,10.327-.8,21.632,6.074,42.361,13.566,42.682Z" transform="matrix(-0.932, -0.363, 0.363, -0.932, 22.939, 50.163)" fill="#fff"/></g><g transform="translate(162.089 156.803)" opacity="0.7"><path d="M7.474,19.752c4.128.22,7.266-3.756,7.01-8.88s-3.81-9.457-7.938-9.677S-.72,4.951-.464,10.075,3.346,19.532,7.474,19.752Z" transform="translate(11.456 24.884) rotate(-150.766)" fill="#fff"/></g><g transform="translate(67.637 87.58)" opacity="0.35"><path d="M1616.991,1206.9c10.1,16.09,14.261,36.045,10.128,60.019a109.593,109.593,0,0,1-28.068,56.962c-10.559,11.16-48.669,26.375-90.955,17.528-14.932-3.121-28.746-9.608-40.472-17.269,52.185,9.625,98.641-9.12,111.732-22.963,17.873-18.894,30.689-43.665,35.623-72.287A133.712,133.712,0,0,0,1616.991,1206.9Z" transform="translate(-1467.624 -1206.897)" fill="#111a28"/></g><g transform="translate(38.702 22.141)"><path d="M1648.206,958.983a2.551,2.551,0,0,0,1.744-.707,3.378,3.378,0,0,0,.68-3.846c-13.272-32.745-45.192-56.863-87.607-66.19-42.756-9.4-80.5.025-103.552,25.856l1.919,2.213,1.731,2.405-1.731-2.405,1.732,2.4.216-.218c21.743-24.361,57.692-33.175,98.636-24.171,40.715,8.953,71.23,31.852,83.721,62.826l.123.306.268.4A2.627,2.627,0,0,0,1648.206,958.983Z" transform="translate(-1459.471 -884.682)" fill="#371a45"/></g><g transform="translate(40.375 53.394)" opacity="0.7"><path d="M1972.508,1128.676s-6.217-62.483,25.941-79.767,72.585-8.3,71.134-5.578c0,0-46.884,2.392-71.3,38.5C1979.463,1109.673,1972.508,1128.676,1972.508,1128.676Z" transform="translate(-1972.025 -1038.566)" fill="#fff"/></g></g><g transform="translate(138.633 397.019)"><path d="M2164.567,2742.6l-3.865-1.122c-1.309-.417-2.63-.8-3.938-1.251q-3.942-1.274-7.829-2.839c-2.6-1.01-5.148-2.2-7.744-3.344-2.619-1.117-5.163-2.42-7.948-3.516a35.628,35.628,0,0,0,6.33,6.771,42.87,42.87,0,0,0,3.619,2.755c1.262.8,2.526,1.63,3.828,2.361a59.274,59.274,0,0,0,8.037,3.863,43.131,43.131,0,0,0,8.591,2.433,2.819,2.819,0,0,0,3.1-2.63,3.113,3.113,0,0,0-2.02-3.434Z" transform="translate(-2133.243 -2730.53)" fill="#371a45"/></g><g transform="translate(190.457 397.019)"><path d="M1848.3,2748.712a43.129,43.129,0,0,0,8.591-2.433,59.259,59.259,0,0,0,8.037-3.863c1.3-.73,2.566-1.556,3.828-2.361a42.833,42.833,0,0,0,3.619-2.755,35.633,35.633,0,0,0,6.33-6.771c-2.785,1.1-5.329,2.4-7.948,3.516-2.6,1.144-5.14,2.334-7.744,3.344q-3.884,1.56-7.829,2.839c-1.308.449-2.628.835-3.937,1.251l-3.865,1.122-.151.043a3.149,3.149,0,0,0-1.974,3.771A2.784,2.784,0,0,0,1848.3,2748.712Z" transform="translate(-1845.171 -2730.53)" fill="#371a45"/></g><g transform="translate(103.821 479.723)"><path d="M2270.463,3145.085c1.6-.218,3.368-.422,5.068-.587,1.717-.158,3.439-.318,5.163-.395a98.616,98.616,0,0,1,10.342-.07,83.826,83.826,0,0,1,10.265,1.324,70.309,70.309,0,0,1,10.217,3.068,29.828,29.828,0,0,0-9.283-6.649,46.359,46.359,0,0,0-10.707-3.187,63.674,63.674,0,0,0-11.008-.833c-1.837.041-3.674.117-5.5.33a42.75,42.75,0,0,0-5.536.9,3.109,3.109,0,0,0-2.139,3.656,2.8,2.8,0,0,0,3.008,2.457Z" transform="translate(-2267.284 -3137.753)" fill="#371a45"/></g><g transform="translate(214.639 479.723)"><path d="M1693.341,3138.988a42.733,42.733,0,0,0-5.536-.9c-1.831-.213-3.667-.29-5.5-.33a63.679,63.679,0,0,0-11.009.833,46.366,46.366,0,0,0-10.707,3.187,29.822,29.822,0,0,0-9.283,6.649,70.286,70.286,0,0,1,10.217-3.068,83.839,83.839,0,0,1,10.265-1.324,98.614,98.614,0,0,1,10.342.07c1.724.077,3.446.237,5.163.395,1.7.165,3.471.369,5.069.587l.1.014a2.837,2.837,0,0,0,3.055-2.7A3.091,3.091,0,0,0,1693.341,3138.988Z" transform="translate(-1651.303 -3137.753)" fill="#371a45"/></g><g transform="translate(140.015 398.06)" opacity="0.35"><path d="M1852.364,2735.655s21.87,4.164,38.76,4.164,43.925-4.164,43.925-4.164-16.231,14.721-42.109,14.086C1866.413,2749.091,1852.364,2735.655,1852.364,2735.655Z" transform="translate(-1852.364 -2735.655)" fill="#371a45"/></g><g transform="translate(97.186 287.444)" opacity="0.35"><path d="M1782.757,2252.168c-3.6.276-7.382.438-11.166.4-.517,0-1.019-.008-1.536-.024-.539-.008-1.077-.024-1.616-.057-.366-.008-.725-.024-1.077-.041-.424-.024-.848-.049-1.271-.081-.531-.032-1.07-.073-1.6-.122h-.036c-.531-.041-1.07-.1-1.6-.154-.345-.041-.7-.081-1.041-.13-.295-.024-.589-.065-.876-.105-.46-.057-.919-.13-1.364-.2s-.847-.138-1.264-.219a1.289,1.289,0,0,1-.251-.04c-.488-.081-.969-.178-1.443-.284s-.962-.2-1.429-.316l-.115-.024c-.266-.073-.531-.13-.783-.2-.294-.073-.582-.146-.869-.235h-.007c-.158-.048-.309-.089-.467-.146v6.607c0,9.12-6.621,16.594-14.706,16.594h-80.267c-8.071,0-14.692-7.474-14.692-16.594v-5.277c-9.3,1.589-19.941,1.159-28.838.211q.453-8.67,1.156-17.2.614-7.393,1.386-14.608a206.244,206.244,0,0,0,26.3-.495v-11.835c0-9.136,6.62-16.586,14.692-16.586h80.267a14.242,14.242,0,0,1,11.712,6.574,17.941,17.941,0,0,1,2.995,10.011v11.09c1.695.284,3.49.51,5.335.7a186.328,186.328,0,0,0,21.937.681q.743,7.052,1.35,14.283C1782.053,2240.219,1782.455,2246.177,1782.757,2252.168Z" transform="translate(-1614.439 -2190.997)" fill="#371a45"/></g><g transform="translate(87.957 307.647)"><path d="M2362.9,2318.79c-11.374,5.2-28.976,4.11-40.976,2.471-7.2-.983-12.25-8.481-11.189-16.577h0c.968-7.388,6.728-12.761,13.337-12.411,11.224.594,28.061.872,38.723-1.8" transform="translate(-2310.598 -2290.474)" fill="#fff"/></g><g transform="translate(87.956 316.684)" opacity="0.35"><path d="M2362.9,2354.246c-11.374,5.2-28.974,4.11-40.973,2.472-7.2-.981-12.25-8.479-11.195-16.578a15.768,15.768,0,0,1,1.6-5.172,12.866,12.866,0,0,0,9.594,7.15c11.978,1.637,29.542,2.724,40.916-2.448Z" transform="translate(-2310.593 -2334.969)" fill="#371a45"/></g><g transform="translate(85.21 304.5)"><path d="M2297.772,2313.365c8.474,0,17-1.02,23.637-4.052h0c7.927-3.623,8.16-17.878,5.82-26.371-2.264-8.22-6.036-8.22-7.552-7.843-10.185,2.551-26.287,2.348-38,1.729-8.014-.43-15,6.045-16.18,15.053a19.237,19.237,0,0,0,3.039,13.3,15.2,15.2,0,0,0,10.537,6.807A140.58,140.58,0,0,0,2297.772,2313.365Zm21.576-9.8c-10.691,4.885-27.446,3.929-39.617,2.266a9.856,9.856,0,0,1-6.831-4.413,12.486,12.486,0,0,1-1.973-8.634c.766-5.844,5.28-10.036,10.493-9.769,11.9.631,28.273.826,39.056-1.772,1.087,1.231,2.97,7.178,2.461,13.9-.16,2.112-.831,7.16-3.589,8.421Z" transform="translate(-2265.326 -2274.978)" fill="#371a45"/></g><g transform="translate(227.26 307.645)"><path d="M1577.267,2321.251a135.463,135.463,0,0,1-19.381,1.345c-.474,0-.941-.008-1.415-.024-.5-.008-1-.024-1.494-.049-.337-.008-.668-.024-.991-.04l-1.171-.073c-.5-.033-.991-.073-1.479-.114h-.036c-.488-.041-.984-.089-1.472-.146-.323-.032-.646-.073-.962-.113-.273-.024-.546-.065-.811-.1-.423-.057-.847-.122-1.256-.187s-.783-.129-1.163-.2a1.064,1.064,0,0,1-.23-.04c-.452-.073-.9-.162-1.335-.26s-.883-.187-1.314-.292l-.108-.024c-.244-.065-.488-.122-.725-.187q-.4-.1-.8-.219h-.007c-.811-.227-1.609-.487-2.384-.762-.417-.146-.833-.308-1.242-.47s-.811-.341-1.2-.519l.05-13.594.057-14.721a65.431,65.431,0,0,0,9.206,1.516c9.709,1,21.162.721,29.513.284.2-.008.4-.016.61-.016,6.348,0,11.791,5.269,12.725,12.427C1589.517,2312.772,1584.462,2320.27,1577.267,2321.251Z" transform="translate(-1536.293 -2290.463)" fill="#fff"/></g><g transform="translate(227.259 317.486)" opacity="0.35"><path d="M1577.273,2359.868a135.566,135.566,0,0,1-19.381,1.346c-.474,0-.941-.008-1.415-.025-.5-.008-1-.024-1.494-.049-.338-.007-.668-.024-.991-.04l-1.17-.073c-.5-.033-.991-.073-1.479-.114h-.036c-.488-.041-.984-.089-1.472-.146-.323-.032-.646-.073-.962-.113-.273-.024-.546-.065-.812-.1-.423-.057-.847-.122-1.256-.186s-.783-.13-1.163-.2a1.075,1.075,0,0,1-.23-.041c-.453-.073-.9-.162-1.336-.26s-.883-.186-1.314-.292l-.108-.024c-.244-.065-.488-.122-.725-.187q-.4-.1-.8-.219h-.007c-.811-.227-1.608-.487-2.384-.762-.416-.146-.833-.308-1.242-.47s-.812-.34-1.2-.519l.05-12.979c.374.17.754.34,1.149.494s.826.324,1.242.47c.776.275,1.573.535,2.384.762h.007q.4.122.8.219c.237.065.481.122.725.187l.108.025q.646.158,1.314.292c.438.1.883.187,1.336.259a1.06,1.06,0,0,0,.23.041c.381.073.768.138,1.163.2s.833.13,1.256.187c.266.033.539.073.812.1.316.041.639.081.962.113.488.057.984.106,1.472.146h.036c.488.04.984.081,1.479.114l1.17.073c.323.016.653.032.991.04.5.025,1,.041,1.494.049.474.016.941.024,1.415.024a135.533,135.533,0,0,0,19.381-1.346,13.035,13.035,0,0,0,9.974-7.944,15.761,15.761,0,0,1,1.214,4.37C1589.523,2351.389,1584.468,2358.887,1577.273,2359.868Z" transform="translate(-1536.299 -2338.921)" fill="#371a45"/></g><g transform="translate(219.114 304.5)"><path d="M1551.765,2313.365a140.492,140.492,0,0,0,18.7-1.377,15.2,15.2,0,0,0,10.537-6.806,19.231,19.231,0,0,0,3.038-13.3c-1.178-9.008-8.153-15.486-16.18-15.053-11.714.62-27.816.823-38-1.729-1.516-.378-5.287-.378-7.552,7.843-2.34,8.493-2.107,22.747,5.821,26.371h0C1534.762,2312.344,1543.292,2313.365,1551.765,2313.365Zm16.835-30.36c5.009,0,9.267,4.118,10.008,9.782a12.488,12.488,0,0,1-1.973,8.635,9.853,9.853,0,0,1-6.831,4.413c-12.172,1.663-28.925,2.619-39.615-2.266l-1.03,2.872,1.03-2.872c-2.76-1.261-3.43-6.309-3.59-8.422-.51-6.723,1.374-12.67,2.461-13.9,10.785,2.6,27.153,2.4,39.056,1.772Q1568.359,2283.005,1568.6,2283.005Z" transform="translate(-1521.014 -2274.977)" fill="#371a45"/></g><g transform="translate(130.512 282.99)"><path d="M1903.735,2184.365v45.377c0,8.419-6.1,15.311-13.562,15.311h-74.027c-7.448,0-13.552-6.891-13.552-15.311v-45.377c0-8.419,6.1-15.3,13.552-15.3h74.027a13.124,13.124,0,0,1,10.8,6.065A16.5,16.5,0,0,1,1903.735,2184.365Z" transform="translate(-1802.593 -2169.066)" fill="#fff"/></g><g transform="translate(130.512 282.994)" opacity="0.43"><path d="M1903.739,2184.381v45.379c0,8.415-6.1,15.305-13.565,15.305h-74.027c-7.447,0-13.55-6.891-13.55-15.305v-45.379c0-8.423,6.1-15.3,13.55-15.3h74.027a13.115,13.115,0,0,1,10.8,6.063A16.527,16.527,0,0,1,1903.739,2184.381Z" transform="translate(-1802.597 -2169.084)" fill="#fff"/></g><g transform="translate(130.512 308.926)" opacity="0.35"><path d="M1903.739,2307.171v24.344c0,8.414-6.1,15.3-13.565,15.3h-74.027c-7.447,0-13.55-6.89-13.55-15.3v-34.744c14.5,6.51,7.643,35.242,36.265,33.345,23.223-1.54,26.689-22.669,26.689-22.669h27.632s-.076,13.618,4.433,13.708C1901.142,2321.219,1902.647,2315.148,1903.739,2307.171Z" transform="translate(-1802.597 -2296.771)" fill="#371a45"/></g><g transform="translate(125.755 274.794)"><path d="M2391.242,2128.709" transform="translate(-2391.242 -2128.709)" fill="#fff"/></g><g transform="translate(127.767 279.888)"><path d="M1803.65,2235.977h74.029c8.988,0,16.3-8.254,16.3-18.4v-45.383c0-10.147-7.312-18.4-16.3-18.4H1803.65c-8.988,0-16.3,8.255-16.3,18.4v45.383C1787.349,2227.723,1794.661,2235.977,1803.65,2235.977Zm74.029-75.988c5.961,0,10.81,5.475,10.81,12.2v45.383c0,6.729-4.849,12.2-10.81,12.2H1803.65c-5.961,0-10.81-5.475-10.81-12.2v-45.383c0-6.729,4.849-12.2,10.81-12.2Z" transform="translate(-1787.349 -2153.791)" fill="#371a45"/></g><g transform="translate(190.776 302.318)"><path d="M12.443,27.147a10.771,10.771,0,0,0,11.69-11.69,14.428,14.428,0,0,0-13.2-13.2A10.771,10.771,0,0,0-.753,13.95,14.428,14.428,0,0,0,12.443,27.147Z" transform="translate(14.401 37.326) rotate(-135)" fill="#22a7f0"/></g><g transform="translate(195.615 307.785)"><path d="M1896.322,2304.354a14.076,14.076,0,0,1-.152,2.1c-.89-6.292-5.719-11.1-11.54-11.1s-10.651,4.8-11.54,11.1a14.043,14.043,0,0,1-.152-2.1c0-7.289,5.236-13.2,11.692-13.2S1896.322,2297.065,1896.322,2304.354Z" transform="translate(-1872.938 -2291.155)" fill="#fff"/></g><g transform="translate(195.618 316.203)" opacity="0.35"><path d="M1896.342,2337.376c0,7.288-5.233,13.195-11.688,13.195s-11.688-5.907-11.688-13.195a14.362,14.362,0,0,1,.8-4.775c1.684,4.923,5.924,8.408,10.886,8.408s9.2-3.485,10.886-8.408A14.368,14.368,0,0,1,1896.342,2337.376Z" transform="translate(-1872.966 -2332.601)" fill="#371a45"/></g><g transform="translate(193.559 305.459)"><path d="M1875.248,2310.744c7.581,0,13.749-6.963,13.749-15.521s-6.168-15.521-13.749-15.521-13.749,6.963-13.749,15.521S1867.667,2310.744,1875.248,2310.744Zm0-26.393c5.311,0,9.631,4.877,9.631,10.872s-4.32,10.873-9.631,10.873-9.631-4.877-9.631-10.873S1869.937,2284.351,1875.248,2284.351Z" transform="translate(-1861.499 -2279.702)" fill="#371a45"/></g><g transform="translate(156.63 279.888)"><path d="M2124.362,2235.977a2.938,2.938,0,0,0,2.745-3.1v-26.345a15.972,15.972,0,0,0-5.35-12.107l-6.291-5.348a9.439,9.439,0,0,1-3.163-7.155V2156.89a2.765,2.765,0,1,0-5.49,0v25.034a15.97,15.97,0,0,0,5.351,12.106l6.291,5.348a9.439,9.439,0,0,1,3.162,7.155v26.345A2.938,2.938,0,0,0,2124.362,2235.977Z" transform="translate(-2106.812 -2153.791)" fill="#371a45"/></g><g transform="translate(0 126.918)"><g transform="translate(22.104 49.915)"><path d="M2679.322,1692.476c-6.479,30.355-33.6,27.526-41.072,25.474-15.573-4.282-20.917-20.85-20.917-20.85l12.561-18.741,5.585-10.141,6.671-2.264c5.242-10.785,16.409-23.017,22.821-18.7C2664.971,1647.252,2684.907,1666.312,2679.322,1692.476Z" transform="translate(-2617.333 -1646.363)" fill="#fff"/></g><g transform="translate(19.791 71.535)" opacity="0.35"><path d="M2703.615,1772.134c0,9.458,10.973,18.038,34.6,14.929a17.018,17.018,0,0,0,15.17-17.125c0-9.458-6.792-17.124-15.17-17.124S2703.615,1762.677,2703.615,1772.134Z" transform="translate(-2703.615 -1752.815)" fill="#371a45"/></g><g transform="translate(2.747 3.098)"><path d="M2766.758,1472.991c6.2,7.028,11.632,12.208,11.632,12.208l17.407,20.108,11.747-32.385s.069-6.536-.382-15.187c-.879-17.129-3.77-42.538-13.147-41.882-16.863,1.183-5.7,51.318-5.7,51.318s-26.921-40.518-37.7-29.009C2744.3,1444.9,2756.572,1461.439,2766.758,1472.991Z" transform="translate(-2748.881 -1415.841)" fill="#fff"/></g><g transform="translate(20.625 44.992)" opacity="0.35"><path d="M2748.881,1637.378c6.2,7.028,11.632,12.208,11.632,12.208l17.407,20.108,11.747-32.385s.069-6.536-.382-15.187c-4.52,4.032-12.95,11.354-15.9,15.715C2768.305,1645.349,2755.688,1635.894,2748.881,1637.378Z" transform="translate(-2748.881 -1622.123)" fill="#371a45"/></g><g transform="translate(0)"><path d="M2783.265,1496.254a2.435,2.435,0,0,0,.525-.057,2.849,2.849,0,0,0,2.015-1.867l11.746-32.392a3.472,3.472,0,0,0,.2-1.14c.047-4.731.171-46.534-9.885-57.325a8.128,8.128,0,0,0-6.56-2.867,10.26,10.26,0,0,0-8.034,5c-5.385,8.316-4.127,25.728-2.391,37.767-7.2-9.246-18.379-21.633-27.14-22.475a8.868,8.868,0,0,0-7.561,2.858,10.16,10.16,0,0,0-2.581,7.385c.369,14.957,26.855,40.794,30.38,44.167l17.317,20.01A2.6,2.6,0,0,0,2783.265,1496.254Zm9.005-36.114-9.963,27.474-14.487-16.74a2.759,2.759,0,0,0-.192-.2c-10.911-10.415-28.307-30.4-28.536-39.7a3.461,3.461,0,0,1,.864-2.709,3.734,3.734,0,0,1,3.322-1.185c9.19.882,24.991,21.813,30.3,29.8a2.555,2.555,0,0,0,3.378.937,3.237,3.237,0,0,0,1.481-3.552c-2.124-9.552-6.4-36.257-.732-45a4.864,4.864,0,0,1,3.942-2.476,2.9,2.9,0,0,1,2.436,1.174C2791.037,1415.42,2792.345,1447.584,2792.27,1460.14Z" transform="translate(-2733.6 -1400.588)" fill="#371a45"/></g><g transform="translate(17.944 67.01)"><path d="M2795.493,1760.674c4.13,7.58,21.667,11.12,28.175,5.422,5.537-4.852.008-11.034-1.568-12.605-.245-.25-.4-.38-.4-.38s6.738-2.331,7.916-8.737a9.933,9.933,0,0,0,.153-1.3c.413-7.39-17.07-13.771-25.009-12.329-5.935,1.079-8.2,3.807-8.757,6.726-.6,3.108.742,6.432,1.636,8.211.413.812.727,1.3.727,1.3S2792.181,1754.6,2795.493,1760.674Z" transform="translate(-2794.518 -1730.537)" fill="#fff"/></g><g transform="translate(19.283 73.941)" opacity="0.35"><path d="M2797.192,1772.873c4.688,2.711,14.087,7.321,24.458,7.813-.244-.25-.4-.38-.4-.38s6.738-2.331,7.916-8.737c-6.218,1.537-23.4,4.464-33.612-6.907C2794.959,1767.77,2796.3,1771.094,2797.192,1772.873Z" transform="translate(-2795.407 -1764.662)" fill="#371a45"/></g><g transform="translate(17.947 88.437)" opacity="0.35"><path d="M2816.07,1844.749c4.13,7.58,21.666,11.12,28.175,5.422a6.292,6.292,0,0,0,1.927-7.407,8.867,8.867,0,0,1-1.063,1.1c-6.5,5.7-24.037,2.158-28.167-5.413a7.7,7.7,0,0,1-.841-2.418C2815.068,1838.636,2814.5,1841.865,2816.07,1844.749Z" transform="translate(-2815.097 -1836.038)" fill="#371a45"/></g><g transform="translate(15.192 63.918)"><path d="M2801.646,1759.883c4.633,0,8.614-1.2,11.21-3.469a9.519,9.519,0,0,0,3.475-7.3,13,13,0,0,0-2.505-7.217,13.926,13.926,0,0,0,6.192-10.761c.1-1.793-.361-4.528-3.14-7.377-5.855-6.005-18.494-9.4-25.043-8.216h0c-5.563,1.01-9.113,3.528-10.552,7.483-1.593,4.379.007,9,1.257,11.6-1.968,3.133-5.1,9.635-1.876,15.54,2.318,4.249,7.848,7.636,14.791,9.059A30.94,30.94,0,0,0,2801.646,1759.883Zm-6.814-38.388c5.607,0,14.457,2.856,18.354,6.853a3.829,3.829,0,0,1,1.352,2.4c-.29,5.129-6.082,7.254-6.141,7.275a3.015,3.015,0,0,0-1.88,2.406,3.314,3.314,0,0,0,1,2.994c1.083.969,3.33,3.644,3.32,5.692a3.12,3.12,0,0,1-1.349,2.405c-2.375,2.08-7.621,2.729-13.056,1.615-5.19-1.064-9.65-3.56-11.1-6.211-2.144-3.929,2.523-9.931,2.57-9.99a3.42,3.42,0,0,0,.185-3.917c-.742-1.163-2.668-5.083-1.729-7.639.831-2.263,3.906-3.265,6.34-3.707A12,12,0,0,1,2794.832,1721.5Z" transform="translate(-2779.276 -1715.311)" fill="#371a45"/></g><g transform="translate(19.053 80.352)"><path d="M2848.024,1808.635q1.165,0,2.36-.078a2.989,2.989,0,0,0,2.58-3.275,2.877,2.877,0,0,0-2.9-2.912c-11.8.779-21.681-5.649-21.779-5.714a2.581,2.581,0,0,0-3.756,1.1,3.328,3.328,0,0,0,.97,4.239A44.437,44.437,0,0,0,2848.024,1808.635Z" transform="translate(-2824.148 -1796.231)" fill="#371a45"/></g><g transform="translate(44.044 49.917)"><path d="M2693.448,1647.261c-8.512-5.73-25.382,17.674-25.692,28.177-.237,8.018,8.175,14.707,18.228,4.477C2696.169,1669.55,2706.814,1656.259,2693.448,1647.261Z" transform="translate(-2667.75 -1646.371)" fill="#fff"/></g><g transform="translate(22.103 49.917)"><path d="M2617.33,1697.112s5.346,16.563,20.914,20.844c7.469,2.054,34.6,4.883,41.077-25.475,5.585-26.163-14.353-45.219-14.353-45.219-8.512-5.73-25.383,17.674-25.693,28.177-.237,8.018,10.319,12.564,19.16-1.544,0,0-4.658,12.815,5.287,21.559l-23.433,15.237-17.72-3.9Z" transform="translate(-2617.33 -1646.371)" fill="#fff"/></g><g transform="translate(63.353 91.622)"><path d="M2733.174,1852.958l.467-.3c-.352-.311-.673-.613-.979-.932C2732.815,1852.13,2732.983,1852.544,2733.174,1852.958Z" transform="translate(-2732.662 -1851.724)" fill="#fff"/></g><g transform="translate(44.05 73.842)" opacity="0.35"><path d="M2759.283,1765.4c1.247-5.18-11.933,8.008-18.79,4.619.329,6.51,7.923,10.292,15.5,2.5A13.4,13.4,0,0,1,2759.283,1765.4Z" transform="translate(-2740.493 -1764.175)" fill="#371a45"/></g><g transform="translate(27.339 56.25)" opacity="0.35"><path d="M2620.319,1732.294l-2.99-.656a29.384,29.384,0,0,0,15.678,11.172c7.472,2.055,34.6,4.878,41.077-25.478,3.8-17.8-4.222-32.324-9.736-39.775,4.489,8.081,8.474,19.754,5.575,33.335-6.478,30.356-33.6,27.533-41.076,25.478A26.94,26.94,0,0,1,2620.319,1732.294Z" transform="translate(-2617.329 -1677.557)" fill="#371a45"/></g><g transform="translate(22.108 100.67)"><path d="M2957.162,1896.275a29.054,29.054,0,0,0,1.377,3.289l.459.1Z" transform="translate(-2957.162 -1896.275)" fill="#fff"/></g><g transform="translate(23.179 103.891)"><path d="M2957.162,1912.132c.245.328.5.665.765.993-.161-.319-.314-.63-.459-.924Z" transform="translate(-2957.162 -1912.132)" fill="#fff"/></g><g transform="translate(41.308 46.831)"><path d="M2634.045,1701.417a11.13,11.13,0,0,0,4.212-2.03,16.37,16.37,0,0,0,3.4-3.437,28.832,28.832,0,0,0,4.47-8.873,53.592,53.592,0,0,0,2.371-19.834,52.673,52.673,0,0,0-5.3-18.934,61.773,61.773,0,0,0-4.826-8.21q-1.345-1.937-2.822-3.754c-.5-.6-1-1.2-1.521-1.786s-1.025-1.134-1.672-1.769a2.463,2.463,0,0,0-.316-.261l-.052-.035a8.019,8.019,0,0,0-5.695-1.214,13.615,13.615,0,0,0-4.756,1.766,24.772,24.772,0,0,0-3.844,2.785,37.6,37.6,0,0,0-3.327,3.249,56.466,56.466,0,0,0-5.654,7.355,53.866,53.866,0,0,0-4.473,8.407,32.4,32.4,0,0,0-1.59,4.837,18.239,18.239,0,0,0-.449,2.767l-.053.745c0,.262.016.537.028.805a10.363,10.363,0,0,0,.15,1.614,10.235,10.235,0,0,0,2.874,5.651,8.98,8.98,0,0,0,5.1,2.591,5.624,5.624,0,0,0,1.35.109,8.137,8.137,0,0,0,1.333-.047,11.377,11.377,0,0,0,2.521-.6c.4-.146.808-.286,1.2-.449l1.108-.6a13.227,13.227,0,0,0,2.078-1.38,29.109,29.109,0,0,0,6.4-7.308l-4.781-2.966c-.242.711-.369,1.2-.513,1.777-.138.558-.253,1.117-.35,1.676a29.246,29.246,0,0,0-.392,3.4,30.831,30.831,0,0,0,.455,6.946,16.988,16.988,0,0,0,.986,3.388c.247.529.523,1.041.786,1.556a12.389,12.389,0,0,0,.958,1.412,8.31,8.31,0,0,0,5.334,3.4,1.078,1.078,0,0,0,1.182-1.01,1.334,1.334,0,0,0-.017-.43l-.041-.19a20.354,20.354,0,0,0-.965-2.893c-.3-.875-.686-1.612-.969-2.389a36.29,36.29,0,0,1-1.673-4.48,13.9,13.9,0,0,1-.557-4.942,22.565,22.565,0,0,1,.3-2.546q.108-.633.258-1.242c.09-.382.228-.853.3-1.076l.014-.045a3.234,3.234,0,0,0-1.624-3.992,2.579,2.579,0,0,0-3.172,1.071,23.337,23.337,0,0,1-5,5.759c-1.854,1.428-3.973,2.269-5.747,1.954a3.926,3.926,0,0,1-3.347-3.281,3.681,3.681,0,0,1-.054-.672l-.027-.345.034-.4a11.378,11.378,0,0,1,.291-1.759,25.815,25.815,0,0,1,1.255-3.791,50.21,50.21,0,0,1,8.966-13.925,26.272,26.272,0,0,1,5.858-4.974,8.69,8.69,0,0,1,2.948-1.134,3.044,3.044,0,0,1,2.188.389l-.368-.3c.4.389.9.933,1.349,1.434.46.513.909,1.049,1.353,1.589.886,1.085,1.734,2.217,2.542,3.382a55.569,55.569,0,0,1,4.335,7.373,45.907,45.907,0,0,1,4.645,16.5,38.544,38.544,0,0,1-2.336,16.9,56.9,56.9,0,0,1-3.474,7.5c-1.345,2.384-2.777,4.65-4.228,7.537l-.009.018a1.213,1.213,0,0,0,.377,1.543A.907.907,0,0,0,2634.045,1701.417Z" transform="translate(-2602.146 -1631.179)" fill="#371a45"/></g><g transform="translate(19.355 97.546)"><path d="M2850.458,1885.062c.28.854.508,1.488.8,2.179.285.676.585,1.333.908,1.975s.675,1.26,1.012,1.89c.363.611.744,1.207,1.12,1.805l1.208,1.73,1.314,1.631a28.988,28.988,0,0,0,2.876,2.977,25.9,25.9,0,0,0,6.62,4.563,11.453,11.453,0,0,0,7.575,1.283.278.278,0,0,0,.2-.322.288.288,0,0,0-.083-.166l-.013-.013a55.892,55.892,0,0,0-5.885-4.58,29.855,29.855,0,0,1-2.721-2.237c-.817-.876-1.7-1.638-2.445-2.584-.389-.451-.782-.891-1.131-1.385s-.746-.929-1.084-1.429l-1.012-1.5-.959-1.539c-.6-1.058-1.195-2.114-1.723-3.209-.26-.549-.535-1.088-.77-1.642-.237-.529-.5-1.14-.659-1.553l-.073-.19a2.632,2.632,0,0,0-3.609-1.6A3.257,3.257,0,0,0,2850.458,1885.062Z" transform="translate(-2850.289 -1880.89)" fill="#371a45"/></g></g><g transform="translate(61.45 231.086)"><path d="M2563.056,1987.869c5.085,0,22.364-1.531,27.913-21.779,7.985-29.135-3.729-50.606-4.232-51.506a1.925,1.925,0,0,0-2.839-.726,2.506,2.506,0,0,0-.645,3.2c.135.245,11.179,20.667,3.783,47.655-5.508,20.1-24.248,18.549-25.041,18.473a2.151,2.151,0,0,0-2.227,2.115,2.258,2.258,0,0,0,1.868,2.515C2561.67,1987.823,2562.184,1987.869,2563.056,1987.869Z" transform="translate(-2559.76 -1913.5)" fill="#371a45"/></g><g transform="translate(260.074 282.461)"><path d="M1484.913,2195.956a1.849,1.849,0,0,0,.544-.083c20.92-6.453,26.2-25.609,26.413-26.421a2.385,2.385,0,0,0-1.384-2.891,2.032,2.032,0,0,0-2.561,1.559,35.708,35.708,0,0,1-23.554,23.269,2.372,2.372,0,0,0-1.443,2.855A2.116,2.116,0,0,0,1484.913,2195.956Z" transform="translate(-1482.854 -2166.464)" fill="#371a45"/></g></g><g transform="translate(955.671 795.025)"><g transform="translate(0 0)"><g transform="translate(3.238 3.655)"><path d="M639.7,1011.248a2.949,2.949,0,0,0,1.631-.5l20.314-13.389a6.837,6.837,0,0,1,3.762-1.155,6.483,6.483,0,0,1,1.884.28,43.326,43.326,0,0,0,12.149,1.863l.417,0c26.291,0,48.019-24.132,48.434-53.794a58.193,58.193,0,0,0-13.909-39.24c-9.179-10.526-21.438-16.324-34.521-16.324-.318,0-.634,0-.954.01-26.386.574-47.686,25.292-47.48,55.1a58.661,58.661,0,0,0,12.47,36.173,9.551,9.551,0,0,1,.9,10.216L636.9,1005.75a4.015,4.015,0,0,0,.507,4.427A3.059,3.059,0,0,0,639.7,1011.248Z" transform="translate(-631.425 -888.992)" fill="#f9195a"/></g><path d="M665.1,878.305c-.3,0-.593,0-.892.01-24.62.535-44.5,23.621-44.306,51.419a54.587,54.587,0,0,0,11.636,33.752,13.623,13.623,0,0,1,1.29,14.507l-7.891,15.258,20.314-13.389a9.794,9.794,0,0,1,5.394-1.654,9.373,9.373,0,0,1,2.724.4,40.341,40.341,0,0,0,11.336,1.738l.39,0c24.524,0,44.808-22.465,45.2-50.2.4-28.558-19.987-51.85-45.193-51.852m0-7.309h0c13.957,0,27.036,6.186,36.828,17.417a62.071,62.071,0,0,1,14.838,41.86c-.444,31.646-23.624,57.391-51.671,57.391l-.446,0a46.217,46.217,0,0,1-12.959-1.987,3.594,3.594,0,0,0-1.045-.155,3.871,3.871,0,0,0-2.13.657L628.2,999.564a5.905,5.905,0,0,1-3.262,1,6.116,6.116,0,0,1-4.58-2.141,8.028,8.028,0,0,1-1.013-8.854l7.891-15.258a5.54,5.54,0,0,0-.5-5.924,62.589,62.589,0,0,1-13.3-38.593c-.219-31.8,22.505-58.172,50.656-58.784.34-.008.678-.011,1.016-.011Z" transform="translate(-613.43 -870.996)" fill="#371a45"/></g><g transform="translate(12.915 7.309)" opacity="0.5"><path d="M684.916,911.014c25.615-.557,46.49,22.947,46.084,51.842a55.4,55.4,0,0,1-6.415,25.264,54.959,54.959,0,0,0,8.789-29.282c.406-28.9-20.469-52.4-46.084-51.842-16.061.349-30.1,10.3-37.867,24.888C657.5,919.513,670.377,911.33,684.916,911.014Z" transform="translate(-649.422 -906.985)" fill="#fff"/></g><g transform="translate(6.475 22.705)" opacity="0.3"><path d="M733.309,1058.725a40.369,40.369,0,0,1-11.337-1.739,8.406,8.406,0,0,0-1.666-.25c-6.734-.5-12.755-4.587-16.861-10.632-1.012-1.489-2.165-2.821-3.3-4.245a54.586,54.586,0,0,1-11.635-33.752,55.718,55.718,0,0,1,5.82-25.317,55.735,55.735,0,0,0-1.42,69.641A13.671,13.671,0,0,1,694.358,1067l-7.937,15.346,20.314-13.389a9.657,9.657,0,0,1,8.172-1.233,40.353,40.353,0,0,0,11.283,1.723c17,.165,32.009-10.472,39.842-26.21C757.707,1052.874,746.074,1058.849,733.309,1058.725Z" transform="translate(-681.386 -982.79)" fill="#102770"/></g><g transform="translate(31.729 37.807)"><path d="M782.593,1060.624h0c4.618-5.213,12.1-4.279,16.722.934l.719.811.719-.811c4.617-5.213,12.1-6.147,16.722-.934h0a14.594,14.594,0,0,1,0,18.878l-.719.811L802.238,1096.7a2.872,2.872,0,0,1-4.409,0l-14.518-16.389-.719-.811A14.594,14.594,0,0,1,782.593,1060.624Z" transform="translate(-779.13 -1057.151)" fill="#fff"/></g><g transform="translate(35.787 46.459)" opacity="0.5"><path d="M955.538,1101.756c1.421-2.209,4.179-2.313,5.013-1.63s-.574,1.9-1.995,4.1-2.319,4.579-3.152,3.9S954.117,1103.966,955.538,1101.756Z" transform="translate(-954.621 -1099.754)" fill="#fce5e5"/></g><g transform="translate(43.03 43.056)" opacity="0.5"><g transform="translate(0)"><path d="M937.258,1083.851a1.482,1.482,0,0,1-.847,1.492,1.207,1.207,0,0,1-1.517-.454,1.308,1.308,0,0,1,.753-1.766A1.087,1.087,0,0,1,937.258,1083.851Z" transform="translate(-934.758 -1083)" fill="#fce5e5"/></g></g></g></g></svg>