<svg xmlns="http://www.w3.org/2000/svg" width="80" height="82" viewBox="0 0 115.244 113.735"><g transform="translate(1027.572 240.687) rotate(150)"><g transform="translate(705.707 596.66)"><g transform="translate(39.806 41.117)"><path d="M1855.284,1749.858c-1.451,5.926-5.548,8.307-8.53,9.585a27.677,27.677,0,0,1-15.029,1.805q-1.487-.189-3.119-.513l-7.182-6.4-.866-.771-7.456-6.649,8.449-1.141.18-.025a13.828,13.828,0,0,0,3.7,2.286c.371.167.77.333,1.2.493a25.81,25.81,0,0,0,9.915,1.5c9.851-.305,16.8-9.48,16.8-9.48S1857.312,1741.569,1855.284,1749.858Z" transform="translate(-1813.102 -1740.542)" fill="#fff"/></g><g transform="translate(39.806 46.987)" opacity="0.35"><path d="M1854.956,1908.419a13.585,13.585,0,0,1-8.2,8.435,27.666,27.666,0,0,1-15.029,1.8q-1.487-.188-3.119-.513l-7.182-6.4-8.322-7.421,3.7-.5,4.1,3.654,3.327,3.512c2.048-1.358,9.471,7.086,22.275,3.931A12.674,12.674,0,0,0,1854.956,1908.419Z" transform="translate(-1813.102 -1903.823)" fill="#371a45"/></g><g transform="translate(47.788 40.384)"><path d="M2050.336,1742.521a39.375,39.375,0,0,1-7.774-.828.646.646,0,0,1,.255-1.266c9.055,1.822,14.477.158,17.766-1.252,2.838-1.216,6.772-3.488,8.157-9.144,1.458-5.957-.336-7.84-1.136-8.36-1.519,1.843-8.014,9.044-16.96,9.323-10.221.317-15.078-4.265-15.28-4.46a.646.646,0,0,1,.9-.929c.056.053,4.719,4.4,14.342,4.1,9.432-.293,16.231-9.135,16.3-9.225l.26-.343.417.108c.188.049,4.57,1.289,2.415,10.1-1.522,6.219-5.81,8.7-8.9,10.025A26.258,26.258,0,0,1,2050.336,1742.521Z" transform="translate(-2035.169 -1720.134)" fill="#371a45"/></g><g transform="translate(64.757 49.832)"><path d="M2511.9,1995.061a.534.534,0,0,1-.215-.046c-5.777-2.526-4.307-11.218-4.242-11.586a.539.539,0,0,1,1.062.188c-.014.082-1.386,8.225,3.611,10.411a.539.539,0,0,1-.216,1.033Z" transform="translate(-2507.233 -1982.983)" fill="#371a45"/></g><g transform="translate(69.633 37.554)"><path d="M2646.536,1641.825l-3.625,11.538a.591.591,0,0,0,.373.736l5.746,1.956a.591.591,0,0,0,.754-.385l3.818-12.366a.591.591,0,0,0-.455-.755l-5.938-1.128A.591.591,0,0,0,2646.536,1641.825Z" transform="translate(-2642.884 -1641.411)" fill="#1698f9"/></g><g transform="translate(73.075 37.555)" opacity="0.7"><path d="M2745.936,1643.318l-3.818,12.365a.6.6,0,0,1-.176.271l3.613-11.706a.59.59,0,0,0-.454-.754l-5.938-1.129a.59.59,0,0,0-.5.141l.21-.669a.589.589,0,0,1,.673-.4l5.939,1.127A.592.592,0,0,1,2745.936,1643.318Z" transform="translate(-2738.658 -1641.424)" fill="#fff"/></g><g transform="translate(71.541 39.452)"><path d="M2702.851,1695.606l-2.751,8.688a.636.636,0,0,1-.811.413l-2.884-.961a.638.638,0,0,1-.406-.8l2.664-8.3a.639.639,0,0,1,.729-.432l.814.158a.2.2,0,0,1,.156.228h0a.475.475,0,0,0,.379.552h0a.474.474,0,0,0,.543-.329l.019-.061a.2.2,0,0,1,.226-.136l.833.161A.639.639,0,0,1,2702.851,1695.606Z" transform="translate(-2695.968 -1694.202)" fill="#fff"/></g><g transform="translate(68.986 36.908)"><path d="M2631.867,1639.411a1.242,1.242,0,0,1-.4-.067l-5.746-1.956a1.232,1.232,0,0,1-.782-1.542l3.625-11.537a1.238,1.238,0,0,1,1.411-.845l5.938,1.128a1.237,1.237,0,0,1,.951,1.58l-3.817,12.365a1.24,1.24,0,0,1-1.181.873Zm-5.679-3.228,5.642,1.92,3.783-12.253-5.83-1.107Zm3.61-11.487h0Z" transform="translate(-2624.882 -1623.442)" fill="#371a45"/></g><g transform="translate(76.235 40.839)"><path d="M2831.459,1734.7c.135-.221.418-.456.3-.614-.982-1.348-2.917-2.029-3.515-.056-.265.874.123,1.312,0,1.565a2.186,2.186,0,0,0-.692,1.256c-.067.536.132.848-.03,1.282a4.951,4.951,0,0,0-.722,4.319c.264.687.733.978.633,1.685Z" transform="translate(-2826.551 -1732.793)" fill="#fff"/></g><g transform="translate(75.588 40.193)"><path d="M2810.08,1727.461a.683.683,0,0,1-.091-.006.646.646,0,0,1-.549-.73c.031-.216-.033-.334-.223-.642a4.282,4.282,0,0,1-.375-.721,5.5,5.5,0,0,1,.739-4.838,1.144,1.144,0,0,0-.012-.32,2.975,2.975,0,0,1-.011-.755,3.694,3.694,0,0,0,.715-2.929,2.088,2.088,0,0,1,1.842-1.684,3.61,3.61,0,0,1,3.172,2.138.646.646,0,1,1-1.158.572,2.4,2.4,0,0,0-1.909-1.422c-.121.01-.49.04-.711.772a1.443,1.443,0,0,0-.007.846,1.157,1.157,0,0,1-.031.815l-.059.122-.1.088a1.542,1.542,0,0,0-.468.842,1.8,1.8,0,0,0,.013.452,1.963,1.963,0,0,1-.079.977l-.032.086-.055.073a4.336,4.336,0,0,0-.638,3.7,3.058,3.058,0,0,0,.27.507,2.093,2.093,0,0,1,.4,1.5A.646.646,0,0,1,2810.08,1727.461Z" transform="translate(-2808.546 -1714.829)" fill="#371a45"/></g><g transform="translate(70.964 40.156)"><path d="M2681.564,1713.8a1.258,1.258,0,0,1,1.273,1.691,3.228,3.228,0,0,1-2.548,2.364S2678.908,1715.018,2681.564,1713.8Z" transform="translate(-2679.931 -1713.801)" fill="#fff"/></g><g transform="translate(70.426 39.617)"><path d="M2665.535,1703.979l-.172-.353a4.251,4.251,0,0,1-.228-2.972,3.16,3.16,0,0,1,1.762-1.809l.108-.049h.118a2.084,2.084,0,0,1,1.552.7,1.844,1.844,0,0,1,.243,1.663,3.747,3.747,0,0,1-2.994,2.764Zm1.691-4.095a2.038,2.038,0,0,0-1.076,1.134,2.862,2.862,0,0,0,.033,1.726,2.616,2.616,0,0,0,1.691-1.851.86.86,0,0,0-.049-.733A.942.942,0,0,0,2667.227,1699.884Z" transform="translate(-2664.951 -1698.796)" fill="#371a45"/></g><g transform="translate(52.512 39.706)"><path d="M2177.636,1723.337c-.136,0-.27-.006-.4-.017a3.557,3.557,0,0,1-3.412-3.377c-.236-2.486-.609-2.671-1.609-3.165a9.3,9.3,0,0,1-2.878-2.094c-4.711-4.875-1.984-12.769-1.866-13.1a.449.449,0,0,1,.847.3c-.027.076-2.655,7.706,1.666,12.177a8.4,8.4,0,0,0,2.631,1.913c1.231.609,1.834,1.029,2.1,3.886a2.672,2.672,0,0,0,2.589,2.566c2.56.207,7.084-2.234,9.056-9.8a.449.449,0,1,1,.87.227C2185.412,1719.828,2181.11,1723.337,2177.636,1723.337Z" transform="translate(-2166.577 -1701.283)" fill="#371a45"/></g><g transform="translate(13.72 0.764)"><path d="M1108.428,618.2a20.356,20.356,0,0,1,10.66,5.036c5.669,5.355,8.476,15.186,8.476,15.186l-6.152.22s-2.206-10.562-10.695-14.151c-5.011-2.119-13.854-2.366-23.318,6.265a34.37,34.37,0,0,1,3.889-8.546c1.564-2.548,2.919-2.4,7.285-3.538A24.23,24.23,0,0,1,1108.428,618.2Z" transform="translate(-1087.399 -617.908)" fill="#1698f9"/></g><g transform="translate(13.72 2.202)"><g opacity="0.35"><path d="M1126.572,677.023c-1-2.908-3.667-9.668-8.024-13.784a20.358,20.358,0,0,0-10.66-5.036,24.234,24.234,0,0,0-9.854.472c-4.366,1.135-5.722.989-7.286,3.538a39.206,39.206,0,0,0-2.949,5.826c-.281.813-.4,1.282-.4,1.282,9.465-8.631,18.307-8.384,23.318-6.265,8.488,3.589,10.695,14.151,10.695,14.151l6.134-.219Z" transform="translate(-1087.399 -657.908)" fill="#371a45"/></g></g><g transform="translate(13.074 0.114)"><path d="M1104.089,621.871a.645.645,0,0,1-.632-.514c-.022-.1-2.245-10.276-10.314-13.688-2.547-1.077-11.705-3.816-22.632,6.147a.646.646,0,0,1-1.061-.636,34.714,34.714,0,0,1,3.964-8.725c1.428-2.327,2.834-2.66,5.636-3.325.6-.141,1.272-.3,2.037-.5a24.77,24.77,0,0,1,10.116-.486,20.842,20.842,0,0,1,11,5.205c5.732,5.415,8.537,15.07,8.653,15.478a.646.646,0,0,1-.6.823l-6.152.22Zm-17.151-16.665a17.46,17.46,0,0,1,6.708,1.274c7.692,3.252,10.368,11.831,10.948,14.081l4.776-.17c-.8-2.42-3.5-9.8-8.049-14.1a19.876,19.876,0,0,0-10.286-4.863l-.058-.009a23.824,23.824,0,0,0-9.564.464c-.778.2-1.462.364-2.064.507-2.757.654-3.686.874-4.833,2.743a38.248,38.248,0,0,0-3.079,6.189C1077.429,606.487,1082.862,605.206,1086.938,605.206Z" transform="translate(-1069.431 -599.839)" fill="#371a45"/></g><g transform="translate(10.8 52.148)"><g transform="translate(0.648 0.648)"><path d="M1024.713,2073.439c-2,4.6,1.887,18.87,6.919,25.831s18.467.052,25.833-4.458-2.314-21.459-5-25.948C1048.274,2061.856,1027.677,2066.622,1024.713,2073.439Z" transform="translate(-1024.177 -2065.416)" fill="#fff"/></g><g transform="translate(6.196 0.648)" opacity="0.35"><path d="M1206.268,2094.814c-7.365,4.511-20.8,11.419-25.833,4.458a28.172,28.172,0,0,1-1.905-3.073,3.881,3.881,0,0,0,4.276-4.832c-4.848-13.519-2.954-20.843-1.658-23.718,7.288-2.9,17.336-3.446,20.123,1.218C1203.954,2073.355,1213.633,2090.3,1206.268,2094.814Z" transform="translate(-1178.529 -2065.418)" fill="#371a45"/></g><path d="M1020.808,2085.523a8.187,8.187,0,0,1-7.075-3.242,45.667,45.667,0,0,1-6.2-14.011c-1.51-5.6-1.8-10.141-.791-12.456,1.993-4.582,10.784-7.9,17.786-8.356,5.524-.355,9.471.961,11.114,3.708a73.453,73.453,0,0,1,6.325,13.088c2.4,7.02,1.883,11.644-1.543,13.742C1034.156,2081.835,1026.62,2085.523,1020.808,2085.523Zm-12.878-29.194c-1.875,4.31,1.967,18.438,6.85,25.2,4.647,6.43,17.64-.142,24.971-4.631,2.841-1.74,3.176-5.851,1-12.222a72.195,72.195,0,0,0-6.211-12.843c-1.362-2.277-4.979-3.4-9.922-3.082-7.465.482-15.106,3.954-16.684,7.582Z" transform="translate(-1006.154 -2047.401)" fill="#371a45"/><g transform="translate(3.583 20.689)"><path d="M1111.257,2622.974l-4.085.567a1.549,1.549,0,0,0-1.285,1.936c.836,3.1,2.941,9.3,6.308,8.9,4.08-.485,3.087-4.945.7-10.489A1.548,1.548,0,0,0,1111.257,2622.974Z" transform="translate(-1105.833 -2622.959)" fill="#fff"/></g><g transform="translate(5.864 20.69)" opacity="0.35"><path d="M1174.053,2623.912c2.4,5.538,3.407,10-.672,10.49-1.675.2-3.042-1.231-4.094-3.106a2.768,2.768,0,0,0,1.889.486c3.652-.443,3.23-4.064,1.374-8.793A1.532,1.532,0,0,1,1174.053,2623.912Z" transform="translate(-1169.286 -2622.986)" fill="#371a45"/></g><g transform="translate(3.037 20.148)"><path d="M1097.238,2620.443c-3.464,0-5.568-5.775-6.529-9.3a2.088,2.088,0,0,1,1.725-2.615l4.084-.577a2.094,2.094,0,0,1,2.207,1.232c2.135,4.923,2.643,7.892,1.648,9.627a3.426,3.426,0,0,1-2.751,1.613A3.111,3.111,0,0,1,1097.238,2620.443Zm-.569-11.428-4.083.577a1.012,1.012,0,0,0-.7.446.994.994,0,0,0-.131.818c.553,2.031,2.552,8.508,5.5,8.509a2.128,2.128,0,0,0,.245-.015,2.384,2.384,0,0,0,1.945-1.078c1.049-1.829-.469-5.82-1.7-8.662a1.011,1.011,0,0,0-1.067-.594Z" transform="translate(-1090.635 -2607.927)" fill="#371a45"/></g><g transform="translate(0.232 8.82)"><path d="M1013.141,2293.474c.5-.09.981-.166,1.472-.241s.981-.139,1.472-.2c.983-.118,1.971-.212,2.967-.247a.323.323,0,0,1,.06.643h0c-.956.141-1.908.337-2.853.559q-.709.168-1.414.353c-.469.124-.941.254-1.4.388h0a.647.647,0,1,1-.367-1.24A.708.708,0,0,1,1013.141,2293.474Z" transform="translate(-1012.609 -2292.786)" fill="#371a45"/></g></g><g transform="translate(65.998 78.693)"><path d="M2541.766,2785.882" transform="translate(-2541.766 -2785.882)" fill="none" stroke="#371a45" stroke-linecap="round" stroke-miterlimit="10" stroke-width="26.951"/></g><g transform="translate(69.784 64.145)"><path d="M2647.093,2381.162" transform="translate(-2647.093 -2381.162)" fill="none" stroke="#371a45" stroke-linecap="round" stroke-miterlimit="10" stroke-width="26.951"/></g><g transform="translate(43.855 44.178)"><path d="M1928.868,1831.128l-3.113-5.443A44.684,44.684,0,0,0,1928.868,1831.128Z" transform="translate(-1925.755 -1825.685)" fill="#fff"/></g><g transform="translate(23.671 43.636)"><path d="M1416.718,1850.026a52.691,52.691,0,0,0-9.137-2.916c-3.056-.629-6.192-.83-8.2.231,0,0-14.669,14.312-28.611-5.026-4.423-6.134-6.308-11.083-6.514-15.079a13.706,13.706,0,0,1,.011-1.628,11.925,11.925,0,0,1,.212-1.6,11.441,11.441,0,0,1,1.5-3.811,13.134,13.134,0,0,1,1.881-2.351c6.607-6.591,19.926-7.231,19.926-7.231q.494,1.407,1.03,2.708c.675,1.647,1.39,3.166,2.128,4.567.213.4.426.8.643,1.178a42.169,42.169,0,0,0,7.4,9.735,23.466,23.466,0,0,0,3.932,3.169c11.209-4.734,15.679,4.572,15.679,4.572s7.168-7.272,8.823.5C1428.655,1842.788,1421.959,1852,1416.718,1850.026Z" transform="translate(-1364.238 -1810.616)" fill="#fff"/></g><g transform="translate(23.671 55.878)" opacity="0.35"><path d="M1416.71,2178.359s-12.268-5.365-17.336-2.685c0,0-14.669,14.312-28.611-5.027-4.423-6.134-6.309-11.083-6.513-15.079a12.892,12.892,0,0,1,.222-3.228,11.744,11.744,0,0,1,.291-1.15c-.006.325,0,.656.016.993.205,4,2.091,8.945,6.513,15.079,13.942,19.339,27.625,3.07,27.625,3.07,8.575-4.8,13.733,4.3,17.877,5.289s9.2-4.049,10.772-9.01C1427.727,2172.343,1421.587,2180.194,1416.71,2178.359Z" transform="translate(-1364.229 -2151.191)" fill="#371a45"/></g><g transform="translate(51.523 53.102)"><path d="M2139.467,2074.021c.47.488.88,1.007,1.3,1.52.433.5.815,1.033,1.235,1.537.207.254.406.514.607.771s.419.5.623.757c.408.511.845,1,1.264,1.5a36.376,36.376,0,0,0,2.718,2.81c.241.219.48.44.729.647l.373.315.381.3c.253.2.513.393.773.582.131.092.261.187.393.273s.27.179.384.248l-.576-.037a17.54,17.54,0,0,1,4.512-1.269,11.988,11.988,0,0,1,4.741.267,11.106,11.106,0,0,1,4.228,2.2,12.37,12.37,0,0,1,1.684,1.685c.255.3.491.624.717.953q.17.246.325.5c.052.085.1.174.154.262s.1.174.152.286l-1.042-.174c.4-.392.785-.728,1.2-1.066a15.369,15.369,0,0,1,1.3-.936,10.009,10.009,0,0,1,1.438-.776,5.989,5.989,0,0,1,1.647-.469,3.538,3.538,0,0,1,1.834.233,3.422,3.422,0,0,1,1.425,1.186l.132.182.109.189c.069.127.152.253.208.382a6.723,6.723,0,0,1,.315.783l.131.394.1.4c.031.134.072.26.093.4l.07.415a9.587,9.587,0,0,1-.168,3.27,14.509,14.509,0,0,1-1.047,3.026,15.971,15.971,0,0,1-1.63,2.735,14.8,14.8,0,0,1-2.157,2.364,11.2,11.2,0,0,1-1.306.971c-.225.153-.472.279-.713.412-.121.065-.252.118-.377.178a4.129,4.129,0,0,1-.386.161l-.4.143-.412.11a3.15,3.15,0,0,1-.42.085,4.067,4.067,0,0,1-.428.058,5.1,5.1,0,0,1-1.743-.142l-.433-.135-.055-.018-.055-.023-.085-.036-.173-.073-.7-.284q-.7-.28-1.415-.539c-.949-.345-1.906-.669-2.87-.963s-1.936-.559-2.914-.784a22.921,22.921,0,0,0-2.951-.509c-.988-.092-1.968-.143-2.933-.141a16.248,16.248,0,0,0-2.893.261l-.02,0a.22.22,0,0,1-.181-.384,3.667,3.667,0,0,1,.671-.483c.121-.065.243-.135.368-.195l.383-.152a6.421,6.421,0,0,1,.788-.232c.133-.025.266-.05.4-.071a4,4,0,0,1,.4-.054,12.432,12.432,0,0,1,3.179.115q1.558.235,3.075.581c1.012.234,2.012.505,3,.807s1.968.632,2.938.986q.727.267,1.448.552l.72.292.181.076.091.039.032.014.037.011.3.091a3.826,3.826,0,0,0,1.292.1,2.747,2.747,0,0,0,.33-.046,2.027,2.027,0,0,0,.33-.067l.328-.086.323-.118a2.806,2.806,0,0,0,.32-.134c.1-.05.213-.092.316-.148.2-.115.415-.219.612-.354a9.95,9.95,0,0,0,1.149-.856,13.566,13.566,0,0,0,1.963-2.153,14.753,14.753,0,0,0,1.5-2.519,13.3,13.3,0,0,0,.953-2.75,8.315,8.315,0,0,0,.151-2.817l-.056-.34c-.017-.113-.055-.23-.081-.345l-.086-.347-.11-.333a5.653,5.653,0,0,0-.255-.637c-.045-.1-.107-.192-.159-.29l-.08-.143-.095-.127a2.128,2.128,0,0,0-.89-.757,2.257,2.257,0,0,0-1.169-.137,6.452,6.452,0,0,0-2.541,1.052,13.849,13.849,0,0,0-1.185.855c-.378.306-.761.64-1.091.965l-.637.629-.405-.8c-.064-.126-.157-.294-.247-.44s-.187-.3-.288-.446c-.2-.294-.414-.582-.644-.855a11.087,11.087,0,0,0-1.511-1.513,9.816,9.816,0,0,0-3.741-1.948,10.714,10.714,0,0,0-4.238-.234,16.313,16.313,0,0,0-4.178,1.177l-.3.128-.273-.165c-.17-.1-.307-.192-.453-.292s-.283-.2-.425-.3c-.278-.2-.554-.4-.819-.616l-.4-.318-.391-.327c-.264-.214-.516-.441-.77-.665a39.708,39.708,0,0,1-2.883-2.859c-.439-.513-.891-1.018-1.294-1.56-.206-.268-.416-.532-.611-.808s-.389-.552-.578-.831-.374-.562-.539-.856-.341-.582-.5-.879a16.968,16.968,0,0,1-.833-1.848.218.218,0,0,1,.127-.282.221.221,0,0,1,.235.053Z" transform="translate(-2139.083 -2073.947)" fill="#371a45"/></g><g transform="translate(61.152 92.624)"><path d="M2406.958,3173.453" transform="translate(-2406.958 -3173.453)" fill="#fff"/></g><g transform="translate(33.24 61.239)"><path d="M1630.433,2300.323" transform="translate(-1630.433 -2300.323)" fill="#32b1d1"/></g><g transform="translate(20.618 48.064)"><path d="M1334.584,1978.918c-.728,3.946-5.374,7.257-10.263,6.064a12.531,12.531,0,0,1-6.928-4.784c-1.658-2.2-2.958-4.537-5.33-5.246-2.7-.807-6.287,4.529-15.544,1.449-2.887-.959-6.53-3.515-9.722-7.738a32.736,32.736,0,0,1-2.906-4.607,40.662,40.662,0,0,1-4.17-13.582,52.039,52.039,0,0,1-.427-7.468q.022-1.845.171-3.795.2-2.617.646-5.428l2.969,3.848,1.009,1.306.727.94,4.544,5.886,6.944,9,8.107,10.5.562.728a15.592,15.592,0,0,1,1.632-2.073,14.759,14.759,0,0,1,6.723-4.143c.055-.017.108-.031.163-.046a10.907,10.907,0,0,1,3.783-.392c3.656.323,7.09,3.472,8.411,6.514a6.2,6.2,0,0,1,.573,2.476c-.009,1.386.005,2.909.005,2.909C1327.335,1971.529,1335.415,1974.412,1334.584,1978.918Z" transform="translate(-1279.289 -1933.784)" fill="#fff"/></g><g transform="translate(20.617 48.064)" opacity="0.35"><path d="M1334.559,1978.918c-.728,3.946-5.373,7.257-10.263,6.064a12.534,12.534,0,0,1-6.928-4.784c-1.658-2.2-2.958-4.537-5.33-5.246-2.7-.807-6.287,4.529-15.544,1.449-2.887-.959-6.529-3.515-9.722-7.738q-.216-.286-.43-.583c-.111-.155-.222-.312-.332-.472-.063-.091-.126-.18-.189-.273-.2-.3-.4-.608-.6-.924-.049-.077-.1-.156-.146-.235s-.111-.18-.165-.268-.12-.2-.177-.3q-.269-.453-.526-.925c-.115-.207-.226-.417-.338-.628-3.688-7.046-5.892-17.079-3.78-30.272l.274.355c-1.221,13.629,2.335,23.486,6.936,29.8,4.549-.835,8.669-4.031,9.822-4.99l-.731-1.187a3.065,3.065,0,0,1,.51-3.825,2.94,2.94,0,0,1,.486-.371l12.057-7.43a3.056,3.056,0,0,1,4.2,1l.757,1.229a2.3,2.3,0,0,1,.249-.153,2.679,2.679,0,0,1,2.559,4.708l.391.633a3.06,3.06,0,0,1-1,4.2l-3.292,2.028-6.723,4.143-2.042,1.259c-.05.031-.1.059-.152.085a3.056,3.056,0,0,1-4.045-1.082l-.594-.964a33.591,33.591,0,0,1-9.037,4.636,18.617,18.617,0,0,0,6.638,4.269c9.257,3.081,12.839-2.255,15.543-1.448,2.373.708,3.673,3.043,5.331,5.246a12.54,12.54,0,0,0,6.928,4.784,8.7,8.7,0,0,0,9.265-3.614A3.515,3.515,0,0,1,1334.559,1978.918Z" transform="translate(-1279.264 -1933.784)" fill="#371a45"/></g><g transform="translate(19.94 47.88)"><path d="M1286.622,1960.94a13.29,13.29,0,0,1,5.6-5.638c.3-.167.608-.3.914-.453.313-.131.625-.271.948-.38a13.082,13.082,0,0,1,1.968-.558,11.733,11.733,0,0,1,2.057-.229,9.465,9.465,0,0,1,1.048.037c.176.023.354.042.529.07s.35.06.521.1a10.6,10.6,0,0,1,3.75,1.755,13.278,13.278,0,0,1,2.9,2.88,9.659,9.659,0,0,1,1.761,3.76,6.038,6.038,0,0,1,.109,1.093l0,.974,0,1.943-.475-.616c.306.088.568.181.842.28s.536.2.8.311q.793.327,1.563.709a17.009,17.009,0,0,1,2.946,1.824,9.835,9.835,0,0,1,1.3,1.221,6.134,6.134,0,0,1,1.016,1.556,4.323,4.323,0,0,1,.378,1.9,6.007,6.007,0,0,1-.4,1.827,8.31,8.31,0,0,1-2,2.984,9.446,9.446,0,0,1-2.984,1.945,9.28,9.28,0,0,1-5.279.533l-.438-.094-.427-.116-.213-.058-.209-.07-.419-.142a12.931,12.931,0,0,1-1.6-.732,13.517,13.517,0,0,1-1.478-.95,14.545,14.545,0,0,1-2.517-2.411c-.74-.906-1.348-1.831-2.007-2.7a9.732,9.732,0,0,0-2.161-2.242,3.073,3.073,0,0,0-.312-.2,3.147,3.147,0,0,0-.323-.171,3.531,3.531,0,0,0-.333-.144l-.171-.059a1.11,1.11,0,0,0-.162-.052,2.333,2.333,0,0,0-1.279.119c-.479.154-.977.372-1.485.594s-1.029.45-1.564.657a15.635,15.635,0,0,1-3.348.917,14.206,14.206,0,0,1-1.741.156c-.29,0-.582.012-.872,0l-.436-.016-.433-.036a18.235,18.235,0,0,1-3.4-.639c-.276-.077-.547-.167-.822-.251s-.55-.2-.824-.3-.534-.233-.8-.349-.516-.263-.775-.394a22.953,22.953,0,0,1-5.408-4.2l-.587-.62c-.194-.209-.375-.428-.563-.641-.381-.423-.722-.878-1.078-1.32-.177-.223-.337-.457-.506-.685s-.341-.455-.494-.694c-.31-.475-.64-.938-.924-1.429a36.728,36.728,0,0,1-2.984-6.094,45.321,45.321,0,0,1-2.768-13.208l-.088-1.687c-.02-.281-.013-.563-.021-.844l-.018-.844c0-.281-.017-.563-.012-.845l.019-.844.025-.844.015-.422.034-.421c.044-.561.1-1.121.151-1.681.021-.28.077-.557.115-.836s.082-.556.132-.833.091-.554.147-.83.122-.55.192-.823c.134-.547.283-1.09.458-1.627a.218.218,0,0,1,.425.063v0c.037,2.251-.167,4.438-.247,6.639-.04.549-.036,1.1-.063,1.648l-.033.824c-.013.275-.006.55-.01.824,0,.55-.015,1.1,0,1.649l.067,1.647a44.025,44.025,0,0,0,2.686,12.829,35.444,35.444,0,0,0,2.879,5.879c.273.473.591.916.888,1.374.146.23.317.443.474.666s.316.444.486.657c.342.423.668.86,1.033,1.264.18.2.353.414.538.613l.56.592a21.678,21.678,0,0,0,5.094,3.962c.238.12.472.25.713.362s.483.221.729.317.487.189.745.268.515.164.774.237a16.947,16.947,0,0,0,3.156.595,13.121,13.121,0,0,0,3.174-.091,14.32,14.32,0,0,0,3.077-.844c.5-.194,1-.412,1.513-.636s1.033-.454,1.614-.641a4.771,4.771,0,0,1,.94-.207,2.834,2.834,0,0,1,1.063.072,5.779,5.779,0,0,1,1.7.806,10.945,10.945,0,0,1,2.463,2.531c.682.9,1.3,1.839,1.972,2.657a11.978,11.978,0,0,0,5.049,3.7l.372.126.186.063.189.052.378.1.378.082a7.994,7.994,0,0,0,4.544-.46,8.167,8.167,0,0,0,2.576-1.677,7.018,7.018,0,0,0,1.691-2.514,4.786,4.786,0,0,0,.321-1.416,3.023,3.023,0,0,0-.27-1.339,6.376,6.376,0,0,0-1.935-2.283,15.794,15.794,0,0,0-2.721-1.682c-.483-.241-.977-.464-1.477-.67-.25-.1-.5-.2-.755-.293s-.513-.182-.741-.248l-.474-.136v-.48l0-1.957,0-.976a4.785,4.785,0,0,0-.085-.844,8.413,8.413,0,0,0-1.534-3.24,11.512,11.512,0,0,0-2.624-2.578,8.212,8.212,0,0,0-6.87-1.441,14.232,14.232,0,0,0-1.785.487c-.3.093-.579.218-.87.325-.282.128-.571.243-.846.387a18.406,18.406,0,0,0-5.845,4.706h0a.217.217,0,0,1-.359-.238Z" transform="translate(-1260.44 -1928.667)" fill="#371a45"/></g><g transform="translate(52.262 74.059)"><path d="M2161.663,2673.019a.485.485,0,0,1-.4-.211c-2.751-4.028-1.7-9.028.568-12.2,2.042-2.858,4.992-4.168,7.7-3.42a.484.484,0,1,1-.258.934c-2.339-.646-4.825.494-6.652,3.05-2,2.8-3.03,7.465-.556,11.086a.484.484,0,0,1-.4.758Z" transform="translate(-2159.618 -2656.984)" fill="#371a45"/></g><g transform="translate(61.941 84.938)"><path d="M2435.06,2960.4c-.167.334-.339.624-.524.924s-.379.583-.584.864a11.34,11.34,0,0,1-1.365,1.57,6.8,6.8,0,0,1-1.691,1.2,4.566,4.566,0,0,1-.972.345,4.118,4.118,0,0,1-1.013.09,4,4,0,0,0,.975-.219,4.341,4.341,0,0,0,.877-.45,5.26,5.26,0,0,0,.766-.613,6.91,6.91,0,0,0,.664-.721,10.622,10.622,0,0,0,1.077-1.635q.234-.431.435-.878c.132-.293.262-.605.359-.889l0-.005a.541.541,0,0,1,1.023.35A.521.521,0,0,1,2435.06,2960.4Z" transform="translate(-2428.911 -2959.612)" fill="#371a45"/></g><g transform="translate(65.035 63.214)"><path d="M2519.5,2373.292a.484.484,0,0,1-.357-.156c-2.984-3.252-4.376-6.586-4.138-9.909a12.033,12.033,0,0,1,4.045-7.841.484.484,0,0,1,.614.75h0a11.247,11.247,0,0,0-3.693,7.171c-.214,3.043,1.093,6.129,3.887,9.173a.484.484,0,0,1-.357.812Z" transform="translate(-2514.98 -2355.277)" fill="#371a45"/></g><g transform="translate(23.282 56.949)"><g transform="translate(29.794 1.726)"><circle cx="2.679" cy="2.679" r="2.679" transform="translate(0 3.789) rotate(-45)" fill="#fff"/></g><g transform="translate(30.907 3.36)" opacity="0.35"><path d="M2218.275,2275.343a2.68,2.68,0,1,1-5.036,1.4,2.679,2.679,0,0,0,4.267-2.292A2.644,2.644,0,0,1,2218.275,2275.343Z" transform="translate(-2213.239 -2274.456)" fill="#371a45"/></g><g transform="translate(30.365 2.295)"><path d="M2201.392,2251.272a3.232,3.232,0,0,1-.932-.138,3.219,3.219,0,1,1,3.764-4.6h0a3.221,3.221,0,0,1-2.832,4.743Zm-.008-5.36a2.14,2.14,0,1,0,1.889,1.127h0A2.142,2.142,0,0,0,2201.384,2245.912Z" transform="translate(-2198.17 -2244.832)" fill="#371a45"/></g><g transform="translate(13.607 0.631)"><path d="M1752.62,2210.6l-12.059,7.431a3.059,3.059,0,0,1-4.2-1l-3.954-6.417a3.061,3.061,0,0,1,.51-3.824,3.006,3.006,0,0,1,.487-.372l12.057-7.43a3.055,3.055,0,0,1,4.2,1l3.133,5.082.823,1.334A3.06,3.06,0,0,1,1752.62,2210.6Z" transform="translate(-1731.96 -2198.54)" fill="#fff"/></g><g transform="translate(13.607 7.161)" opacity="0.35"><path d="M1752.62,2385.739l-12.059,7.431a3.059,3.059,0,0,1-4.2-1l-3.954-6.417a3.062,3.062,0,0,1,.51-3.825c.965.033,1.579.056,1.579.056,3.761,4.789,5.888,8.747,13.554,3.292a16.541,16.541,0,0,0,4.74-5.073l.823,1.334A3.06,3.06,0,0,1,1752.62,2385.739Z" transform="translate(-1731.96 -2380.208)" fill="#371a45"/></g><g transform="translate(12.976)"><path d="M1722.052,2202.191a3.68,3.68,0,0,1-3.138-1.748l-3.955-6.418a3.683,3.683,0,0,1,1.2-5.062l12.058-7.432a3.684,3.684,0,0,1,5.063,1.2l3.955,6.418a3.684,3.684,0,0,1-1.2,5.063l-12.058,7.43-.33-.535.33.535A3.653,3.653,0,0,1,1722.052,2202.191Zm8.092-19.948a2.406,2.406,0,0,0-1.266.36l-12.057,7.431a2.423,2.423,0,0,0-.791,3.331l3.956,6.418a2.424,2.424,0,0,0,3.331.791l12.058-7.431a2.424,2.424,0,0,0,.791-3.331l-3.956-6.418A2.421,2.421,0,0,0,1730.145,2182.244Z" transform="translate(-1714.413 -2180.986)" fill="#371a45"/></g><g transform="translate(13.607 6.908)"><path d="M1753.076,2378.6a2.718,2.718,0,0,1-.454.346l-12.059,7.431a3.055,3.055,0,0,1-3.3-.07,3,3,0,0,1-.892-.927l-1.757-2.85-.58-.94-1.618-2.625a3.058,3.058,0,0,1,1-4.2l2.606-1.605a3.058,3.058,0,0,0-.546,3.853l2.135,3.467,1.82,2.951a3.06,3.06,0,0,0,4.2,1Z" transform="translate(-1731.961 -2373.162)" fill="#fff"/></g><g transform="translate(15.676 12.346)" opacity="0.35"><path d="M1808.567,2524.463a2.7,2.7,0,0,1-.455.345l-12.059,7.431a3.055,3.055,0,0,1-4.195-1l-2.338-3.79a2.8,2.8,0,0,0,2.693.518,2.044,2.044,0,0,0,.881-1.626l1.82,2.952a3.061,3.061,0,0,0,4.2,1Z" transform="translate(-1789.521 -2524.463)" fill="#371a45"/></g><g transform="translate(12.977 6.372)"><path d="M1722.063,2373.084a3.726,3.726,0,0,1-.862-.1,3.653,3.653,0,0,1-2.283-1.646l-3.955-6.417a3.683,3.683,0,0,1,1.2-5.063l2.605-1.6.754,1a2.423,2.423,0,0,0-.432,3.059l3.955,6.417a2.427,2.427,0,0,0,3.33.792l9.457-5.83.759.995a3.416,3.416,0,0,1-.557.423l-12.056,7.43A3.636,3.636,0,0,1,1722.063,2373.084Zm-4.548-12.583-.69.425a2.423,2.423,0,0,0-.791,3.331l3.956,6.418a2.429,2.429,0,0,0,3.329.792l.773-.477a3.647,3.647,0,0,1-2.117-1.6l-3.955-6.417A3.672,3.672,0,0,1,1717.515,2360.5Z" transform="translate(-1714.417 -2358.251)" fill="#371a45"/></g><g transform="translate(20.046 9.135)"><path d="M1914.913,2437.091c.145.238.979,2.364.979,2.364l-1.357.825a2.6,2.6,0,0,1-2.629-4.321l1.357-.826S1914.677,2436.7,1914.913,2437.091Z" transform="translate(-1911.079 -2435.134)" fill="#22a7f0"/></g><g transform="translate(20.046 9.135)" opacity="0.35"><path d="M1914.913,2437.091c.145.238.979,2.364.979,2.364l-1.357.825a2.6,2.6,0,0,1-2.629-4.321l1.357-.826S1914.677,2436.7,1914.913,2437.091Z" transform="translate(-1911.079 -2435.134)" fill="#371a45"/></g><g transform="translate(19.565 8.513)"><path d="M1900.791,2424.3a2.542,2.542,0,0,1-.9-.171,3.383,3.383,0,0,1-1.668-1.427,2.784,2.784,0,0,1,.539-3.855l1.7-1.034.269.3c.241.267,1.457,1.623,1.7,2.029h0c.151.247.762,1.789,1.017,2.439l.149.379-1.7,1.037A2.1,2.1,0,0,1,1900.791,2424.3Zm-.513-5.242-1.012.616a1.839,1.839,0,0,0-.215,2.524,2.422,2.422,0,0,0,1.181,1.025,1.309,1.309,0,0,0,1.159-.055l1.008-.613c-.353-.89-.715-1.773-.794-1.913C1901.472,2420.428,1900.8,2419.654,1900.278,2419.062Z" transform="translate(-1897.705 -2417.817)" fill="#371a45"/></g><g transform="translate(20.539 8.106)"><ellipse cx="1.98" cy="2.529" rx="1.98" ry="2.529" transform="matrix(0.854, -0.52, 0.52, 0.854, 0, 2.058)" fill="#22a7f0"/></g><g transform="translate(21.5 9.821)" opacity="0.35"><path d="M1951.882,2456.707a2.04,2.04,0,1,0,3.382-2.059,3.056,3.056,0,0,0-.327-.446,2.064,2.064,0,0,1-.731,2.366,2.158,2.158,0,0,1-2.677-.684A3.181,3.181,0,0,0,1951.882,2456.707Z" transform="translate(-1951.528 -2454.202)" fill="#371a45"/></g><g transform="translate(21.403 8.902)"><path d="M1949.29,2432.056q.074.122.157.233a2.14,2.14,0,0,1,.65-2.623,2.231,2.231,0,0,1,2.848.9,3.2,3.2,0,0,0-.273-.57,2.04,2.04,0,1,0-3.383,2.059Z" transform="translate(-1948.839 -2428.632)" fill="#fff"/></g><g transform="translate(20.922 8.416)"><path d="M1938.542,2420.887a3.138,3.138,0,0,1-2.574-1.594,2.784,2.784,0,0,1,.539-3.855,2.254,2.254,0,0,1,2-.134,3.529,3.529,0,0,1,2.169,3.566,2.252,2.252,0,0,1-1.041,1.717A2.092,2.092,0,0,1,1938.542,2420.887Zm-.928-4.785a1.145,1.145,0,0,0-.6.163,2.145,2.145,0,0,0,2.126,3.493,1.309,1.309,0,0,0,.582-1,2.563,2.563,0,0,0-1.548-2.545A1.573,1.573,0,0,0,1937.614,2416.1Z" transform="translate(-1935.45 -2415.132)" fill="#371a45"/></g><g transform="translate(25.107 1.597)"><path d="M2057.279,2239.214a.45.45,0,0,1-.388-.223l-2.392-4.1a1.351,1.351,0,0,1-.046-1.281l.83-1.688a.455.455,0,0,0-.02-.44l-3.3-5.4a.449.449,0,0,1,.767-.468l3.3,5.4a1.346,1.346,0,0,1,.06,1.3l-.83,1.688a.452.452,0,0,0,.016.431l2.392,4.1a.449.449,0,0,1-.162.615A.445.445,0,0,1,2057.279,2239.214Z" transform="translate(-2051.895 -2225.405)" fill="#371a45"/></g><g transform="translate(0.624 13.624)"><path d="M1371.085,2565.293a3.373,3.373,0,0,0,.107,3.008,3.538,3.538,0,0,0,2.677,1.718s5.73.349,14.448-6c0,0,.756-3.874-3.058-4C1385.259,2560.016,1377.833,2566.669,1371.085,2565.293Z" transform="translate(-1370.773 -2560.016)" fill="#fff"/></g><g transform="translate(1.024 13.835)" opacity="0.35"><path d="M1381.9,2573.92h0a3.541,3.541,0,0,0,2.7,1.75s5.729.349,14.448-6c0,0,.577-2.961-1.825-3.792.005.01.01.022.014.033a2.591,2.591,0,0,1-.943,3.139c-8.059,5.494-13.28,5.176-13.28,5.176A3.175,3.175,0,0,1,1381.9,2573.92Z" transform="translate(-1381.901 -2565.879)" fill="#371a45"/></g><g transform="translate(0 13.048)"><path d="M1357.316,2555.187c-.126,0-.2,0-.225-.006a4.155,4.155,0,0,1-3.174-2.016,3.477,3.477,0,0,1-.5-1.576,2.052,2.052,0,0,1,.59-1.595,2.134,2.134,0,0,1,1.652-.626c5.152.327,10.5-3.683,12.01-4.92a2.064,2.064,0,0,1,1.691-.438,3.489,3.489,0,0,1,2.911,3.731,2.1,2.1,0,0,1-.891,1.732C1363.735,2554.868,1358.458,2555.187,1357.316,2555.187Zm-1.8-4.564a.872.872,0,0,0-.621.256.784.784,0,0,0-.23.617,2.226,2.226,0,0,0,.32,1.012,2.9,2.9,0,0,0,2.169,1.418c.062,0,5.411.223,13.492-5.481a.842.842,0,0,0,.359-.693,2.246,2.246,0,0,0-1.886-2.506.808.808,0,0,0-.662.177c-1.6,1.31-7.276,5.555-12.885,5.2h-.057Z" transform="translate(-1353.409 -2543.975)" fill="#371a45"/></g></g><g transform="translate(54.154 70.868)" opacity="0.35"><path d="M2213.433,2570.656c-.085-.182-.5-1.054-1.156-2.447C2212.931,2569.6,2213.346,2570.475,2213.433,2570.656Z" transform="translate(-2212.277 -2568.209)" fill="#371a45"/></g><g transform="translate(55.311 73.317)" opacity="0.35"><path d="M2244.469,2636.368v0s-.006-.011-.017-.033A.221.221,0,0,0,2244.469,2636.368Z" transform="translate(-2244.454 -2636.333)" fill="#371a45"/></g><g transform="translate(76.062 68.969)"><path d="M2824.147,2516.28c-.237.252-.477.533-.705.812s-.452.569-.661.866a10.759,10.759,0,0,0-.588.919,5.906,5.906,0,0,0-.458,1,6.064,6.064,0,0,1,.209-1.1c.1-.363.228-.718.363-1.07s.29-.7.45-1.041.328-.676.521-1.021a.543.543,0,1,1,.948.532A.589.589,0,0,1,2824.147,2516.28Z" transform="translate(-2821.735 -2515.363)" fill="#371a45"/></g><g transform="translate(2.493 50.808)"><path d="M800.068,2010.147l-1.347,3.349-1.342,3.334-.536,1.333-.577,1.432-1.164,2.892c-.541.55-1.032,1.085-1.477,1.607-6.231,7.282-3.559,11.617-3.559,11.617s1.965,1.857,2.157,3.186c.187,1.309-1.216,2.307-1.216,2.307s1.364,3.88-.825,5.971c-1.493,1.424-6.305,1.4-7.792,1.171-3.672-.568-6.854-8.235-7.14-10.356-1.55-11.5,7.169-19.061,14.695-23.363.783-.449,1.552-.86,2.3-1.238q.576-.293,1.128-.557c1.351-.647,2.585-1.174,3.615-1.581,1.439-.571,2.48-.914,2.89-1.044Z" transform="translate(-775.07 -2010.147)" fill="#fff"/></g><g transform="translate(7.006 79.806)" opacity="0.35"><path d="M912.041,2818.906s1.364,3.88-.825,5.971c-1.494,1.424-6.305,1.4-7.792,1.17a5.15,5.15,0,0,1-2.808-1.751c.053.013.107.022.162.03,1.487.231,8,.262,9.5-1.162a3.027,3.027,0,0,0,.985-3,1.951,1.951,0,0,1,.9-2.129c.554-.328,1.056-.741,1.113-1.186A2.988,2.988,0,0,1,912.041,2818.906Z" transform="translate(-900.616 -2816.847)" fill="#371a45"/></g><g transform="translate(14.267 62.119)" opacity="0.35"><path d="M1110.864,2325.843h0c-8.1,8.246-5.036,13.223-5.036,13.223s1.965,1.857,2.157,3.186c-.7-2.724-2.521-2.033-4.168-3.5-1.353-1.208-3.521-9.288,6.024-13.859A.749.749,0,0,1,1110.864,2325.843Z" transform="translate(-1102.605 -2324.814)" fill="#371a45"/></g><g transform="translate(19.647 79.557)" opacity="0.35"><path d="M1252.287,2809.929a.637.637,0,0,1,.018.242A1.784,1.784,0,0,0,1252.287,2809.929Z" transform="translate(-1252.287 -2809.929)" fill="#371a45"/></g><g transform="translate(1.85 50.601)"><path d="M782.878,2004.778c-2.518,1.317-5.1,2.39-7.59,3.664a42.6,42.6,0,0,0-7.131,4.374,29.533,29.533,0,0,0-5.876,5.848c-.408.554-.8,1.125-1.146,1.715a19.664,19.664,0,0,0-.971,1.814,17.891,17.891,0,0,0-1.622,5.9,18.552,18.552,0,0,0-.069,2.049,19.043,19.043,0,0,0,.151,2.049l.014.128.018.111c.01.072.029.151.045.229.034.156.075.317.121.478.091.322.2.646.312.969a24.05,24.05,0,0,0,1.728,3.75,17.674,17.674,0,0,0,1.115,1.717,10.261,10.261,0,0,0,1.322,1.492,4.423,4.423,0,0,0,1.559.968l.1.035.1.022c.07.014.132.032.209.043.154.023.32.04.487.053.335.027.677.042,1.02.049a20.494,20.494,0,0,0,2.057-.066,13.138,13.138,0,0,0,2-.305,6.258,6.258,0,0,0,.914-.293,2.561,2.561,0,0,0,.716-.428,3.228,3.228,0,0,0,.886-1.506,5.561,5.561,0,0,0,.16-1.887,8.067,8.067,0,0,0-.128-.976c-.031-.162-.066-.323-.106-.482s-.088-.326-.131-.454l-.15-.447.385-.294c.023-.018.077-.059.117-.095s.086-.076.128-.115a3.333,3.333,0,0,0,.236-.251,2.332,2.332,0,0,0,.351-.541,1.345,1.345,0,0,0,.128-.536,1.557,1.557,0,0,0-.133-.553,5.763,5.763,0,0,0-.789-1.248,12.227,12.227,0,0,0-1.049-1.158l-.072-.07-.035-.061-.046-.082-.034-.067-.063-.13c-.039-.085-.069-.168-.1-.253-.07-.168-.111-.336-.167-.5s-.078-.338-.117-.507-.05-.34-.075-.509l-.032-.255-.01-.254-.017-.509.029-.5a4.284,4.284,0,0,1,.045-.5l.078-.495a3.958,3.958,0,0,1,.1-.49c.086-.319.16-.644.257-.959l.336-.926a4.213,4.213,0,0,1,.193-.45l.2-.445.2-.446c.072-.146.155-.284.232-.427l.473-.85c.166-.277.358-.537.541-.8.091-.133.188-.262.281-.393a4.273,4.273,0,0,1,.293-.383,17.744,17.744,0,0,1,1.309-1.405,13.153,13.153,0,0,1,1.529-1.167.221.221,0,0,1,.314.289l-.007.012a13.223,13.223,0,0,1-1.013,1.585c-.094.122-.177.252-.262.38l-.26.379c-.175.25-.359.493-.539.738s-.334.5-.507.753l-.257.373c-.083.125-.182.243-.255.374l-.467.771c-.076.129-.16.255-.231.386l-.2.4a10.178,10.178,0,0,0-1.061,3.354,3.427,3.427,0,0,0-.038.431l-.027.431.015.427.007.214.027.21c.022.139.029.281.061.417s.058.273.093.406.076.265.127.385c.025.06.048.125.073.181l.039.081.018.038.011.02-.107-.13a13.347,13.347,0,0,1,1.175,1.3,6.96,6.96,0,0,1,.968,1.551,2.824,2.824,0,0,1,.233,1.052,2.633,2.633,0,0,1-.242,1.066,3.624,3.624,0,0,1-.544.847,4.6,4.6,0,0,1-.332.352c-.059.054-.117.109-.18.162s-.119.1-.206.164l.235-.74c.07.208.116.378.165.566s.087.369.123.555a9.382,9.382,0,0,1,.148,1.129,6.84,6.84,0,0,1-.206,2.327,4.523,4.523,0,0,1-1.253,2.1,3.8,3.8,0,0,1-1.092.669,7.472,7.472,0,0,1-1.107.356,14.345,14.345,0,0,1-2.2.339,21.843,21.843,0,0,1-2.188.07c-.365-.007-.731-.022-1.1-.052-.186-.015-.372-.033-.569-.062-.1-.014-.208-.041-.311-.063l-.157-.036-.15-.049a5.684,5.684,0,0,1-2.033-1.24,11.568,11.568,0,0,1-1.494-1.681,18.9,18.9,0,0,1-1.2-1.845,25.28,25.28,0,0,1-1.824-3.959c-.124-.344-.237-.694-.339-1.053-.051-.179-.1-.362-.14-.551-.02-.1-.042-.189-.057-.292l-.024-.151-.015-.136a20.313,20.313,0,0,1-.161-2.187,19.791,19.791,0,0,1,.074-2.2,19.182,19.182,0,0,1,1.738-6.33,21.055,21.055,0,0,1,1.034-1.931c.373-.627.782-1.231,1.213-1.816a30.8,30.8,0,0,1,6.131-6.106,51.049,51.049,0,0,1,7.285-4.59,38.3,38.3,0,0,1,3.929-1.745q.5-.19,1.016-.353l.513-.163.519-.145a14.607,14.607,0,0,1,2.121-.431.218.218,0,0,1,.127.41Z" transform="translate(-757.176 -2004.363)" fill="#371a45"/></g><g transform="translate(43.024 20.39)"><path d="M1912.817,1184.859c-4.808.636-9.326-3.52-10.089-9.284a12.337,12.337,0,0,1,.153-4.188c.835-3.906,3.575-6.927,7.171-7.4,4.8-.636,9.312,3.505,10.085,9.255,0,.01,0,.019,0,.029C1920.905,1179.032,1917.626,1184.221,1912.817,1184.859Z" transform="translate(-1902.618 -1163.919)" fill="#848484"/></g><g transform="translate(43.024 20.39)" opacity="0.7"><path d="M1918.423,1168.42a7.694,7.694,0,0,0-4.721-.916c-3.6.476-6.336,3.5-7.171,7.4a12.343,12.343,0,0,0-.153,4.188,12.171,12.171,0,0,0,1.716,4.845,11.1,11.1,0,0,1-5.366-8.367,12.336,12.336,0,0,1,.153-4.188c.835-3.906,3.575-6.927,7.171-7.4C1913.353,1163.546,1916.518,1165.369,1918.423,1168.42Z" transform="translate(-1902.618 -1163.919)" fill="#fff"/></g><g transform="translate(43.024 27.858)" opacity="0.35"><path d="M1912.817,1385.139c-4.808.636-9.326-3.52-10.089-9.284a12.337,12.337,0,0,1,.153-4.188h9.969s3.508,6.121,5.623,5.1c1.329-.644,1.548-2.1,1.664-3.243l0,.029C1920.905,1379.312,1917.626,1384.5,1912.817,1385.139Z" transform="translate(-1902.618 -1371.667)" fill="#371a45"/></g><g transform="translate(42.377 19.744)"><path d="M1894.505,1168.245c-4.745,0-9.007-4.22-9.76-9.91a12.24,12.24,0,0,1,1.667-8.148,8.7,8.7,0,0,1,6.213-4.168c5.153-.683,10,3.732,10.814,9.84h0a12.244,12.244,0,0,1-1.667,8.148,8.7,8.7,0,0,1-6.213,4.168A8.053,8.053,0,0,1,1894.505,1168.245Zm-.823-21a6.7,6.7,0,0,0-.888.059,7.43,7.43,0,0,0-5.291,3.577,10.955,10.955,0,0,0-1.479,7.289c.716,5.4,4.917,9.318,9.365,8.729a7.431,7.431,0,0,0,5.29-3.578,10.95,10.95,0,0,0,1.479-7.289h0C1901.491,1150.988,1897.789,1147.241,1893.682,1147.241Z" transform="translate(-1884.628 -1145.949)" fill="#371a45"/></g><g transform="translate(3.68 7.068)"><g transform="translate(4.328 0.648)"><path d="M973.7,848.253c-18.114,27.02-56.527,3.209-41.984-24.539C949.6,795.616,989.287,820.266,973.7,848.253Z" transform="translate(-928.499 -811.317)" fill="#fff"/></g><g transform="translate(4.328 0.648)"><path d="M973.7,848.253c-18.114,27.02-56.527,3.209-41.984-24.539C949.6,795.616,989.287,820.266,973.7,848.253Z" transform="translate(-928.499 -811.317)" fill="#fff"/></g><g transform="translate(13.689 36.568)" opacity="0.35"><path d="M1223.669,1815.586q-.846,1.223-1.747,2.3a28.607,28.607,0,0,1-3.121,3.224,22.993,22.993,0,0,1-16.574,5.91,24.217,24.217,0,0,1-6.421-1.221q-.283-.094-.565-.2a25.69,25.69,0,0,1-6.332-3.341c.783-.449,1.552-.861,2.3-1.239q.576-.293,1.129-.557c.134-1.745.346-3.555.646-5.429l2.969,3.848c1.438-.571,2.48-.914,2.89-1.044,6.607-6.591,19.926-7.231,19.926-7.231q.494,1.407,1.03,2.708l.179-.024A13.834,13.834,0,0,0,1223.669,1815.586Z" transform="translate(-1188.907 -1810.616)" fill="#371a45"/></g><g transform="translate(4.328 0.648)"><path d="M973.7,848.253c-18.114,27.02-56.527,3.209-41.984-24.539C949.6,795.616,989.287,820.266,973.7,848.253Z" transform="translate(-928.499 -811.317)" fill="#fff"/></g><g transform="translate(3.865 0.186)"><path d="M940.745,848.18a25.67,25.67,0,0,1-23.987-17.329c-2.059-6.334-1.321-13.166,2.133-19.756l.019-.033c4.2-6.6,9.918-10.8,16.533-12.147a24.648,24.648,0,0,1,17.531,3.174,25.155,25.155,0,0,1,11.259,13.969c2.029,6.455,1.148,13.376-2.549,20.014l-.02.032c-4.26,6.354-9.958,10.383-16.479,11.651A23.278,23.278,0,0,1,940.745,848.18ZM919.7,811.54c-7.423,14.185-.7,26.658,8.688,32.244,9.612,5.719,23.388,5.407,32.5-8.176,7.958-14.309,1.233-26.994-8.387-32.728C942.977,797.2,928.651,797.491,919.7,811.54Zm41.585,24.308h0Z" transform="translate(-915.617 -798.45)" fill="#371a45"/></g><g transform="translate(4.4 19.871)" opacity="0.35"><path d="M975.633,1363.811c-15.239,23.61-49.823,8.786-44.6-17.712,1.145,8.733,4.114,9.24,8.439,13.888,13.222,15.2,35.761,5.756,39.474-11.568A24.323,24.323,0,0,1,975.633,1363.811Z" transform="translate(-930.502 -1346.099)" fill="#371a45"/></g><g transform="translate(3.68)"><path d="M935.765,843.389A25.855,25.855,0,0,1,911.6,825.932c-2.075-6.382-1.333-13.263,2.145-19.9l.027-.047c4.228-6.643,9.987-10.872,16.653-12.229a24.833,24.833,0,0,1,17.663,3.2,25.341,25.341,0,0,1,11.342,14.074c2.045,6.5,1.158,13.476-2.564,20.159l-.028.046c-4.288,6.4-10.027,10.451-16.6,11.729A23.451,23.451,0,0,1,935.765,843.389Zm-20.887-36.732c-7.363,14.076-.694,26.449,8.623,31.991,9.535,5.673,23.2,5.361,32.251-8.114,7.892-14.2,1.22-26.784-8.323-32.471C937.978,792.43,923.765,792.72,914.878,806.656ZM956.3,830.872h0Z" transform="translate(-910.451 -793.288)" fill="#293856"/></g><g transform="translate(3.68)"><path d="M935.765,843.389A25.855,25.855,0,0,1,911.6,825.932c-2.075-6.382-1.333-13.263,2.145-19.9l.027-.047c4.228-6.643,9.987-10.872,16.653-12.229a24.833,24.833,0,0,1,17.663,3.2,25.341,25.341,0,0,1,11.342,14.074c2.045,6.5,1.158,13.476-2.564,20.159l-.028.046c-4.288,6.4-10.027,10.451-16.6,11.729A23.451,23.451,0,0,1,935.765,843.389Zm-20.887-36.732c-7.363,14.076-.694,26.449,8.623,31.991,9.535,5.673,23.2,5.361,32.251-8.114,7.892-14.2,1.22-26.784-8.323-32.471C937.978,792.43,923.765,792.72,914.878,806.656ZM956.3,830.872h0Z" transform="translate(-910.451 -793.288)" fill="#371a45"/></g><g transform="translate(11.624 6.118)"><path d="M1165.508,999.835c-24.553,14.589-45.523-14.05-26.917-30.755C1160.569,951.634,1185.382,978.643,1165.508,999.835Z" transform="translate(-1131.467 -963.483)" fill="#371a45"/></g><g transform="translate(11.422 25.536)"><path d="M1166.609,1503.707c.187,25.813-36.723,28.076-40.766,4.505C1137.713,1522.07,1159.729,1516.219,1166.609,1503.707Z" transform="translate(-1125.843 -1503.707)" fill="#21102b"/></g><g transform="translate(8.481 3.104)"><path d="M1066.582,926.009a21.9,21.9,0,0,1-9.715-2.317,23.275,23.275,0,0,1-10.964-11.387,22.6,22.6,0,0,1-.315-17.315,25.57,25.57,0,0,1,33.813-13.07l.05.024.045.032a23.26,23.26,0,0,1,9.318,15.378,25.046,25.046,0,0,1-3.194,17.115l0,0c-3.585,5.656-8.375,9.413-13.851,10.866A20.2,20.2,0,0,1,1066.582,926.009Zm2.629-45.07a24.957,24.957,0,0,0-9.014,1.712,23.375,23.375,0,0,0-13.4,12.8,21.463,21.463,0,0,0,10.648,27.079c7.559,3.747,19.187,3.7,27.083-8.751,5.544-8.9,4.557-23.35-5.734-30.724A22.161,22.161,0,0,0,1069.211,880.939Zm15.86,33.188h0Z" transform="translate(-1044.02 -879.648)" fill="#371a45"/></g><g transform="translate(10.979 5.472)"><path d="M1134.673,987.168a21.854,21.854,0,0,1-4.276-.418,21.124,21.124,0,0,1-12.924-8.224,19.931,19.931,0,0,1-3.9-13.381,20.85,20.85,0,0,1,7.277-13.872l.03-.026c5.2-4.129,10.934-6.094,16.576-5.684A19.963,19.963,0,0,1,1150.72,952a20.334,20.334,0,0,1,5.392,14.171c-.1,5.886-2.672,11.688-7.447,16.779l-.063.067-.078.047A27.179,27.179,0,0,1,1134.673,987.168Zm-12.979-34.921c-9.122,8.2-8.172,18.723-3.181,25.514,5.5,7.479,16.674,11.68,29.271,4.24,9.958-10.677,8.016-22.575,1.984-29.125C1143.7,946.29,1132.672,943.543,1121.694,952.247Zm26.5,30.262h0Z" transform="translate(-1113.507 -945.51)" fill="#371a45"/></g><g transform="translate(1.096 21.164)"><path d="M838.623,1391.038c1.588,11.359,13.107,10.724,12.684-.274C850.079,1378.8,837.766,1379.476,838.623,1391.038Z" transform="translate(-838.581 -1382.074)" fill="#fff"/></g><g transform="translate(1.181 23.621)" opacity="0.35"><path d="M848.1,1465.211c3.454-.165,5.993-4.362,5.412-9.129-2.2,4.976-7.394-3.3-7.747-5.657C836.888,1452.6,841.767,1465.651,848.1,1465.211Z" transform="translate(-840.927 -1450.425)" fill="#371a45"/></g><g transform="translate(0.45 20.519)"><path d="M828.222,1382.623c-3.136,0-6.7-2.676-7.561-8.806l0-.042c-.461-6.222,2.735-9.356,5.9-9.636,3.506-.311,7.406,2.767,8.071,9.249l0,.041c.229,5.953-2.811,8.9-5.926,9.173Q828.465,1382.623,828.222,1382.623Zm-6.279-8.965c.79,5.6,4,7.893,6.646,7.656,2.5-.223,4.94-2.726,4.751-7.816-.585-5.635-3.8-8.327-6.67-8.073C824.12,1365.651,821.555,1368.323,821.943,1373.659Z" transform="translate(-820.612 -1364.118)" fill="#371a45"/></g><g transform="translate(0.646 23.519)"><path d="M826.084,1454.811c1.3,9.2,9.934,8.874,9.593-.022C834.717,1444.979,825.331,1445.349,826.084,1454.811Z" transform="translate(-826.041 -1447.572)" fill="#fff"/></g><g transform="translate(0 22.873)"><path d="M814.122,1444.922c-2.453,0-5.273-2.231-5.991-7.332l0-.039c-.409-5.13,2.049-7.7,4.5-7.92,2.765-.244,5.843,2.35,6.375,7.784l0,.038c.186,4.852-2.142,7.239-4.532,7.453C814.36,1444.917,814.241,1444.922,814.122,1444.922Zm-4.71-7.493c.64,4.5,3.012,6.362,4.95,6.191,1.778-.159,3.5-2.106,3.357-6.1-.455-4.585-2.846-6.792-4.974-6.6C810.906,1431.08,809.081,1433.188,809.412,1437.429Z" transform="translate(-808.081 -1429.614)" fill="#371a45"/></g><g transform="translate(15.976 20.671)" opacity="0.5"><path d="M1252.622,1372.619c1.272,4.658,6.589,3.294,6.168-.917C1257.959,1366.419,1251.667,1367.925,1252.622,1372.619Z" transform="translate(-1252.524 -1368.364)" fill="#fff"/></g><g transform="translate(18.773 30.428)" opacity="0.5"><path d="M1330.413,1641.6c.589,1.753,2.926,1.2,2.462-.762C1332.285,1639.089,1329.949,1639.64,1330.413,1641.6Z" transform="translate(-1330.352 -1639.786)" fill="#fff"/></g><g transform="translate(28.949 9.57)" opacity="0.5"><path d="M1633.184,1076.748c3.133-16.871-14.368-19.349-19.742-15.844C1624.67,1061.857,1629.535,1068.877,1633.184,1076.748Z" transform="translate(-1613.442 -1059.528)" fill="#fff"/></g><g transform="translate(0.804 27.812)" opacity="0.35"><path d="M840.353,1572.033a8.238,8.238,0,0,0-.419-3.883c-1.735,6.187-7.941,3.349-9.321-1.13C829.091,1576.186,838.363,1580.624,840.353,1572.033Z" transform="translate(-830.445 -1567.02)" fill="#371a45"/></g><g transform="translate(11.855 19.777)"><path d="M1139.328,1346.685a1.939,1.939,0,0,1-1.2-.5.646.646,0,0,1,.8-1.011.939.939,0,0,0,.378.214,2.44,2.44,0,0,0,.319-1.287.646.646,0,0,1,1.292.023c-.008.458-.108,1.986-1.068,2.439A1.231,1.231,0,0,1,1139.328,1346.685Z" transform="translate(-1137.888 -1343.472)" fill="#371a45"/></g></g><g transform="translate(1.033 26.65)"><ellipse cx="8.783" cy="10.529" rx="8.783" ry="10.529" transform="matrix(0.991, -0.131, 0.131, 0.991, 0, 2.307)" fill="#848484"/></g><g transform="translate(2.305 27.739)"><path d="M780.043,1389.283c-4.808.636-9.326-3.52-10.09-9.284-.034-.254-.06-.508-.078-.759-.394-5.454,2.8-10.224,7.4-10.833,4.771-.633,9.257,3.457,10.071,9.152.008.043.013.087.019.132C788.131,1383.456,784.852,1388.645,780.043,1389.283Z" transform="translate(-769.843 -1368.343)" fill="#848484"/></g><g transform="translate(2.795 27.739)" opacity="0.7"><path d="M800.005,1375.485c-2.36-3.352-6.021-5.306-9.828-4.8a9.793,9.793,0,0,0-6.709,4.245c1.035-3.47,3.625-6.079,6.944-6.518C794.58,1367.859,798.529,1370.909,800.005,1375.485Z" transform="translate(-783.468 -1368.347)" fill="#fff"/></g><g transform="translate(2.338 36.955)" opacity="0.35"><path d="M780.922,1636.465c-4.808.636-9.326-3.52-10.09-9.284q-.051-.38-.077-.759l12.9-.547s1.035,1.774,2.361,1.774c1.31,0,1.947-1.8,2.214-2.908.008.044.013.087.019.132C789.01,1630.637,785.731,1635.827,780.922,1636.465Z" transform="translate(-770.755 -1624.741)" fill="#371a45"/></g><g transform="translate(1.659 27.093)"><path d="M761.712,1372.684a8.868,8.868,0,0,1-6.014-2.477,12.7,12.7,0,0,1-2.064-15.582,8.7,8.7,0,0,1,6.213-4.168c5.154-.683,10.005,3.732,10.815,9.84h0a12.244,12.244,0,0,1-1.667,8.148,8.7,8.7,0,0,1-6.213,4.168A8.127,8.127,0,0,1,761.712,1372.684Zm-.808-21a6.719,6.719,0,0,0-.888.059,7.431,7.431,0,0,0-5.29,3.577,11.416,11.416,0,0,0,1.847,13.941,7.152,7.152,0,0,0,11.33-1.5,10.952,10.952,0,0,0,1.478-7.289h0C768.713,1355.426,765.011,1351.679,760.9,1351.679Z" transform="translate(-751.851 -1350.388)" fill="#371a45"/></g><g transform="translate(3.932 0.976)"><path d="M845.923,623.906c-8.551-.153-15.115,2.667-18.851,8.173l0,0a18.5,18.5,0,0,0-2.081,4.116c-3.41,9.415-1.358,19.762-1.358,19.762l-7.282,3.006a36.592,36.592,0,0,1-1.163-7.247,31.462,31.462,0,0,1,1-10.635c2.8-9.717,8.519-12.678,10.544-13.765C834.806,622.986,845.923,623.906,845.923,623.906Z" transform="translate(-815.107 -623.824)" fill="#1698f9"/></g><g transform="translate(4.013 9.233)" opacity="0.35"><path d="M827.139,857.642c-3.41,9.415-1.358,19.761-1.358,19.761L818.5,880.41a36.575,36.575,0,0,1-1.162-7.246c2.732-2.106,5.869-.785,6.316-3.439,1.39-8.255,2.927-13.747,5.567-16.2A18.5,18.5,0,0,0,827.139,857.642Z" transform="translate(-817.337 -853.526)" fill="#371a45"/></g><g transform="translate(3.932 0.976)" opacity="0.7"><path d="M845.907,623.906a27.3,27.3,0,0,0-10.881,1.817,28.85,28.85,0,0,0-7.389,2.632c-2.123,1.14-8.122,4.247-11.059,14.44a34.723,34.723,0,0,0-.812,13.684,34.7,34.7,0,0,1,.407-15.4c2.8-9.717,8.519-12.678,10.543-13.765C834.79,622.986,845.907,623.906,845.907,623.906Z" transform="translate(-815.09 -623.824)" fill="#fff"/></g><g transform="translate(3.277)"><path d="M798.775,633.423a.646.646,0,0,1-.62-.463c-.112-.379-2.712-9.393-.16-18.244,2.673-9.272,8.061-12.485,10.361-13.856.171-.1.326-.195.462-.279,9.034-5.6,19.231-3.584,19.661-3.495a.646.646,0,0,1-.228,1.271c-8.328-1.262-17.4,4.063-20.23,11.871-3.305,9.129-1.351,19.315-1.331,19.417a.646.646,0,0,1-.387.722l-7.282,3.007A.643.643,0,0,1,798.775,633.423Zm19.353-34.976a24.573,24.573,0,0,0-8.628,3.231c-.142.088-.3.184-.482.29-2.169,1.294-7.25,4.323-9.781,13.1-2.053,7.121-.571,14.555-.023,16.824l6.117-2.526c-.373-2.253-1.557-11.2,1.477-19.583A20.145,20.145,0,0,1,818.128,598.448Z" transform="translate(-796.878 -596.66)" fill="#371a45"/></g><g transform="translate(0 29.327)"><path d="M713.991,1431.2c-3.982,0-7.555-3.532-8.186-8.3a10.241,10.241,0,0,1,1.4-6.816,7.094,7.094,0,0,1,11.171-1.48,10.241,10.241,0,0,1,3.122,6.217h0a10.241,10.241,0,0,1-1.4,6.816,7.305,7.305,0,0,1-5.22,3.5A6.78,6.78,0,0,1,713.991,1431.2Zm-.677-17.378a5.516,5.516,0,0,0-.724.047,6.04,6.04,0,0,0-4.3,2.909,8.949,8.949,0,0,0-1.207,5.956c.584,4.408,4,7.607,7.623,7.126a6.038,6.038,0,0,0,4.3-2.909,9.334,9.334,0,0,0-1.509-11.393A6.178,6.178,0,0,0,713.314,1413.819Z" transform="translate(-705.707 -1412.526)" fill="#371a45"/></g><g transform="translate(0 29.327)"><path d="M713.991,1431.2c-3.982,0-7.555-3.532-8.186-8.3a10.241,10.241,0,0,1,1.4-6.816,7.094,7.094,0,0,1,11.171-1.48,10.241,10.241,0,0,1,3.122,6.217h0a10.241,10.241,0,0,1-1.4,6.816,7.305,7.305,0,0,1-5.22,3.5A6.78,6.78,0,0,1,713.991,1431.2Zm-.677-17.378a5.516,5.516,0,0,0-.724.047,6.04,6.04,0,0,0-4.3,2.909,8.949,8.949,0,0,0-1.207,5.956c.584,4.408,4,7.607,7.623,7.126a6.038,6.038,0,0,0,4.3-2.909,9.334,9.334,0,0,0-1.509-11.393A6.178,6.178,0,0,0,713.314,1413.819Z" transform="translate(-705.707 -1412.526)" fill="#371a45"/></g><g transform="translate(0 29.327)"><path d="M713.991,1431.2c-3.982,0-7.555-3.532-8.186-8.3a10.241,10.241,0,0,1,1.4-6.816,7.094,7.094,0,0,1,11.171-1.48,10.241,10.241,0,0,1,3.122,6.217h0a10.241,10.241,0,0,1-1.4,6.816,7.305,7.305,0,0,1-5.22,3.5A6.78,6.78,0,0,1,713.991,1431.2Zm-.677-17.378a5.516,5.516,0,0,0-.724.047,6.04,6.04,0,0,0-4.3,2.909,8.949,8.949,0,0,0-1.207,5.956c.584,4.408,4,7.607,7.623,7.126a6.038,6.038,0,0,0,4.3-2.909,9.334,9.334,0,0,0-1.509-11.393A6.178,6.178,0,0,0,713.314,1413.819Z" transform="translate(-705.707 -1412.526)" fill="#371a45"/></g><g transform="translate(0.647 29.973)"><path d="M732.133,1447.839c-3.979.526-7.716-2.913-8.348-7.682a10.478,10.478,0,0,1-.085-1.729c.137-4.038,2.654-7.4,6.145-7.86,3.978-.526,7.713,2.913,8.348,7.679v0C738.824,1443.018,736.111,1447.311,732.133,1447.839Z" transform="translate(-723.693 -1430.514)" fill="#1698f9"/></g><g transform="translate(0.732 29.973)" opacity="0.7"><path d="M740.1,1442.637a10.27,10.27,0,0,0-.006-2.681h0c-.635-4.767-4.369-8.206-8.348-7.68a7.166,7.166,0,0,0-5.687,5.2c.467-3.6,2.855-6.481,6.066-6.906,3.978-.526,7.713,2.913,8.348,7.679v0A10.056,10.056,0,0,1,740.1,1442.637Z" transform="translate(-726.061 -1430.514)" fill="#fff"/></g><g transform="translate(0.647 37.585)" opacity="0.35"><path d="M732.133,1651.974c-3.979.526-7.716-2.913-8.348-7.682a10.478,10.478,0,0,1-.085-1.729l9.334-.3s1.917,2.483,3.434,2.105a2.552,2.552,0,0,0,1.724-1.983C738.824,1647.152,736.111,1651.445,732.133,1651.974Z" transform="translate(-723.693 -1642.26)" fill="#371a45"/></g><g transform="translate(0 29.327)"><path d="M713.991,1431.2c-3.982,0-7.555-3.532-8.186-8.3a10.241,10.241,0,0,1,1.4-6.816,7.094,7.094,0,0,1,11.171-1.48,10.241,10.241,0,0,1,3.122,6.217h0a10.241,10.241,0,0,1-1.4,6.816,7.305,7.305,0,0,1-5.22,3.5A6.78,6.78,0,0,1,713.991,1431.2Zm-.677-17.378a5.516,5.516,0,0,0-.724.047,6.04,6.04,0,0,0-4.3,2.909,8.949,8.949,0,0,0-1.207,5.956c.584,4.408,4,7.607,7.623,7.126a6.038,6.038,0,0,0,4.3-2.909,9.334,9.334,0,0,0-1.509-11.393A6.178,6.178,0,0,0,713.314,1413.819Z" transform="translate(-705.707 -1412.526)" fill="#371a45"/></g><g transform="translate(0.087 33.169)"><ellipse cx="4.758" cy="5.704" rx="4.758" ry="5.704" transform="matrix(0.991, -0.131, 0.131, 0.991, 0, 1.25)" fill="#fff"/></g><g transform="translate(0.777 33.759)" opacity="0.7"><path d="M736.742,1543.091a7.142,7.142,0,0,0-.06-.919c-.413-3.123-2.861-5.373-5.466-5.029a4.841,4.841,0,0,0-3.9,4.072c.01-2.735,1.682-5.046,4.027-5.356,2.606-.344,5.052,1.907,5.465,5.029A6.622,6.622,0,0,1,736.742,1543.091Z" transform="translate(-727.319 -1535.824)" fill="#fff"/></g><g transform="translate(0.787 36.327)" opacity="0.35"><path d="M733.1,1616.044c-2.6.345-5.052-1.907-5.466-5.03-.024-.184-.042-.368-.05-.551a4.741,4.741,0,0,0,4.611,2.532c2.451-.324,4.169-2.832,4.019-5.727a6.6,6.6,0,0,1,.852,2.5C737.486,1612.889,735.708,1615.7,733.1,1616.044Z" transform="translate(-727.588 -1607.268)" fill="#371a45"/></g><g transform="translate(0.131 33.113)"><path d="M715,1530.53c-2.718,0-5.153-2.395-5.581-5.625-.46-3.471,1.569-6.613,4.523-7a5.005,5.005,0,0,1,4.077,1.38,7.177,7.177,0,0,1,1.168,8.817,5,5,0,0,1-3.577,2.393A4.609,4.609,0,0,1,715,1530.53Zm-.445-11.378a3.411,3.411,0,0,0-.444.029c-2.248.3-3.778,2.789-3.412,5.554s2.493,4.771,4.741,4.474a3.737,3.737,0,0,0,2.654-1.8,5.638,5.638,0,0,0,.758-3.752h0a5.638,5.638,0,0,0-1.708-3.425A3.826,3.826,0,0,0,714.558,1519.152Z" transform="translate(-709.357 -1517.86)" fill="#371a45"/></g><g transform="translate(5.872 62.572)"><path d="M881.48,2344.146a.539.539,0,0,1-.513-.374c-.825-2.562-2.166-4.214-3.984-4.906-3.257-1.24-7.059.956-7.1.979a.539.539,0,0,1-.547-.929c.173-.1,4.278-2.482,8.023-1.059,2.142.813,3.7,2.693,4.632,5.585a.54.54,0,0,1-.348.679A.529.529,0,0,1,881.48,2344.146Z" transform="translate(-869.074 -2337.404)" fill="#371a45"/></g><g transform="translate(76.889 43.081)"><path d="M2845.018,1795.688a2.553,2.553,0,0,1,.865-.448,2.174,2.174,0,0,1,.947-.047,2.479,2.479,0,0,1,.834.3,1.9,1.9,0,0,1,.675.614.32.32,0,0,1-.48.414l-.051-.045a1.353,1.353,0,0,0-.483-.25,1.587,1.587,0,0,0-.568-.068,1.115,1.115,0,0,0-.488.143,1.37,1.37,0,0,0-.363.323.651.651,0,1,1-1.007-.826.638.638,0,0,1,.1-.1Z" transform="translate(-2844.753 -1795.162)" fill="#371a45"/></g><g transform="translate(76.334 45.461)"><path d="M2829.569,1861.893a1.681,1.681,0,0,1,1.028-.51,2.361,2.361,0,0,1,.952.1,3.9,3.9,0,0,1,.779.339,3.7,3.7,0,0,1,.691.5.322.322,0,0,1-.376.517l-.037-.021a3.2,3.2,0,0,0-.606-.254,2.934,2.934,0,0,0-.646-.127,1.284,1.284,0,0,0-.54.057.433.433,0,0,0-.249.223.657.657,0,1,1-1.171-.6.593.593,0,0,1,.1-.148Z" transform="translate(-2829.322 -1861.37)" fill="#371a45"/></g><g transform="translate(77.367 68.219)"><path d="M2858.8,2509.583a2.265,2.265,0,0,1-.729-1.713c-.3-4.19,4.7-14.764,8.941-13.208a7.777,7.777,0,0,1,.542,1.688C2868.633,2501.4,2863.6,2509.119,2858.8,2509.583Z" transform="translate(-2858.061 -2494.507)" fill="#848484"/></g><g transform="translate(77.367 73.618)" opacity="0.35"><path d="M2866.4,2647.7c-1.664,3.428-4.678,6.409-7.6,6.691a2.264,2.264,0,0,1-.73-1.713c-.135-1.912.83-5.152,2.325-7.964-.4,1.66-.848,5.737.962,6.25S2864.932,2648.97,2866.4,2647.7Z" transform="translate(-2858.06 -2644.717)" fill="#371a45"/></g><g transform="translate(77.68 68.219)" opacity="0.7"><path d="M2875.436,2501.351a8.359,8.359,0,0,0,.073-3.446c-.007-.032-.013-.063-.02-.094a2,2,0,0,0-2.867-1.354c-2.408,1.245-4.71,5.221-5.854,8.712,1.132-4.83,5.141-11.793,8.64-10.509a7.71,7.71,0,0,1,.542,1.688A9.46,9.46,0,0,1,2875.436,2501.351Z" transform="translate(-2866.768 -2494.504)" fill="#fff"/></g><g transform="translate(76.722 67.576)"><path d="M2841.29,2492.993l-.2-.162a2.9,2.9,0,0,1-.972-2.174c-.244-3.434,2.724-10.513,6.092-13.048a3.8,3.8,0,0,1,3.715-.812l.249.092.113.24a8.459,8.459,0,0,1,.59,1.829c.587,2.752-.461,6.393-2.735,9.5-1.941,2.65-4.341,4.295-6.587,4.512Zm7.541-15.1a3.154,3.154,0,0,0-1.848.745c-3.026,2.278-5.8,8.858-5.58,11.925a2.07,2.07,0,0,0,.318,1.077c1.78-.3,3.766-1.753,5.375-3.95,2.033-2.775,3.02-6.1,2.514-8.467a7.726,7.726,0,0,0-.383-1.288A1.909,1.909,0,0,0,2848.831,2477.9Z" transform="translate(-2840.1 -2476.606)" fill="#371a45"/></g><g transform="translate(80.659 69.669)"><path d="M2951.562,2536.934c-.667,0-1.17-.029-1.315-.039a.646.646,0,1,1,.084-1.289c1.557.1,4.337.02,5.166-.626a.646.646,0,1,1,.795,1.018C2955.273,2536.793,2953.022,2536.934,2951.562,2536.934Z" transform="translate(-2949.643 -2534.842)" fill="#371a45"/></g><g transform="translate(78.969 72.351)"><path d="M2906.245,2611.97a11.214,11.214,0,0,1-3.171-.451.646.646,0,0,1,.394-1.23h0c.039.013,3.906,1.212,6.708-.706a.645.645,0,1,1,.729,1.065A8.184,8.184,0,0,1,2906.245,2611.97Z" transform="translate(-2902.626 -2609.47)" fill="#371a45"/></g><g transform="translate(77.801 75.566)"><path d="M2873.813,2701.12a5.992,5.992,0,0,1-3.433-.859.646.646,0,0,1,.765-1.042c.047.032,2.257,1.507,6.831-.27a.646.646,0,0,1,.468,1.2A12.816,12.816,0,0,1,2873.813,2701.12Z" transform="translate(-2870.118 -2698.905)" fill="#371a45"/></g><g transform="translate(76.891 78.924)"><path d="M2848.8,2794.552a6.833,6.833,0,0,1-3.721-1.071.646.646,0,0,1,.746-1.055,5.761,5.761,0,0,0,5.334.348.646.646,0,0,1,.495,1.193A7.4,7.4,0,0,1,2848.8,2794.552Z" transform="translate(-2844.804 -2792.308)" fill="#371a45"/></g></g><g transform="translate(772.234 601.134)"><g transform="translate(1.17 1.168)"><path d="M2601.522,764.551a3.328,3.328,0,0,1-3.367,1.876,1.754,1.754,0,0,1-1.551-1.54.188.188,0,0,1,0-.026,2.232,2.232,0,0,1,.246-1.228,3.332,3.332,0,0,1,3.292-1.8c.081.012.161.028.206.035-.075-.431-.139-.87-.23-1.3q-.056-.27-.114-.54c-.215-1.023-.438-2.045-.656-3.067a1.006,1.006,0,0,0-.224-.5.416.416,0,0,0-.571-.078q-2.711,1.711-5.419,3.426a.981.981,0,0,0-.408.89,4.934,4.934,0,0,0,.2,1.079c.3,1.42.613,2.838.92,4.256.047.215.086.432.132.646.032.154.067.307.109.459a2.548,2.548,0,0,1,.077.4,2.191,2.191,0,0,1-.387,1.474,3.2,3.2,0,0,1-3.111,1.553,1.7,1.7,0,0,1-1.529-1.135,1.9,1.9,0,0,1,0-1.323,2.826,2.826,0,0,1,.135-.328,3.32,3.32,0,0,1,3.314-1.81c.109.017.106-.019.089-.1q-.41-1.862-.816-3.724-.155-.7-.306-1.4-.134-.61-.265-1.22a1.278,1.278,0,0,1,.1-.844.8.8,0,0,1,.291-.333l7.138-4.581c.452-.29.794-.145.913.388q.054.236.106.472c.053.241.106.482.158.724q.178.819.355,1.638.208.958.415,1.916.139.646.279,1.292c.21.969.413,1.941.632,2.908A2.237,2.237,0,0,1,2601.522,764.551Z" transform="translate(-2589.018 -753.616)" fill="#fdd800"/></g><g transform="translate(3.411 1.168)" opacity="0.6"><path d="M2659.946,754.624c-.5-.707-.945-.387-.945-.387s-5.922,3.823-6.9,4.5c-.418.289-.495,1.136-.447,2.009q-.133-.61-.265-1.22a1.281,1.281,0,0,1,.1-.844.8.8,0,0,1,.292-.333l7.138-4.581c.452-.29.793-.145.913.388C2659.876,754.309,2659.911,754.466,2659.946,754.624Z" transform="translate(-2651.364 -753.616)" fill="#fff"/></g><g transform="translate(0 0)"><path d="M2567.869,722.286c.241,0,.417.183.5.535q.135.6.264,1.2.525,2.423,1.049,4.847c.21.969.413,1.94.631,2.908a2.228,2.228,0,0,1-.156,1.449,3.384,3.384,0,0,1-2.95,1.91,2.519,2.519,0,0,1-.416-.034,1.755,1.755,0,0,1-1.555-1.566,2.224,2.224,0,0,1,.246-1.228,3.382,3.382,0,0,1,2.916-1.83,2.6,2.6,0,0,1,.376.027c.081.012.16.028.206.036-.075-.431-.139-.87-.23-1.3-.251-1.2-.514-2.4-.769-3.607a1,1,0,0,0-.223-.5.438.438,0,0,0-.322-.157.466.466,0,0,0-.249.079q-2.711,1.711-5.419,3.426a.98.98,0,0,0-.408.889,4.95,4.95,0,0,0,.2,1.079c.3,1.42.613,2.838.921,4.256.079.369.139.742.24,1.105a2.191,2.191,0,0,1-.31,1.879,3.207,3.207,0,0,1-2.752,1.57c-.117,0-.237-.006-.358-.017a1.7,1.7,0,0,1-1.529-1.135,2.035,2.035,0,0,1,.138-1.65,3.379,3.379,0,0,1,2.91-1.841,2.612,2.612,0,0,1,.4.031.317.317,0,0,0,.044,0c.063,0,.059-.037.044-.106q-.409-1.861-.817-3.724-.286-1.31-.571-2.619a1.271,1.271,0,0,1,.1-.844.8.8,0,0,1,.291-.334l7.138-4.581a.794.794,0,0,1,.418-.147m0-1.168a1.932,1.932,0,0,0-1.049.332l-3.137,2.014-4,2.568a1.954,1.954,0,0,0-.712.809,2.452,2.452,0,0,0-.194,1.6q.243,1.127.491,2.254l.08.368q.272,1.242.545,2.484a4.582,4.582,0,0,0-3.042,2.395,3.168,3.168,0,0,0-.179,2.569,2.871,2.871,0,0,0,2.513,1.887c.158.015.315.022.468.022a4.364,4.364,0,0,0,3.722-2.086,3.355,3.355,0,0,0,.466-2.842c-.055-.2-.1-.422-.146-.656-.026-.129-.051-.258-.079-.386q-.137-.634-.276-1.269c-.213-.978-.433-1.988-.643-2.982-.027-.123-.055-.237-.083-.346a2.344,2.344,0,0,1-.091-.478h0c1.483-.942,2.99-1.894,4.457-2.819.046.22.094.439.141.658.153.713.312,1.45.464,2.176a4.6,4.6,0,0,0-3.157,2.4,3.4,3.4,0,0,0-.358,1.863,2.929,2.929,0,0,0,2.525,2.595,3.693,3.693,0,0,0,.608.05,4.527,4.527,0,0,0,4.015-2.6,3.392,3.392,0,0,0,.231-2.186c-.153-.671-.3-1.359-.442-2.024q-.093-.436-.187-.872l-.186-.861q-.432-1.993-.863-3.986-.13-.6-.266-1.205a1.7,1.7,0,0,0-1.635-1.447Z" transform="translate(-2556.478 -721.118)" fill="#371a45"/></g><g transform="translate(8.756 3.601)" opacity="0.3"><path d="M2805,829.807a3.327,3.327,0,0,1-3.365,1.876,1.754,1.754,0,0,1-1.552-1.54,3.635,3.635,0,0,0,2.844-.382c.619-.346,1.751-1.392,1.626-2.109-.351-2.016-.834-5.138-1.022-6.347.093.431.9,3.714,1,4.145.209.969.412,1.94.631,2.907A2.23,2.23,0,0,1,2805,829.807Z" transform="translate(-2800.082 -821.306)" fill="#371a45"/></g><g transform="translate(1.17 3.19)" opacity="0.3"><path d="M2600,814.254c-.215-1.023-.438-2.045-.656-3.067a1,1,0,0,0-.224-.5.416.416,0,0,0-.571-.078q-2.711,1.71-5.419,3.426a.981.981,0,0,0-.408.89,4.937,4.937,0,0,0,.2,1.079c.3,1.42.613,2.838.92,4.256.047.215.086.432.132.647.032.154.067.307.109.459a2.484,2.484,0,0,1,.067.322c0,.013,0,.027.005.041s0,.028,0,.042a2.191,2.191,0,0,1-.387,1.474,3.2,3.2,0,0,1-3.111,1.553,1.7,1.7,0,0,1-1.529-1.135,1.9,1.9,0,0,1,0-1.323,1.476,1.476,0,0,0,.689.6,3.068,3.068,0,0,0,2.173-.261c.61-.315,1.5-.889,1.418-1.522-.365-2.706-1.163-5.95-1.163-5.95s-.335-1.169.474-1.688,5.689-3.573,5.689-3.573S2599.586,808.936,2600,814.254Z" transform="translate(-2589.018 -809.87)" fill="#371a45"/></g><g transform="translate(9.678 9.869)" opacity="0.6"><ellipse cx="0.899" cy="0.605" rx="0.899" ry="0.605" transform="translate(0 0.883) rotate(-29.391)" fill="#fff"/></g><g transform="translate(2.129 14.05)" opacity="0.6"><ellipse cx="0.899" cy="0.605" rx="0.899" ry="0.605" transform="translate(0 0.883) rotate(-29.391)" fill="#fff"/></g></g><g transform="translate(787.316 613.773)"><g transform="translate(0.539 0.54)"><path d="M3002.6,1097.351a3.725,3.725,0,0,1-3.2,2.323l-.02,0c-.121.017-.289.052-.339-.111s.1-.239.207-.325a6.633,6.633,0,0,0,1.367-1.42,3.246,3.246,0,0,0-.041-4.1,5.364,5.364,0,0,0-1.551-1.523l-.181.987c-.437,2.372-.937,4.735-1.288,7.12a2.827,2.827,0,0,1-2.717,2.4,3.582,3.582,0,0,1-3.111-1.173,2.463,2.463,0,0,1-.643-2.082c.016-.06.031-.119.047-.179a3.274,3.274,0,0,1,4.306-1.513c.577.212.566.227.672-.352q.8-4.373,1.611-8.742a1.067,1.067,0,0,1,.215-.548.934.934,0,0,1,.834-.358,1.022,1.022,0,0,1,.155.032.922.922,0,0,1,.638.762,9.412,9.412,0,0,0,1.89,2.952,5.6,5.6,0,0,1,1.578,3.5A6.779,6.779,0,0,1,3002.6,1097.351Z" transform="translate(-2991.058 -1087.758)" fill="#ff2465"/></g><g transform="translate(2.162 10.788)" opacity="0.6"><ellipse cx="0.804" cy="1.153" rx="0.804" ry="1.153" transform="translate(0 1.598) rotate(-83.609)" fill="#fff"/></g><g transform="translate(8.244 0.547)" opacity="0.6"><path d="M3209.235,1097.537a3.724,3.724,0,0,1-3.2,2.324l-.02,0c.1-.039.194-.08.29-.121a7.586,7.586,0,0,0,1.365-.756,3.736,3.736,0,0,0,1.221-2.548,5.116,5.116,0,0,0-.614-2.614c-.533-1.026-1.292-1.9-1.849-2.9a5.8,5.8,0,0,1-1.024-2.971,1.009,1.009,0,0,1,.154.032.921.921,0,0,1,.638.762,9.4,9.4,0,0,0,1.89,2.952,5.608,5.608,0,0,1,1.577,3.5A6.772,6.772,0,0,1,3209.235,1097.537Z" transform="translate(-3205.396 -1087.951)" fill="#fff"/></g><g transform="translate(0.083 0.082)"><path d="M2982.173,1090.926a4.038,4.038,0,0,1-3.009-1.341,2.9,2.9,0,0,1-.763-2.449.531.531,0,0,1,.011-.06l.047-.179a.392.392,0,0,1,.02-.059,3.735,3.735,0,0,1,4.885-1.767l.05.018.011,0v-.005l0-.024q.667-3.629,1.338-7.257l.274-1.485a1.508,1.508,0,0,1,.32-.767,1.361,1.361,0,0,1,2.417.653,7.9,7.9,0,0,0,1.763,2.711l.025.028a6.148,6.148,0,0,1,1.687,3.774,7.208,7.208,0,0,1-.462,2.539,4.167,4.167,0,0,1-3.562,2.6l-.03,0c-.575.086-.764-.232-.825-.43a.717.717,0,0,1,.327-.791l.032-.025a6.212,6.212,0,0,0,1.276-1.322,2.791,2.791,0,0,0-.035-3.57,6.014,6.014,0,0,0-.865-.991l-.05.27c-.131.707-.267,1.412-.4,2.118-.313,1.632-.638,3.319-.882,4.985a3.266,3.266,0,0,1-3.121,2.789A4.387,4.387,0,0,1,2982.173,1090.926Zm-2.87-3.65a2,2,0,0,0,.526,1.685,3.122,3.122,0,0,0,2.729,1.032,2.424,2.424,0,0,0,2.316-2.015c.247-1.686.574-3.383.889-5.025.135-.7.271-1.407.4-2.111l.182-.988a.456.456,0,0,1,.686-.306,5.883,5.883,0,0,1,1.683,1.645,3.692,3.692,0,0,1,.047,4.623,6.3,6.3,0,0,1-.82.96,3.116,3.116,0,0,0,2.01-1.865,6.353,6.353,0,0,0,.394-2.123c0-.007,0-.015,0-.023a5.09,5.09,0,0,0-1.467-3.221l-.02-.024a8.862,8.862,0,0,1-1.973-3.143.469.469,0,0,0-.319-.408.458.458,0,0,0-.517.19.725.725,0,0,0-.108.329l-.274,1.485q-.67,3.628-1.337,7.256l-.005.024c-.064.355-.112.612-.373.76s-.509.058-.851-.068l-.049-.018a2.851,2.851,0,0,0-3.716,1.232Z" transform="translate(-2978.373 -1075.035)" fill="#371a45"/></g><path d="M2984.2,1073.28a.914.914,0,0,1,.9.8,9.38,9.38,0,0,0,1.89,2.953,5.613,5.613,0,0,1,1.577,3.5,6.771,6.771,0,0,1-.428,2.337,3.72,3.72,0,0,1-3.2,2.324,1.3,1.3,0,0,1-.167.018.177.177,0,0,1-.192-.126c-.047-.153.1-.24.207-.325a6.646,6.646,0,0,0,1.367-1.42,3.246,3.246,0,0,0-.041-4.1,5.382,5.382,0,0,0-1.551-1.524c-.067.361-.124.674-.182.988-.437,2.372-.938,4.735-1.287,7.12a2.828,2.828,0,0,1-2.719,2.4,3.927,3.927,0,0,1-.437.024,3.574,3.574,0,0,1-2.673-1.2,2.456,2.456,0,0,1-.643-2.081l.046-.179a2.953,2.953,0,0,1,2.869-1.771,4.2,4.2,0,0,1,1.438.257,1.735,1.735,0,0,0,.447.135c.139,0,.16-.132.225-.487q.8-4.371,1.612-8.741a1.068,1.068,0,0,1,.214-.548.963.963,0,0,1,.724-.366m0-.539a1.488,1.488,0,0,0-1.128.549,1.574,1.574,0,0,0-.341.807l-.275,1.486q-.662,3.594-1.324,7.188a4.755,4.755,0,0,0-1.592-.279,3.483,3.483,0,0,0-3.367,2.1.6.6,0,0,0-.023.07l-.039.149-.008.03a.536.536,0,0,0-.013.071,2.979,2.979,0,0,0,.785,2.516,4.134,4.134,0,0,0,3.066,1.368,4.618,4.618,0,0,0,.5-.027,3.343,3.343,0,0,0,3.193-2.86c.244-1.664.569-3.35.882-4.981.134-.694.271-1.411.4-2.119l.022-.121a6.333,6.333,0,0,1,.744.876,2.714,2.714,0,0,1,.033,3.474,6.107,6.107,0,0,1-1.259,1.3l-.031.024a.774.774,0,0,0-.355.882.712.712,0,0,0,.708.506,1.364,1.364,0,0,0,.209-.019l.028,0a4.245,4.245,0,0,0,3.628-2.651,7.189,7.189,0,0,0,.469-2.576,6.231,6.231,0,0,0-1.708-3.823l-.024-.028a7.841,7.841,0,0,1-1.744-2.671,1.449,1.449,0,0,0-1.016-1.179,1.481,1.481,0,0,0-.418-.062Z" transform="translate(-2976.058 -1072.741)" fill="#371a45"/><g transform="translate(0.54 3.346)" opacity="0.3"><path d="M3001.081,1173.213a4.114,4.114,0,0,1-2.02,1.65c0-.009-.007-.019-.012-.03-.046-.153.1-.24.207-.324a6.64,6.64,0,0,0,1.367-1.42,3.246,3.246,0,0,0-.041-4.1,5.386,5.386,0,0,0-1.551-1.524l-.182.989c-.437,2.372-.937,4.735-1.286,7.119a2.828,2.828,0,0,1-2.718,2.4,3.581,3.581,0,0,1-3.111-1.173,2.462,2.462,0,0,1-.644-2.082c.016-.06.031-.119.047-.179a2.8,2.8,0,0,1,.54-.846c-.331,1.42,1.624,2.731,3.032,2.348,1.466-.4,2.049-2.211,2.29-3.527.4-2.189.816-4.5,1.332-6.688a21.258,21.258,0,0,1,2.6,3.227A4.494,4.494,0,0,1,3001.081,1173.213Z" transform="translate(-2991.068 -1165.831)" fill="#371a45"/></g></g></g></svg>