<svg xmlns="http://www.w3.org/2000/svg" xmlns:xlink="http://www.w3.org/1999/xlink" width="35" height="80" viewBox="0 0 79.891 168.947"><defs><clipPath id="a"><circle cx="7.662" cy="7.662" r="7.662" transform="translate(0 10.836) rotate(-45)" fill="none"/></clipPath><clipPath id="b"><path d="M2408.095,2870.051l-.716,1.9-3.1,8.252a.768.768,0,0,1-1.354,0l-1.355-3.607-1.682-4.477-.779-2.073Z" transform="translate(-2399.107 -2870.051)" fill="none"/></clipPath></defs><g transform="translate(22.832 112.111)"><path d="M1687.363,2572.053a129.338,129.338,0,0,1-33.235-4.955c-2.275-.685-4.1-2.9-3.437-5.356l7.591-24.722a3.858,3.858,0,0,1,4.727-2.729,102.173,102.173,0,0,0,25.43,3.791,3.858,3.858,0,0,1,3.725,3.989q.025,12.931.05,25.861C1692.127,2570.47,1689.739,2572.062,1687.363,2572.053Z" transform="translate(-1650.554 -2534.141)" fill="#fff"/></g><g transform="translate(22.833 131.157)" opacity="0.35"><path d="M1692.209,2922.214q.009,4.475.017,8.95c-.086,2.537-2.474,4.13-4.849,4.121a129.327,129.327,0,0,1-33.235-4.955c-2.275-.685-4.094-2.9-3.437-5.356l2.627-8.556a4.361,4.361,0,0,0,3.151,5.264,122.3,122.3,0,0,0,31.178,4.648A4.361,4.361,0,0,0,1692.209,2922.214Z" transform="translate(-1650.568 -2916.418)" fill="#371a45"/></g><g transform="translate(21.401 110.684)"><path d="M1634.7,2506.929a3.574,3.574,0,0,1,1.024.15,102.126,102.126,0,0,0,25.43,3.792,3.858,3.858,0,0,1,3.725,3.989q.025,12.93.05,25.861c-.085,2.53-2.461,4.12-4.83,4.12h-.02a129.284,129.284,0,0,1-33.235-4.955c-2.275-.684-4.1-2.9-3.438-5.355l7.591-24.722a3.944,3.944,0,0,1,3.7-2.88m0-1.427h0a5.35,5.35,0,0,0-5.067,3.888l-3.48,11.333-4.111,13.389-.014.049c-.9,3.34,1.536,6.229,4.405,7.092l.021.006a130.227,130.227,0,0,0,33.6,5.009h.047c2.984,0,6.14-2.057,6.256-5.5,0-.017,0-.034,0-.051l-.05-25.81v-.051a5.254,5.254,0,0,0-5.131-5.414,100.58,100.58,0,0,1-25.055-3.736,5.025,5.025,0,0,0-1.42-.206Z" transform="translate(-1621.835 -2505.502)" fill="#371a45"/></g><g transform="translate(57.642 111.651)"><path d="M2360.713,2551.739c-2.615,4.584-4.819,3.979-6.655,1.908a42.767,42.767,0,0,1-3.669-5.8c-1.177-1.909-1.236-9.719-1.094-15.7.1-4.037.287-7.242.287-7.242s.938.56,2.316,1.593c.85.637,1.868,1.453,2.937,2.427C2359.973,2533.614,2366.276,2541.986,2360.713,2551.739Z" transform="translate(-2349.241 -2524.901)" fill="#fff"/></g><g transform="translate(56.921 110.938)"><g transform="translate(0 0)"><path d="M2343,2542.332h-.008c-2.607-.007-4.518-3.4-6.053-6.122-.325-.577-.632-1.122-.917-1.583-2.034-3.291-1.034-21.317-.913-23.361a.713.713,0,0,1,1.078-.57,37.3,37.3,0,0,1,8.98,7.936c5.243,6.562,6.075,13.432,2.4,19.868C2346.1,2541.078,2344.6,2542.332,2343,2542.332Zm-6.535-29.752c-.41,7.86-.521,19.206.771,21.3.3.486.614,1.044.947,1.633,1.282,2.275,3.038,5.392,4.814,5.4h0c1.017,0,2.169-1.077,3.331-3.113,3.4-5.96,2.641-12.1-2.257-18.243A36.436,36.436,0,0,0,2336.464,2512.58Z" transform="translate(-2334.756 -2510.594)" fill="#371a45"/></g></g><g transform="translate(25.02 56.344)"><path d="M1695.041,1438.7a.5.5,0,0,1-.5-.455,12.9,12.9,0,0,1,2.388-9.13c1.316-2.1,2.454-3.9,1.654-7.746-.892-4.284-1.316-5.919-1.319-5.935a.5.5,0,1,1,.964-.251c.017.066.432,1.668,1.331,5.984.882,4.234-.414,6.3-1.786,8.479a11.909,11.909,0,0,0-2.239,8.512.5.5,0,0,1-.453.54Z" transform="translate(-1694.475 -1414.81)" fill="#371a45"/></g><g transform="translate(25.825 54.497)"><path d="M1714.752,1377.74l1.835,3.561a1.755,1.755,0,0,1-1.237,2.535,11.142,11.142,0,0,1-1.365.151,7.791,7.791,0,0,1-1.945-.125,1.763,1.763,0,0,1-1.251-2.492l1.749-3.631Z" transform="translate(-1710.614 -1377.74)" fill="#ffda22"/></g><g transform="translate(25.977 54.497)"><g opacity="0.35"><path d="M1714.945,1382.451a7.807,7.807,0,0,0,1.945.125,11.235,11.235,0,0,0,1.365-.151,1.725,1.725,0,0,0,1.283-1.02,1.755,1.755,0,0,1,.147.784,1.756,1.756,0,0,0-.193-.888l-1.836-3.561h-2.213l-1.749,3.631c-.009.019-.015.038-.023.056A1.764,1.764,0,0,0,1714.945,1382.451Z" transform="translate(-1713.671 -1377.741)" fill="#371a45"/></g></g><g transform="translate(25.111 53.783)"><path d="M1699.888,1371.1a8.169,8.169,0,0,1-1.6-.151,2.476,2.476,0,0,1-1.754-3.5l1.749-3.63a.714.714,0,0,1,.643-.4h2.213a.714.714,0,0,1,.634.387l1.835,3.562a2.457,2.457,0,0,1,.018,2.236,2.427,2.427,0,0,1-1.765,1.328,11.931,11.931,0,0,1-1.452.161Q1700.144,1371.1,1699.888,1371.1Zm-.518-6.26-1.554,3.227a1.035,1.035,0,0,0,.006.916,1.054,1.054,0,0,0,.742.566,7.13,7.13,0,0,0,1.767.112,10.467,10.467,0,0,0,1.277-.141,1.014,1.014,0,0,0,.736-.556,1.044,1.044,0,0,0-.008-.95l-1.636-3.175Z" transform="translate(-1696.284 -1363.417)" fill="#371a45"/></g><g transform="translate(58.792 109.291)"><path d="M2372.314,2477.525" transform="translate(-2372.314 -2477.525)" fill="#fff"/></g><g transform="translate(58.792 109.291)"><path d="M2372.314,2477.525" transform="translate(-2372.314 -2477.525)" fill="none" stroke="#293856" stroke-linecap="round" stroke-linejoin="round" stroke-width="28.64"/></g><g transform="translate(31.127 95.27)"><g transform="translate(0 0)"><path d="M1817.036,2196.111c0,.024,0,.047,0,.072a12.267,12.267,0,0,0,.8,1.035Z" transform="translate(-1817.033 -2196.111)" fill="#293856"/></g></g><g transform="translate(20.736 71.678)"><path d="M1629.59,1760.4l-3.515,3.874-4.4,4.841a8.977,8.977,0,0,1-.977-.837c-2.681-2.57-9.885-11.449-8.749-31.868a7.847,7.847,0,0,1-2.229-1.473c-2.726-2.5-.275-8.5.944-10.427,1.341-2.132,2.759-1.249,2.934-1.129.885-.856,2.226-1.056,4.211-.38,4.966,1.686,5.133,5.064,5.133,5.064.3,1.256,1.2,6.637,2.285,12.682,1,5.569,2.151,11.7,3.122,15.687A20.456,20.456,0,0,0,1629.59,1760.4Z" transform="translate(-1608.487 -1722.596)" fill="#fff"/></g><g transform="translate(20.736 77.839)" opacity="0.35"><path d="M1624.65,1883.337l-2.969,3.271a8.953,8.953,0,0,1-.978-.837c-2.68-2.57-9.885-11.449-8.748-31.868a7.843,7.843,0,0,1-2.229-1.473c-1.531-1.4-1.429-3.911-.829-6.18.4,6.869,5.658,6.45,7.266,6.19.709-.115,1.017-2.358,1.017-2.358-.08,1.437.333,2.909-.145,4.154-.622,1.621-2.6,1.778-2.731,4-.916,16.175,7.506,22.392,9.9,24.683C1624.368,1883.085,1624.52,1883.223,1624.65,1883.337Z" transform="translate(-1608.487 -1846.25)" fill="#371a45"/></g><g transform="translate(23.704 70.97)"><path d="M1674.132,1712.571a5.8,5.8,0,0,1-.841,3.355,3.713,3.713,0,0,1-1.413,1.391,2.444,2.444,0,0,1-1.126.284,2.247,2.247,0,0,1-1.155-.319,2.744,2.744,0,0,1-.812-.755,3.4,3.4,0,0,1-.471-.908,4.858,4.858,0,0,1-.255-1.889c.008-.155.028-.309.043-.462l.068-.424c.038-.283.113-.568.172-.852a7.033,7.033,0,0,1,.653-1.7,3.7,3.7,0,0,1,1.368-1.43,3.815,3.815,0,0,1,1.915-.479,5.985,5.985,0,0,1,.927.07c.149.024.293.059.44.089a4.073,4.073,0,0,1,.431.106,13.124,13.124,0,0,1,1.63.59,9.033,9.033,0,0,1,2.9,1.979,6.583,6.583,0,0,1,1.071,1.469c.07.137.134.278.2.417s.116.288.166.437.095.3.129.458c.02.076.034.159.049.241.008.04.015.082.019.128s.012.084.016.156l-.018-.128c.152.7.248,1.335.355,1.991l.3,1.951.6,3.888c.416,2.587.859,5.167,1.375,7.729s1.094,5.109,1.807,7.608a31.006,31.006,0,0,0,1.243,3.674c.252.592.489,1.184.7,1.789.1.306.206.6.28.925a5.9,5.9,0,0,1,.184,1v.019a.258.258,0,0,1-.409.225,4.958,4.958,0,0,1-1.348-1.574,10.242,10.242,0,0,1-.812-1.85c-.416-1.275-.852-2.532-1.208-3.812-.728-2.553-1.315-5.132-1.835-7.72s-.968-5.185-1.385-7.785l-.6-3.9-.3-1.943c-.1-.639-.205-1.3-.334-1.887l0-.026-.013-.1-.006-.047a.647.647,0,0,0-.011-.073c-.009-.051-.017-.1-.032-.157-.022-.107-.058-.216-.092-.325s-.081-.216-.123-.324l-.152-.316a5.154,5.154,0,0,0-.843-1.151,7.606,7.606,0,0,0-2.447-1.658,7.441,7.441,0,0,0-2.838-.731,2.393,2.393,0,0,0-1.208.286,2.279,2.279,0,0,0-.846.9,5.665,5.665,0,0,0-.508,1.334c-.05.247-.116.487-.15.743l-.061.379c-.01.117-.026.233-.032.348a3.212,3.212,0,0,0,.182,1.314,1.6,1.6,0,0,0,.676.855.868.868,0,0,0,.834-.028,2.817,2.817,0,0,0,.911-.838,12.718,12.718,0,0,0,.786-1.253c.259-.448.493-.924.8-1.4l.006-.01a.248.248,0,0,1,.342-.076A.25.25,0,0,1,1674.132,1712.571Z" transform="translate(-1668.053 -1708.384)" fill="#371a45"/></g><g transform="translate(20.032 71.467)"><path d="M1608.249,1765.794a.71.71,0,0,1-.414-.133c-.119-.085-2.951-2.144-5.605-7.319-2.388-4.655-5.079-12.844-4.445-25.524a9.228,9.228,0,0,1-1.974-1.388c-3-2.749-.69-8.935.822-11.335a3.378,3.378,0,0,1,2.184-1.706,2.4,2.4,0,0,1,1.8.4.713.713,0,1,1-.867,1.133.981.981,0,0,0-.7-.13,2.118,2.118,0,0,0-1.212,1.06c-1.075,1.705-3.423,7.36-1.065,9.523a7.266,7.266,0,0,0,2,1.332.717.717,0,0,1,.455.705c-1.353,24.1,9.321,32.007,9.429,32.084a.714.714,0,0,1-.415,1.294Z" transform="translate(-1594.352 -1718.351)" fill="#371a45"/></g><g transform="translate(24.45 91.461)"><path d="M1684.733,2128.815a9.82,9.82,0,0,1-1.283-.071.5.5,0,1,1,.149-.985h0a11.538,11.538,0,0,0,12.377-7.784.5.5,0,1,1,.932.351A12.513,12.513,0,0,1,1684.733,2128.815Z" transform="translate(-1683.026 -2119.653)" fill="#371a45"/></g><g transform="translate(23.498 75.741)"><path d="M1669.8,1804.139a1.5,1.5,0,0,1,.692.64,3.256,3.256,0,0,1,.349.871,5.693,5.693,0,0,1,.095,1.817,16.929,16.929,0,0,1-.7,3.464,9.309,9.309,0,0,1-.716,1.681,6.86,6.86,0,0,1-.523.8,4.883,4.883,0,0,1-.7.722,3.78,3.78,0,0,1-.9.553,3.6,3.6,0,0,1-1.054.25,4.292,4.292,0,0,1-1.991-.4.713.713,0,0,1,.555-1.314l.007,0a3.2,3.2,0,0,0,1.332.258,2.157,2.157,0,0,0,.6-.135,2.5,2.5,0,0,0,.557-.325,4.307,4.307,0,0,0,.942-1.1,9.621,9.621,0,0,0,.7-1.423,16.334,16.334,0,0,0,.521-1.557c.15-.528.288-1.083.384-1.61a9.774,9.774,0,0,0,.157-1.59,2.62,2.62,0,0,0-.369-1.5l-.01-.015a.059.059,0,0,1,.014-.082A.059.059,0,0,1,1669.8,1804.139Z" transform="translate(-1663.922 -1804.135)" fill="#371a45"/></g><g transform="translate(60.697 123.072)"><g transform="translate(0 0)"><path d="M2410.919,2754.143l-.281,1.761-.1-.765A5.224,5.224,0,0,1,2410.919,2754.143Z" transform="translate(-2410.54 -2754.143)" fill="#fff"/></g></g><g transform="translate(13.451 104.054)"><path d="M1516.8,2432.96c-5.6,4.456-13.739,4.478-16.572,1.96-2.871-2.552-3.621-7.588-4.659-13.22-.437-2.369-1-6.1-1-6.1a10.6,10.6,0,0,1-2.483.007,8.105,8.105,0,0,1-2.251-.553s-1.24,2.9-3.014,6.9c-2.265,5.1-5.594,9.621-7.377,10.968-2.251,1.7-10.786-.872-15.059-6.612-2.508-3.367-2.909-7.723-.573-9.74a4.329,4.329,0,0,1,1.591-.86,10.932,10.932,0,0,1,6.25.45c.988-4.113,2.053-7.945,3.128-11.449.68-2.221,1.365-4.309,2.037-6.257,1.865-5.415,3.635-9.733,4.946-12.716,1.341-3.05,2.2-4.7,2.2-4.7a10.417,10.417,0,0,1,1-2.6,10.986,10.986,0,0,1,4.447-4.544c2.167-1.177,5.164-1.841,9.282-1.229,6.883,1.023,9.482,5.274,10.418,8.958a16.687,16.687,0,0,1,.492,4.184,12.942,12.942,0,0,1-.1,1.635,130.725,130.725,0,0,1,1.559,15.366c.095,1.855.168,3.85.205,5.968q.005.311.011.626c.054,3.821-.005,8.029-.25,12.532a11.3,11.3,0,0,1,5.627,1.407,5.8,5.8,0,0,1,2.124,2.082C1520.224,2427.935,1519.091,2431.14,1516.8,2432.96Z" transform="translate(-1462.265 -2372.429)" fill="#fff"/></g><g transform="translate(13.451 140.087)" opacity="0.35"><path d="M1516.8,3120.155c-5.6,4.456-13.739,4.479-16.572,1.96-2.871-2.552-3.621-7.587-4.659-13.22-.437-2.368-1-6.1-1-6.1a10.617,10.617,0,0,1-2.483.007,8.094,8.094,0,0,1-2.251-.553s-1.24,2.9-3.014,6.9c-2.265,5.1-5.594,9.621-7.377,10.967-2.251,1.7-10.786-.872-15.059-6.612-2.508-3.368-2.909-7.723-.573-9.74a10.364,10.364,0,0,1,6.863,3.119c2.716,2.77,7.332,8.374,9.473,7.364s4.407-6.827,4.532-9.321-1.343-5.262-.546-5.389,2.433,1.344,2.686.546-1.889-3.253-1.07-4.343c.521-.7,3.1,3.262,6.211,3.713,4.059.587,6.82-2.749,8.374-1.929.623.328-2.667,3-1.868,3.408s2.979,0,3.116.7c.316,1.616-3.9,3.2-3.977,4.976s1.3,10.2,3.735,10.4c1.151.094,4.812-.928,8.437-2.278,3.424-1.275,5.948-3.723,9.007-2.112C1520.224,3115.13,1519.091,3118.335,1516.8,3120.155Z" transform="translate(-1462.265 -3095.657)" fill="#371a45"/></g><g transform="translate(12.74 112.443)"><g transform="translate(0 0)"><path d="M1496.171,2547.382c.388,1.407.668,2.828.919,4.256.121.714.24,1.429.334,2.147l.15,1.076.123,1.079c.317,2.878.541,5.767.644,8.659.031.723.045,1.446.068,2.169s.036,1.447.037,2.17l.014,2.17-.019,2.17c-.023,2.894-.135,5.785-.27,8.675l-.745-.751c.346-.01.635,0,.947.022s.61.052.913.094a12.412,12.412,0,0,1,1.8.382,9.284,9.284,0,0,1,3.332,1.693,6.256,6.256,0,0,1,1.3,1.461,5.7,5.7,0,0,1,.736,1.839,6.409,6.409,0,0,1-.465,3.819,7.936,7.936,0,0,1-2.31,2.993,16.994,16.994,0,0,1-3.063,1.926,18.584,18.584,0,0,1-6.936,1.84,15.355,15.355,0,0,1-3.628-.177,8.549,8.549,0,0,1-3.509-1.37c-.131-.1-.268-.21-.389-.319l-.341-.335a7.843,7.843,0,0,1-.626-.712c-.2-.247-.362-.51-.541-.767-.152-.268-.318-.531-.458-.8a18.352,18.352,0,0,1-1.293-3.369c-.65-2.284-1.035-4.583-1.457-6.857-.4-2.279-.76-4.579-1.143-6.868l.814.6c-.25.035-.447.05-.667.063s-.427.019-.641.019a12.467,12.467,0,0,1-1.274-.061,9.474,9.474,0,0,1-1.281-.213q-.316-.076-.629-.173a6.656,6.656,0,0,1-.644-.234l.948-.371-2.862,6.548a43.992,43.992,0,0,1-3.432,6.376,36.235,36.235,0,0,1-2.124,2.957c-.39.472-.782.943-1.225,1.389-.107.113-.219.224-.338.333s-.228.22-.361.325l-.193.158c-.035.027-.06.052-.1.08l-.129.085a3.026,3.026,0,0,1-.528.271,5.533,5.533,0,0,1-2.031.289,10.929,10.929,0,0,1-1.892-.227,18.105,18.105,0,0,1-3.534-1.129,20.79,20.79,0,0,1-6.144-4.042,15.457,15.457,0,0,1-2.374-2.885,11.376,11.376,0,0,1-1.447-3.5,7.878,7.878,0,0,1,.042-3.885,5.235,5.235,0,0,1,.933-1.825,4.87,4.87,0,0,1,1.622-1.3,7.92,7.92,0,0,1,3.843-.639,12.761,12.761,0,0,1,1.871.258c.307.064.611.141.913.224s.591.176.916.3l-.956.5c.386-1.511.748-3.028,1.153-4.534s.807-3.013,1.26-4.506l.662-2.244.7-2.231.353-1.116.371-1.109c.25-.739.49-1.48.747-2.217l.771-2.209c.255-.737.533-1.466.793-2.2s.532-1.467.818-2.193.561-1.457.866-2.175l.454-1.08.48-1.069c.318-.713.657-1.417,1.008-2.116a34.573,34.573,0,0,1,2.36-4.066.239.239,0,0,1,.423.214l0,.006c-1.019,2.941-2.177,5.807-3.314,8.684s-2.3,5.747-3.309,8.673c-.255.731-.494,1.467-.741,2.2l-.369,1.1-.35,1.107-.7,2.215-.657,2.227c-.451,1.481-.837,2.98-1.251,4.473s-.762,3-1.145,4.5a.721.721,0,0,1-.878.521.6.6,0,0,1-.076-.023h0c-.231-.087-.515-.176-.78-.252s-.544-.144-.82-.2a11.339,11.339,0,0,0-1.66-.229,8.518,8.518,0,0,0-1.635.062l-.4.067-.384.1a4.18,4.18,0,0,0-.712.267,3.438,3.438,0,0,0-1.142.913,3.807,3.807,0,0,0-.676,1.333,6.472,6.472,0,0,0-.018,3.176,9.948,9.948,0,0,0,1.267,3.061,14.077,14.077,0,0,0,2.152,2.609,19.381,19.381,0,0,0,5.718,3.758,16.684,16.684,0,0,0,3.25,1.041,9.539,9.539,0,0,0,1.646.2,4.193,4.193,0,0,0,1.482-.193,1.577,1.577,0,0,0,.264-.136l.058-.035c.021-.013.049-.04.073-.058l.152-.125c.1-.077.2-.18.3-.272s.2-.189.3-.292c.4-.4.767-.842,1.134-1.286.724-.9,1.4-1.857,2.037-2.837a42.575,42.575,0,0,0,3.324-6.178l2.854-6.531a.721.721,0,0,1,.942-.373l.006,0c.128.055.32.123.488.175s.352.1.531.146a8.053,8.053,0,0,0,1.091.181,11.13,11.13,0,0,0,1.13.054c.188,0,.376-.006.563-.017s.383-.028.531-.049a.725.725,0,0,1,.814.6c.38,2.275.734,4.548,1.136,6.826.421,2.274.806,4.549,1.425,6.718a16.932,16.932,0,0,0,1.186,3.1c.124.241.268.468.4.7.154.217.3.444.46.651a6.448,6.448,0,0,0,.519.589l.277.274c.094.084.185.155.281.231a7.192,7.192,0,0,0,2.911,1.113,13.953,13.953,0,0,0,3.288.157,17.153,17.153,0,0,0,6.4-1.7,15.615,15.615,0,0,0,2.8-1.761,6.51,6.51,0,0,0,1.891-2.448,4.983,4.983,0,0,0,.374-2.962,4.269,4.269,0,0,0-.547-1.366,4.831,4.831,0,0,0-1-1.122,7.893,7.893,0,0,0-2.818-1.42,11.084,11.084,0,0,0-1.594-.338c-.27-.036-.542-.066-.812-.083s-.555-.026-.788-.02h0a.722.722,0,0,1-.742-.7c0-.016,0-.033,0-.049.058-1.434.138-2.868.177-4.3s.074-2.87.064-4.306v-2.153l-.042-2.153c-.008-.718-.036-1.434-.061-2.151s-.04-1.435-.073-2.152c-.131-2.867-.286-5.732-.49-8.594l-.62-8.6v-.005a.239.239,0,0,1,.468-.081Z" transform="translate(-1447.98 -2540.804)" fill="#371a45"/></g></g><g transform="translate(33.964 89.828)" opacity="0.35"><path d="M1903.254,2112.736a18,18,0,0,1-2.444,1.757,17.594,17.594,0,0,1-3.1,1.464,17.055,17.055,0,0,1-9.13.671,17.693,17.693,0,0,1-10.243-6.207,18.853,18.853,0,0,1-2.169-3.3,19.6,19.6,0,0,1-1.873-12.537,19.275,19.275,0,0,1,3.2-7.694c1,5.568,2.151,11.7,3.121,15.687,2.167-1.177,5.164-1.841,9.282-1.229,6.883,1.024,9.482,5.274,10.418,8.957C1901.167,2110.946,1902.186,2111.763,1903.254,2112.736Z" transform="translate(-1873.98 -2086.894)" fill="#371a45"/></g><g transform="translate(29.966 74.277)"><g transform="translate(41.826 20.734)"><g transform="translate(0.137 0.137)"><path d="M2636.288,2206.119h0a.421.421,0,0,1-.282-.525l3.511-11.62a.421.421,0,0,1,.525-.281h0A4.421,4.421,0,0,1,2643,2199.2l-1.2,3.963A4.421,4.421,0,0,1,2636.288,2206.119Z" transform="translate(-2635.988 -2193.674)" fill="#fff"/></g><path d="M2634.945,2203.826a4.551,4.551,0,0,1-1.316-.2h0a.559.559,0,0,1-.373-.7l3.51-11.621a.559.559,0,0,1,.7-.373,4.559,4.559,0,0,1,3.046,5.682l-1.2,3.962A4.567,4.567,0,0,1,2634.945,2203.826Zm-1.236-.458a4.288,4.288,0,0,0,5.34-2.862l1.2-3.962a4.284,4.284,0,0,0-2.863-5.34.277.277,0,0,0-.216.021.28.28,0,0,0-.138.168l-3.51,11.621a.284.284,0,0,0,.189.354Z" transform="translate(-2633.232 -2190.917)" fill="#371a45"/></g><g transform="translate(41.963 28.505)" opacity="0.35"><path d="M2642.356,2346.889l-.561,1.859a4.423,4.423,0,0,1-5.512,2.954.422.422,0,0,1-.281-.526l.932-3.09a.421.421,0,0,0,.3.35l.275.083A4.417,4.417,0,0,0,2642.356,2346.889Z" transform="translate(-2635.984 -2346.889)" fill="#371a45"/></g><g transform="translate(41.199 20.107)"><path d="M2622.992,2192.5a5.167,5.167,0,0,1-1.5-.222h0a1.184,1.184,0,0,1-.792-1.477l3.51-11.62a1.186,1.186,0,0,1,1.477-.792,5.184,5.184,0,0,1,3.463,6.463l-1.2,3.963A5.2,5.2,0,0,1,2622.992,2192.5Zm-.723-1.6a3.662,3.662,0,0,0,4.227-2.527l1.2-3.963a3.657,3.657,0,0,0-2.121-4.445Zm-.332-.084h0Z" transform="translate(-2620.653 -2178.34)" fill="#371a45"/></g><g transform="translate(0.626 8.976)"><g transform="translate(0.136 0.136)"><path d="M1815.937,1957.841h0a.421.421,0,0,1,.282.525l-3.511,11.62a.421.421,0,0,1-.525.282h0a4.421,4.421,0,0,1-2.954-5.511l1.2-3.962A4.421,4.421,0,0,1,1815.937,1957.841Z" transform="translate(-1809.039 -1957.651)" fill="#fff"/></g><path d="M1809.7,1967.824a.563.563,0,0,1-.162-.024,4.563,4.563,0,0,1-3.045-5.682l1.2-3.963a4.566,4.566,0,0,1,5.682-3.046h0a.56.56,0,0,1,.373.7l-3.51,11.62a.558.558,0,0,1-.534.4Zm2.356-12.635a4.292,4.292,0,0,0-4.1,3.046l-1.2,3.963a4.284,4.284,0,0,0,2.862,5.34.284.284,0,0,0,.354-.19l3.511-11.62a.285.285,0,0,0-.19-.354h0A4.27,4.27,0,0,0,1812.06,1955.189Z" transform="translate(-1806.302 -1954.915)" fill="#371a45"/></g><g transform="translate(0.763 14.55)" opacity="0.35"><path d="M1813.688,2070.464l-.974,3.224a.422.422,0,0,1-.526.282,4.419,4.419,0,0,1-2.953-5.51l.5-1.67a4.422,4.422,0,0,0,3.1,3.65l.424.128A.425.425,0,0,0,1813.688,2070.464Z" transform="translate(-1809.044 -2066.79)" fill="#371a45"/></g><g transform="translate(0 8.349)"><path d="M1797.761,1956.5a1.192,1.192,0,0,1-.344-.052,5.191,5.191,0,0,1-3.464-6.462l1.2-3.963a5.193,5.193,0,0,1,6.463-3.464h0a1.186,1.186,0,0,1,.791,1.477l-3.51,11.62a1.187,1.187,0,0,1-1.133.843Zm2.354-12.635a3.664,3.664,0,0,0-3.5,2.6l-1.2,3.963a3.663,3.663,0,0,0,2.121,4.445l3.3-10.935A3.611,3.611,0,0,0,1800.115,1943.866Zm1.055.156h0Z" transform="translate(-1793.731 -1942.339)" fill="#371a45"/></g><g transform="translate(4.13 0.476)"><g transform="translate(0.148 0.148)"><circle cx="20.686" cy="20.686" r="20.686" fill="#fff"/></g><path d="M1897.465,1825.983a20.834,20.834,0,1,1,19.448-13.414l-.129-.049.129.049a20.868,20.868,0,0,1-19.448,13.414Zm-.016-41.394a20.6,20.6,0,1,0,7.331,1.36A20.5,20.5,0,0,0,1897.448,1784.588Z" transform="translate(-1876.622 -1784.314)" fill="#371a45"/></g><g transform="translate(4.273 13.03)" opacity="0.35"><path d="M1920.341,2049.192a20.687,20.687,0,1,1-39.492-12c.117-.307.241-.611.372-.908a20.687,20.687,0,0,0,39.12,12.906Z" transform="translate(-1879.485 -2036.286)" fill="#371a45"/></g><g transform="translate(3.644)"><path d="M1888.2,1817.392a21.32,21.32,0,1,1,19.9-13.727l-.582-.222.582.222a21.353,21.353,0,0,1-19.9,13.727Zm-.016-41.395a20.07,20.07,0,1,0,18.754,27.224h0A20.089,20.089,0,0,0,1888.184,1776Z" transform="translate(-1866.872 -1774.762)" fill="#371a45"/></g><g transform="translate(4.294 5.783)"><path d="M1919.668,1914.2a18.552,18.552,0,0,1-7.082,9.038c-2.381,1.614-10.285,3.078-18.347.223-7.475-2.646-12.808-9.088-13.593-11.855a18.557,18.557,0,0,1,.389-11.475c3.666-10.065,13.833-11.088,24.5-7.2S1923.334,1904.137,1919.668,1914.2Z" transform="translate(-1879.921 -1890.831)" fill="#371a45"/></g><g transform="translate(3.53 5.022)"><path d="M1889.146,1911.346a29.291,29.291,0,0,1-9.742-1.674c-7.819-2.768-13.237-9.421-14.073-12.367a19.294,19.294,0,0,1,.406-11.945,13.956,13.956,0,0,1,10.166-9.315c4.265-1.012,9.561-.44,15.314,1.656s10.177,5.062,12.792,8.581a13.956,13.956,0,0,1,1.8,13.671,19.3,19.3,0,0,1-7.371,9.409C1897.006,1910.329,1893.546,1911.346,1889.146,1911.346Zm-8.887-34.253c-5.214,0-10.584,1.917-13.088,8.79a17.783,17.783,0,0,0-.372,11.005c.738,2.6,5.892,8.787,13.114,11.344,8.008,2.836,15.573,1.283,17.663-.135a17.779,17.779,0,0,0,6.793-8.667h0a12.339,12.339,0,0,0-1.586-12.238c-2.437-3.278-6.617-6.064-12.089-8.057A31.839,31.839,0,0,0,1880.26,1877.093Z" transform="translate(-1864.576 -1875.559)" fill="#371a45"/></g><g transform="translate(34.125 21.002)" opacity="0.5"><g transform="translate(0 0)"><ellipse cx="3.661" cy="2.653" rx="3.661" ry="2.653" transform="matrix(0.504, -0.864, 0.864, 0.504, 0, 6.323)" fill="#fff"/></g></g><g transform="translate(30.554 28.99)" opacity="0.5"><g transform="translate(0 0)"><ellipse cx="1.68" cy="1.442" rx="1.68" ry="1.442" transform="translate(0 2.64) rotate(-51.776)" fill="#fff"/></g></g><g transform="translate(11.138 18.396)" opacity="0.35"><path d="M2049.849,2144a13.234,13.234,0,0,1,.337,10.758,18.567,18.567,0,0,1-7.081,9.039c-2.381,1.614-10.286,3.077-18.348.223a25.519,25.519,0,0,1-7.474-4.262c9.985,3.3,19.626,1.479,22.579-.523a23.545,23.545,0,0,0,8.987-11.471A21,21,0,0,0,2049.849,2144Z" transform="translate(-2017.283 -2143.999)" fill="#111a28"/></g><g transform="translate(9.491 3.423)"><path d="M2020.338,1860.262a.494.494,0,0,1-.431-.25.511.511,0,0,1-.05-.118c-1.6-5.792-6.979-10.736-14.745-13.565-7.809-2.844-15.129-2.427-20.084,1.146-.014.01-.032.022-.047.031a.5.5,0,0,1-.518-.851c5.212-3.757,12.868-4.221,20.991-1.263,8.067,2.938,13.665,8.123,15.361,14.224a.5.5,0,0,1-.477.645Z" transform="translate(-1984.237 -1843.465)" fill="#371a45"/></g><g transform="translate(7.566 8.866)" opacity="0.5"><path d="M1945.588,1966.495s.5-11.065,7.291-13.073,14.486.812,14.126,1.24c0,0-9.275-1.04-15.064,4.483A41.381,41.381,0,0,0,1945.588,1966.495Z" transform="translate(-1945.588 -1952.708)" fill="#fff"/></g></g><g transform="translate(0 0)"><g transform="translate(0.9 0.809)"><path d="M1266.569,331.422a28.188,28.188,0,1,1-42.958-26.987q.945-.592,1.935-1.1a28.285,28.285,0,0,1,11.434-3.132l.105-.006c.244-.013.488-.023.734-.029q.731-.02,1.461,0a28.219,28.219,0,0,1,12.955,3.545c.219.123.437.246.652.374.13.076.259.155.386.234A28.19,28.19,0,0,1,1266.569,331.422Z" transform="translate(-1210.355 -300.153)" fill="#ffda22"/></g><g transform="translate(0.9 0.809)" opacity="0.5"><path d="M1266.708,329.55a28.155,28.155,0,0,0-13.437-22.91c-.127-.079-.256-.158-.386-.234-.215-.129-.433-.251-.652-.374a28.217,28.217,0,0,0-12.955-3.545q-.731-.018-1.461,0c-.246.006-.49.016-.734.029l-.105.006a28.288,28.288,0,0,0-11.434,3.132q-.987.511-1.934,1.1a28.158,28.158,0,0,0-13.233,22.729,28.206,28.206,0,0,1,13.233-25.04q.945-.592,1.934-1.1a28.286,28.286,0,0,1,11.434-3.132l.105-.006q.366-.02.734-.029.731-.02,1.461,0a28.221,28.221,0,0,1,12.955,3.545c.219.123.437.246.652.374.13.076.259.155.386.234A28.182,28.182,0,0,1,1266.708,329.55Z" transform="translate(-1210.353 -300.167)" fill="#fff"/></g><g transform="translate(0.902 24.057)" opacity="0.35"><path d="M1224.888,794.22a28.2,28.2,0,0,0,41.154-18.274,27.764,27.764,0,0,0,.56-3.283,28.161,28.161,0,0,0,.027-5.848q-.014.134-.027.268a27.761,27.761,0,0,1-.56,3.283,28.189,28.189,0,0,1-55.513-3.593A28.189,28.189,0,0,0,1224.888,794.22Z" transform="translate(-1210.39 -766.773)" fill="#371a45"/></g><path d="M1221.176,341.826a28.94,28.94,0,0,1-25.255-43h0a28.948,28.948,0,1,1,25.255,43Zm.089-56.377a27.535,27.535,0,0,0-7.571,1.067,27.241,27.241,0,0,0-16.439,13.048h0a27.387,27.387,0,1,0,24.01-14.115Zm-24.677,13.744h0Z" transform="translate(-1192.282 -283.922)" fill="#371a45"/><g transform="translate(28.75 6.933)" opacity="0.35"><g transform="translate(0 0)"><ellipse cx="3.81" cy="6.292" rx="3.81" ry="6.292" transform="translate(0 7.55) rotate(-82.238)" fill="#371a45"/></g></g><g transform="translate(29.664 9.734)"><g transform="translate(0 0)"><ellipse cx="2.46" cy="5.47" rx="2.46" ry="5.47" transform="translate(0 4.874) rotate(-82.238)" fill="#ffda22"/></g></g><g transform="translate(28.915 7.603)"><path d="M1774.273,438a2.833,2.833,0,0,0-.8,1.259,2.252,2.252,0,0,0,.074,1.4,3.368,3.368,0,0,0,.806,1.209,5.63,5.63,0,0,0,1.2.925,8.735,8.735,0,0,0,2.916,1.039,8.785,8.785,0,0,0,3.092.045,6.643,6.643,0,0,0,1.455-.41,4.18,4.18,0,0,0,1.206-.778,2.2,2.2,0,0,0,.656-1.132,2.226,2.226,0,0,0-.145-1.315,4.011,4.011,0,0,0-.835-1.208,6.435,6.435,0,0,0-.574-.517c-.212-.152-.421-.31-.648-.444a9.915,9.915,0,0,0-2.978-1.192l-.008,0a.179.179,0,0,1,.06-.352,9.4,9.4,0,0,1,1.676.287c.28.062.546.168.82.258.265.112.536.211.793.348a6.529,6.529,0,0,1,1.464.973,4.652,4.652,0,0,1,1.129,1.44,3.149,3.149,0,0,1,.3,1.917,3.3,3.3,0,0,1-.906,1.735,4.935,4.935,0,0,1-1.54,1.052,7.807,7.807,0,0,1-1.724.515,9.317,9.317,0,0,1-1.766.129,10.9,10.9,0,0,1-1.745-.194c-.289-.047-.57-.135-.854-.207-.279-.091-.56-.173-.832-.286a8.156,8.156,0,0,1-1.572-.805,6.457,6.457,0,0,1-1.355-1.172,4.255,4.255,0,0,1-.892-1.61,2.948,2.948,0,0,1,.1-1.866,3.17,3.17,0,0,1,1.145-1.382.222.222,0,0,1,.281.343Z" transform="translate(-1772.646 -436.525)" fill="#371a45"/></g><g transform="translate(34.021 12.942)"><path d="M1875.414,548.139a8.567,8.567,0,0,0,2.8.187,9.244,9.244,0,0,0,2.67-.684,7.746,7.746,0,0,0,2.3-1.463,3.969,3.969,0,0,0,1.289-2.34v-.005a.181.181,0,0,1,.356-.013,3.158,3.158,0,0,1-.119,1.607,4.45,4.45,0,0,1-.8,1.417,6.857,6.857,0,0,1-2.559,1.9,7.867,7.867,0,0,1-1.516.489,7.576,7.576,0,0,1-1.585.153,5.739,5.739,0,0,1-3.017-.836.225.225,0,0,1,.172-.408Z" transform="translate(-1875.134 -543.677)" fill="#371a45"/></g><g transform="translate(44.122 24.808)" opacity="0.35"><g transform="translate(0 0)"><ellipse cx="6.262" cy="3.81" rx="6.262" ry="3.81" transform="matrix(0.04, -0.999, 0.999, 0.04, 0, 12.514)" fill="#371a45"/></g></g><g transform="translate(44.151 25.682)"><g transform="translate(0 0)"><ellipse cx="5.47" cy="2.46" rx="5.47" ry="2.46" transform="translate(0 10.931) rotate(-87.693)" fill="#ffda22"/></g></g><g transform="translate(43.555 24.595)"><path d="M2073.1,779.018a2.835,2.835,0,0,0-1.329-.674,2.254,2.254,0,0,0-1.383.206,3.377,3.377,0,0,0-1.127.918,5.592,5.592,0,0,0-.807,1.286,8.732,8.732,0,0,0-.758,3,9.783,9.783,0,0,0-.011,1.559,9.61,9.61,0,0,0,.26,1.523,6.657,6.657,0,0,0,.547,1.41,4.19,4.19,0,0,0,.889,1.126,2.2,2.2,0,0,0,1.189.545,2.221,2.221,0,0,0,1.3-.269,4.019,4.019,0,0,0,1.123-.946,6.444,6.444,0,0,0,.46-.62c.131-.225.268-.448.381-.688a9.921,9.921,0,0,0,.9-3.078v-.008a.179.179,0,0,1,.356.027,9.392,9.392,0,0,1-.126,1.7c-.034.284-.115.56-.178.84-.086.274-.16.554-.271.823a6.55,6.55,0,0,1-.83,1.55,4.638,4.638,0,0,1-1.327,1.26,3.146,3.146,0,0,1-1.88.481,3.3,3.3,0,0,1-1.813-.737,4.925,4.925,0,0,1-1.194-1.433,7.8,7.8,0,0,1-.677-1.667,9.3,9.3,0,0,1-.3-1.745,10.925,10.925,0,0,1,.027-1.756c.019-.292.08-.58.125-.869.064-.286.119-.574.206-.855a8.151,8.151,0,0,1,.652-1.642,6.443,6.443,0,0,1,1.038-1.46,4.259,4.259,0,0,1,1.517-1.041,2.951,2.951,0,0,1,1.866-.083,3.168,3.168,0,0,1,1.485,1.009.222.222,0,0,1-.315.312Z" transform="translate(-2066.477 -777.583)" fill="#371a45"/></g><g transform="translate(41.257 30.305)"><path d="M2021.351,892.433a8.583,8.583,0,0,0,.08,2.8,9.24,9.24,0,0,0,.935,2.593,7.746,7.746,0,0,0,1.676,2.154,3.967,3.967,0,0,0,2.452,1.061h.005a.181.181,0,0,1,.047.353,3.166,3.166,0,0,1-1.611.035,4.463,4.463,0,0,1-1.486-.661,6.861,6.861,0,0,1-2.129-2.368,7.808,7.808,0,0,1-.632-1.462,7.578,7.578,0,0,1-.3-1.563,5.733,5.733,0,0,1,.545-3.083.225.225,0,0,1,.422.132Z" transform="translate(-2020.36 -892.174)" fill="#371a45"/></g><g transform="translate(20.258 22.879)" opacity="0.35"><g transform="translate(0 0)"><ellipse cx="4.503" cy="5.279" rx="4.503" ry="5.279" transform="translate(0 8.896) rotate(-81.065)" fill="#371a45"/></g></g><g transform="translate(22.625 26.176)"><g transform="translate(0 0)"><ellipse cx="3.966" cy="3.2" rx="3.966" ry="3.2" transform="translate(0 1.064) rotate(-7.711)" fill="#ffda22"/></g></g><g transform="translate(20.126 22.834)"><path d="M1601.367,752.4a6.146,6.146,0,0,1-3.208-1.319,5.747,5.747,0,0,1-1.195-1.351,4.927,4.927,0,0,1-.66-1.723,4.643,4.643,0,0,1,.9-3.567,5.232,5.232,0,0,1,1.382-1.246,5.949,5.949,0,0,1,1.683-.734,7.252,7.252,0,0,1,1.807-.216,6.784,6.784,0,0,1,3.442,1,6.021,6.021,0,0,1,1.381,1.171,4.837,4.837,0,0,1,1.256,3.335,4.264,4.264,0,0,1-1.5,3.119.179.179,0,0,1-.253-.253,3.975,3.975,0,0,0,1-2.861,4.165,4.165,0,0,0-1.236-2.674,5.834,5.834,0,0,0-5.594-1.466,4.68,4.68,0,0,0-2.446,1.549,3.64,3.64,0,0,0-.779,2.69,4.431,4.431,0,0,0,1.362,2.6,6.213,6.213,0,0,0,2.733,1.507h0a.222.222,0,0,1-.08.436Z" transform="translate(-1596.238 -742.239)" fill="#371a45"/></g><g transform="translate(17.961 26.406)"><path d="M1568.325,814.04a5.847,5.847,0,0,1,.581,3.351,6.2,6.2,0,0,1-1.41,3.18,7.349,7.349,0,0,1-2.81,2.061,8.962,8.962,0,0,1-3.4.7,9.538,9.538,0,0,1-3.4-.606,8.541,8.541,0,0,1-2.919-1.832,7.239,7.239,0,0,1-1.872-2.877,5.984,5.984,0,0,1-.136-3.374.179.179,0,0,1,.352.063v0a6.061,6.061,0,0,0,.481,3.038,6.9,6.9,0,0,0,1.839,2.416,8.533,8.533,0,0,0,5.642,1.977,8.118,8.118,0,0,0,2.957-.588,7.285,7.285,0,0,0,1.333-.7c.2-.147.4-.3.6-.456a6.671,6.671,0,0,0,.538-.519l.25-.279c.079-.1.146-.2.22-.3a4.921,4.921,0,0,0,.393-.636,2.19,2.19,0,0,0,.163-.337l.15-.345c.068-.24.153-.479.207-.725a5.867,5.867,0,0,0-.168-3.045.222.222,0,0,1,.41-.168Z" transform="translate(-1552.782 -813.919)" fill="#371a45"/></g><g transform="translate(13.346 9.587)" opacity="0.35"><g transform="translate(0 0)"><ellipse cx="2.801" cy="2.389" rx="2.801" ry="2.389" transform="translate(0 0.358) rotate(-3.667)" fill="#371a45"/></g></g><g transform="translate(14.352 10.631)"><g transform="translate(0 0)"><ellipse cx="2.105" cy="1.698" rx="2.105" ry="1.698" transform="translate(0 1.461) rotate(-20.313)" fill="#ffda22"/></g></g><g transform="translate(12.996 9.271)"><path d="M1456.518,475.519a3.257,3.257,0,0,1-1.842-.292,3.109,3.109,0,0,1-.8-.566,2.684,2.684,0,0,1-.56-.834,2.533,2.533,0,0,1,.046-2.011,3.119,3.119,0,0,1,1.393-1.418,3.59,3.59,0,0,1,3.735.259,2.615,2.615,0,0,1,1.047,1.625,2.281,2.281,0,0,1-.442,1.813.12.12,0,0,1-.2-.128,2.089,2.089,0,0,0,.158-1.573,2.169,2.169,0,0,0-.938-1.2,3.041,3.041,0,0,0-2.991-.095,2.413,2.413,0,0,0-1.053,1.048,1.863,1.863,0,0,0-.1,1.423,2.3,2.3,0,0,0,.967,1.167,3.3,3.3,0,0,0,1.561.484h0a.149.149,0,0,1,.01.3Z" transform="translate(-1453.134 -469.994)" fill="#371a45"/></g><g transform="translate(11.988 10.394)"><path d="M1440.845,492.6a3.1,3.1,0,0,1,.721,1.683,3.334,3.334,0,0,1-.356,1.847,3.955,3.955,0,0,1-1.234,1.424,4.893,4.893,0,0,1-5.312.216,3.866,3.866,0,0,1-1.312-1.3,3.173,3.173,0,0,1-.443-1.759.12.12,0,0,1,.238-.01v0a3.22,3.22,0,0,0,.619,1.49,3.646,3.646,0,0,0,1.223,1.008,4.5,4.5,0,0,0,3.1.35,4.247,4.247,0,0,0,1.435-.633,3.449,3.449,0,0,0,1.067-1.12,2.957,2.957,0,0,0,.419-1.481,3.113,3.113,0,0,0-.408-1.544.149.149,0,0,1,.242-.169Z" transform="translate(-1432.905 -492.553)" fill="#371a45"/></g><g transform="translate(5.758 18.961)"><path d="M1312.305,664.5a4.853,4.853,0,0,1,3.344,3.062,5.972,5.972,0,0,1,.363,2.345,6.9,6.9,0,0,1-.526,2.3,7.219,7.219,0,0,1-3.046,3.464,6.436,6.436,0,0,1-2.175.782,5.378,5.378,0,0,1-2.272-.105.18.18,0,0,1,.054-.353h0a6.346,6.346,0,0,0,3.865-1.16,6.982,6.982,0,0,0,2.469-3.085,6.165,6.165,0,0,0,.454-1.913,5.4,5.4,0,0,0-.191-1.94,4.859,4.859,0,0,0-2.494-2.983.223.223,0,0,1,.151-.417Z" transform="translate(-1307.861 -664.491)" fill="#371a45"/></g><g transform="translate(2.729 19.464)" opacity="0.35"><g transform="translate(0 0)"><ellipse cx="4.368" cy="3.621" rx="4.368" ry="3.621" transform="translate(0 8.246) rotate(-70.704)" fill="#371a45"/></g></g><g transform="translate(5.857 21.071)"><path d="M1310.853,714.212a3.711,3.711,0,0,0,3.6-1.779c1.2-1.793,1-4.133-.447-5.228a2.685,2.685,0,0,0-.65-.365,4.718,4.718,0,0,0-2.506,7.372Z" transform="translate(-1309.847 -706.84)" fill="#ffda22"/></g><g transform="translate(3.72 20.435)"><path d="M1267.561,696.253a4.5,4.5,0,0,1,1.91-1.758,4.351,4.351,0,0,1,1.3-.385,3.849,3.849,0,0,1,1.394.085,3.283,3.283,0,0,1,1.285.621,3.657,3.657,0,0,1,.952,1.082,4.213,4.213,0,0,1,.428,2.759,4.926,4.926,0,0,1-3.544,3.842,3.827,3.827,0,0,1-2.682-.257,3.228,3.228,0,0,1-1.647-2.012.18.18,0,0,1,.334-.128,2.956,2.956,0,0,0,1.618,1.457,3.182,3.182,0,0,0,2.1-.008,4.089,4.089,0,0,0,2.645-3.1,3.137,3.137,0,0,0-.283-1.986,2.6,2.6,0,0,0-1.5-1.254,3.3,3.3,0,0,0-2.088.054,4.555,4.555,0,0,0-1.871,1.248l0,0a.223.223,0,0,1-.356-.264Z" transform="translate(-1266.954 -694.082)" fill="#371a45"/></g><g transform="translate(11.302 42.319)"><path d="M1422.545,1133.35a6.367,6.367,0,0,0-2.94,3.017c-1.049,2.356-.306,4.961,1.613,7.253a13.3,13.3,0,0,0,5.216,3.694c5.479,2.22,11.328.856,13.065-3.047a6.1,6.1,0,0,0,.077-4.6c-.937-2.615-3.465-4.952-6.906-6.346" transform="translate(-1419.127 -1133.321)" fill="#ffda22"/></g><g transform="translate(10.847 45.105)"><path d="M1411.181,1189.6a5.5,5.5,0,0,0-.078,3.323,8.4,8.4,0,0,0,1.592,2.955,12.012,12.012,0,0,0,2.5,2.311,14.057,14.057,0,0,0,3.028,1.61,14.208,14.208,0,0,0,3.32.879,12.5,12.5,0,0,0,3.42.026,9.115,9.115,0,0,0,3.226-1.039,6.276,6.276,0,0,0,2.418-2.372v0a.228.228,0,0,1,.414.187,6.273,6.273,0,0,1-2.315,2.994,9.289,9.289,0,0,1-3.529,1.479,13.563,13.563,0,0,1-7.506-.733,14.613,14.613,0,0,1-3.344-1.823,12.168,12.168,0,0,1-2.689-2.721,8.765,8.765,0,0,1-1.554-3.524,6.186,6.186,0,0,1-.034-1.953,5.45,5.45,0,0,1,.612-1.826.283.283,0,0,1,.516.229Z" transform="translate(-1409.991 -1189.228)" fill="#371a45"/></g><g transform="translate(12.356 41.475)" opacity="0.35"><g transform="translate(0 0)"><ellipse cx="5.909" cy="8.131" rx="5.909" ry="8.131" transform="matrix(0.256, -0.967, 0.967, 0.256, 0, 11.425)" fill="#371a45"/></g></g><g transform="translate(14.565 45.424)"><g transform="translate(0 0)"><ellipse cx="4.346" cy="6.892" rx="4.346" ry="6.892" transform="translate(0 8.556) rotate(-79.844)" fill="#ffda22"/></g></g><g transform="translate(13.202 42.301)"><path d="M1471,1145.008a5.059,5.059,0,0,0,1.529-1.449,3.668,3.668,0,0,0,.447-.916l.074-.242a1.149,1.149,0,0,0,.06-.244c.02-.167.063-.329.068-.5a4.309,4.309,0,0,0-.321-1.973,6.562,6.562,0,0,0-1.065-1.759,8.449,8.449,0,0,0-1.533-1.429,9.847,9.847,0,0,0-.883-.582c-.151-.091-.313-.165-.468-.249a5.029,5.029,0,0,0-.478-.231l-.486-.216-.5-.18-.25-.09-.256-.071c-.171-.046-.34-.1-.512-.14a11.646,11.646,0,0,0-2.091-.27,8.8,8.8,0,0,0-2.067.207,6.081,6.081,0,0,0-1.861.769,4.1,4.1,0,0,0-1.354,1.368,3.762,3.762,0,0,0-.525,1.837,4.757,4.757,0,0,0,.406,1.968,7.378,7.378,0,0,0,1.112,1.794,9.551,9.551,0,0,0,1.578,1.493l.447.323c.151.1.313.194.468.295l.235.148c.08.046.163.088.245.132l.493.263.012.006a.228.228,0,0,1-.183.415,11.039,11.039,0,0,1-2.126-.974,9.7,9.7,0,0,1-1.871-1.461,8.132,8.132,0,0,1-1.427-1.963,5.666,5.666,0,0,1-.644-2.427,4.884,4.884,0,0,1,.592-2.519,5.5,5.5,0,0,1,1.747-1.9,7,7,0,0,1,2.3-1.014,10.3,10.3,0,0,1,2.448-.279,11.628,11.628,0,0,1,2.416.315c.2.049.39.109.585.164l.292.084.285.1.569.211.553.25a5.024,5.024,0,0,1,.54.277c.176.1.356.192.527.3a11.289,11.289,0,0,1,1,.7,10.657,10.657,0,0,1,.92.8l.417.45c.139.15.257.321.385.481a7.676,7.676,0,0,1,1.165,2.185,5.443,5.443,0,0,1,.219,2.507,5.89,5.89,0,0,1-.144.621,1.666,1.666,0,0,1-.1.3l-.121.293a4.278,4.278,0,0,1-.658,1.065,5.278,5.278,0,0,1-1.943,1.439.283.283,0,0,1-.265-.5Z" transform="translate(-1457.27 -1132.957)" fill="#371a45"/></g></g><g transform="translate(25.969 126.933)" opacity="0.35"><path d="M1750.015,2845.725a15.277,15.277,0,0,0-6.851-3.01l-.18,1.235a2.679,2.679,0,0,1-3.4,2.443,77.412,77.412,0,0,0-8.032-1.89c-2.429-.383-5.631-.729-8.01-.963a2.681,2.681,0,0,1-2.289-3.489l.129-.7c-2.11-.144-5.378-.016-7.868,1.682.68-2.22,1.365-4.309,2.037-6.257,2.7-1.605,6.392-1.507,8.278-1.322.847-1.035,1.775-1.882,2.381-1.818a73.481,73.481,0,0,1,15.289,3.061c.421.141.808.823,1.127,1.687a17.751,17.751,0,0,1,7.174,2.745c.094,1.855.168,3.849.2,5.968C1750.008,2845.3,1750.012,2845.514,1750.015,2845.725Z" transform="translate(-1713.514 -2831.634)" fill="#371a45"/></g><g transform="translate(53.951 130.071)"><g transform="translate(0 0)"><path d="M2275.144,2900.382s6.594.637,9.047,4.971c0,0,1.42-2.613.629-4.94-1.647-4.846-9.314-5.807-9.314-5.807Z" transform="translate(-2275.144 -2894.606)" fill="#fff"/></g></g><g transform="translate(53.95 130.071)" opacity="0.35"><g transform="translate(0 0)"><path d="M2284.176,2905.358c-2.453-4.334-9.048-4.971-9.048-4.971l.364-5.775s.081.01.229.034l-.208,3.294s6.595.638,9.048,4.973a7.633,7.633,0,0,0,.478-1.153A7.938,7.938,0,0,1,2284.176,2905.358Z" transform="translate(-2275.127 -2894.612)" fill="#371a45"/></g></g><g transform="translate(53.328 129.448)"><path d="M2272.311,2894.1a.622.622,0,0,1-.542-.316c-2.267-4.006-8.5-4.652-8.566-4.658a.623.623,0,0,1-.561-.659l.363-5.775a.623.623,0,0,1,.7-.579c.329.042,8.073,1.068,9.825,6.225a7.641,7.641,0,0,1-.671,5.437.623.623,0,0,1-.542.326Zm-8.389-6.135c1.58.25,5.862,1.184,8.259,4.208a5.554,5.554,0,0,0,.17-3.437c-1.231-3.624-6.319-4.923-8.145-5.278Z" transform="translate(-2262.641 -2882.11)" fill="#371a45"/></g><g transform="translate(26.34 127.256)"><path d="M1731.2,2843.959s-6.471-1.421-10.137,1.949c0,0-.547-2.923.92-4.894,3.057-4.105,10.648-2.662,10.648-2.662Z" transform="translate(-1720.965 -2838.106)" fill="#fff"/></g><g transform="translate(26.34 127.467)" opacity="0.35"><path d="M1732.63,2842.378l-1.431,5.607s-6.47-1.421-10.136,1.948a7.972,7.972,0,0,1,.257-3.618,7.9,7.9,0,0,0,.1,1.355c3.666-3.369,10.136-1.948,10.136-1.948l.863-3.379C1732.556,2842.364,1732.63,2842.378,1732.63,2842.378Z" transform="translate(-1720.962 -2842.343)" fill="#371a45"/></g><g transform="translate(25.716 126.626)"><g transform="translate(0 0)"><path d="M1709.167,2834.534a.623.623,0,0,1-.612-.509,7.641,7.641,0,0,1,1.033-5.381c3.252-4.368,10.938-2.964,11.263-2.9a.622.622,0,0,1,.487.766l-1.43,5.607a.625.625,0,0,1-.737.455c-.062-.014-6.2-1.308-9.583,1.8A.621.621,0,0,1,1709.167,2834.534Zm8.539-7.8c-2.336,0-5.484.457-7.119,2.653a5.537,5.537,0,0,0-.9,3.324c3.21-2.143,7.574-1.716,9.155-1.466l1.116-4.375A18.888,18.888,0,0,0,1717.706,2826.735Z" transform="translate(-1708.443 -2825.479)" fill="#371a45"/></g></g><g transform="translate(34.344 125.649)"><path d="M1881.738,2813.712a2.5,2.5,0,0,0,2.136,3.256c2.221.219,5.21.542,7.477.9a72.668,72.668,0,0,1,7.5,1.764,2.5,2.5,0,0,0,3.175-2.279l.455-3.1c.057-1.12-.779-5.177-1.842-5.533a68.477,68.477,0,0,0-14.272-2.858c-1.179-.125-3.666,3.449-4.029,4.577Z" transform="translate(-1881.616 -2805.855)" fill="#fff"/></g><g transform="translate(34.344 125.649)" opacity="0.35"><path d="M1881.738,2813.712a2.5,2.5,0,0,0,2.136,3.256c2.221.219,5.21.542,7.477.9a72.668,72.668,0,0,1,7.5,1.764,2.5,2.5,0,0,0,3.175-2.279l.455-3.1c.057-1.12-.779-5.177-1.842-5.533a68.477,68.477,0,0,0-14.272-2.858c-1.179-.125-3.666,3.449-4.029,4.577Z" transform="translate(-1881.616 -2805.855)" fill="#371a45"/></g><g transform="translate(33.722 125.027)"><path d="M1887.656,2808.484a3.145,3.145,0,0,1-.852-.118,72.238,72.238,0,0,0-7.426-1.749c-2.279-.359-5.3-.685-7.441-.894a3.123,3.123,0,0,1-2.681-4.026l.59-3.239a.707.707,0,0,1,.02-.08c.351-1.088,2.868-5.011,4.576-5.011a1.073,1.073,0,0,1,.112.006,69.3,69.3,0,0,1,14.4,2.887c1.623.542,2.31,5.323,2.267,6.155a.543.543,0,0,1-.006.059l-.451,3.075a3.126,3.126,0,0,1-3.112,2.935Zm-16.592-9.76-.589,3.234a.579.579,0,0,1-.021.079,1.879,1.879,0,0,0,1.6,2.446c2.153.211,5.2.539,7.513.9a73.7,73.7,0,0,1,7.569,1.78,1.878,1.878,0,0,0,2.385-1.711.471.471,0,0,1,.005-.058l.451-3.073c.048-1.253-.851-4.606-1.426-4.885a68.1,68.1,0,0,0-14.134-2.827h0C1873.734,2794.612,1871.487,2797.5,1871.065,2798.724Zm-1.2,3.122h0Z" transform="translate(-1869.118 -2793.367)" fill="#371a45"/></g><g transform="translate(34.783 122.853)"><g transform="translate(0 0)"><path d="M1907.663,2763.518a72.948,72.948,0,0,0-7.5-1.765c-2.267-.357-5.255-.68-7.477-.9a2.5,2.5,0,0,1-2.136-3.257l.73-2.265,1.247-3.871a2.5,2.5,0,0,1,2.649-1.718,68.5,68.5,0,0,1,14.271,2.858,2.5,2.5,0,0,1,1.7,2.5l-.035.681-.278,5.456A2.5,2.5,0,0,1,1907.663,2763.518Z" transform="translate(-1890.43 -2749.731)" fill="#fff"/></g></g><g transform="translate(34.783 128.456)" opacity="0.35"><g transform="translate(0 0)"><path d="M1907.663,2870.379a72.692,72.692,0,0,0-7.5-1.764c-2.267-.357-5.255-.681-7.477-.9a2.5,2.5,0,0,1-2.136-3.257l.73-2.265c.594,4.736,12.067,5.951,12.6,3.614a9.121,9.121,0,0,1,.263-1.675c.433-.46,1.271.471,2.1.671.755.181,1.684-.244,1.92.292a5.72,5.72,0,0,1-.264,1.675,1.182,1.182,0,0,1-.2.424c2.364-.664,2.869-2.3,3.411-4.551l-.278,5.457A2.5,2.5,0,0,1,1907.663,2870.379Z" transform="translate(-1890.43 -2862.195)" fill="#371a45"/></g></g><g transform="translate(34.161 122.23)"><g transform="translate(0 0)"><path d="M1896.468,2752.363a3.143,3.143,0,0,1-.852-.118,72.239,72.239,0,0,0-7.426-1.749c-2.276-.359-5.3-.685-7.441-.895a3.123,3.123,0,0,1-2.668-4.067l1.978-6.135a3.142,3.142,0,0,1,3.307-2.147,69.38,69.38,0,0,1,14.4,2.887,3.131,3.131,0,0,1,2.126,3.121l-.313,6.138a3.125,3.125,0,0,1-3.114,2.965Zm-13.43-13.883a1.891,1.891,0,0,0-1.793,1.3l-1.978,6.135h0a1.877,1.877,0,0,0,1.6,2.445c2.154.212,5.207.54,7.513.9a73.833,73.833,0,0,1,7.57,1.781,1.877,1.877,0,0,0,2.384-1.712l.314-6.138a1.881,1.881,0,0,0-1.276-1.876,68.086,68.086,0,0,0-14.14-2.829A1.918,1.918,0,0,0,1883.038,2738.48Zm-4.364,7.246h0Z" transform="translate(-1877.929 -2737.235)" fill="#371a45"/></g></g><g transform="translate(48.933 128.758)"><path d="M2174.438,2869.712a7.639,7.639,0,0,1,.212-1.344c.348-.37,1.019.378,1.688.537" transform="translate(-2174.438 -2868.266)" fill="#22a7f0"/></g><g transform="translate(48.661 128.594)"><g transform="translate(0 0)"><path d="M2172.689,2867.494a1.705,1.705,0,0,1-2.169.921c-1.018-.243-1.7-1.051-1.518-1.8a8.661,8.661,0,0,1,.242-1.535c.4-.422,1.164.432,1.927.614.692.166,1.543-.224,1.76.268A5.194,5.194,0,0,1,2172.689,2867.494Z" transform="translate(-2168.974 -2864.96)" fill="#22a7f0"/></g></g><g transform="translate(48.661 128.594)" opacity="0.35"><g transform="translate(0 0)"><path d="M2172.689,2867.494a1.705,1.705,0,0,1-2.169.921c-1.018-.243-1.7-1.051-1.518-1.8a8.661,8.661,0,0,1,.242-1.535c.4-.422,1.164.432,1.927.614.692.166,1.543-.224,1.76.268A5.194,5.194,0,0,1,2172.689,2867.494Z" transform="translate(-2168.974 -2864.96)" fill="#371a45"/></g></g><g transform="translate(48.288 128.218)"><g transform="translate(0 0)"><path d="M2163.982,2861.692a2.86,2.86,0,0,1-.662-.079,2.071,2.071,0,0,1-1.794-2.254c.009-.043.027-.227.042-.374.087-.871.138-1.169.291-1.332.447-.474,1.042-.129,1.521.147a3.162,3.162,0,0,0,.766.36,2.517,2.517,0,0,0,.73.016c.467-.033,1.048-.074,1.284.465.106.241.057.662-.194,1.666l-.026.106A1.9,1.9,0,0,1,2163.982,2861.692Zm-1.555-3.524c-.046.194-.092.655-.116.89a4.221,4.221,0,0,1-.059.474c-.129.542.439,1.161,1.241,1.354s1.59-.1,1.719-.645h0l.028-.114a5.535,5.535,0,0,0,.226-1.19,1.575,1.575,0,0,0-.539-.014,3.14,3.14,0,0,1-.956-.035,3.732,3.732,0,0,1-.966-.439A2.524,2.524,0,0,0,2162.427,2858.169Zm3.037.739Z" transform="translate(-2161.487 -2857.419)" fill="#371a45"/></g></g><g transform="translate(48.606 127.347)"><g transform="translate(0 0)"><ellipse cx="1.401" cy="1.895" rx="1.401" ry="1.895" transform="translate(0 2.725) rotate(-76.546)" fill="#22a7f0"/></g></g><g transform="translate(48.53 127.344)"><g transform="translate(0 0)"><path d="M2168.836,2843.493a2.854,2.854,0,0,1-.662-.079,2.071,2.071,0,0,1-1.794-2.254,1.605,1.605,0,0,1,.988-1.092,2.767,2.767,0,0,1,3.039.727,1.6,1.6,0,0,1,.387,1.42A1.9,1.9,0,0,1,2168.836,2843.493Zm-.51-2.865a1.706,1.706,0,0,0-.666.128.878.878,0,0,0-.553.577c-.13.542.439,1.161,1.241,1.353s1.589-.1,1.719-.645a.879.879,0,0,0-.232-.765,1.888,1.888,0,0,0-1.009-.588A2.182,2.182,0,0,0,2168.326,2840.629Z" transform="translate(-2166.341 -2839.882)" fill="#371a45"/></g></g><g transform="translate(42.715 122.8)"><g transform="translate(0 0)"><path d="M2051.922,2761.45a.621.621,0,0,1-.616-.719l.793-5.034a.635.635,0,0,0-.249-.609l-1.465-1.088a1.877,1.877,0,0,1-.736-1.8l.472-3a.623.623,0,0,1,1.231.194l-.473,3a.632.632,0,0,0,.249.608l1.465,1.088a1.876,1.876,0,0,1,.736,1.8l-.793,5.034A.623.623,0,0,1,2051.922,2761.45Z" transform="translate(-2049.626 -2748.669)" fill="#371a45"/></g></g><g transform="translate(13.452 149.355)"><path d="M1478.88,3297.16c-2.563.91-8.927-1.061-13.086-5.285h0a15.7,15.7,0,0,1-1.4-1.624c-1.915-2.572-2.6-5.721-1.776-7.964,1.011-.719,2.615-1.068,4.95.46a25.748,25.748,0,0,1,5.629,5.838v0l.582.751C1475.969,3292.144,1480.087,3295.114,1478.88,3297.16Z" transform="translate(-1462.274 -3281.673)" fill="#afafb2"/></g><g transform="translate(16.971 156.268)" opacity="0.35"><path d="M1545.992,3429c-2.563.91-8.927-1.061-13.086-5.285a6.488,6.488,0,0,0,5.677.63c1.857-.774,2.033-2.426,1.727-3.918l.582.751C1543.081,3423.983,1547.2,3426.953,1545.992,3429Z" transform="translate(-1532.906 -3420.425)" fill="#371a45"/></g><g transform="translate(13.451 149.355)" opacity="0.7"><path d="M1472.358,3287.521a48.326,48.326,0,0,0-4.1-2.826,8.652,8.652,0,0,0-1.416-.7,3.149,3.149,0,0,0-4.245,2.659,7.19,7.19,0,0,1,.013-4.367c1.011-.719,2.615-1.068,4.949.46A22.034,22.034,0,0,1,1472.358,3287.521Z" transform="translate(-1462.264 -3281.673)" fill="#fff"/></g><g transform="translate(50.617 157.566)"><path d="M2225.6,3453.5a15.874,15.874,0,0,1-2.785,1.772c-5.231,2.628-11.4,2.312-13.786.187a7.227,7.227,0,0,1-.729-.752,1.464,1.464,0,0,1,.078-1.094c.853-1.858,3.232-2.151,6.321-2.907a23.37,23.37,0,0,0,6.437-2.465c2.767-1.614,5.551-2.6,7-.8A6.488,6.488,0,0,1,2225.6,3453.5Z" transform="translate(-2208.23 -3446.479)" fill="#afafb2"/></g><g transform="translate(50.617 161.792)" opacity="0.35"><path d="M2222.817,3535.862c-5.231,2.628-11.4,2.311-13.786.187a7.275,7.275,0,0,1-.729-.752,1.465,1.465,0,0,1,.078-1.094c.853-1.859,3.232-2.151,6.321-2.907a4.439,4.439,0,0,0,.53,3.084C2216.419,3536.228,2220.691,3536.067,2222.817,3535.862Z" transform="translate(-2208.23 -3531.296)" fill="#371a45"/></g><g transform="translate(53.137 157.566)" opacity="0.7"><path d="M2274.712,3452.472a6.3,6.3,0,0,0,.46-1.416,2.463,2.463,0,0,0-2.709-2.947,12.335,12.335,0,0,0-4.272,1.722c-3.158,1.843-6.62,1.846-9.38,1.9,2.452-.887,6.3-1.1,10.388-3.487,2.766-1.614,5.551-2.6,7-.8A6.2,6.2,0,0,1,2274.712,3452.472Z" transform="translate(-2258.812 -3446.479)" fill="#fff"/></g><g transform="translate(12.952 148.857)"><path d="M1467.848,3288.365c-3.647,0-9.836-2.56-13.383-7.324-2.012-2.7-2.736-6.012-1.844-8.434a.5.5,0,0,1,.179-.234c1.055-.749,2.869-1.28,5.511.45a26.427,26.427,0,0,1,5.842,6.07l.489.632c.609.78,1.389,1.593,2.144,2.379,2.082,2.167,4.048,4.216,2.993,6a.494.494,0,0,1-.263.216A5.051,5.051,0,0,1,1467.848,3288.365Zm1.5-.712h0ZM1453.5,3273.1c-.682,2.074.014,5,1.76,7.346,3.943,5.3,11.093,7.508,13.732,6.8.432-1.146-1.276-2.926-2.93-4.648-.772-.8-1.57-1.635-2.211-2.456-.159-.2-.323-.416-.492-.636a25.705,25.705,0,0,0-5.6-5.844C1456.083,3272.556,1454.651,3272.368,1453.5,3273.1Z" transform="translate(-1452.244 -3271.668)" fill="#371a45"/></g><g transform="translate(20.895 84.524)"><g transform="translate(0 0)"><path d="M1612.258,2001.013a.5.5,0,0,1-.493-.432c-.506-3.774,1.383-5.671,2.764-7.057,1.324-1.33,1.989-2,.777-3.575-3.933-5.121-1.746-9.1-1.651-9.267a.5.5,0,0,1,.867.492c-.085.152-1.934,3.6,1.575,8.167,1.744,2.271.42,3.6-.861,4.886-1.37,1.375-2.923,2.934-2.482,6.22a.5.5,0,0,1-.428.561A.564.564,0,0,1,1612.258,2001.013Z" transform="translate(-1611.681 -1980.431)" fill="#371a45"/></g></g><g transform="translate(50.118 157.072)"><path d="M2205.431,3448.248a9.567,9.567,0,0,1-6.241-1.836,7.891,7.891,0,0,1-.78-.8.5.5,0,0,1-.093-.167,1.959,1.959,0,0,1,.1-1.454c.84-1.831,2.875-2.3,5.452-2.9a25.512,25.512,0,0,0,7.508-2.695c1.377-.8,5.568-3.25,7.636-.679a.492.492,0,0,1,.1.219,6.934,6.934,0,0,1-2.711,6.539h0A18.077,18.077,0,0,1,2205.431,3448.248Zm-6.189-3.2a6.8,6.8,0,0,0,.611.621c2.557,2.273,10.372,2.444,15.93-1.977h0a6.053,6.053,0,0,0,2.375-5.447c-1.055-1.17-3.111-.84-6.279,1.008a26.365,26.365,0,0,1-7.785,2.8c-2.4.557-4.136.959-4.771,2.344A.976.976,0,0,0,2199.242,3445.047Z" transform="translate(-2198.222 -3436.567)" fill="#371a45"/></g><g transform="translate(57.239 113.671)"><path d="M2356.459,2573.1c0,.077,0,.155,0,.231a7.662,7.662,0,0,1-15.318,0c0-.077,0-.154,0-.231a7.656,7.656,0,0,1,7.544-7.661h.238a7.655,7.655,0,0,1,7.543,7.661Z" transform="translate(-2341.135 -2565.438)" fill="#00bdff"/></g><g transform="translate(54.065 110.497)"><g transform="translate(0 0)" clip-path="url(#a)"><g transform="translate(-0.144 -0.592)"><g transform="translate(0.125 0.123)"><g transform="translate(10.719)"><path d="M2496.359,2507.877a1.291,1.291,0,0,0-.56-.941,1.771,1.771,0,0,1-.551-1.278c-.045-.341-.259-.6-.591-.37-.762.539-1.868-.281-2.085-1.067a3,3,0,0,1,.438-2.293,1.089,1.089,0,0,1,1.421-.4c.591.289,1.511-.605,1.607-1.189a.429.429,0,0,0-.005-.21.766.766,0,0,0-1.331-.073.629.629,0,0,1-.87.265c-.6-.32-.79-.053-1,.537-.066.19-.067.534-.3.388a.6.6,0,0,1-.31-.7,12.718,12.718,0,0,0,.742-2.089c.012-.047.059-.11.091-.114.747-.078.668-1.041.815-1.577.051-.189.011-.275-.11-.35s-.182.01-.23.144c-.081.223-.16.447-.243.669-.042.114-.057.287-.183.269-.149-.022-.226-.2-.217-.368a2.565,2.565,0,0,1,.437-1.378.746.746,0,0,1,.969-.275,1.021,1.021,0,0,0,1.188.014,3.768,3.768,0,0,1,.6-.264.981.981,0,0,0,.668-.721.9.9,0,0,1,.714-.658.5.5,0,0,0,.422-.425,1.394,1.394,0,0,1,.927-.971,1.467,1.467,0,0,1,1.688.308c.131.135.267.083.4.055.334-.072.691-.126,1.009-.206a.815.815,0,0,1,.742.247.343.343,0,0,0,.347.127c.165-.024.343-.026.5-.045a.617.617,0,0,1,.736.374.767.767,0,0,1-.455.859,1.339,1.339,0,0,1-.3.041c-.291,0-.34.188-.242.557a1.9,1.9,0,0,1-.9,2.25c-.2.071-.318.151-.222.477a.769.769,0,0,1-.006.547,1.844,1.844,0,0,0-.172,1.292.357.357,0,0,1-.536.418,9.8,9.8,0,0,1-.969-.655c-.24-.181-.376-.124-.478.2-.088.275-.232.556-.3.822-.085.34-.369.574-.682.314a1,1,0,0,0-.915-.221.488.488,0,0,1-.4-.113c-.128-.1-.276-.2-.343.058-.063.248.142.232.233.308a5.357,5.357,0,0,0,.525.356.519.519,0,0,1,.141.8.654.654,0,0,1-.9.282c-.229-.145-.454-.3-.682-.443-.108-.069-.209-.192-.309.057s.047.283.147.352c.4.269.8.535,1.207.79a.786.786,0,0,1,.282,1.028,3.048,3.048,0,0,0-.04,2.4,10.139,10.139,0,0,1,.271,1.041,1.678,1.678,0,0,1-.959,1.951.57.57,0,0,1-.656-.432C2496.485,2508.394,2496.423,2508.131,2496.359,2507.877Z" transform="translate(-2492.187 -2492.316)" fill="#5ce205"/></g><g transform="translate(0 7.592)"><path d="M2277.24,2647.83c-.326-.67-.276-1.2.471-1.483q1.656-.72,3.267-1.533c.181-.091.366-.2.527,0a.627.627,0,0,1,.058.606c-.123.4.173.5.452.634a.624.624,0,0,0,.685-.226c.17-.17,0-.381-.038-.571-.024-.132-.1-.273,0-.389s.211-.007.3.055a.468.468,0,0,0,.547.03.338.338,0,0,1,.492.107.729.729,0,0,1,.032.661c-.324.9-.688,1.808-1,2.681-.136.375-.553.5-.886.642a.537.537,0,0,0-.2.79c.059.115.125.2.231.156.422-.17.774.137,1.086.354a.833.833,0,0,0,.853.121.879.879,0,0,1,.962.044,1.367,1.367,0,0,0,.969.305c.431-.122.656,1.125.569,1.447-.238.88-.56,1.822-.892,2.687a2.043,2.043,0,0,0-.056,1.407c.077.231.138.5.2.758.035.158.15.351.065.475-.106.153-.264-.008-.387-.08a1.932,1.932,0,0,1-.8-1.168c-.091-.336-.2-.681-.266-1.018a2.575,2.575,0,0,0-1-1.774,2.353,2.353,0,0,1-.6-2.163c.044-.155.245-.321.091-.5s-.376-.417-.593-.331a1.388,1.388,0,0,1-1.28-.367,8.341,8.341,0,0,0-1.05-.726c-.549-.3-.7-.945-.893-1.475a1.484,1.484,0,0,0-1.3-.89C2277.51,2647.145,2277.4,2647.546,2277.24,2647.83Z" transform="translate(-2277.049 -2644.701)" fill="#5ce205"/></g><g transform="translate(22.218 9.002)"><path d="M2725.654,2674.218a.2.2,0,0,1,.012.041c.018.212.258.429.067.617a.778.778,0,0,1-.81.223.9.9,0,0,0-.9.088.649.649,0,0,1-.846-.122,1.031,1.031,0,0,1-.1-1.033,1.478,1.478,0,0,1,1.294-1.041C2724.958,2673.023,2725.48,2673.692,2725.654,2674.218Z" transform="translate(-2722.99 -2672.989)" fill="#5ce205"/></g><g transform="translate(6.343 3.33)"><path d="M2405.675,2559.7c.138-.076.285-.156.416-.226.278-.147.76-.561,1.014-.117a2.122,2.122,0,0,1,.209,1.882c-.2.556-.438,1.152-.626,1.74-.159.492-.355.554-.676.276a1.247,1.247,0,0,1-.471-.564,1.588,1.588,0,0,0-.805-.942.576.576,0,0,1-.358-.669c.062-.335.134-.755.469-.925.272-.139.553-.3.83-.452Z" transform="translate(-2404.363 -2559.154)" fill="#5ce205"/></g><g transform="translate(4.574 6.361)"><path d="M2369.706,2620.646c-.238.145-.441.247-.662.155a.3.3,0,0,1-.189-.228c-.026-.156.1-.185.18-.234.137-.082.28-.15.42-.229.248-.14.531-.214.613.159C2370.145,2620.614,2369.794,2620.509,2369.706,2620.646Z" transform="translate(-2368.852 -2619.996)" fill="#5ce205"/></g><g transform="translate(20.256 8.335)"><path d="M2683.755,2659.611a1.305,1.305,0,0,1,1,.479.171.171,0,0,1-.129.271,1.483,1.483,0,0,1-1-.5C2683.571,2659.771,2683.618,2659.668,2683.755,2659.611Z" transform="translate(-2683.604 -2659.609)" fill="#5ce205"/></g><g transform="translate(16.762 12.908)"><path d="M2613.523,2752.276c-.055-.291-.079-.669.2-.854.206-.138.234.165.276.333.07.288.1.668-.187.853C2613.577,2752.757,2613.6,2752.426,2613.523,2752.276Z" transform="translate(-2613.488 -2751.387)" fill="#5ce205"/></g><g transform="translate(21.995 3.206)"><path d="M2719.231,2556.72c.052.355-.275,1.033-.549,1.1-.072.018-.2-.065-.158-.16a1.833,1.833,0,0,1,.511-.943C2719.088,2556.681,2719.2,2556.626,2719.231,2556.72Z" transform="translate(-2718.517 -2556.668)" fill="#5ce205"/></g><g transform="translate(22.192 7.954)"><path d="M2722.836,2652.67c-.1,0-.294.245-.359-.081-.069-.349.157-.476.389-.525.124-.026.311-.213.375.025A.452.452,0,0,1,2722.836,2652.67Z" transform="translate(-2722.465 -2651.97)" fill="#5ce205"/></g><g transform="translate(25.16 9.893)"><path d="M2782.559,2691.344c-.017.11.211.262-.014.321s-.356-.153-.41-.379c-.031-.13-.195-.337-.01-.394C2782.444,2690.794,2782.456,2691.142,2782.559,2691.344Z" transform="translate(-2782.039 -2690.875)" fill="#5ce205"/></g><g transform="translate(10.487 5.478)"><path d="M2487.918,2602.625c.064.244.176.609-.089.772-.167.1-.19-.162-.217-.3-.047-.247-.183-.62.059-.8C2487.88,2602.135,2487.822,2602.557,2487.918,2602.625Z" transform="translate(-2487.532 -2602.258)" fill="#5ce205"/></g><g transform="translate(21.201 7.026)"><path d="M2702.984,2633.644c.062.251.127.5-.124.586-.2.066-.182-.192-.232-.327a.417.417,0,0,1,.131-.547C2702.966,2633.254,2702.92,2633.547,2702.984,2633.644Z" transform="translate(-2702.584 -2633.335)" fill="#5ce205"/></g><g transform="translate(10.1 6.296)"><path d="M2480.094,2618.855c.038.161.019.29-.116.351-.091.042-.161.013-.194-.112a.345.345,0,0,1,.1-.381C2480,2618.623,2480.054,2618.725,2480.094,2618.855Z" transform="translate(-2479.766 -2618.679)" fill="#5ce205"/></g></g><g transform="translate(10.719)"><path d="M2494.738,2506.868a.719.719,0,0,1-.659-.533c-.065-.2-.118-.421-.17-.63l-.035-.139c0-.006,0-.012,0-.019a1.158,1.158,0,0,0-.506-.85,1.88,1.88,0,0,1-.605-1.365.432.432,0,0,0-.176-.34.229.229,0,0,0-.22.055,1.148,1.148,0,0,1-1.078.113,2.014,2.014,0,0,1-1.2-1.25,3.107,3.107,0,0,1,.45-2.39,1.209,1.209,0,0,1,1.583-.449.652.652,0,0,0,.572-.062,1.765,1.765,0,0,0,.858-1.035.339.339,0,0,0,0-.138.622.622,0,0,0-.551-.352.594.594,0,0,0-.557.288.758.758,0,0,1-1.038.315.606.606,0,0,0-.469-.105c-.145.057-.245.27-.349.573-.014.039-.023.085-.035.13-.032.143-.069.3-.2.36a.267.267,0,0,1-.25-.038.718.718,0,0,1-.358-.859,12.492,12.492,0,0,0,.735-2.068c.019-.078.095-.2.2-.208.444-.047.54-.463.626-1.047a3.992,3.992,0,0,1,.082-.439c.042-.152.006-.174-.055-.211-.005-.013-.021,0-.049.08l-.083.23c-.052.146-.105.294-.159.44-.008.021-.014.044-.021.068-.03.1-.088.314-.3.28a.447.447,0,0,1-.323-.5,2.731,2.731,0,0,1,.462-1.447.862.862,0,0,1,1.137-.3.9.9,0,0,0,1.062.008,3.787,3.787,0,0,1,.616-.272.864.864,0,0,0,.583-.632,1.028,1.028,0,0,1,.812-.751.377.377,0,0,0,.324-.332,1.51,1.51,0,0,1,1.009-1.059,1.59,1.59,0,0,1,1.817.339c.064.067.119.057.234.03l.045-.01c.134-.029.272-.055.409-.081.2-.038.409-.077.6-.125a.943.943,0,0,1,.869.29.217.217,0,0,0,.232.082c.1-.014.2-.021.3-.028.072-.005.142-.01.208-.018a.738.738,0,0,1,.858.435.133.133,0,0,1,.014.035.883.883,0,0,1-.545,1.008,1.459,1.459,0,0,1-.334.045.2.2,0,0,0-.142.042c-.021.028-.046.112.019.358a2.015,2.015,0,0,1-.977,2.4c-.153.053-.217.075-.144.324a.873.873,0,0,1-.013.636,1.7,1.7,0,0,0-.164,1.2.482.482,0,0,1-.719.561,10.12,10.12,0,0,1-.981-.663c-.11-.084-.154-.079-.166-.076s-.062.032-.118.209c-.039.123-.089.248-.139.371a3.345,3.345,0,0,0-.158.445.668.668,0,0,1-.4.5.5.5,0,0,1-.482-.118.869.869,0,0,0-.8-.2.605.605,0,0,1-.507-.135.623.623,0,0,0-.125-.079c0,.006-.011.026-.022.07-.02.076-.02.076.07.113a.477.477,0,0,1,.122.067,4.125,4.125,0,0,0,.421.29l.092.058a.662.662,0,0,1,.313.424.714.714,0,0,1-.135.548.979.979,0,0,1-.593.422.63.63,0,0,1-.482-.108c-.116-.073-.236-.152-.354-.23s-.215-.141-.323-.21l-.048-.033-.047-.031a.334.334,0,0,0-.031.063c-.047.118-.037.124.038.165a.689.689,0,0,1,.063.037c.325.22.756.508,1.2.788a.907.907,0,0,1,.327,1.19,2.9,2.9,0,0,0-.031,2.308,10.089,10.089,0,0,1,.274,1.054,1.794,1.794,0,0,1-1.052,2.1A.655.655,0,0,1,2494.738,2506.868Zm-.62-1.354.033.131c.051.206.1.418.166.616a.447.447,0,0,0,.51.348c.728-.178,1-1.187.865-1.8a9.982,9.982,0,0,0-.268-1.03,3.124,3.124,0,0,1,.047-2.5.661.661,0,0,0-.237-.866c-.45-.281-.884-.571-1.211-.792l-.043-.025c-.09-.05-.277-.153-.15-.475a.339.339,0,0,1,.194-.219.3.3,0,0,1,.26.076l.038.027c.109.07.218.141.326.212s.236.155.355.23a.388.388,0,0,0,.3.07.726.726,0,0,0,.433-.318.47.47,0,0,0,.1-.358.412.412,0,0,0-.2-.262l-.089-.057a4.325,4.325,0,0,1-.447-.308.3.3,0,0,0-.06-.03.31.31,0,0,1-.216-.405.333.333,0,0,1,.184-.247c.135-.047.263.05.356.12a.37.37,0,0,0,.3.092,1.114,1.114,0,0,1,1.012.236.271.271,0,0,0,.258.083.438.438,0,0,0,.236-.322,3.831,3.831,0,0,1,.169-.477c.048-.117.095-.235.132-.352.043-.135.118-.32.281-.372a.435.435,0,0,1,.392.115,9.723,9.723,0,0,0,.956.646.233.233,0,0,0,.354-.277,1.935,1.935,0,0,1,.179-1.38.643.643,0,0,0,0-.458c-.116-.4.036-.537.3-.629a1.773,1.773,0,0,0,.818-2.1.686.686,0,0,1,.023-.572.406.406,0,0,1,.337-.142,1.2,1.2,0,0,0,.275-.037.644.644,0,0,0,.369-.693.49.49,0,0,0-.6-.3c-.069.009-.144.013-.219.019-.093.006-.187.013-.278.026a.461.461,0,0,1-.461-.172.687.687,0,0,0-.615-.2c-.195.048-.406.089-.61.127-.135.025-.271.051-.4.08l-.04.009a.444.444,0,0,1-.471-.1,1.332,1.332,0,0,0-1.558-.277,1.26,1.26,0,0,0-.845.881.626.626,0,0,1-.521.519.778.778,0,0,0-.616.568,1.11,1.11,0,0,1-.753.808,3.553,3.553,0,0,0-.561.249,1.161,1.161,0,0,1-1.328-.015c-.282-.188-.638.032-.8.247a2.484,2.484,0,0,0-.412,1.31c-.006.117.045.228.11.238a.358.358,0,0,1,.022-.1c.009-.03.018-.059.027-.085q.08-.219.159-.438l.083-.23a.362.362,0,0,1,.192-.242.251.251,0,0,1,.221.036.379.379,0,0,1,.165.489,3.776,3.776,0,0,0-.075.41c-.077.521-.173,1.168-.817,1.255a.08.08,0,0,0-.012.023,12.675,12.675,0,0,1-.75,2.11c-.1.221.1.449.262.547a.12.12,0,0,0,.035.016c0-.015.029-.124.042-.182s.026-.11.042-.157c.132-.379.26-.632.494-.724a.807.807,0,0,1,.677.117.506.506,0,0,0,.7-.216.845.845,0,0,1,.786-.416.865.865,0,0,1,.768.5.508.508,0,0,1,.014.28,1.984,1.984,0,0,1-.988,1.216.872.872,0,0,1-.8.064.961.961,0,0,0-1.26.353,2.875,2.875,0,0,0-.423,2.2,1.777,1.777,0,0,0,1.042,1.075.9.9,0,0,0,.849-.082.456.456,0,0,1,.463-.081.643.643,0,0,1,.323.537,1.652,1.652,0,0,0,.5,1.19A1.411,1.411,0,0,1,2494.117,2505.514Z" transform="translate(-2489.698 -2489.852)" fill="#54a520"/></g><g transform="translate(0 7.59)"><path d="M2283.442,2655.4a.518.518,0,0,1-.278-.119c-.022-.015-.043-.031-.064-.042a2.051,2.051,0,0,1-.853-1.243l-.076-.274c-.069-.246-.14-.5-.192-.751a2.487,2.487,0,0,0-.94-1.693,2.483,2.483,0,0,1-.649-2.3.751.751,0,0,1,.078-.168c.074-.13.081-.164.039-.21-.159-.179-.325-.35-.454-.3a1.448,1.448,0,0,1-1.4-.385,8.278,8.278,0,0,0-1.033-.716,2.148,2.148,0,0,1-.879-1.336c-.024-.07-.047-.139-.071-.206a1.367,1.367,0,0,0-1.166-.809c-.217.028-.323.25-.437.485-.03.063-.061.125-.092.182a.143.143,0,0,1-.112.064.126.126,0,0,1-.109-.07,1.322,1.322,0,0,1-.145-1.065,1.1,1.1,0,0,1,.683-.59c1.075-.467,2.172-.981,3.255-1.527l.028-.014c.173-.088.436-.222.653.045a.737.737,0,0,1,.079.721c-.078.253.042.321.318.452l.069.032c.208.1.449-.107.543-.2.056-.056.046-.115-.014-.273a1.073,1.073,0,0,1-.058-.187c-.005-.027-.012-.053-.02-.081a.415.415,0,0,1,.049-.413.291.291,0,0,1,.429.008l.035.026a.345.345,0,0,0,.414.024.46.46,0,0,1,.658.146.84.84,0,0,1,.045.773c-.167.462-.344.928-.521,1.39-.166.435-.331.867-.485,1.291a1.3,1.3,0,0,1-.844.669l-.111.046a.319.319,0,0,0-.187.187.558.558,0,0,0,.052.431c.044.086.067.1.071.1a1.129,1.129,0,0,1,1.108.295l.1.07a.742.742,0,0,0,.724.112,1,1,0,0,1,1.084.048l.036.021a1.228,1.228,0,0,0,.835.271.352.352,0,0,1,.357.106,2.195,2.195,0,0,1,.366,1.493c-.215.8-.525,1.732-.9,2.7a1.914,1.914,0,0,0-.053,1.323c.081.245.146.536.2.77a1.225,1.225,0,0,0,.038.124.5.5,0,0,1,.008.448.257.257,0,0,1-.167.115A.248.248,0,0,1,2283.442,2655.4Zm-3.34-7.361c.245,0,.456.239.592.392a.4.4,0,0,1-.009.5.581.581,0,0,0-.055.113,2.225,2.225,0,0,0,.547,2.025,2.706,2.706,0,0,1,1.048,1.851c.05.242.119.492.187.734q.039.139.076.276a1.8,1.8,0,0,0,.74,1.094c.025.015.052.033.079.052a.444.444,0,0,0,.135.075h0c.031-.048,0-.153-.033-.237-.017-.052-.034-.1-.045-.15-.051-.228-.114-.513-.192-.745a2.16,2.16,0,0,1,.057-1.491,28.066,28.066,0,0,0,.888-2.675,2,2,0,0,0-.3-1.25c-.06-.06-.1-.049-.114-.044a1.39,1.39,0,0,1-1.031-.3l-.035-.022a.756.756,0,0,0-.84-.04.951.951,0,0,1-.982-.128l-.1-.072c-.272-.2-.553-.4-.866-.269-.153.061-.284-.011-.389-.215a.807.807,0,0,1-.065-.63.566.566,0,0,1,.325-.332l.114-.046c.3-.119.6-.241.7-.523.154-.425.319-.858.486-1.294.176-.461.353-.926.519-1.387a.62.62,0,0,0-.018-.55.215.215,0,0,0-.328-.067.589.589,0,0,1-.679-.036l-.043-.032a.345.345,0,0,0-.086-.054c-.037.046-.029.092,0,.2.009.033.018.067.023.1a.861.861,0,0,0,.047.144.46.46,0,0,1-.042.538.729.729,0,0,1-.829.25l-.066-.031c-.251-.119-.594-.281-.45-.751a.505.505,0,0,0-.035-.491c-.079-.1-.144-.083-.346.02l-.029.014c-1.087.548-2.188,1.065-3.272,1.536a.867.867,0,0,0-.546.45.886.886,0,0,0,.034.622c.12-.244.277-.516.6-.557a1.621,1.621,0,0,1,1.432.972c.024.068.048.139.073.21a1.932,1.932,0,0,0,.762,1.2,8.477,8.477,0,0,1,1.066.737c.46.354.851.471,1.159.35A.379.379,0,0,1,2280.1,2648.041Z" transform="translate(-2274.547 -2642.202)" fill="#54a520"/></g><g transform="translate(22.218 8.999)"><path d="M2721.279,2673.028a.719.719,0,0,1-.572-.27,1.142,1.142,0,0,1-.118-1.153,1.589,1.589,0,0,1,1.419-1.122c.671.038,1.216.791,1.389,1.313,0,0,0,0,0,0l-.119.039.121-.033a.227.227,0,0,1,.015.061.624.624,0,0,0,.061.179.436.436,0,0,1-.031.537.9.9,0,0,1-.957.244.772.772,0,0,0-.778.087A.891.891,0,0,1,2721.279,2673.028Zm.672-2.3a1.384,1.384,0,0,0-1.128.961.938.938,0,0,0,.078.91.53.53,0,0,0,.69.094,1.023,1.023,0,0,1,1-.1.665.665,0,0,0,.685-.193c.056-.055.046-.1-.023-.258a.822.822,0,0,1-.081-.259l.112-.051-.118.04c-.175-.528-.671-1.115-1.167-1.142Z" transform="translate(-2720.49 -2670.48)" fill="#54a520"/></g><g transform="translate(6.343 3.328)"><path d="M2403.963,2561.161a.663.663,0,0,1-.4-.2l-.077-.065a1.159,1.159,0,0,1-.431-.559,1.469,1.469,0,0,0-.744-.866.705.705,0,0,1-.422-.8,1.293,1.293,0,0,1,.536-1.014c.189-.1.382-.2.574-.311l.23-.128.021-.014.041-.022c.126-.07.259-.142.377-.2.044-.023.093-.054.145-.086a1.029,1.029,0,0,1,.733-.231.485.485,0,0,1,.3.248,2.245,2.245,0,0,1,.218,1.985c-.071.2-.148.407-.227.616-.137.367-.28.747-.4,1.12-.1.311-.218.469-.381.515A.311.311,0,0,1,2403.963,2561.161Zm-.577-3.746-.02.014-.25.138c-.2.109-.392.218-.583.315-.275.14-.343.5-.4.822a.459.459,0,0,0,.294.552,1.71,1.71,0,0,1,.864,1.017.943.943,0,0,0,.352.437l.08.068c.118.1.208.146.264.131.04-.011.121-.072.211-.352.122-.378.265-.761.4-1.131.078-.208.155-.413.226-.612a1.986,1.986,0,0,0-.2-1.778.247.247,0,0,0-.147-.131c-.149-.039-.366.1-.541.2-.057.035-.112.068-.159.093-.117.062-.248.134-.374.2Z" transform="translate(-2401.868 -2556.649)" fill="#54a520"/></g><g transform="translate(4.574 6.359)"><path d="M2366.838,2618.582a.558.558,0,0,1-.219-.045.42.42,0,0,1-.264-.323.307.307,0,0,1,.2-.342l.037-.019c.082-.05.165-.094.249-.137.057-.03.115-.061.173-.093a.623.623,0,0,1,.559-.1.445.445,0,0,1,.238.339.333.333,0,0,1-.288.437.373.373,0,0,0-.093.034.111.111,0,0,1-.039.038A1.109,1.109,0,0,1,2366.838,2618.582Zm.58-.84a.607.607,0,0,0-.279.1c-.06.034-.119.065-.179.1-.08.042-.159.084-.238.13-.016.01-.033.019-.05.028-.078.04-.077.044-.072.081a.175.175,0,0,0,.114.133c.15.063.3,0,.529-.135a.412.412,0,0,1,.215-.112c.122-.034.135-.037.112-.143q-.03-.136-.1-.165A.135.135,0,0,0,2367.418,2617.742Zm-.09.524h0Z" transform="translate(-2366.351 -2617.492)" fill="#54a520"/></g><g transform="translate(20.256 8.333)"><path d="M2682.2,2658.117a1.673,1.673,0,0,1-1.058-.565.253.253,0,0,1-.031-.215.356.356,0,0,1,.216-.213.105.105,0,0,1,.038-.01,1.441,1.441,0,0,1,1.119.535.284.284,0,0,1,.034.278.341.341,0,0,1-.247.184A.4.4,0,0,1,2682.2,2658.117Zm-.794-.755c-.046.023-.058.046-.058.05a1.376,1.376,0,0,0,.88.455.1.1,0,0,0,.062-.038.066.066,0,0,0-.015-.043A1.2,1.2,0,0,0,2681.41,2657.361Z" transform="translate(-2681.103 -2657.112)" fill="#54a520"/></g><g transform="translate(16.761 12.906)"><path d="M2611.309,2750.4a.2.2,0,0,1-.075-.015c-.117-.047-.149-.177-.177-.292a.645.645,0,0,0-.041-.129.133.133,0,0,1-.012-.036c-.034-.178-.138-.721.249-.98a.252.252,0,0,1,.244-.041c.138.056.177.235.207.379l.015.068c.146.593-.051.864-.24.987A.311.311,0,0,1,2611.309,2750.4Zm-.064-.535a.849.849,0,0,1,.052.169c.008.032.02.078.031.108l.013-.009c.178-.115.223-.357.134-.719l-.016-.075a.947.947,0,0,0-.055-.192l-.013.009C2611.224,2749.263,2611.177,2749.495,2611.244,2749.862Z" transform="translate(-2610.964 -2748.888)" fill="#54a520"/></g><g transform="translate(21.995 3.205)"><path d="M2716.287,2555.585a.287.287,0,0,1-.208-.1.227.227,0,0,1-.044-.236c.015-.043.032-.092.049-.142a1.61,1.61,0,0,1,.507-.857.329.329,0,0,1,.27-.061.189.189,0,0,1,.118.133s0,.01,0,.014c.059.4-.291,1.152-.642,1.24A.206.206,0,0,1,2716.287,2555.585Zm-.013-.252a.12.12,0,0,1,.014,0,1.246,1.246,0,0,0,.45-.883l0,0a1.406,1.406,0,0,0-.414.733c-.017.05-.033.1-.05.145Z" transform="translate(-2716.018 -2554.18)" fill="#54a520"/></g><g transform="translate(22.192 7.952)"><path d="M2720.235,2650.5a.213.213,0,0,1-.09-.02.335.335,0,0,1-.155-.249.532.532,0,0,1,.485-.671.451.451,0,0,0,.079-.033.349.349,0,0,1,.3-.044.276.276,0,0,1,.143.192.527.527,0,0,1-.046.441.657.657,0,0,1-.458.294.063.063,0,0,1-.018,0l-.051.025A.411.411,0,0,1,2720.235,2650.5Zm.507-.8c0,.008-.049.033-.079.048a.664.664,0,0,1-.135.053c-.311.066-.325.221-.293.379a.306.306,0,0,0,.018.062c.017-.007.04-.019.054-.026a.367.367,0,0,1,.153-.054.411.411,0,0,0,.278-.176.281.281,0,0,0,.021-.242A.129.129,0,0,0,2720.742,2649.708Z" transform="translate(-2719.976 -2649.468)" fill="#54a520"/></g><g transform="translate(25.16 9.891)"><path d="M2780.094,2689.418a.367.367,0,0,1-.19-.053.682.682,0,0,1-.262-.433.651.651,0,0,0-.036-.091.4.4,0,0,1-.044-.324.239.239,0,0,1,.154-.126c.359-.11.468.2.526.371a1.124,1.124,0,0,0,.055.143.12.12,0,0,1,.013.068.447.447,0,0,0,.028.056.27.27,0,0,1,.043.243.252.252,0,0,1-.178.132A.436.436,0,0,1,2780.094,2689.418Zm-.239-.8a.235.235,0,0,0-.065.013,1.085,1.085,0,0,0,.045.112.789.789,0,0,1,.049.134.451.451,0,0,0,.149.277.128.128,0,0,0,.1.013l-.008-.015a.411.411,0,0,1-.061-.162c-.02-.045-.037-.095-.054-.145C2779.945,2688.667,2779.913,2688.616,2779.854,2688.616Zm.314.537Z" transform="translate(-2779.542 -2688.368)" fill="#54a520"/></g><g transform="translate(10.487 5.476)"><path d="M2485.383,2601.169a.192.192,0,0,1-.082-.018c-.129-.058-.157-.227-.181-.363l-.008-.045c-.007-.037-.016-.076-.025-.117-.058-.255-.138-.6.131-.808a.223.223,0,0,1,.219-.049c.113.043.138.17.159.282a.6.6,0,0,0,.028.109.08.08,0,0,1,.036.058l.01.037c.065.25.176.668-.154.872A.249.249,0,0,1,2485.383,2601.169Zm-.042-1.123c-.1.116-.063.3-.012.524.01.044.02.087.027.126l.009.05a1.192,1.192,0,0,0,.035.156c.139-.111.1-.33.029-.583l0-.007a.506.506,0,0,1-.075-.213C2485.35,2600.084,2485.346,2600.065,2485.342,2600.047Z" transform="translate(-2485.029 -2599.757)" fill="#54a520"/></g><g transform="translate(21.201 7.024)"><path d="M2700.425,2631.988a.222.222,0,0,1-.115-.031.4.4,0,0,1-.152-.29.629.629,0,0,0-.024-.1.535.535,0,0,1,.192-.7.24.24,0,0,1,.221-.013.326.326,0,0,1,.144.261.414.414,0,0,0,.02.083.217.217,0,0,1,.017.038l-.121.03.123-.02c.06.241.15.607-.208.725A.308.308,0,0,1,2700.425,2631.988Zm.009-.891a.31.31,0,0,0-.066.385.914.914,0,0,1,.035.136.456.456,0,0,0,.037.128c.117-.049.126-.128.051-.434a.561.561,0,0,1-.044-.151C2700.444,2631.143,2700.439,2631.117,2700.434,2631.1Z" transform="translate(-2700.084 -2630.833)" fill="#54a520"/></g><g transform="translate(10.1 6.294)"><path d="M2477.533,2616.97a.224.224,0,0,1-.1-.021.29.29,0,0,1-.147-.2.468.468,0,0,1,.14-.509.227.227,0,0,1,.216-.053.347.347,0,0,1,.193.255.044.044,0,0,1,0,.009c.072.3-.062.436-.185.492A.3.3,0,0,1,2477.533,2616.97Zm.043-.527a.239.239,0,0,0-.045.24.125.125,0,0,0,.019.045c.035-.028.089-.053.051-.219A.556.556,0,0,0,2477.576,2616.444Z" transform="translate(-2477.268 -2616.175)" fill="#54a520"/></g></g></g></g><g transform="translate(57.818 113.671)" opacity="0.5"><path d="M2367,2570.352a7.663,7.663,0,0,0-7.034-4.912h-.238a7.661,7.661,0,0,0-6.965,4.746,7.655,7.655,0,0,1,6.466-3.75h.238a7.657,7.657,0,0,1,7.543,7.662c0,.078,0,.155,0,.232a7.623,7.623,0,0,1-.572,2.682,7.616,7.616,0,0,0,1.071-3.679c0-.077,0-.154,0-.231A7.622,7.622,0,0,0,2367,2570.352Z" transform="translate(-2352.762 -2565.438)" fill="#fff"/></g><g transform="translate(54.065 110.497)"><g transform="translate(0 0)"><circle cx="7.662" cy="7.662" r="7.662" transform="translate(0 10.836) rotate(-45)" fill="none"/></g></g><g transform="translate(61.932 117.839)"><path d="M2435.346,2649.1" transform="translate(-2435.346 -2649.105)" fill="#32b1d1"/></g><g transform="translate(56.802 113.235)"><g transform="translate(0 0)"><path d="M2340.477,2572.885a8.1,8.1,0,1,1,3.379-.738,6.081,6.081,0,0,1-1.284.455l-.265.074-.021.006A8.164,8.164,0,0,1,2340.477,2572.885Zm1.713-.628h0Zm-1.713-14.7a7.227,7.227,0,1,0,1.606,14.274l.257-.071a5.323,5.323,0,0,0,1.137-.4,7.228,7.228,0,0,0-3-13.8Z" transform="translate(-2332.379 -2556.688)" fill="#371a45"/></g></g><g transform="translate(58.85 126.599)"><g transform="translate(1.277 2.248)"><path d="M2408.095,2870.051l-.426,1.133-.29.771-3.1,8.252a.768.768,0,0,1-1.354,0l-1.355-3.607-1.682-4.477-.35-.932-.429-1.141Z" transform="translate(-2399.107 -2870.051)" fill="#ff9b17"/></g><g transform="translate(1.277 2.248)"><g clip-path="url(#b)"><g transform="translate(-4.877 -2.148)"><g transform="translate(0.123 0.162)" opacity="0.3"><path d="M2318.74,2837.305l4.978-6.963a.107.107,0,0,0-.174-.124l-4.935,6.9-.849-1.187,4-5.592a.105.105,0,0,0-.025-.148.107.107,0,0,0-.149.024l-3.955,5.533-.849-1.187,3.018-4.222a.106.106,0,0,0-.173-.124l-2.976,4.162-.849-1.187,2.038-2.851a.106.106,0,0,0-.173-.124l-2,2.792-.848-1.187,1.058-1.48a.106.106,0,0,0-.173-.124l-1.016,1.421-.848-1.187.079-.11a.107.107,0,0,0-.174-.124l-.035.051-.036-.051a.106.106,0,0,0-.173.124l.078.11-.849,1.187-1.016-1.421a.107.107,0,0,0-.174.124l1.058,1.48-.848,1.188-2-2.792a.106.106,0,0,0-.173.124l2.038,2.851-.849,1.187-2.975-4.162a.107.107,0,0,0-.174.124l3.018,4.222-.849,1.187-3.955-5.533a.107.107,0,0,0-.174.124l4,5.592-.849,1.187-4.935-6.9a.107.107,0,0,0-.174.124l4.978,6.963-4.978,6.962a.107.107,0,0,0,.174.125l4.935-6.9.849,1.188-4,5.592a.107.107,0,0,0,.087.168.105.105,0,0,0,.087-.044l3.955-5.533.849,1.187-3.018,4.221a.106.106,0,0,0,.087.168.105.105,0,0,0,.087-.044l2.975-4.162.849,1.187-2.038,2.851a.106.106,0,0,0,.024.149.109.109,0,0,0,.062.02.105.105,0,0,0,.086-.044l2-2.791.848,1.187-1.058,1.48a.106.106,0,0,0,.087.168.105.105,0,0,0,.087-.044l1.016-1.421.849,1.188-.078.109a.106.106,0,0,0,.086.168.105.105,0,0,0,.087-.044l.036-.051.035.051a.107.107,0,0,0,.174-.125l-.079-.109.848-1.187,1.016,1.421a.107.107,0,1,0,.173-.125l-1.058-1.48.848-1.187,2,2.791a.105.105,0,0,0,.086.044.106.106,0,0,0,.087-.168l-2.038-2.851.849-1.187,2.976,4.162a.106.106,0,0,0,.087.044.109.109,0,0,0,.062-.02.106.106,0,0,0,.024-.149l-3.018-4.221.849-1.187,3.955,5.533a.107.107,0,0,0,.174-.125l-4-5.592.849-1.187,4.935,6.9a.105.105,0,0,0,.087.044.106.106,0,0,0,.087-.168Zm-1.242-1.371-.849,1.187-.849-1.187.849-1.187Zm-3.657,0,.848-1.187.849,1.187-.849,1.187Zm.718,1.371-.848,1.187-.849-1.187.849-1.187Zm-.848-1.554-.849-1.187.849-1.187.848,1.188Zm-.132.183-.849,1.187-.849-1.187.849-1.187Zm-.98,1.371-.848,1.187-.849-1.187.849-1.187Zm.131.183.849,1.188-.849,1.187-.849-1.187Zm.98,1.37.848,1.187-.848,1.188-.849-1.187Zm.131-.183.848-1.187.849,1.188-.849,1.187Zm.98-1.371.848-1.187.849,1.188-.849,1.187Zm1.7-2.741-.849,1.187-.848-1.187.848-1.187Zm-.98-1.371-.849,1.187-.848-1.187.848-1.187Zm-1.828-2.558.848,1.188-.848,1.188-.849-1.187Zm-.98,1.371.849,1.187-.849,1.187-.848-1.187Zm-.98,1.371.848,1.188-.848,1.187-.849-1.187Zm-.98,1.371.849,1.187-.849,1.187-.848-1.187Zm-1.828,2.558.848-1.187.849,1.188-.849,1.187Zm.98,1.371.848-1.187.849,1.188-.849,1.187Zm.98,1.37.849-1.187.848,1.187-.848,1.188Zm.98,1.371.848-1.187.849,1.187-.849,1.188Zm1.829,2.558-.849-1.187.849-1.187.848,1.187Zm.979-1.37-.848-1.187.848-1.187.849,1.187Zm.98-1.371-.848-1.187.848-1.187.849,1.187Zm.98-1.371-.849-1.187.849-1.187.849,1.188Zm.98-1.371-.849-1.187.849-1.187.849,1.188Z" transform="translate(-2303.681 -2830.174)" fill="#fff"/></g><path d="M2301.329,2841.192a.107.107,0,0,1-.087-.169l10.044-14.049a.107.107,0,1,1,.174.125l-10.043,14.049A.108.108,0,0,1,2301.329,2841.192Z" transform="translate(-2301.222 -2826.929)" fill="#371a45"/><g transform="translate(1.96)"><path d="M2340.662,2841.192a.11.11,0,0,1-.062-.02.107.107,0,0,1-.024-.149l10.044-14.049a.107.107,0,0,1,.149-.025.108.108,0,0,1,.024.149l-10.044,14.049A.106.106,0,0,1,2340.662,2841.192Z" transform="translate(-2340.555 -2826.929)" fill="#371a45"/></g><g transform="translate(3.919)"><path d="M2380,2841.192a.112.112,0,0,1-.062-.02.108.108,0,0,1-.024-.149l10.043-14.049a.107.107,0,1,1,.174.125l-10.044,14.049A.106.106,0,0,1,2380,2841.192Z" transform="translate(-2379.889 -2826.929)" fill="#371a45"/></g><g transform="translate(5.879)"><path d="M2419.329,2841.192a.106.106,0,0,1-.062-.02.108.108,0,0,1-.025-.149l10.044-14.049a.107.107,0,0,1,.149-.025.108.108,0,0,1,.025.149l-10.044,14.049A.106.106,0,0,1,2419.329,2841.192Z" transform="translate(-2419.222 -2826.929)" fill="#371a45"/></g><g transform="translate(7.839)"><path d="M2458.663,2841.192a.107.107,0,0,1-.086-.169l10.044-14.049a.107.107,0,1,1,.174.125l-10.044,14.049A.106.106,0,0,1,2458.663,2841.192Z" transform="translate(-2458.556 -2826.929)" fill="#371a45"/></g><g transform="translate(9.798)"><path d="M2498,2841.192a.109.109,0,0,1-.062-.02.107.107,0,0,1-.025-.149l10.044-14.049a.107.107,0,1,1,.173.125l-10.043,14.049A.107.107,0,0,1,2498,2841.192Z" transform="translate(-2497.889 -2826.929)" fill="#371a45"/></g><g transform="translate(9.798)"><path d="M2508.04,2841.192a.106.106,0,0,1-.087-.045l-10.044-14.049a.107.107,0,1,1,.174-.125l10.043,14.049a.107.107,0,0,1-.024.149A.109.109,0,0,1,2508.04,2841.192Z" transform="translate(-2497.889 -2826.929)" fill="#371a45"/></g><g transform="translate(7.839 0)"><path d="M2468.707,2841.192a.108.108,0,0,1-.087-.045l-10.044-14.049a.107.107,0,1,1,.173-.124l10.044,14.05a.106.106,0,0,1-.086.168Z" transform="translate(-2458.556 -2826.929)" fill="#371a45"/></g><g transform="translate(5.879 0)"><path d="M2429.373,2841.192a.107.107,0,0,1-.087-.045l-10.044-14.049a.107.107,0,0,1,.174-.124l10.044,14.05a.107.107,0,0,1-.025.149A.105.105,0,0,1,2429.373,2841.192Z" transform="translate(-2419.222 -2826.929)" fill="#371a45"/></g><g transform="translate(3.919 0)"><path d="M2390.04,2841.192a.107.107,0,0,1-.087-.045l-10.043-14.049a.107.107,0,1,1,.173-.124l10.044,14.05a.107.107,0,0,1-.025.149A.109.109,0,0,1,2390.04,2841.192Z" transform="translate(-2379.889 -2826.929)" fill="#371a45"/></g><g transform="translate(1.96 0)"><path d="M2350.706,2841.192a.106.106,0,0,1-.086-.045l-10.044-14.049a.107.107,0,1,1,.173-.124l10.044,14.05a.107.107,0,0,1-.024.149A.111.111,0,0,1,2350.706,2841.192Z" transform="translate(-2340.555 -2826.929)" fill="#371a45"/></g><g transform="translate(0 0)"><path d="M2311.373,2841.192a.107.107,0,0,1-.087-.045l-10.044-14.049a.107.107,0,1,1,.174-.124l10.043,14.05a.106.106,0,0,1-.086.168Z" transform="translate(-2301.222 -2826.929)" fill="#371a45"/></g></g></g></g><g transform="translate(3.737 4.153)" opacity="0.2"><path d="M2454.31,2908.274l-3.1,8.252a.768.768,0,0,1-1.354,0l-1.355-3.607C2450.474,2913.988,2452.863,2910.727,2454.31,2908.274Z" transform="translate(-2448.5 -2908.274)" fill="#371a45"/></g><g transform="translate(0.841 1.813)"><path d="M2395.288,2872.961a1.061,1.061,0,0,1-1-.7l-3.9-10.374a.435.435,0,0,1,.408-.589h8.987a.435.435,0,0,1,.408.589l-3.9,10.374h0A1.063,1.063,0,0,1,2395.288,2872.961Zm-3.864-10.787,3.677,9.785a.2.2,0,0,0,.375,0h0l3.677-9.785Z" transform="translate(-2390.358 -2861.303)" fill="#371a45"/></g><g transform="translate(1.277 2.248)" opacity="0.2"><path d="M2408.095,2870.051l-.426,1.133c-.83.075-2.326.183-4.112.183-1.723,0-3.175-.1-4.021-.174l-.429-1.141Z" transform="translate(-2399.107 -2870.051)" fill="#371a45"/></g><g transform="translate(0.436 0.436)"><path d="M2392.8,2834.47l-.339,1.213a.631.631,0,0,1-.546.459c-.743.073-2.381.207-4.382.207s-3.639-.135-4.383-.207a.631.631,0,0,1-.545-.459l-.151-.541-.188-.672a.632.632,0,0,1,.608-.8h9.317a.632.632,0,0,1,.608.8Z" transform="translate(-2382.242 -2833.668)" fill="#ff9b17"/></g><g transform="translate(0.436 0.436)" opacity="0.3"><path d="M2392.8,2834.471l-.009.028a.626.626,0,0,0-.6-.436h-9.316a.631.631,0,0,0-.6.436l-.008-.028a.631.631,0,0,1,.609-.8h9.316a.631.631,0,0,1,.609.8Z" transform="translate(-2382.239 -2833.67)" fill="#fff"/></g><g transform="translate(0 0)"><path d="M2379.212,2828.474c-2,0-3.629-.132-4.425-.21a1.061,1.061,0,0,1-.923-.775l-.338-1.214a1.067,1.067,0,0,1,1.028-1.354h9.316a1.067,1.067,0,0,1,1.028,1.353h0l-.339,1.214a1.059,1.059,0,0,1-.923.776C2382.843,2828.342,2381.211,2828.474,2379.212,2828.474Zm-4.658-2.682a.2.2,0,0,0-.189.248l.338,1.214a.194.194,0,0,0,.169.142c.779.077,2.379.206,4.339.206s3.561-.129,4.339-.206a.194.194,0,0,0,.169-.142l.338-1.213a.2.2,0,0,0-.033-.171.192.192,0,0,0-.156-.077Zm9.925.365h0Z" transform="translate(-2373.486 -2824.92)" fill="#371a45"/></g><g transform="translate(1.807 1.218)" opacity="0.3"><path d="M2412.942,2849.615c0,.132-.715.239-1.6.239s-1.6,0-1.6-.239.715-.239,1.6-.239S2412.942,2849.483,2412.942,2849.615Z" transform="translate(-2409.748 -2849.376)" fill="#fff"/></g><g transform="translate(5.194 1.218)" opacity="0.3"><path d="M2478.931,2849.615c0,.132-.27.239-.6.239s-.6,0-.6-.239.27-.239.6-.239S2478.931,2849.483,2478.931,2849.615Z" transform="translate(-2477.728 -2849.376)" fill="#fff"/></g></g><g transform="translate(67.541 126.417)"><g transform="translate(0 0)"><path d="M2549.649,2821.271s-.329.208-.317.936c.008.486-.148,1.608-.893,1.307-.7-.282.076-1.319-.522-2.221" transform="translate(-2547.916 -2821.271)" fill="#00bdff"/></g></g><g transform="translate(67.292 126.168)"><path d="M2543.922,2819.066a.884.884,0,0,1-.328-.068c-.528-.213-.489-.713-.454-1.154a1.721,1.721,0,0,0-.183-1.161.249.249,0,1,1,.415-.275,2.172,2.172,0,0,1,.265,1.476c-.036.46-.023.585.143.652.137.056.2.029.247,0a1.52,1.52,0,0,0,.3-1.072,1.265,1.265,0,0,1,.434-1.151.249.249,0,0,1,.273.417c-.014.011-.217.187-.208.726,0,.115,0,1.132-.52,1.491A.674.674,0,0,1,2543.922,2819.066Z" transform="translate(-2542.916 -2816.275)" fill="#371a45"/></g><g transform="translate(63.173 126.346)"><path d="M2463.923,2819.851a2.146,2.146,0,0,0-.291,1.2c.107.512-.244,1.064-.8.892s-.459-1.01-.677-1.034c-.236-.025-.345.254-.354,1.426-.01,1.331-1.714,1.184-1.55-.077.142-1.089.532-1.492.224-2.284" transform="translate(-2460.24 -2819.851)" fill="#00bdff"/></g><g transform="translate(62.924 126.097)"><path d="M2456.269,2818.77a1.013,1.013,0,0,1-.582-.182,1.122,1.122,0,0,1-.429-1.11,7.022,7.022,0,0,1,.206-.971,1.651,1.651,0,0,0,.032-1.192.249.249,0,1,1,.464-.18,2.142,2.142,0,0,1-.014,1.5,6.351,6.351,0,0,0-.194.905.636.636,0,0,0,.22.639.512.512,0,0,0,.524.038.668.668,0,0,0,.309-.633c.008-.986.08-1.382.288-1.567a.428.428,0,0,1,.342-.105c.253.027.321.275.382.5.076.274.15.489.342.549a.327.327,0,0,0,.337-.061.584.584,0,0,0,.145-.542,2.318,2.318,0,0,1,.319-1.376.249.249,0,0,1,.432.248,1.853,1.853,0,0,0-.264,1.025,1.083,1.083,0,0,1-.3,1.013.827.827,0,0,1-.82.168,1.063,1.063,0,0,1-.652-.815,6.952,6.952,0,0,0-.056.971,1.154,1.154,0,0,1-.58,1.073A1,1,0,0,1,2456.269,2818.77Z" transform="translate(-2455.245 -2814.854)" fill="#371a45"/></g><g transform="translate(68.228 127.331)" opacity="0.7"><g transform="translate(0 0)"><path d="M2561.919,2839.811c.059.23.029.643-.126.724s-.073-.328-.093-.51S2561.8,2839.337,2561.919,2839.811Z" transform="translate(-2561.696 -2839.614)" fill="#fff"/></g></g><g transform="translate(63.863 128.049)" opacity="0.7"><path d="M2474.429,2854.3c.058.308-.017.851-.228.944s-.067-.439-.078-.681S2474.31,2853.67,2474.429,2854.3Z" transform="translate(-2474.085 -2854.036)" fill="#fff"/></g><g transform="translate(59.358 132.985)"><g transform="translate(0 0)"><path d="M2383.684,2955.577c-.058,1.417,1.465,4.408,2.779,3.953.969-.335,1.688-5.162.175-6.2C2385.809,2952.769,2383.786,2953.084,2383.684,2955.577Z" transform="translate(-2383.682 -2953.094)" fill="#fff"/></g></g><g transform="translate(59.358 134.426)" opacity="0.35"><path d="M2386.465,2987.019c-1.315.454-2.838-2.536-2.779-3.954a3.546,3.546,0,0,1,.185-1.041c.44,1.446,1.578,3.148,2.594,2.8.431-.15.813-1.184.972-2.381C2387.723,2984.243,2387.158,2986.779,2386.465,2987.019Z" transform="translate(-2383.684 -2982.024)" fill="#371a45"/></g><g transform="translate(58.645 132.271)"><g transform="translate(0 0)"><path d="M2372.583,2946.689a1.922,1.922,0,0,1-1.156-.425,6.219,6.219,0,0,1-2.055-4.318,3.109,3.109,0,0,1,1.613-2.885,2.492,2.492,0,0,1,2.456.083c1.447.987,1.206,3.7,1.1,4.511-.128.959-.486,2.616-1.442,2.947A1.564,1.564,0,0,1,2372.583,2946.689Zm-.027-1.4Zm-.385-5.085a1.22,1.22,0,0,0-.546.129,1.8,1.8,0,0,0-.828,1.668h0a4.914,4.914,0,0,0,1.481,3.115.65.65,0,0,0,.308.142h0a6.238,6.238,0,0,0,.6-3.285c-.06-.983-.323-1.5-.549-1.654A.874.874,0,0,0,2372.17,2940.207Zm-2.086,1.768h0Z" transform="translate(-2369.369 -2938.779)" fill="#371a45"/></g></g><g transform="translate(63.126 132.309)"><path d="M2466.442,2939.669s-5.216-.94-6.664,2.228c-.737,1.611-.822,7.492,1.1,8.457a3.163,3.163,0,0,0,3.7-1.074C2465.708,2947.881,2468.661,2941.005,2466.442,2939.669Z" transform="translate(-2459.293 -2939.539)" fill="#fff"/></g><g transform="translate(63.126 134.406)" opacity="0.35"><path d="M2467.081,2983.176a18,18,0,0,1-2.5,6.1,3.163,3.163,0,0,1-3.7,1.073c-1.922-.965-1.835-6.846-1.1-8.456a2.646,2.646,0,0,1,.135-.262c-.217,2.122.063,4.7,1.748,5.531a3.664,3.664,0,0,0,3.906-.8A15.312,15.312,0,0,0,2467.081,2983.176Z" transform="translate(-2459.297 -2981.63)" fill="#371a45"/></g><g transform="translate(62.411 131.594)"><g transform="translate(0 0)"><path d="M2448.321,2937.664a3.094,3.094,0,0,1-1.4-.319c-2.506-1.26-2.195-7.715-1.429-9.391,1.66-3.631,7.2-2.677,7.44-2.635a.717.717,0,0,1,.242.091,2.4,2.4,0,0,1,1.082,1.741c.48,2.721-1.734,7.659-2.761,8.929A4.18,4.18,0,0,1,2448.321,2937.664Zm2.769-11.06c-1.476,0-3.55.312-4.3,1.941-.673,1.474-.632,6.819.772,7.523a2.464,2.464,0,0,0,2.824-.885c.887-1.1,2.846-5.623,2.465-7.785a1.2,1.2,0,0,0-.321-.7A10.927,10.927,0,0,0,2451.089,2926.6Z" transform="translate(-2444.946 -2925.174)" fill="#371a45"/></g></g><g transform="translate(45.732 146.159)"><path d="M2110.683,3222.1a.5.5,0,0,1-.236-.937c.389-.208,9.6-5.079,14.372-3.21a4.146,4.146,0,0,1,2.5,2.607.5.5,0,1,1-.941.326,3.148,3.148,0,0,0-1.925-2.005c-4.353-1.7-13.447,3.112-13.538,3.161A.5.5,0,0,1,2110.683,3222.1Z" transform="translate(-2110.184 -3217.525)" fill="#371a45"/></g><g transform="translate(23.526 141.233)"><path d="M1680.664,3127.623a.5.5,0,0,1-.391-.188c-.057-.073-5.784-7.249-11.046-7.759a5.076,5.076,0,0,0-3.927,1.233.5.5,0,1,1-.649-.757,6.035,6.035,0,0,1,4.673-1.469c5.684.552,11.486,7.823,11.73,8.132a.5.5,0,0,1-.082.7A.492.492,0,0,1,1680.664,3127.623Z" transform="translate(-1664.477 -3118.651)" fill="#371a45"/></g><g transform="translate(38.507 143.314)"><g transform="translate(0 0)"><path d="M1965.3,3160.451a12.259,12.259,0,0,0,1.249,1.616c.22.245.462.459.692.673s.477.4.7.621l.035.034a.5.5,0,0,1-.57.807,3.214,3.214,0,0,1-.926-.689,4.342,4.342,0,0,1-.666-.921,5.577,5.577,0,0,1-.444-1.02,4.5,4.5,0,0,1-.211-1.08.074.074,0,0,1,.069-.077.073.073,0,0,1,.065.033Z" transform="translate(-1965.164 -3160.414)" fill="#371a45"/></g></g><g transform="translate(45.327 145.304)"><path d="M2105.444,3200.465a2.725,2.725,0,0,1-.45.837,4.222,4.222,0,0,1-.667.685,3.921,3.921,0,0,1-.807.516,2.992,2.992,0,0,1-.911.27.5.5,0,0,1-.3-.941l.039-.021a2.9,2.9,0,0,1,.375-.162c.122-.055.253-.09.375-.143.252-.091.5-.181.758-.283a7.016,7.016,0,0,0,1.466-.832l.007-.005a.074.074,0,0,1,.115.08Z" transform="translate(-2102.048 -3200.37)" fill="#371a45"/></g><g transform="translate(13.025 150.962)"><path d="M1454.214,3316.55a.5.5,0,0,1-.083-.989c.284-.049.615-.092,1-.143a15.965,15.965,0,0,0,5.42-1.423.5.5,0,1,1,.483.872,16.751,16.751,0,0,1-5.772,1.539c-.374.05-.7.092-.964.138A.561.561,0,0,1,1454.214,3316.55Z" transform="translate(-1453.715 -3313.933)" fill="#371a45"/></g><g transform="translate(14.277 153.819)"><path d="M1479.339,3374.657a.5.5,0,0,1-.069-.991c1.7-.24,6.412-1.116,7.8-2.279a.5.5,0,1,1,.639.764c-1.893,1.583-8.042,2.464-8.3,2.5A.434.434,0,0,1,1479.339,3374.657Z" transform="translate(-1478.841 -3371.271)" fill="#371a45"/></g><g transform="translate(17.267 157.501)"><path d="M1539.354,3448.482a.5.5,0,0,1-.07-.992c.058-.008,5.859-.863,7.8-2.229a.5.5,0,0,1,.573.815c-2.138,1.5-7.986,2.365-8.233,2.4A.565.565,0,0,1,1539.354,3448.482Z" transform="translate(-1538.857 -3445.171)" fill="#371a45"/></g><g transform="translate(21.524 160.669)"><path d="M1624.791,3511.8a.5.5,0,0,1-.03-1c.044,0,4.4-.291,6.435-1.927a.5.5,0,1,1,.624.776c-2.284,1.836-6.807,2.134-7,2.146Z" transform="translate(-1624.292 -3508.764)" fill="#371a45"/></g><g transform="translate(64.41 158.082)"><path d="M2490.933,3460.677a7.52,7.52,0,0,1-5.765-3.071.5.5,0,1,1,.823-.562,6.547,6.547,0,0,0,4.941,2.637.5.5,0,1,1,0,1Z" transform="translate(-2485.082 -3456.826)" fill="#371a45"/></g><g transform="translate(61.094 159.816)"><path d="M2425.656,3496.7c-.02,0-.04,0-.06,0a10.828,10.828,0,0,1-6.979-4.28.5.5,0,0,1,.811-.58,9.989,9.989,0,0,0,6.287,3.869.5.5,0,0,1-.059.993Z" transform="translate(-2418.524 -3491.629)" fill="#371a45"/></g><g transform="translate(56.731 161.259)"><path d="M2338.09,3526.791a.5.5,0,0,1-.152-.024,14.632,14.632,0,0,1-6.895-5.394.5.5,0,0,1,.82-.566,13.883,13.883,0,0,0,6.379,5.012.5.5,0,0,1-.153.972Z" transform="translate(-2330.955 -3520.592)" fill="#371a45"/></g><g transform="translate(53.452 162.058)"><path d="M2270.49,3543.238a.491.491,0,0,1-.217-.05c-.193-.093-4.742-2.332-5.131-6.009a.5.5,0,1,1,.991-.1c.33,3.123,4.531,5.2,4.574,5.217a.5.5,0,0,1-.218.946Z" transform="translate(-2265.139 -3536.629)" fill="#371a45"/></g><g transform="translate(58.292 153.063)"><path d="M2366.517,3357.072c-.339.148-.722.29-1.083.433s-.731.288-1.087.457a8.326,8.326,0,0,0-1.025.583,5.517,5.517,0,0,0-.907.8l0,0a.072.072,0,0,1-.122-.07,3.612,3.612,0,0,1,.625-1.16,5.815,5.815,0,0,1,.963-.916,6.368,6.368,0,0,1,1.129-.683,4.818,4.818,0,0,1,1.262-.406.5.5,0,0,1,.28.952Z" transform="translate(-2362.286 -3356.101)" fill="#371a45"/></g><g transform="translate(22.235 147.517)"><path d="M1639.231,3244.814a5.253,5.253,0,0,1,1.163.622,7.522,7.522,0,0,1,1,.842,7.4,7.4,0,0,1,.846,1.009,4.55,4.55,0,0,1,.57,1.181.073.073,0,0,1-.124.069l0,0a8.616,8.616,0,0,0-.887-.852c-.315-.254-.64-.488-.973-.711s-.683-.421-1.024-.63-.693-.415-1.007-.631l-.023-.016a.5.5,0,0,1,.455-.882Z" transform="translate(-1638.559 -3244.784)" fill="#371a45"/></g></svg>