<?xml version="1.0" encoding="UTF-8"?>
<svg width="35px" fill="#f23e6e" data-name="Layer 1" viewBox="0 0 200 200" xmlns="http://www.w3.org/2000/svg">
<path d="M114.17,56.87A14.17,14.17,0,1,1,100,42.7,14.18,14.18,0,0,1,114.17,56.87Zm-24.74,0A10.57,10.57,0,1,0,100,46.3,10.58,10.58,0,0,0,89.43,56.87Z"/>
<path d="M114.17,100A14.17,14.17,0,1,1,100,85.83,14.19,14.19,0,0,1,114.17,100Zm-24.74,0A10.57,10.57,0,1,0,100,89.43,10.58,10.58,0,0,0,89.43,100Z"/>
<path d="M114.17,143.13A14.17,14.17,0,1,1,100,129,14.19,14.19,0,0,1,114.17,143.13Zm-24.74,0A10.57,10.57,0,1,0,100,132.57,10.58,10.58,0,0,0,89.43,143.13Z"/>
</svg>
