<svg xmlns="http://www.w3.org/2000/svg" width="160" height="160" viewBox="0 0 160 160">
  <g id="Group_431" data-name="Group 431" transform="translate(-59 -415)">
    <g id="Group_430" data-name="Group 430" transform="translate(4 259)">
      <g id="Rectangle_94" data-name="Rectangle 94" transform="translate(55 156)" fill="#707070" stroke="#707070" stroke-width="1">
        <rect width="160" height="160" stroke="none"/>
        <rect x="0.5" y="0.5" width="159" height="159" fill="none"/>
      </g>
    </g>
    <g id="video" transform="translate(101 452)">
      <path id="Path_387" data-name="Path 387" d="M74.006,34.715H16.7L71.742,18.77a1.68,1.68,0,0,0,1.146-2.081l-2.88-9.944A9.4,9.4,0,0,0,61.015,0a9.306,9.306,0,0,0-2.587.368L6.748,15.339A9.37,9.37,0,0,0,.371,26.919l2.814,9.715V76.653A9.358,9.358,0,0,0,12.532,86H32.716a1.68,1.68,0,1,0,0-3.359H12.533a6,6,0,0,1-5.988-5.989V53.794H72.326V76.653a6,6,0,0,1-5.989,5.989H46.153a1.68,1.68,0,1,0,0,3.359H66.337a9.358,9.358,0,0,0,9.348-9.348V36.4a1.68,1.68,0,0,0-1.68-1.68ZM44.387,50.435l7.137-12.36h9.282L53.67,50.435Zm-13.162,0,7.137-12.36h9.282l-7.136,12.36Zm-13.161,0L25.2,38.075h9.283l-7.137,12.36ZM24.309,28.69,12.358,17.212l8.954-2.594a1.666,1.666,0,0,0,.22.259L33.484,26.356l-8.954,2.594a1.672,1.672,0,0,0-.22-.259ZM46.817,7.553,58.768,19.031l-8.954,2.594a1.636,1.636,0,0,0-.22-.259L37.642,9.887,46.6,7.294A1.666,1.666,0,0,0,46.817,7.553ZM34.174,11.215,46.125,22.693l-8.954,2.594a1.636,1.636,0,0,0-.22-.259L25,13.55l8.954-2.594A1.774,1.774,0,0,0,34.174,11.215ZM59.363,3.6a5.939,5.939,0,0,1,1.652-.236,6.027,6.027,0,0,1,5.766,4.321l2.413,8.33-6.739,1.952a1.707,1.707,0,0,0-.221-.259L50.284,6.226ZM4.112,21.433a5.944,5.944,0,0,1,3.571-2.867l.987-.286a1.708,1.708,0,0,0,.22.259L20.841,30.017l-14.831,4.3L3.6,25.984a5.946,5.946,0,0,1,.514-4.551ZM6.544,38.075H21.321l-7.136,12.36H6.544Zm51,12.36,7.136-12.36h7.641v12.36Zm0,0" transform="translate(0)" fill="#fff" fill-rule="evenodd"/>
      <path id="Path_388" data-name="Path 388" d="M214.183,354.591a1.679,1.679,0,0,0-.84-1.455l-14.757-8.52a1.68,1.68,0,0,0-2.52,1.455v17.04a1.679,1.679,0,0,0,2.52,1.454l14.757-8.519a1.679,1.679,0,0,0,.84-1.455ZM199.426,360.2V348.98l9.718,5.611Zm0,0" transform="translate(-163.133 -286.544)" fill="#fff" fill-rule="evenodd"/>
      <path id="Path_389" data-name="Path 389" d="M226.453,492a1.68,1.68,0,1,0,1.68,1.68A1.683,1.683,0,0,0,226.453,492Zm0,0" transform="translate(-187.018 -409.359)" fill="#fff" fill-rule="evenodd"/>
    </g>
  </g>
</svg>
